G04 #@! TF.GenerationSoftware,KiCad,Pcbnew,(6.0.6)*
G04 #@! TF.CreationDate,2022-06-25T19:15:55+02:00*
G04 #@! TF.ProjectId,brutzelkarte,62727574-7a65-46c6-9b61-7274652e6b69,rev?*
G04 #@! TF.SameCoordinates,Original*
G04 #@! TF.FileFunction,Legend,Top*
G04 #@! TF.FilePolarity,Positive*
%FSLAX46Y46*%
G04 Gerber Fmt 4.6, Leading zero omitted, Abs format (unit mm)*
G04 Created by KiCad (PCBNEW (6.0.6)) date 2022-06-25 19:15:55*
%MOMM*%
%LPD*%
G01*
G04 APERTURE LIST*
%ADD10C,0.300000*%
%ADD11C,0.120000*%
%ADD12C,0.010000*%
G04 APERTURE END LIST*
D10*
X115071428Y-120178571D02*
X115071428Y-121178571D01*
X114714285Y-119607142D02*
X114357142Y-120678571D01*
X115285714Y-120678571D01*
X116571428Y-119678571D02*
X115857142Y-119678571D01*
X115785714Y-120392857D01*
X115857142Y-120321428D01*
X116000000Y-120250000D01*
X116357142Y-120250000D01*
X116500000Y-120321428D01*
X116571428Y-120392857D01*
X116642857Y-120535714D01*
X116642857Y-120892857D01*
X116571428Y-121035714D01*
X116500000Y-121107142D01*
X116357142Y-121178571D01*
X116000000Y-121178571D01*
X115857142Y-121107142D01*
X115785714Y-121035714D01*
X127571428Y-120178571D02*
X127571428Y-121178571D01*
X127214285Y-119607142D02*
X126857142Y-120678571D01*
X127785714Y-120678571D01*
X128642857Y-119678571D02*
X128785714Y-119678571D01*
X128928571Y-119750000D01*
X129000000Y-119821428D01*
X129071428Y-119964285D01*
X129142857Y-120250000D01*
X129142857Y-120607142D01*
X129071428Y-120892857D01*
X129000000Y-121035714D01*
X128928571Y-121107142D01*
X128785714Y-121178571D01*
X128642857Y-121178571D01*
X128500000Y-121107142D01*
X128428571Y-121035714D01*
X128357142Y-120892857D01*
X128285714Y-120607142D01*
X128285714Y-120250000D01*
X128357142Y-119964285D01*
X128428571Y-119821428D01*
X128500000Y-119750000D01*
X128642857Y-119678571D01*
X139285714Y-119678571D02*
X140214285Y-119678571D01*
X139714285Y-120250000D01*
X139928571Y-120250000D01*
X140071428Y-120321428D01*
X140142857Y-120392857D01*
X140214285Y-120535714D01*
X140214285Y-120892857D01*
X140142857Y-121035714D01*
X140071428Y-121107142D01*
X139928571Y-121178571D01*
X139500000Y-121178571D01*
X139357142Y-121107142D01*
X139285714Y-121035714D01*
X141571428Y-119678571D02*
X140857142Y-119678571D01*
X140785714Y-120392857D01*
X140857142Y-120321428D01*
X141000000Y-120250000D01*
X141357142Y-120250000D01*
X141500000Y-120321428D01*
X141571428Y-120392857D01*
X141642857Y-120535714D01*
X141642857Y-120892857D01*
X141571428Y-121035714D01*
X141500000Y-121107142D01*
X141357142Y-121178571D01*
X141000000Y-121178571D01*
X140857142Y-121107142D01*
X140785714Y-121035714D01*
X151785714Y-119678571D02*
X152714285Y-119678571D01*
X152214285Y-120250000D01*
X152428571Y-120250000D01*
X152571428Y-120321428D01*
X152642857Y-120392857D01*
X152714285Y-120535714D01*
X152714285Y-120892857D01*
X152642857Y-121035714D01*
X152571428Y-121107142D01*
X152428571Y-121178571D01*
X152000000Y-121178571D01*
X151857142Y-121107142D01*
X151785714Y-121035714D01*
X153642857Y-119678571D02*
X153785714Y-119678571D01*
X153928571Y-119750000D01*
X154000000Y-119821428D01*
X154071428Y-119964285D01*
X154142857Y-120250000D01*
X154142857Y-120607142D01*
X154071428Y-120892857D01*
X154000000Y-121035714D01*
X153928571Y-121107142D01*
X153785714Y-121178571D01*
X153642857Y-121178571D01*
X153500000Y-121107142D01*
X153428571Y-121035714D01*
X153357142Y-120892857D01*
X153285714Y-120607142D01*
X153285714Y-120250000D01*
X153357142Y-119964285D01*
X153428571Y-119821428D01*
X153500000Y-119750000D01*
X153642857Y-119678571D01*
X161357142Y-119821428D02*
X161428571Y-119750000D01*
X161571428Y-119678571D01*
X161928571Y-119678571D01*
X162071428Y-119750000D01*
X162142857Y-119821428D01*
X162214285Y-119964285D01*
X162214285Y-120107142D01*
X162142857Y-120321428D01*
X161285714Y-121178571D01*
X162214285Y-121178571D01*
X163500000Y-119678571D02*
X163214285Y-119678571D01*
X163071428Y-119750000D01*
X163000000Y-119821428D01*
X162857142Y-120035714D01*
X162785714Y-120321428D01*
X162785714Y-120892857D01*
X162857142Y-121035714D01*
X162928571Y-121107142D01*
X163071428Y-121178571D01*
X163357142Y-121178571D01*
X163500000Y-121107142D01*
X163571428Y-121035714D01*
X163642857Y-120892857D01*
X163642857Y-120535714D01*
X163571428Y-120392857D01*
X163500000Y-120321428D01*
X163357142Y-120250000D01*
X163071428Y-120250000D01*
X162928571Y-120321428D01*
X162857142Y-120392857D01*
X162785714Y-120535714D01*
X98642857Y-87178571D02*
X97928571Y-87178571D01*
X97857142Y-87892857D01*
X97928571Y-87821428D01*
X98071428Y-87750000D01*
X98428571Y-87750000D01*
X98571428Y-87821428D01*
X98642857Y-87892857D01*
X98714285Y-88035714D01*
X98714285Y-88392857D01*
X98642857Y-88535714D01*
X98571428Y-88607142D01*
X98428571Y-88678571D01*
X98071428Y-88678571D01*
X97928571Y-88607142D01*
X97857142Y-88535714D01*
X99642857Y-87178571D02*
X99785714Y-87178571D01*
X99928571Y-87250000D01*
X100000000Y-87321428D01*
X100071428Y-87464285D01*
X100142857Y-87750000D01*
X100142857Y-88107142D01*
X100071428Y-88392857D01*
X100000000Y-88535714D01*
X99928571Y-88607142D01*
X99785714Y-88678571D01*
X99642857Y-88678571D01*
X99500000Y-88607142D01*
X99428571Y-88535714D01*
X99357142Y-88392857D01*
X99285714Y-88107142D01*
X99285714Y-87750000D01*
X99357142Y-87464285D01*
X99428571Y-87321428D01*
X99500000Y-87250000D01*
X99642857Y-87178571D01*
X97857142Y-89821428D02*
X97928571Y-89750000D01*
X98071428Y-89678571D01*
X98428571Y-89678571D01*
X98571428Y-89750000D01*
X98642857Y-89821428D01*
X98714285Y-89964285D01*
X98714285Y-90107142D01*
X98642857Y-90321428D01*
X97785714Y-91178571D01*
X98714285Y-91178571D01*
X100071428Y-89678571D02*
X99357142Y-89678571D01*
X99285714Y-90392857D01*
X99357142Y-90321428D01*
X99500000Y-90250000D01*
X99857142Y-90250000D01*
X100000000Y-90321428D01*
X100071428Y-90392857D01*
X100142857Y-90535714D01*
X100142857Y-90892857D01*
X100071428Y-91035714D01*
X100000000Y-91107142D01*
X99857142Y-91178571D01*
X99500000Y-91178571D01*
X99357142Y-91107142D01*
X99285714Y-91035714D01*
X165857142Y-87321428D02*
X165928571Y-87250000D01*
X166071428Y-87178571D01*
X166428571Y-87178571D01*
X166571428Y-87250000D01*
X166642857Y-87321428D01*
X166714285Y-87464285D01*
X166714285Y-87607142D01*
X166642857Y-87821428D01*
X165785714Y-88678571D01*
X166714285Y-88678571D01*
X168000000Y-87178571D02*
X167714285Y-87178571D01*
X167571428Y-87250000D01*
X167500000Y-87321428D01*
X167357142Y-87535714D01*
X167285714Y-87821428D01*
X167285714Y-88392857D01*
X167357142Y-88535714D01*
X167428571Y-88607142D01*
X167571428Y-88678571D01*
X167857142Y-88678571D01*
X168000000Y-88607142D01*
X168071428Y-88535714D01*
X168142857Y-88392857D01*
X168142857Y-88035714D01*
X168071428Y-87892857D01*
X168000000Y-87821428D01*
X167857142Y-87750000D01*
X167571428Y-87750000D01*
X167428571Y-87821428D01*
X167357142Y-87892857D01*
X167285714Y-88035714D01*
X167428571Y-91178571D02*
X166571428Y-91178571D01*
X167000000Y-91178571D02*
X167000000Y-89678571D01*
X166857142Y-89892857D01*
X166714285Y-90035714D01*
X166571428Y-90107142D01*
X162357142Y-74821428D02*
X162428571Y-74750000D01*
X162571428Y-74678571D01*
X162928571Y-74678571D01*
X163071428Y-74750000D01*
X163142857Y-74821428D01*
X163214285Y-74964285D01*
X163214285Y-75107142D01*
X163142857Y-75321428D01*
X162285714Y-76178571D01*
X163214285Y-76178571D01*
X164500000Y-74678571D02*
X164214285Y-74678571D01*
X164071428Y-74750000D01*
X164000000Y-74821428D01*
X163857142Y-75035714D01*
X163785714Y-75321428D01*
X163785714Y-75892857D01*
X163857142Y-76035714D01*
X163928571Y-76107142D01*
X164071428Y-76178571D01*
X164357142Y-76178571D01*
X164500000Y-76107142D01*
X164571428Y-76035714D01*
X164642857Y-75892857D01*
X164642857Y-75535714D01*
X164571428Y-75392857D01*
X164500000Y-75321428D01*
X164357142Y-75250000D01*
X164071428Y-75250000D01*
X163928571Y-75321428D01*
X163857142Y-75392857D01*
X163785714Y-75535714D01*
X139285714Y-74678571D02*
X140214285Y-74678571D01*
X139714285Y-75250000D01*
X139928571Y-75250000D01*
X140071428Y-75321428D01*
X140142857Y-75392857D01*
X140214285Y-75535714D01*
X140214285Y-75892857D01*
X140142857Y-76035714D01*
X140071428Y-76107142D01*
X139928571Y-76178571D01*
X139500000Y-76178571D01*
X139357142Y-76107142D01*
X139285714Y-76035714D01*
X141571428Y-74678571D02*
X140857142Y-74678571D01*
X140785714Y-75392857D01*
X140857142Y-75321428D01*
X141000000Y-75250000D01*
X141357142Y-75250000D01*
X141500000Y-75321428D01*
X141571428Y-75392857D01*
X141642857Y-75535714D01*
X141642857Y-75892857D01*
X141571428Y-76035714D01*
X141500000Y-76107142D01*
X141357142Y-76178571D01*
X141000000Y-76178571D01*
X140857142Y-76107142D01*
X140785714Y-76035714D01*
X152285714Y-74678571D02*
X153214285Y-74678571D01*
X152714285Y-75250000D01*
X152928571Y-75250000D01*
X153071428Y-75321428D01*
X153142857Y-75392857D01*
X153214285Y-75535714D01*
X153214285Y-75892857D01*
X153142857Y-76035714D01*
X153071428Y-76107142D01*
X152928571Y-76178571D01*
X152500000Y-76178571D01*
X152357142Y-76107142D01*
X152285714Y-76035714D01*
X154142857Y-74678571D02*
X154285714Y-74678571D01*
X154428571Y-74750000D01*
X154500000Y-74821428D01*
X154571428Y-74964285D01*
X154642857Y-75250000D01*
X154642857Y-75607142D01*
X154571428Y-75892857D01*
X154500000Y-76035714D01*
X154428571Y-76107142D01*
X154285714Y-76178571D01*
X154142857Y-76178571D01*
X154000000Y-76107142D01*
X153928571Y-76035714D01*
X153857142Y-75892857D01*
X153785714Y-75607142D01*
X153785714Y-75250000D01*
X153857142Y-74964285D01*
X153928571Y-74821428D01*
X154000000Y-74750000D01*
X154142857Y-74678571D01*
X153857142Y-71678571D02*
X153142857Y-71678571D01*
X153071428Y-72392857D01*
X153142857Y-72321428D01*
X153285714Y-72250000D01*
X153642857Y-72250000D01*
X153785714Y-72321428D01*
X153857142Y-72392857D01*
X153928571Y-72535714D01*
X153928571Y-72892857D01*
X153857142Y-73035714D01*
X153785714Y-73107142D01*
X153642857Y-73178571D01*
X153285714Y-73178571D01*
X153142857Y-73107142D01*
X153071428Y-73035714D01*
X115071428Y-75178571D02*
X115071428Y-76178571D01*
X114714285Y-74607142D02*
X114357142Y-75678571D01*
X115285714Y-75678571D01*
X116571428Y-74678571D02*
X115857142Y-74678571D01*
X115785714Y-75392857D01*
X115857142Y-75321428D01*
X116000000Y-75250000D01*
X116357142Y-75250000D01*
X116500000Y-75321428D01*
X116571428Y-75392857D01*
X116642857Y-75535714D01*
X116642857Y-75892857D01*
X116571428Y-76035714D01*
X116500000Y-76107142D01*
X116357142Y-76178571D01*
X116000000Y-76178571D01*
X115857142Y-76107142D01*
X115785714Y-76035714D01*
X114357142Y-71821428D02*
X114428571Y-71750000D01*
X114571428Y-71678571D01*
X114928571Y-71678571D01*
X115071428Y-71750000D01*
X115142857Y-71821428D01*
X115214285Y-71964285D01*
X115214285Y-72107142D01*
X115142857Y-72321428D01*
X114285714Y-73178571D01*
X115214285Y-73178571D01*
X116142857Y-71678571D02*
X116285714Y-71678571D01*
X116428571Y-71750000D01*
X116500000Y-71821428D01*
X116571428Y-71964285D01*
X116642857Y-72250000D01*
X116642857Y-72607142D01*
X116571428Y-72892857D01*
X116500000Y-73035714D01*
X116428571Y-73107142D01*
X116285714Y-73178571D01*
X116142857Y-73178571D01*
X116000000Y-73107142D01*
X115928571Y-73035714D01*
X115857142Y-72892857D01*
X115785714Y-72607142D01*
X115785714Y-72250000D01*
X115857142Y-71964285D01*
X115928571Y-71821428D01*
X116000000Y-71750000D01*
X116142857Y-71678571D01*
X102142857Y-74678571D02*
X101428571Y-74678571D01*
X101357142Y-75392857D01*
X101428571Y-75321428D01*
X101571428Y-75250000D01*
X101928571Y-75250000D01*
X102071428Y-75321428D01*
X102142857Y-75392857D01*
X102214285Y-75535714D01*
X102214285Y-75892857D01*
X102142857Y-76035714D01*
X102071428Y-76107142D01*
X101928571Y-76178571D01*
X101571428Y-76178571D01*
X101428571Y-76107142D01*
X101357142Y-76035714D01*
X103142857Y-74678571D02*
X103285714Y-74678571D01*
X103428571Y-74750000D01*
X103500000Y-74821428D01*
X103571428Y-74964285D01*
X103642857Y-75250000D01*
X103642857Y-75607142D01*
X103571428Y-75892857D01*
X103500000Y-76035714D01*
X103428571Y-76107142D01*
X103285714Y-76178571D01*
X103142857Y-76178571D01*
X103000000Y-76107142D01*
X102928571Y-76035714D01*
X102857142Y-75892857D01*
X102785714Y-75607142D01*
X102785714Y-75250000D01*
X102857142Y-74964285D01*
X102928571Y-74821428D01*
X103000000Y-74750000D01*
X103142857Y-74678571D01*
X127714285Y-73178571D02*
X126857142Y-73178571D01*
X127285714Y-73178571D02*
X127285714Y-71678571D01*
X127142857Y-71892857D01*
X127000000Y-72035714D01*
X126857142Y-72107142D01*
X129071428Y-71678571D02*
X128357142Y-71678571D01*
X128285714Y-72392857D01*
X128357142Y-72321428D01*
X128500000Y-72250000D01*
X128857142Y-72250000D01*
X129000000Y-72321428D01*
X129071428Y-72392857D01*
X129142857Y-72535714D01*
X129142857Y-72892857D01*
X129071428Y-73035714D01*
X129000000Y-73107142D01*
X128857142Y-73178571D01*
X128500000Y-73178571D01*
X128357142Y-73107142D01*
X128285714Y-73035714D01*
X163928571Y-73178571D02*
X163071428Y-73178571D01*
X163500000Y-73178571D02*
X163500000Y-71678571D01*
X163357142Y-71892857D01*
X163214285Y-72035714D01*
X163071428Y-72107142D01*
X140214285Y-73178571D02*
X139357142Y-73178571D01*
X139785714Y-73178571D02*
X139785714Y-71678571D01*
X139642857Y-71892857D01*
X139500000Y-72035714D01*
X139357142Y-72107142D01*
X141142857Y-71678571D02*
X141285714Y-71678571D01*
X141428571Y-71750000D01*
X141500000Y-71821428D01*
X141571428Y-71964285D01*
X141642857Y-72250000D01*
X141642857Y-72607142D01*
X141571428Y-72892857D01*
X141500000Y-73035714D01*
X141428571Y-73107142D01*
X141285714Y-73178571D01*
X141142857Y-73178571D01*
X141000000Y-73107142D01*
X140928571Y-73035714D01*
X140857142Y-72892857D01*
X140785714Y-72607142D01*
X140785714Y-72250000D01*
X140857142Y-71964285D01*
X140928571Y-71821428D01*
X141000000Y-71750000D01*
X141142857Y-71678571D01*
X127571428Y-75178571D02*
X127571428Y-76178571D01*
X127214285Y-74607142D02*
X126857142Y-75678571D01*
X127785714Y-75678571D01*
X128642857Y-74678571D02*
X128785714Y-74678571D01*
X128928571Y-74750000D01*
X129000000Y-74821428D01*
X129071428Y-74964285D01*
X129142857Y-75250000D01*
X129142857Y-75607142D01*
X129071428Y-75892857D01*
X129000000Y-76035714D01*
X128928571Y-76107142D01*
X128785714Y-76178571D01*
X128642857Y-76178571D01*
X128500000Y-76107142D01*
X128428571Y-76035714D01*
X128357142Y-75892857D01*
X128285714Y-75607142D01*
X128285714Y-75250000D01*
X128357142Y-74964285D01*
X128428571Y-74821428D01*
X128500000Y-74750000D01*
X128642857Y-74678571D01*
X101357142Y-71821428D02*
X101428571Y-71750000D01*
X101571428Y-71678571D01*
X101928571Y-71678571D01*
X102071428Y-71750000D01*
X102142857Y-71821428D01*
X102214285Y-71964285D01*
X102214285Y-72107142D01*
X102142857Y-72321428D01*
X101285714Y-73178571D01*
X102214285Y-73178571D01*
X103571428Y-71678571D02*
X102857142Y-71678571D01*
X102785714Y-72392857D01*
X102857142Y-72321428D01*
X103000000Y-72250000D01*
X103357142Y-72250000D01*
X103500000Y-72321428D01*
X103571428Y-72392857D01*
X103642857Y-72535714D01*
X103642857Y-72892857D01*
X103571428Y-73035714D01*
X103500000Y-73107142D01*
X103357142Y-73178571D01*
X103000000Y-73178571D01*
X102857142Y-73107142D01*
X102785714Y-73035714D01*
X102642857Y-119678571D02*
X101928571Y-119678571D01*
X101857142Y-120392857D01*
X101928571Y-120321428D01*
X102071428Y-120250000D01*
X102428571Y-120250000D01*
X102571428Y-120321428D01*
X102642857Y-120392857D01*
X102714285Y-120535714D01*
X102714285Y-120892857D01*
X102642857Y-121035714D01*
X102571428Y-121107142D01*
X102428571Y-121178571D01*
X102071428Y-121178571D01*
X101928571Y-121107142D01*
X101857142Y-121035714D01*
X103642857Y-119678571D02*
X103785714Y-119678571D01*
X103928571Y-119750000D01*
X104000000Y-119821428D01*
X104071428Y-119964285D01*
X104142857Y-120250000D01*
X104142857Y-120607142D01*
X104071428Y-120892857D01*
X104000000Y-121035714D01*
X103928571Y-121107142D01*
X103785714Y-121178571D01*
X103642857Y-121178571D01*
X103500000Y-121107142D01*
X103428571Y-121035714D01*
X103357142Y-120892857D01*
X103285714Y-120607142D01*
X103285714Y-120250000D01*
X103357142Y-119964285D01*
X103428571Y-119821428D01*
X103500000Y-119750000D01*
X103642857Y-119678571D01*
X93571428Y-115857142D02*
X93857142Y-115952380D01*
X93952380Y-116047619D01*
X94047619Y-116238095D01*
X94047619Y-116523809D01*
X93952380Y-116714285D01*
X93857142Y-116809523D01*
X93666666Y-116904761D01*
X92904761Y-116904761D01*
X92904761Y-114904761D01*
X93571428Y-114904761D01*
X93761904Y-115000000D01*
X93857142Y-115095238D01*
X93952380Y-115285714D01*
X93952380Y-115476190D01*
X93857142Y-115666666D01*
X93761904Y-115761904D01*
X93571428Y-115857142D01*
X92904761Y-115857142D01*
X95761904Y-116904761D02*
X95761904Y-115857142D01*
X95666666Y-115666666D01*
X95476190Y-115571428D01*
X95095238Y-115571428D01*
X94904761Y-115666666D01*
X95761904Y-116809523D02*
X95571428Y-116904761D01*
X95095238Y-116904761D01*
X94904761Y-116809523D01*
X94809523Y-116619047D01*
X94809523Y-116428571D01*
X94904761Y-116238095D01*
X95095238Y-116142857D01*
X95571428Y-116142857D01*
X95761904Y-116047619D01*
X97571428Y-116809523D02*
X97380952Y-116904761D01*
X97000000Y-116904761D01*
X96809523Y-116809523D01*
X96714285Y-116714285D01*
X96619047Y-116523809D01*
X96619047Y-115952380D01*
X96714285Y-115761904D01*
X96809523Y-115666666D01*
X97000000Y-115571428D01*
X97380952Y-115571428D01*
X97571428Y-115666666D01*
X98428571Y-116904761D02*
X98428571Y-114904761D01*
X98619047Y-116142857D02*
X99190476Y-116904761D01*
X99190476Y-115571428D02*
X98428571Y-116333333D01*
D11*
X147840000Y-83860000D02*
X147840000Y-77860000D01*
X130820000Y-86917071D02*
X130820000Y-86520000D01*
X158760000Y-77860000D02*
X158760000Y-83860000D01*
X110500000Y-77860000D02*
X110500000Y-83860000D01*
X107960000Y-77860000D02*
X107960000Y-83860000D01*
X102780000Y-83860000D02*
X102780000Y-77860000D01*
X118120000Y-77860000D02*
X118120000Y-83860000D01*
X130060000Y-86917071D02*
X130060000Y-86520000D01*
X124980000Y-77860000D02*
X125740000Y-77860000D01*
X131710000Y-86520000D02*
X131710000Y-83860000D01*
X125740000Y-77860000D02*
X125740000Y-83860000D01*
X104660000Y-89457071D02*
X104660000Y-89002929D01*
X136790000Y-86520000D02*
X136790000Y-83860000D01*
X140220000Y-83860000D02*
X140220000Y-77860000D01*
X152920000Y-89457071D02*
X152920000Y-89002929D01*
X120660000Y-86917071D02*
X120660000Y-86520000D01*
X132600000Y-86917071D02*
X132600000Y-86520000D01*
X146060000Y-77860000D02*
X146060000Y-83860000D01*
X113040000Y-89457071D02*
X113040000Y-89002929D01*
X108850000Y-86520000D02*
X108850000Y-83860000D01*
X109740000Y-86917071D02*
X109740000Y-86520000D01*
X135140000Y-86917071D02*
X135140000Y-86520000D01*
X102880000Y-89390000D02*
X102880000Y-89002929D01*
X155460000Y-77860000D02*
X156220000Y-77860000D01*
X124980000Y-86917071D02*
X124980000Y-86520000D01*
X102880000Y-77860000D02*
X102880000Y-83860000D01*
X140220000Y-77860000D02*
X140980000Y-77860000D01*
X155460000Y-83860000D02*
X155460000Y-77860000D01*
X148600000Y-86917071D02*
X148600000Y-86520000D01*
X111390000Y-86520000D02*
X111390000Y-83860000D01*
X160540000Y-83860000D02*
X160540000Y-77860000D01*
X117360000Y-83860000D02*
X117360000Y-77860000D01*
X102180000Y-83860000D02*
X102180000Y-77860000D01*
X145300000Y-86917071D02*
X145300000Y-86520000D01*
X152920000Y-83860000D02*
X152920000Y-77860000D01*
X130060000Y-77860000D02*
X130820000Y-77860000D01*
X150380000Y-86917071D02*
X150380000Y-86520000D01*
X112280000Y-83860000D02*
X112280000Y-77860000D01*
X153680000Y-89457071D02*
X153680000Y-89002929D01*
X127520000Y-89457071D02*
X127520000Y-89002929D01*
X141870000Y-86520000D02*
X141870000Y-83860000D01*
X127520000Y-77860000D02*
X128280000Y-77860000D01*
X130060000Y-83860000D02*
X130060000Y-77860000D01*
X112280000Y-89457071D02*
X112280000Y-89002929D01*
X160540000Y-77860000D02*
X161300000Y-77860000D01*
X161300000Y-89457071D02*
X161300000Y-89002929D01*
X135900000Y-77860000D02*
X135900000Y-83860000D01*
X109740000Y-83860000D02*
X109740000Y-77860000D01*
X137680000Y-86917071D02*
X137680000Y-86520000D01*
X153680000Y-77860000D02*
X153680000Y-83860000D01*
X138440000Y-77860000D02*
X138440000Y-83860000D01*
X116470000Y-86520000D02*
X116470000Y-83860000D01*
X114820000Y-83860000D02*
X114820000Y-77860000D01*
X113930000Y-86520000D02*
X113930000Y-83860000D01*
X143520000Y-77860000D02*
X143520000Y-83860000D01*
X162190000Y-86520000D02*
X162190000Y-83860000D01*
X130820000Y-89457071D02*
X130820000Y-89002929D01*
X140980000Y-86917071D02*
X140980000Y-86520000D01*
X118120000Y-89457071D02*
X118120000Y-89002929D01*
X112280000Y-86917071D02*
X112280000Y-86520000D01*
X127520000Y-83860000D02*
X127520000Y-77860000D01*
X107960000Y-89457071D02*
X107960000Y-89002929D01*
X163080000Y-77860000D02*
X163840000Y-77860000D01*
X160540000Y-89457071D02*
X160540000Y-89002929D01*
X133360000Y-89457071D02*
X133360000Y-89002929D01*
X118120000Y-86917071D02*
X118120000Y-86520000D01*
X142760000Y-77860000D02*
X143520000Y-77860000D01*
X120660000Y-77860000D02*
X120660000Y-83860000D01*
X102500000Y-91770000D02*
X101230000Y-91770000D01*
X152030000Y-86520000D02*
X152030000Y-83860000D01*
X140220000Y-89457071D02*
X140220000Y-89002929D01*
X119900000Y-77860000D02*
X120660000Y-77860000D01*
X150380000Y-89457071D02*
X150380000Y-89002929D01*
X122440000Y-86917071D02*
X122440000Y-86520000D01*
X163080000Y-89457071D02*
X163080000Y-89002929D01*
X129170000Y-86520000D02*
X129170000Y-83860000D01*
X107200000Y-89457071D02*
X107200000Y-89002929D01*
X109740000Y-77860000D02*
X110500000Y-77860000D01*
X158760000Y-86917071D02*
X158760000Y-86520000D01*
X158000000Y-83860000D02*
X158000000Y-77860000D01*
X135900000Y-89457071D02*
X135900000Y-89002929D01*
X145300000Y-83860000D02*
X145300000Y-77860000D01*
X163840000Y-89457071D02*
X163840000Y-89002929D01*
X123200000Y-86917071D02*
X123200000Y-86520000D01*
X125740000Y-86917071D02*
X125740000Y-86520000D01*
X119900000Y-89457071D02*
X119900000Y-89002929D01*
X123200000Y-89457071D02*
X123200000Y-89002929D01*
X119010000Y-86520000D02*
X119010000Y-83860000D01*
X156220000Y-77860000D02*
X156220000Y-83860000D01*
X135140000Y-77860000D02*
X135900000Y-77860000D01*
X158760000Y-89457071D02*
X158760000Y-89002929D01*
X102660000Y-83860000D02*
X102660000Y-77860000D01*
X137680000Y-77860000D02*
X138440000Y-77860000D01*
X119900000Y-86917071D02*
X119900000Y-86520000D01*
X153680000Y-86917071D02*
X153680000Y-86520000D01*
X107200000Y-77860000D02*
X107960000Y-77860000D01*
X155460000Y-89457071D02*
X155460000Y-89002929D01*
X142760000Y-86917071D02*
X142760000Y-86520000D01*
X159650000Y-86520000D02*
X159650000Y-83860000D01*
X128280000Y-86917071D02*
X128280000Y-86520000D01*
X133360000Y-77860000D02*
X133360000Y-83860000D01*
X114820000Y-86917071D02*
X114820000Y-86520000D01*
X130820000Y-77860000D02*
X130820000Y-83860000D01*
X113040000Y-77860000D02*
X113040000Y-83860000D01*
X114820000Y-89457071D02*
X114820000Y-89002929D01*
X145300000Y-77860000D02*
X146060000Y-77860000D01*
X130060000Y-89457071D02*
X130060000Y-89002929D01*
X163840000Y-77860000D02*
X163840000Y-83860000D01*
X122440000Y-77860000D02*
X123200000Y-77860000D01*
X104660000Y-77860000D02*
X105420000Y-77860000D01*
X115580000Y-89457071D02*
X115580000Y-89002929D01*
X160540000Y-86917071D02*
X160540000Y-86520000D01*
X105420000Y-86917071D02*
X105420000Y-86520000D01*
X144410000Y-86520000D02*
X144410000Y-83860000D01*
X146060000Y-89457071D02*
X146060000Y-89002929D01*
X102540000Y-83860000D02*
X102540000Y-77860000D01*
X101170000Y-83860000D02*
X101170000Y-86520000D01*
X107960000Y-86917071D02*
X107960000Y-86520000D01*
X138440000Y-89457071D02*
X138440000Y-89002929D01*
X140980000Y-89457071D02*
X140980000Y-89002929D01*
X102120000Y-77860000D02*
X102880000Y-77860000D01*
X121550000Y-86520000D02*
X121550000Y-83860000D01*
X147840000Y-89457071D02*
X147840000Y-89002929D01*
X135140000Y-89457071D02*
X135140000Y-89002929D01*
X158000000Y-77860000D02*
X158760000Y-77860000D01*
X137680000Y-89457071D02*
X137680000Y-89002929D01*
X124980000Y-89457071D02*
X124980000Y-89002929D01*
X132600000Y-77860000D02*
X133360000Y-77860000D01*
X102120000Y-89390000D02*
X102120000Y-89002929D01*
X163840000Y-86917071D02*
X163840000Y-86520000D01*
X114820000Y-77860000D02*
X115580000Y-77860000D01*
X154570000Y-86520000D02*
X154570000Y-83860000D01*
X148600000Y-89457071D02*
X148600000Y-89002929D01*
X126630000Y-86520000D02*
X126630000Y-83860000D01*
X112280000Y-77860000D02*
X113040000Y-77860000D01*
X117360000Y-86917071D02*
X117360000Y-86520000D01*
X142760000Y-89457071D02*
X142760000Y-89002929D01*
X147840000Y-86917071D02*
X147840000Y-86520000D01*
X104660000Y-86917071D02*
X104660000Y-86520000D01*
X103770000Y-86520000D02*
X103770000Y-83860000D01*
X117360000Y-77860000D02*
X118120000Y-77860000D01*
X135900000Y-86917071D02*
X135900000Y-86520000D01*
X150380000Y-77860000D02*
X151140000Y-77860000D01*
X115580000Y-77860000D02*
X115580000Y-83860000D01*
X143520000Y-89457071D02*
X143520000Y-89002929D01*
X106310000Y-86520000D02*
X106310000Y-83860000D01*
X102420000Y-83860000D02*
X102420000Y-77860000D01*
X101230000Y-91770000D02*
X101230000Y-90500000D01*
X150380000Y-83860000D02*
X150380000Y-77860000D01*
X138440000Y-86917071D02*
X138440000Y-86520000D01*
X152920000Y-86917071D02*
X152920000Y-86520000D01*
X122440000Y-89457071D02*
X122440000Y-89002929D01*
X102120000Y-83860000D02*
X102120000Y-77860000D01*
X127520000Y-86917071D02*
X127520000Y-86520000D01*
X146950000Y-86520000D02*
X146950000Y-83860000D01*
X156220000Y-89457071D02*
X156220000Y-89002929D01*
X102120000Y-86917071D02*
X102120000Y-86520000D01*
X132600000Y-89457071D02*
X132600000Y-89002929D01*
X104660000Y-83860000D02*
X104660000Y-77860000D01*
X128280000Y-77860000D02*
X128280000Y-83860000D01*
X119900000Y-83860000D02*
X119900000Y-77860000D01*
X164790000Y-86520000D02*
X164790000Y-83860000D01*
X163080000Y-83860000D02*
X163080000Y-77860000D01*
X133360000Y-86917071D02*
X133360000Y-86520000D01*
X148600000Y-77860000D02*
X148600000Y-83860000D01*
X105420000Y-77860000D02*
X105420000Y-83860000D01*
X102880000Y-86917071D02*
X102880000Y-86520000D01*
X102300000Y-83860000D02*
X102300000Y-77860000D01*
X140980000Y-77860000D02*
X140980000Y-83860000D01*
X125740000Y-89457071D02*
X125740000Y-89002929D01*
X122440000Y-83860000D02*
X122440000Y-77860000D01*
X110500000Y-86917071D02*
X110500000Y-86520000D01*
X107200000Y-86917071D02*
X107200000Y-86520000D01*
X117360000Y-89457071D02*
X117360000Y-89002929D01*
X151140000Y-77860000D02*
X151140000Y-83860000D01*
X128280000Y-89457071D02*
X128280000Y-89002929D01*
X132600000Y-83860000D02*
X132600000Y-77860000D01*
X147840000Y-77860000D02*
X148600000Y-77860000D01*
X158000000Y-86917071D02*
X158000000Y-86520000D01*
X151140000Y-86917071D02*
X151140000Y-86520000D01*
X109740000Y-89457071D02*
X109740000Y-89002929D01*
X161300000Y-77860000D02*
X161300000Y-83860000D01*
X113040000Y-86917071D02*
X113040000Y-86520000D01*
X163080000Y-86917071D02*
X163080000Y-86520000D01*
X101170000Y-86520000D02*
X164790000Y-86520000D01*
X110500000Y-89457071D02*
X110500000Y-89002929D01*
X158000000Y-89457071D02*
X158000000Y-89002929D01*
X124980000Y-83860000D02*
X124980000Y-77860000D01*
X149490000Y-86520000D02*
X149490000Y-83860000D01*
X135140000Y-83860000D02*
X135140000Y-77860000D01*
X164790000Y-83860000D02*
X101170000Y-83860000D01*
X156220000Y-86917071D02*
X156220000Y-86520000D01*
X140220000Y-86917071D02*
X140220000Y-86520000D01*
X137680000Y-83860000D02*
X137680000Y-77860000D01*
X115580000Y-86917071D02*
X115580000Y-86520000D01*
X107200000Y-83860000D02*
X107200000Y-77860000D01*
X105420000Y-89457071D02*
X105420000Y-89002929D01*
X161300000Y-86917071D02*
X161300000Y-86520000D01*
X155460000Y-86917071D02*
X155460000Y-86520000D01*
X123200000Y-77860000D02*
X123200000Y-83860000D01*
X142760000Y-83860000D02*
X142760000Y-77860000D01*
X146060000Y-86917071D02*
X146060000Y-86520000D01*
X124090000Y-86520000D02*
X124090000Y-83860000D01*
X157110000Y-86520000D02*
X157110000Y-83860000D01*
X152920000Y-77860000D02*
X153680000Y-77860000D01*
X143520000Y-86917071D02*
X143520000Y-86520000D01*
X139330000Y-86520000D02*
X139330000Y-83860000D01*
X151140000Y-89457071D02*
X151140000Y-89002929D01*
X134250000Y-86520000D02*
X134250000Y-83860000D01*
X145300000Y-89457071D02*
X145300000Y-89002929D01*
X120660000Y-89457071D02*
X120660000Y-89002929D01*
G36*
X172322763Y-112010526D02*
G01*
X167643816Y-112010526D01*
X167643816Y-110857500D01*
X172322763Y-110857500D01*
X172322763Y-112010526D01*
G37*
D12*
X172322763Y-112010526D02*
X167643816Y-112010526D01*
X167643816Y-110857500D01*
X172322763Y-110857500D01*
X172322763Y-112010526D01*
G36*
X168929571Y-107917071D02*
G01*
X168944483Y-107893429D01*
X168947801Y-107882480D01*
X168946544Y-107858586D01*
X168942726Y-107804501D01*
X168936593Y-107723338D01*
X168928393Y-107618210D01*
X168918373Y-107492228D01*
X168906780Y-107348505D01*
X168893860Y-107190154D01*
X168879862Y-107020287D01*
X168868581Y-106884528D01*
X168804750Y-106119106D01*
X168968996Y-106119106D01*
X168969703Y-106135624D01*
X168973031Y-106182145D01*
X168978710Y-106255378D01*
X168986474Y-106352028D01*
X168996057Y-106468805D01*
X169007189Y-106602414D01*
X169019605Y-106749563D01*
X169031520Y-106889271D01*
X169045016Y-107047787D01*
X169057587Y-107197421D01*
X169068945Y-107334602D01*
X169078802Y-107455759D01*
X169086870Y-107557320D01*
X169092860Y-107635712D01*
X169096485Y-107687363D01*
X169097491Y-107707423D01*
X169099060Y-107719908D01*
X169105278Y-107724862D01*
X169118541Y-107720218D01*
X169141247Y-107703909D01*
X169175792Y-107673868D01*
X169224573Y-107628027D01*
X169289987Y-107564320D01*
X169374431Y-107480679D01*
X169464029Y-107391299D01*
X169830426Y-107025186D01*
X169827859Y-107022434D01*
X170070049Y-107022434D01*
X170081087Y-107037550D01*
X170111987Y-107073142D01*
X170159653Y-107125941D01*
X170220987Y-107192673D01*
X170292893Y-107270070D01*
X170372273Y-107354858D01*
X170456031Y-107443767D01*
X170541070Y-107533526D01*
X170624292Y-107620864D01*
X170702601Y-107702509D01*
X170772900Y-107775191D01*
X170832091Y-107835637D01*
X170877078Y-107880578D01*
X170904764Y-107906742D01*
X170912314Y-107912072D01*
X170914803Y-107894867D01*
X170919970Y-107847348D01*
X170927530Y-107772489D01*
X170937200Y-107673264D01*
X170948695Y-107552649D01*
X170961731Y-107413618D01*
X170976024Y-107259145D01*
X170991290Y-107092206D01*
X171003479Y-106957597D01*
X171019071Y-106783054D01*
X171033477Y-106618627D01*
X171046453Y-106467299D01*
X171057759Y-106332053D01*
X171067152Y-106215870D01*
X171074389Y-106121735D01*
X171079228Y-106052630D01*
X171081427Y-106011538D01*
X171081176Y-106000868D01*
X171068030Y-106010372D01*
X171034554Y-106040920D01*
X170983674Y-106089556D01*
X170918317Y-106153323D01*
X170841409Y-106229265D01*
X170755876Y-106314424D01*
X170664646Y-106405845D01*
X170570644Y-106500569D01*
X170476798Y-106595641D01*
X170386033Y-106688103D01*
X170301277Y-106774999D01*
X170225456Y-106853372D01*
X170161497Y-106920265D01*
X170112326Y-106972722D01*
X170080869Y-107007785D01*
X170070049Y-107022434D01*
X169827859Y-107022434D01*
X169693798Y-106878760D01*
X169624216Y-106804448D01*
X169546119Y-106721483D01*
X169462594Y-106633102D01*
X169376730Y-106542541D01*
X169291615Y-106453036D01*
X169210336Y-106367823D01*
X169135981Y-106290139D01*
X169071637Y-106223220D01*
X169020394Y-106170303D01*
X168985337Y-106134623D01*
X168969556Y-106119416D01*
X168968996Y-106119106D01*
X168804750Y-106119106D01*
X168788796Y-105927807D01*
X167990714Y-105088485D01*
X167192632Y-104249164D01*
X167193219Y-104131852D01*
X167193806Y-104014539D01*
X167322725Y-104152253D01*
X167394876Y-104229063D01*
X167480060Y-104319304D01*
X167575979Y-104420575D01*
X167680334Y-104530476D01*
X167790826Y-104646604D01*
X167905156Y-104766558D01*
X168021025Y-104887936D01*
X168136135Y-105008338D01*
X168248186Y-105125362D01*
X168354881Y-105236606D01*
X168453920Y-105339669D01*
X168543003Y-105432150D01*
X168619834Y-105511647D01*
X168682112Y-105575758D01*
X168727538Y-105622083D01*
X168753815Y-105648219D01*
X168759574Y-105653233D01*
X168759970Y-105635791D01*
X168757792Y-105591135D01*
X168753417Y-105525340D01*
X168747225Y-105444483D01*
X168744567Y-105412183D01*
X168724772Y-105175921D01*
X168879758Y-105175921D01*
X168887760Y-105213520D01*
X168891840Y-105243255D01*
X168897575Y-105299203D01*
X168904299Y-105374236D01*
X168911352Y-105461225D01*
X168913793Y-105493421D01*
X168920992Y-105585861D01*
X168928258Y-105671707D01*
X168934864Y-105742847D01*
X168940084Y-105791169D01*
X168941261Y-105799939D01*
X168945702Y-105817942D01*
X168955313Y-105839017D01*
X168972140Y-105865525D01*
X168998225Y-105899828D01*
X169035613Y-105944289D01*
X169086346Y-106001271D01*
X169152470Y-106073136D01*
X169236026Y-106162246D01*
X169339060Y-106270964D01*
X169444167Y-106381275D01*
X169548738Y-106490441D01*
X169646351Y-106591540D01*
X169734578Y-106682115D01*
X169810988Y-106759708D01*
X169873151Y-106821862D01*
X169918637Y-106866118D01*
X169945017Y-106890018D01*
X169950643Y-106893574D01*
X169965443Y-106880681D01*
X170000039Y-106847060D01*
X170051071Y-106796082D01*
X170115183Y-106731120D01*
X170189016Y-106655548D01*
X170242411Y-106600493D01*
X170521173Y-106312237D01*
X169699210Y-106312237D01*
X169699210Y-105994737D01*
X170701842Y-105994737D01*
X170701842Y-106136206D01*
X170885658Y-105952960D01*
X171016052Y-105822971D01*
X171270000Y-105822971D01*
X171272429Y-105843477D01*
X171284724Y-105854902D01*
X171314396Y-105859880D01*
X171368955Y-105861044D01*
X171378618Y-105861052D01*
X171487237Y-105861052D01*
X171487237Y-105569584D01*
X171378618Y-105677237D01*
X171317346Y-105742687D01*
X171280699Y-105792829D01*
X171270000Y-105822971D01*
X171016052Y-105822971D01*
X171069474Y-105769715D01*
X171069474Y-105606502D01*
X171069985Y-105531414D01*
X171072328Y-105483645D01*
X171077711Y-105457098D01*
X171087344Y-105445679D01*
X171101871Y-105443289D01*
X171118027Y-105439780D01*
X171129969Y-105425711D01*
X171139139Y-105395769D01*
X171146982Y-105344642D01*
X171154942Y-105267017D01*
X171157496Y-105238585D01*
X171163026Y-105175921D01*
X168879758Y-105175921D01*
X168724772Y-105175921D01*
X168512763Y-105175921D01*
X168512763Y-105025526D01*
X168602859Y-105025526D01*
X168655555Y-105024083D01*
X168684188Y-105017116D01*
X168687691Y-105012970D01*
X168872234Y-105012970D01*
X168881946Y-105022442D01*
X168915588Y-105025366D01*
X168938294Y-105025526D01*
X169014079Y-105025526D01*
X169296694Y-105025526D01*
X171176519Y-105025526D01*
X171112938Y-104960413D01*
X171014186Y-104880062D01*
X170891968Y-104818089D01*
X170744213Y-104773646D01*
X170597401Y-104749065D01*
X170501316Y-104737596D01*
X170501316Y-104858421D01*
X169732632Y-104858421D01*
X169732632Y-104724737D01*
X169866316Y-104724737D01*
X170367632Y-104724737D01*
X170367632Y-104641184D01*
X169866316Y-104641184D01*
X169866316Y-104724737D01*
X169732632Y-104724737D01*
X169732632Y-104721345D01*
X169619835Y-104732776D01*
X169541025Y-104742425D01*
X169457057Y-104755214D01*
X169406776Y-104764348D01*
X169306513Y-104784488D01*
X169301603Y-104905007D01*
X169296694Y-105025526D01*
X169014079Y-105025526D01*
X169014079Y-104958684D01*
X169011869Y-104916810D01*
X169006350Y-104893536D01*
X169004126Y-104891842D01*
X168979387Y-104902560D01*
X168943243Y-104928563D01*
X168907010Y-104960623D01*
X168882001Y-104989511D01*
X168879773Y-104993267D01*
X168872234Y-105012970D01*
X168687691Y-105012970D01*
X168698081Y-105000674D01*
X168703689Y-104982762D01*
X168726578Y-104936279D01*
X168770540Y-104880400D01*
X168828011Y-104822960D01*
X168891427Y-104771793D01*
X168933082Y-104745143D01*
X168980534Y-104715972D01*
X169004859Y-104691467D01*
X169013405Y-104662572D01*
X169014062Y-104645362D01*
X169014063Y-104641184D01*
X169014079Y-104591052D01*
X169154726Y-104591052D01*
X169219436Y-104592617D01*
X169269870Y-104596785D01*
X169297906Y-104602773D01*
X169300943Y-104605197D01*
X169318727Y-104608918D01*
X169362008Y-104607394D01*
X169423349Y-104601075D01*
X169465263Y-104595240D01*
X169541263Y-104583778D01*
X169610770Y-104573430D01*
X169663003Y-104565796D01*
X169678322Y-104563627D01*
X169718347Y-104551232D01*
X169732632Y-104531808D01*
X169736975Y-104523898D01*
X169752510Y-104517863D01*
X169782999Y-104513466D01*
X169832200Y-104510469D01*
X169903874Y-104508635D01*
X170001781Y-104507725D01*
X170116974Y-104507500D01*
X170239914Y-104507628D01*
X170333441Y-104508230D01*
X170401560Y-104509639D01*
X170448281Y-104512181D01*
X170477609Y-104516189D01*
X170493551Y-104521991D01*
X170500115Y-104529917D01*
X170501316Y-104539133D01*
X170511540Y-104568385D01*
X170545030Y-104585031D01*
X170606012Y-104590968D01*
X170616983Y-104591052D01*
X170720254Y-104601706D01*
X170837547Y-104631033D01*
X170958285Y-104675084D01*
X171071889Y-104729911D01*
X171167781Y-104791564D01*
X171180201Y-104801332D01*
X171220682Y-104833115D01*
X171244655Y-104845844D01*
X171261396Y-104841729D01*
X171278581Y-104824750D01*
X171329336Y-104791492D01*
X171395393Y-104778725D01*
X171466526Y-104785365D01*
X171532514Y-104810327D01*
X171583132Y-104852529D01*
X171586797Y-104857434D01*
X171624672Y-104936211D01*
X171631719Y-105017754D01*
X171608715Y-105095487D01*
X171556437Y-105162835D01*
X171550044Y-105168396D01*
X171512927Y-105194813D01*
X171475267Y-105206447D01*
X171422324Y-105207287D01*
X171409098Y-105206542D01*
X171357297Y-105204641D01*
X171330614Y-105208996D01*
X171320955Y-105222138D01*
X171319963Y-105234408D01*
X171317939Y-105270002D01*
X171312914Y-105323533D01*
X171309303Y-105355559D01*
X171304066Y-105406427D01*
X171306244Y-105432468D01*
X171318875Y-105441986D01*
X171341375Y-105443289D01*
X171354718Y-105438986D01*
X171376244Y-105425057D01*
X171407548Y-105399977D01*
X171450224Y-105362219D01*
X171505868Y-105310256D01*
X171576075Y-105242562D01*
X171662440Y-105157611D01*
X171766558Y-105053875D01*
X171890025Y-104929828D01*
X172034436Y-104783944D01*
X172104031Y-104713449D01*
X172824079Y-103983610D01*
X172823256Y-104099337D01*
X172822433Y-104215066D01*
X172222115Y-104825000D01*
X171621796Y-105434934D01*
X171621359Y-105714835D01*
X171620921Y-105994737D01*
X171255337Y-105994737D01*
X171245917Y-106065756D01*
X171242350Y-106098127D01*
X171236338Y-106159087D01*
X171228201Y-106244998D01*
X171218262Y-106352226D01*
X171206843Y-106477133D01*
X171194264Y-106616083D01*
X171180847Y-106765441D01*
X171166915Y-106921568D01*
X171152788Y-107080830D01*
X171138788Y-107239590D01*
X171125237Y-107394211D01*
X171112456Y-107541057D01*
X171100767Y-107676493D01*
X171090492Y-107796880D01*
X171081952Y-107898584D01*
X171075469Y-107977967D01*
X171071364Y-108031394D01*
X171069959Y-108055229D01*
X171069960Y-108055342D01*
X171080204Y-108074466D01*
X171110974Y-108113955D01*
X171162689Y-108174266D01*
X171235767Y-108255861D01*
X171330627Y-108359198D01*
X171447687Y-108484738D01*
X171587367Y-108632940D01*
X171750084Y-108804263D01*
X171795821Y-108852237D01*
X172521195Y-109612566D01*
X172462551Y-109671052D01*
X172403908Y-109729539D01*
X172309026Y-109626310D01*
X172274315Y-109589003D01*
X172220094Y-109531311D01*
X172149941Y-109457013D01*
X172067432Y-109369889D01*
X171976145Y-109273718D01*
X171879658Y-109172280D01*
X171821935Y-109111695D01*
X171713566Y-108998197D01*
X171625972Y-108907285D01*
X171556920Y-108837307D01*
X171504176Y-108786610D01*
X171465506Y-108753540D01*
X171438677Y-108736444D01*
X171421456Y-108733669D01*
X171411608Y-108743563D01*
X171406901Y-108764471D01*
X171405101Y-108794741D01*
X171404859Y-108803002D01*
X171392342Y-108859909D01*
X171361503Y-108928693D01*
X171318497Y-108998475D01*
X171269480Y-109058378D01*
X171249866Y-109076882D01*
X171149230Y-109141628D01*
X171031673Y-109177854D01*
X170927738Y-109186447D01*
X170809951Y-109170239D01*
X170701169Y-109122712D01*
X170604890Y-109045511D01*
X170587125Y-109026295D01*
X170522168Y-108952500D01*
X169398421Y-108952500D01*
X169398421Y-109186447D01*
X169097632Y-109186447D01*
X169097632Y-109077152D01*
X169093857Y-109002539D01*
X169081175Y-108950750D01*
X169065763Y-108922580D01*
X169054750Y-108902424D01*
X169045321Y-108873200D01*
X169036849Y-108830575D01*
X169028710Y-108770217D01*
X169020279Y-108687793D01*
X169010932Y-108578972D01*
X169004531Y-108498017D01*
X168975169Y-108118732D01*
X168254341Y-108848938D01*
X168124008Y-108981066D01*
X167998892Y-109108096D01*
X167881279Y-109227695D01*
X167773455Y-109337528D01*
X167677705Y-109435263D01*
X167596317Y-109518566D01*
X167531577Y-109585104D01*
X167485770Y-109632542D01*
X167461208Y-109658520D01*
X167420855Y-109699649D01*
X167387195Y-109728335D01*
X167369090Y-109737895D01*
X167345965Y-109726697D01*
X167312257Y-109698719D01*
X167300831Y-109687326D01*
X167252383Y-109636757D01*
X167519119Y-109365702D01*
X167587169Y-109296652D01*
X167674915Y-109207774D01*
X167778508Y-109102959D01*
X167894100Y-108986097D01*
X168017841Y-108861079D01*
X168145881Y-108731795D01*
X168274372Y-108602136D01*
X168366546Y-108509179D01*
X168506658Y-108367520D01*
X168624368Y-108247591D01*
X168721180Y-108147768D01*
X168798601Y-108066428D01*
X168858136Y-108001948D01*
X168887642Y-107968277D01*
X169124591Y-107968277D01*
X169154257Y-108347592D01*
X169163203Y-108458777D01*
X169171858Y-108560453D01*
X169179729Y-108647304D01*
X169186328Y-108714018D01*
X169191164Y-108755279D01*
X169192720Y-108764506D01*
X169201518Y-108802105D01*
X170463319Y-108802105D01*
X170471742Y-108697173D01*
X170497172Y-108573195D01*
X170550389Y-108463524D01*
X170628037Y-108372156D01*
X170726763Y-108303083D01*
X170837572Y-108261620D01*
X170873520Y-108242171D01*
X170891517Y-108200430D01*
X170891894Y-108198589D01*
X170894053Y-108180967D01*
X170891384Y-108162922D01*
X170881280Y-108141108D01*
X170861137Y-108112177D01*
X170828349Y-108072783D01*
X170780310Y-108019577D01*
X170714416Y-107949214D01*
X170628060Y-107858346D01*
X170622480Y-107852493D01*
X170529595Y-107754956D01*
X170430845Y-107651067D01*
X170333016Y-107547977D01*
X170242893Y-107452839D01*
X170167262Y-107372804D01*
X170150395Y-107354911D01*
X170085735Y-107287444D01*
X170028295Y-107229709D01*
X169982199Y-107185675D01*
X169951569Y-107159314D01*
X169941285Y-107153521D01*
X169925948Y-107165646D01*
X169890083Y-107198910D01*
X169836512Y-107250542D01*
X169768060Y-107317775D01*
X169687553Y-107397837D01*
X169597813Y-107487961D01*
X169524468Y-107562198D01*
X169124591Y-107968277D01*
X168887642Y-107968277D01*
X168901291Y-107952703D01*
X168929571Y-107917071D01*
G37*
X168929571Y-107917071D02*
X168944483Y-107893429D01*
X168947801Y-107882480D01*
X168946544Y-107858586D01*
X168942726Y-107804501D01*
X168936593Y-107723338D01*
X168928393Y-107618210D01*
X168918373Y-107492228D01*
X168906780Y-107348505D01*
X168893860Y-107190154D01*
X168879862Y-107020287D01*
X168868581Y-106884528D01*
X168804750Y-106119106D01*
X168968996Y-106119106D01*
X168969703Y-106135624D01*
X168973031Y-106182145D01*
X168978710Y-106255378D01*
X168986474Y-106352028D01*
X168996057Y-106468805D01*
X169007189Y-106602414D01*
X169019605Y-106749563D01*
X169031520Y-106889271D01*
X169045016Y-107047787D01*
X169057587Y-107197421D01*
X169068945Y-107334602D01*
X169078802Y-107455759D01*
X169086870Y-107557320D01*
X169092860Y-107635712D01*
X169096485Y-107687363D01*
X169097491Y-107707423D01*
X169099060Y-107719908D01*
X169105278Y-107724862D01*
X169118541Y-107720218D01*
X169141247Y-107703909D01*
X169175792Y-107673868D01*
X169224573Y-107628027D01*
X169289987Y-107564320D01*
X169374431Y-107480679D01*
X169464029Y-107391299D01*
X169830426Y-107025186D01*
X169827859Y-107022434D01*
X170070049Y-107022434D01*
X170081087Y-107037550D01*
X170111987Y-107073142D01*
X170159653Y-107125941D01*
X170220987Y-107192673D01*
X170292893Y-107270070D01*
X170372273Y-107354858D01*
X170456031Y-107443767D01*
X170541070Y-107533526D01*
X170624292Y-107620864D01*
X170702601Y-107702509D01*
X170772900Y-107775191D01*
X170832091Y-107835637D01*
X170877078Y-107880578D01*
X170904764Y-107906742D01*
X170912314Y-107912072D01*
X170914803Y-107894867D01*
X170919970Y-107847348D01*
X170927530Y-107772489D01*
X170937200Y-107673264D01*
X170948695Y-107552649D01*
X170961731Y-107413618D01*
X170976024Y-107259145D01*
X170991290Y-107092206D01*
X171003479Y-106957597D01*
X171019071Y-106783054D01*
X171033477Y-106618627D01*
X171046453Y-106467299D01*
X171057759Y-106332053D01*
X171067152Y-106215870D01*
X171074389Y-106121735D01*
X171079228Y-106052630D01*
X171081427Y-106011538D01*
X171081176Y-106000868D01*
X171068030Y-106010372D01*
X171034554Y-106040920D01*
X170983674Y-106089556D01*
X170918317Y-106153323D01*
X170841409Y-106229265D01*
X170755876Y-106314424D01*
X170664646Y-106405845D01*
X170570644Y-106500569D01*
X170476798Y-106595641D01*
X170386033Y-106688103D01*
X170301277Y-106774999D01*
X170225456Y-106853372D01*
X170161497Y-106920265D01*
X170112326Y-106972722D01*
X170080869Y-107007785D01*
X170070049Y-107022434D01*
X169827859Y-107022434D01*
X169693798Y-106878760D01*
X169624216Y-106804448D01*
X169546119Y-106721483D01*
X169462594Y-106633102D01*
X169376730Y-106542541D01*
X169291615Y-106453036D01*
X169210336Y-106367823D01*
X169135981Y-106290139D01*
X169071637Y-106223220D01*
X169020394Y-106170303D01*
X168985337Y-106134623D01*
X168969556Y-106119416D01*
X168968996Y-106119106D01*
X168804750Y-106119106D01*
X168788796Y-105927807D01*
X167990714Y-105088485D01*
X167192632Y-104249164D01*
X167193219Y-104131852D01*
X167193806Y-104014539D01*
X167322725Y-104152253D01*
X167394876Y-104229063D01*
X167480060Y-104319304D01*
X167575979Y-104420575D01*
X167680334Y-104530476D01*
X167790826Y-104646604D01*
X167905156Y-104766558D01*
X168021025Y-104887936D01*
X168136135Y-105008338D01*
X168248186Y-105125362D01*
X168354881Y-105236606D01*
X168453920Y-105339669D01*
X168543003Y-105432150D01*
X168619834Y-105511647D01*
X168682112Y-105575758D01*
X168727538Y-105622083D01*
X168753815Y-105648219D01*
X168759574Y-105653233D01*
X168759970Y-105635791D01*
X168757792Y-105591135D01*
X168753417Y-105525340D01*
X168747225Y-105444483D01*
X168744567Y-105412183D01*
X168724772Y-105175921D01*
X168879758Y-105175921D01*
X168887760Y-105213520D01*
X168891840Y-105243255D01*
X168897575Y-105299203D01*
X168904299Y-105374236D01*
X168911352Y-105461225D01*
X168913793Y-105493421D01*
X168920992Y-105585861D01*
X168928258Y-105671707D01*
X168934864Y-105742847D01*
X168940084Y-105791169D01*
X168941261Y-105799939D01*
X168945702Y-105817942D01*
X168955313Y-105839017D01*
X168972140Y-105865525D01*
X168998225Y-105899828D01*
X169035613Y-105944289D01*
X169086346Y-106001271D01*
X169152470Y-106073136D01*
X169236026Y-106162246D01*
X169339060Y-106270964D01*
X169444167Y-106381275D01*
X169548738Y-106490441D01*
X169646351Y-106591540D01*
X169734578Y-106682115D01*
X169810988Y-106759708D01*
X169873151Y-106821862D01*
X169918637Y-106866118D01*
X169945017Y-106890018D01*
X169950643Y-106893574D01*
X169965443Y-106880681D01*
X170000039Y-106847060D01*
X170051071Y-106796082D01*
X170115183Y-106731120D01*
X170189016Y-106655548D01*
X170242411Y-106600493D01*
X170521173Y-106312237D01*
X169699210Y-106312237D01*
X169699210Y-105994737D01*
X170701842Y-105994737D01*
X170701842Y-106136206D01*
X170885658Y-105952960D01*
X171016052Y-105822971D01*
X171270000Y-105822971D01*
X171272429Y-105843477D01*
X171284724Y-105854902D01*
X171314396Y-105859880D01*
X171368955Y-105861044D01*
X171378618Y-105861052D01*
X171487237Y-105861052D01*
X171487237Y-105569584D01*
X171378618Y-105677237D01*
X171317346Y-105742687D01*
X171280699Y-105792829D01*
X171270000Y-105822971D01*
X171016052Y-105822971D01*
X171069474Y-105769715D01*
X171069474Y-105606502D01*
X171069985Y-105531414D01*
X171072328Y-105483645D01*
X171077711Y-105457098D01*
X171087344Y-105445679D01*
X171101871Y-105443289D01*
X171118027Y-105439780D01*
X171129969Y-105425711D01*
X171139139Y-105395769D01*
X171146982Y-105344642D01*
X171154942Y-105267017D01*
X171157496Y-105238585D01*
X171163026Y-105175921D01*
X168879758Y-105175921D01*
X168724772Y-105175921D01*
X168512763Y-105175921D01*
X168512763Y-105025526D01*
X168602859Y-105025526D01*
X168655555Y-105024083D01*
X168684188Y-105017116D01*
X168687691Y-105012970D01*
X168872234Y-105012970D01*
X168881946Y-105022442D01*
X168915588Y-105025366D01*
X168938294Y-105025526D01*
X169014079Y-105025526D01*
X169296694Y-105025526D01*
X171176519Y-105025526D01*
X171112938Y-104960413D01*
X171014186Y-104880062D01*
X170891968Y-104818089D01*
X170744213Y-104773646D01*
X170597401Y-104749065D01*
X170501316Y-104737596D01*
X170501316Y-104858421D01*
X169732632Y-104858421D01*
X169732632Y-104724737D01*
X169866316Y-104724737D01*
X170367632Y-104724737D01*
X170367632Y-104641184D01*
X169866316Y-104641184D01*
X169866316Y-104724737D01*
X169732632Y-104724737D01*
X169732632Y-104721345D01*
X169619835Y-104732776D01*
X169541025Y-104742425D01*
X169457057Y-104755214D01*
X169406776Y-104764348D01*
X169306513Y-104784488D01*
X169301603Y-104905007D01*
X169296694Y-105025526D01*
X169014079Y-105025526D01*
X169014079Y-104958684D01*
X169011869Y-104916810D01*
X169006350Y-104893536D01*
X169004126Y-104891842D01*
X168979387Y-104902560D01*
X168943243Y-104928563D01*
X168907010Y-104960623D01*
X168882001Y-104989511D01*
X168879773Y-104993267D01*
X168872234Y-105012970D01*
X168687691Y-105012970D01*
X168698081Y-105000674D01*
X168703689Y-104982762D01*
X168726578Y-104936279D01*
X168770540Y-104880400D01*
X168828011Y-104822960D01*
X168891427Y-104771793D01*
X168933082Y-104745143D01*
X168980534Y-104715972D01*
X169004859Y-104691467D01*
X169013405Y-104662572D01*
X169014062Y-104645362D01*
X169014063Y-104641184D01*
X169014079Y-104591052D01*
X169154726Y-104591052D01*
X169219436Y-104592617D01*
X169269870Y-104596785D01*
X169297906Y-104602773D01*
X169300943Y-104605197D01*
X169318727Y-104608918D01*
X169362008Y-104607394D01*
X169423349Y-104601075D01*
X169465263Y-104595240D01*
X169541263Y-104583778D01*
X169610770Y-104573430D01*
X169663003Y-104565796D01*
X169678322Y-104563627D01*
X169718347Y-104551232D01*
X169732632Y-104531808D01*
X169736975Y-104523898D01*
X169752510Y-104517863D01*
X169782999Y-104513466D01*
X169832200Y-104510469D01*
X169903874Y-104508635D01*
X170001781Y-104507725D01*
X170116974Y-104507500D01*
X170239914Y-104507628D01*
X170333441Y-104508230D01*
X170401560Y-104509639D01*
X170448281Y-104512181D01*
X170477609Y-104516189D01*
X170493551Y-104521991D01*
X170500115Y-104529917D01*
X170501316Y-104539133D01*
X170511540Y-104568385D01*
X170545030Y-104585031D01*
X170606012Y-104590968D01*
X170616983Y-104591052D01*
X170720254Y-104601706D01*
X170837547Y-104631033D01*
X170958285Y-104675084D01*
X171071889Y-104729911D01*
X171167781Y-104791564D01*
X171180201Y-104801332D01*
X171220682Y-104833115D01*
X171244655Y-104845844D01*
X171261396Y-104841729D01*
X171278581Y-104824750D01*
X171329336Y-104791492D01*
X171395393Y-104778725D01*
X171466526Y-104785365D01*
X171532514Y-104810327D01*
X171583132Y-104852529D01*
X171586797Y-104857434D01*
X171624672Y-104936211D01*
X171631719Y-105017754D01*
X171608715Y-105095487D01*
X171556437Y-105162835D01*
X171550044Y-105168396D01*
X171512927Y-105194813D01*
X171475267Y-105206447D01*
X171422324Y-105207287D01*
X171409098Y-105206542D01*
X171357297Y-105204641D01*
X171330614Y-105208996D01*
X171320955Y-105222138D01*
X171319963Y-105234408D01*
X171317939Y-105270002D01*
X171312914Y-105323533D01*
X171309303Y-105355559D01*
X171304066Y-105406427D01*
X171306244Y-105432468D01*
X171318875Y-105441986D01*
X171341375Y-105443289D01*
X171354718Y-105438986D01*
X171376244Y-105425057D01*
X171407548Y-105399977D01*
X171450224Y-105362219D01*
X171505868Y-105310256D01*
X171576075Y-105242562D01*
X171662440Y-105157611D01*
X171766558Y-105053875D01*
X171890025Y-104929828D01*
X172034436Y-104783944D01*
X172104031Y-104713449D01*
X172824079Y-103983610D01*
X172823256Y-104099337D01*
X172822433Y-104215066D01*
X172222115Y-104825000D01*
X171621796Y-105434934D01*
X171621359Y-105714835D01*
X171620921Y-105994737D01*
X171255337Y-105994737D01*
X171245917Y-106065756D01*
X171242350Y-106098127D01*
X171236338Y-106159087D01*
X171228201Y-106244998D01*
X171218262Y-106352226D01*
X171206843Y-106477133D01*
X171194264Y-106616083D01*
X171180847Y-106765441D01*
X171166915Y-106921568D01*
X171152788Y-107080830D01*
X171138788Y-107239590D01*
X171125237Y-107394211D01*
X171112456Y-107541057D01*
X171100767Y-107676493D01*
X171090492Y-107796880D01*
X171081952Y-107898584D01*
X171075469Y-107977967D01*
X171071364Y-108031394D01*
X171069959Y-108055229D01*
X171069960Y-108055342D01*
X171080204Y-108074466D01*
X171110974Y-108113955D01*
X171162689Y-108174266D01*
X171235767Y-108255861D01*
X171330627Y-108359198D01*
X171447687Y-108484738D01*
X171587367Y-108632940D01*
X171750084Y-108804263D01*
X171795821Y-108852237D01*
X172521195Y-109612566D01*
X172462551Y-109671052D01*
X172403908Y-109729539D01*
X172309026Y-109626310D01*
X172274315Y-109589003D01*
X172220094Y-109531311D01*
X172149941Y-109457013D01*
X172067432Y-109369889D01*
X171976145Y-109273718D01*
X171879658Y-109172280D01*
X171821935Y-109111695D01*
X171713566Y-108998197D01*
X171625972Y-108907285D01*
X171556920Y-108837307D01*
X171504176Y-108786610D01*
X171465506Y-108753540D01*
X171438677Y-108736444D01*
X171421456Y-108733669D01*
X171411608Y-108743563D01*
X171406901Y-108764471D01*
X171405101Y-108794741D01*
X171404859Y-108803002D01*
X171392342Y-108859909D01*
X171361503Y-108928693D01*
X171318497Y-108998475D01*
X171269480Y-109058378D01*
X171249866Y-109076882D01*
X171149230Y-109141628D01*
X171031673Y-109177854D01*
X170927738Y-109186447D01*
X170809951Y-109170239D01*
X170701169Y-109122712D01*
X170604890Y-109045511D01*
X170587125Y-109026295D01*
X170522168Y-108952500D01*
X169398421Y-108952500D01*
X169398421Y-109186447D01*
X169097632Y-109186447D01*
X169097632Y-109077152D01*
X169093857Y-109002539D01*
X169081175Y-108950750D01*
X169065763Y-108922580D01*
X169054750Y-108902424D01*
X169045321Y-108873200D01*
X169036849Y-108830575D01*
X169028710Y-108770217D01*
X169020279Y-108687793D01*
X169010932Y-108578972D01*
X169004531Y-108498017D01*
X168975169Y-108118732D01*
X168254341Y-108848938D01*
X168124008Y-108981066D01*
X167998892Y-109108096D01*
X167881279Y-109227695D01*
X167773455Y-109337528D01*
X167677705Y-109435263D01*
X167596317Y-109518566D01*
X167531577Y-109585104D01*
X167485770Y-109632542D01*
X167461208Y-109658520D01*
X167420855Y-109699649D01*
X167387195Y-109728335D01*
X167369090Y-109737895D01*
X167345965Y-109726697D01*
X167312257Y-109698719D01*
X167300831Y-109687326D01*
X167252383Y-109636757D01*
X167519119Y-109365702D01*
X167587169Y-109296652D01*
X167674915Y-109207774D01*
X167778508Y-109102959D01*
X167894100Y-108986097D01*
X168017841Y-108861079D01*
X168145881Y-108731795D01*
X168274372Y-108602136D01*
X168366546Y-108509179D01*
X168506658Y-108367520D01*
X168624368Y-108247591D01*
X168721180Y-108147768D01*
X168798601Y-108066428D01*
X168858136Y-108001948D01*
X168887642Y-107968277D01*
X169124591Y-107968277D01*
X169154257Y-108347592D01*
X169163203Y-108458777D01*
X169171858Y-108560453D01*
X169179729Y-108647304D01*
X169186328Y-108714018D01*
X169191164Y-108755279D01*
X169192720Y-108764506D01*
X169201518Y-108802105D01*
X170463319Y-108802105D01*
X170471742Y-108697173D01*
X170497172Y-108573195D01*
X170550389Y-108463524D01*
X170628037Y-108372156D01*
X170726763Y-108303083D01*
X170837572Y-108261620D01*
X170873520Y-108242171D01*
X170891517Y-108200430D01*
X170891894Y-108198589D01*
X170894053Y-108180967D01*
X170891384Y-108162922D01*
X170881280Y-108141108D01*
X170861137Y-108112177D01*
X170828349Y-108072783D01*
X170780310Y-108019577D01*
X170714416Y-107949214D01*
X170628060Y-107858346D01*
X170622480Y-107852493D01*
X170529595Y-107754956D01*
X170430845Y-107651067D01*
X170333016Y-107547977D01*
X170242893Y-107452839D01*
X170167262Y-107372804D01*
X170150395Y-107354911D01*
X170085735Y-107287444D01*
X170028295Y-107229709D01*
X169982199Y-107185675D01*
X169951569Y-107159314D01*
X169941285Y-107153521D01*
X169925948Y-107165646D01*
X169890083Y-107198910D01*
X169836512Y-107250542D01*
X169768060Y-107317775D01*
X169687553Y-107397837D01*
X169597813Y-107487961D01*
X169524468Y-107562198D01*
X169124591Y-107968277D01*
X168887642Y-107968277D01*
X168901291Y-107952703D01*
X168929571Y-107917071D01*
G36*
X93740749Y-106392036D02*
G01*
X93784544Y-106408972D01*
X93851293Y-106442601D01*
X93947137Y-106495334D01*
X93954599Y-106499525D01*
X94042871Y-106550001D01*
X94117363Y-106594223D01*
X94170760Y-106627731D01*
X94195746Y-106646064D01*
X94196445Y-106646962D01*
X94190409Y-106672414D01*
X94162723Y-106729255D01*
X94115188Y-106814389D01*
X94049611Y-106924717D01*
X93967797Y-107057144D01*
X93871548Y-107208571D01*
X93847594Y-107245707D01*
X93785183Y-107348757D01*
X93739737Y-107437432D01*
X93715246Y-107503714D01*
X93712733Y-107516807D01*
X93713848Y-107574443D01*
X93726343Y-107665865D01*
X93748660Y-107785208D01*
X93779240Y-107926609D01*
X93816528Y-108084203D01*
X93858965Y-108252126D01*
X93904994Y-108424514D01*
X93953057Y-108595501D01*
X94001597Y-108759224D01*
X94049057Y-108909818D01*
X94093878Y-109041420D01*
X94134503Y-109148163D01*
X94162823Y-109211494D01*
X94196183Y-109278957D01*
X94227682Y-109343511D01*
X94229387Y-109347045D01*
X94281498Y-109412250D01*
X94357554Y-109456156D01*
X94446092Y-109477197D01*
X94535648Y-109473807D01*
X94614758Y-109444423D01*
X94659264Y-109405736D01*
X94723356Y-109299636D01*
X94770322Y-109167405D01*
X94796090Y-109022527D01*
X94799741Y-108940394D01*
X94785039Y-108787105D01*
X94741890Y-108660166D01*
X94667972Y-108553418D01*
X94644921Y-108529657D01*
X94576325Y-108463009D01*
X94571614Y-107991916D01*
X94566903Y-107520822D01*
X94686946Y-107339106D01*
X94743277Y-107256856D01*
X94797528Y-107182865D01*
X94841959Y-107127448D01*
X94861056Y-107107056D01*
X94915124Y-107056723D01*
X94988350Y-107096158D01*
X95034633Y-107124415D01*
X95059957Y-107146354D01*
X95061576Y-107150299D01*
X95078884Y-107167023D01*
X95108497Y-107179476D01*
X95137114Y-107190700D01*
X95180934Y-107212024D01*
X95243718Y-107245529D01*
X95329228Y-107293296D01*
X95441226Y-107357407D01*
X95583473Y-107439944D01*
X95660773Y-107485065D01*
X95751702Y-107539111D01*
X95811339Y-107577604D01*
X95844961Y-107605044D01*
X95857844Y-107625934D01*
X95855265Y-107644775D01*
X95853115Y-107649152D01*
X95832197Y-107676714D01*
X95787440Y-107728416D01*
X95724057Y-107798475D01*
X95647262Y-107881107D01*
X95580844Y-107951156D01*
X95427790Y-108117414D01*
X95308056Y-108261519D01*
X95220573Y-108384921D01*
X95164274Y-108489068D01*
X95145284Y-108541954D01*
X95137440Y-108588250D01*
X95129338Y-108667221D01*
X95121691Y-108769846D01*
X95115212Y-108887103D01*
X95112163Y-108961248D01*
X95107908Y-109089427D01*
X95106036Y-109183138D01*
X95107099Y-109249583D01*
X95111646Y-109295961D01*
X95120227Y-109329474D01*
X95133394Y-109357321D01*
X95143735Y-109374324D01*
X95203456Y-109439862D01*
X95280411Y-109485532D01*
X95361380Y-109505450D01*
X95422058Y-109498244D01*
X95476999Y-109467066D01*
X95545867Y-109411230D01*
X95619005Y-109340474D01*
X95686752Y-109264537D01*
X95739450Y-109193159D01*
X95758853Y-109158668D01*
X95787919Y-109111441D01*
X95840783Y-109039506D01*
X95912616Y-108948485D01*
X95998588Y-108844000D01*
X96093868Y-108731675D01*
X96193627Y-108617130D01*
X96293034Y-108505990D01*
X96387259Y-108403875D01*
X96471473Y-108316408D01*
X96537591Y-108252198D01*
X96610999Y-108188057D01*
X96672753Y-108140763D01*
X96716066Y-108115235D01*
X96730445Y-108112429D01*
X96752479Y-108123752D01*
X96807438Y-108154144D01*
X96892152Y-108201780D01*
X97003448Y-108264835D01*
X97138156Y-108341485D01*
X97293103Y-108429905D01*
X97465119Y-108528270D01*
X97651032Y-108634756D01*
X97847670Y-108747537D01*
X98051863Y-108864789D01*
X98260439Y-108984687D01*
X98470225Y-109105407D01*
X98678052Y-109225123D01*
X98880747Y-109342011D01*
X99075140Y-109454246D01*
X99258058Y-109560004D01*
X99426330Y-109657460D01*
X99576785Y-109744788D01*
X99706251Y-109820165D01*
X99811557Y-109881765D01*
X99889532Y-109927764D01*
X99937004Y-109956337D01*
X99950763Y-109965304D01*
X99932231Y-109967076D01*
X99873933Y-109968799D01*
X99777809Y-109970464D01*
X99645799Y-109972063D01*
X99479846Y-109973587D01*
X99281889Y-109975029D01*
X99053870Y-109976380D01*
X98797729Y-109977632D01*
X98515408Y-109978776D01*
X98208847Y-109979804D01*
X97879987Y-109980708D01*
X97530769Y-109981479D01*
X97163135Y-109982109D01*
X96779024Y-109982590D01*
X96380377Y-109982914D01*
X95969137Y-109983072D01*
X95796580Y-109983087D01*
X91622586Y-109983087D01*
X91920268Y-109466954D01*
X91983286Y-109357665D01*
X92064406Y-109216940D01*
X92160916Y-109049486D01*
X92270103Y-108860012D01*
X92389255Y-108653223D01*
X92515660Y-108433828D01*
X92646605Y-108206533D01*
X92779379Y-107976046D01*
X92911269Y-107747073D01*
X92944624Y-107689163D01*
X93066247Y-107478232D01*
X93182228Y-107277535D01*
X93290825Y-107090059D01*
X93390294Y-106918792D01*
X93478892Y-106766723D01*
X93554878Y-106636838D01*
X93616507Y-106532125D01*
X93662037Y-106455573D01*
X93689725Y-106410169D01*
X93697472Y-106398609D01*
X93713772Y-106389385D01*
X93740749Y-106392036D01*
G37*
X93740749Y-106392036D02*
X93784544Y-106408972D01*
X93851293Y-106442601D01*
X93947137Y-106495334D01*
X93954599Y-106499525D01*
X94042871Y-106550001D01*
X94117363Y-106594223D01*
X94170760Y-106627731D01*
X94195746Y-106646064D01*
X94196445Y-106646962D01*
X94190409Y-106672414D01*
X94162723Y-106729255D01*
X94115188Y-106814389D01*
X94049611Y-106924717D01*
X93967797Y-107057144D01*
X93871548Y-107208571D01*
X93847594Y-107245707D01*
X93785183Y-107348757D01*
X93739737Y-107437432D01*
X93715246Y-107503714D01*
X93712733Y-107516807D01*
X93713848Y-107574443D01*
X93726343Y-107665865D01*
X93748660Y-107785208D01*
X93779240Y-107926609D01*
X93816528Y-108084203D01*
X93858965Y-108252126D01*
X93904994Y-108424514D01*
X93953057Y-108595501D01*
X94001597Y-108759224D01*
X94049057Y-108909818D01*
X94093878Y-109041420D01*
X94134503Y-109148163D01*
X94162823Y-109211494D01*
X94196183Y-109278957D01*
X94227682Y-109343511D01*
X94229387Y-109347045D01*
X94281498Y-109412250D01*
X94357554Y-109456156D01*
X94446092Y-109477197D01*
X94535648Y-109473807D01*
X94614758Y-109444423D01*
X94659264Y-109405736D01*
X94723356Y-109299636D01*
X94770322Y-109167405D01*
X94796090Y-109022527D01*
X94799741Y-108940394D01*
X94785039Y-108787105D01*
X94741890Y-108660166D01*
X94667972Y-108553418D01*
X94644921Y-108529657D01*
X94576325Y-108463009D01*
X94571614Y-107991916D01*
X94566903Y-107520822D01*
X94686946Y-107339106D01*
X94743277Y-107256856D01*
X94797528Y-107182865D01*
X94841959Y-107127448D01*
X94861056Y-107107056D01*
X94915124Y-107056723D01*
X94988350Y-107096158D01*
X95034633Y-107124415D01*
X95059957Y-107146354D01*
X95061576Y-107150299D01*
X95078884Y-107167023D01*
X95108497Y-107179476D01*
X95137114Y-107190700D01*
X95180934Y-107212024D01*
X95243718Y-107245529D01*
X95329228Y-107293296D01*
X95441226Y-107357407D01*
X95583473Y-107439944D01*
X95660773Y-107485065D01*
X95751702Y-107539111D01*
X95811339Y-107577604D01*
X95844961Y-107605044D01*
X95857844Y-107625934D01*
X95855265Y-107644775D01*
X95853115Y-107649152D01*
X95832197Y-107676714D01*
X95787440Y-107728416D01*
X95724057Y-107798475D01*
X95647262Y-107881107D01*
X95580844Y-107951156D01*
X95427790Y-108117414D01*
X95308056Y-108261519D01*
X95220573Y-108384921D01*
X95164274Y-108489068D01*
X95145284Y-108541954D01*
X95137440Y-108588250D01*
X95129338Y-108667221D01*
X95121691Y-108769846D01*
X95115212Y-108887103D01*
X95112163Y-108961248D01*
X95107908Y-109089427D01*
X95106036Y-109183138D01*
X95107099Y-109249583D01*
X95111646Y-109295961D01*
X95120227Y-109329474D01*
X95133394Y-109357321D01*
X95143735Y-109374324D01*
X95203456Y-109439862D01*
X95280411Y-109485532D01*
X95361380Y-109505450D01*
X95422058Y-109498244D01*
X95476999Y-109467066D01*
X95545867Y-109411230D01*
X95619005Y-109340474D01*
X95686752Y-109264537D01*
X95739450Y-109193159D01*
X95758853Y-109158668D01*
X95787919Y-109111441D01*
X95840783Y-109039506D01*
X95912616Y-108948485D01*
X95998588Y-108844000D01*
X96093868Y-108731675D01*
X96193627Y-108617130D01*
X96293034Y-108505990D01*
X96387259Y-108403875D01*
X96471473Y-108316408D01*
X96537591Y-108252198D01*
X96610999Y-108188057D01*
X96672753Y-108140763D01*
X96716066Y-108115235D01*
X96730445Y-108112429D01*
X96752479Y-108123752D01*
X96807438Y-108154144D01*
X96892152Y-108201780D01*
X97003448Y-108264835D01*
X97138156Y-108341485D01*
X97293103Y-108429905D01*
X97465119Y-108528270D01*
X97651032Y-108634756D01*
X97847670Y-108747537D01*
X98051863Y-108864789D01*
X98260439Y-108984687D01*
X98470225Y-109105407D01*
X98678052Y-109225123D01*
X98880747Y-109342011D01*
X99075140Y-109454246D01*
X99258058Y-109560004D01*
X99426330Y-109657460D01*
X99576785Y-109744788D01*
X99706251Y-109820165D01*
X99811557Y-109881765D01*
X99889532Y-109927764D01*
X99937004Y-109956337D01*
X99950763Y-109965304D01*
X99932231Y-109967076D01*
X99873933Y-109968799D01*
X99777809Y-109970464D01*
X99645799Y-109972063D01*
X99479846Y-109973587D01*
X99281889Y-109975029D01*
X99053870Y-109976380D01*
X98797729Y-109977632D01*
X98515408Y-109978776D01*
X98208847Y-109979804D01*
X97879987Y-109980708D01*
X97530769Y-109981479D01*
X97163135Y-109982109D01*
X96779024Y-109982590D01*
X96380377Y-109982914D01*
X95969137Y-109983072D01*
X95796580Y-109983087D01*
X91622586Y-109983087D01*
X91920268Y-109466954D01*
X91983286Y-109357665D01*
X92064406Y-109216940D01*
X92160916Y-109049486D01*
X92270103Y-108860012D01*
X92389255Y-108653223D01*
X92515660Y-108433828D01*
X92646605Y-108206533D01*
X92779379Y-107976046D01*
X92911269Y-107747073D01*
X92944624Y-107689163D01*
X93066247Y-107478232D01*
X93182228Y-107277535D01*
X93290825Y-107090059D01*
X93390294Y-106918792D01*
X93478892Y-106766723D01*
X93554878Y-106636838D01*
X93616507Y-106532125D01*
X93662037Y-106455573D01*
X93689725Y-106410169D01*
X93697472Y-106398609D01*
X93713772Y-106389385D01*
X93740749Y-106392036D01*
G36*
X96220878Y-102076166D02*
G01*
X96251876Y-102126538D01*
X96299634Y-102206341D01*
X96362194Y-102312180D01*
X96437597Y-102440659D01*
X96523885Y-102588384D01*
X96619101Y-102751958D01*
X96721285Y-102927987D01*
X96828481Y-103113075D01*
X96938729Y-103303827D01*
X97050071Y-103496847D01*
X97160550Y-103688741D01*
X97268207Y-103876111D01*
X97371084Y-104055565D01*
X97467223Y-104223705D01*
X97554665Y-104377137D01*
X97631453Y-104512465D01*
X97695628Y-104626294D01*
X97745233Y-104715229D01*
X97778309Y-104775874D01*
X97792897Y-104804833D01*
X97793431Y-104806644D01*
X97775321Y-104831217D01*
X97724980Y-104868807D01*
X97648395Y-104915722D01*
X97551552Y-104968274D01*
X97450167Y-105018213D01*
X97312215Y-105078769D01*
X97167142Y-105133179D01*
X97009950Y-105182651D01*
X96835643Y-105228395D01*
X96639222Y-105271620D01*
X96415689Y-105313534D01*
X96160048Y-105355347D01*
X95895606Y-105394284D01*
X95665852Y-105428828D01*
X95472917Y-105463026D01*
X95311964Y-105498577D01*
X95178155Y-105537182D01*
X95066650Y-105580539D01*
X94972614Y-105630348D01*
X94891206Y-105688309D01*
X94817590Y-105756120D01*
X94793851Y-105781312D01*
X94742397Y-105839958D01*
X94704334Y-105887815D01*
X94686677Y-105915958D01*
X94686206Y-105918265D01*
X94680028Y-105932416D01*
X94658590Y-105932575D01*
X94617533Y-105916861D01*
X94552501Y-105883391D01*
X94459137Y-105830281D01*
X94394252Y-105792088D01*
X94297501Y-105732385D01*
X94222312Y-105681263D01*
X94173739Y-105642399D01*
X94156835Y-105619472D01*
X94156845Y-105619305D01*
X94167328Y-105597456D01*
X94196931Y-105542739D01*
X94243938Y-105458136D01*
X94306629Y-105346629D01*
X94383286Y-105211201D01*
X94472191Y-105054833D01*
X94571626Y-104880507D01*
X94679872Y-104691206D01*
X94795211Y-104489911D01*
X94915924Y-104279605D01*
X95040294Y-104063271D01*
X95166601Y-103843889D01*
X95293127Y-103624442D01*
X95418155Y-103407912D01*
X95539965Y-103197281D01*
X95656839Y-102995532D01*
X95767060Y-102805647D01*
X95868908Y-102630606D01*
X95960665Y-102473394D01*
X96040613Y-102336991D01*
X96107034Y-102224380D01*
X96158209Y-102138543D01*
X96192420Y-102082462D01*
X96207948Y-102059119D01*
X96208598Y-102058621D01*
X96220878Y-102076166D01*
G37*
X96220878Y-102076166D02*
X96251876Y-102126538D01*
X96299634Y-102206341D01*
X96362194Y-102312180D01*
X96437597Y-102440659D01*
X96523885Y-102588384D01*
X96619101Y-102751958D01*
X96721285Y-102927987D01*
X96828481Y-103113075D01*
X96938729Y-103303827D01*
X97050071Y-103496847D01*
X97160550Y-103688741D01*
X97268207Y-103876111D01*
X97371084Y-104055565D01*
X97467223Y-104223705D01*
X97554665Y-104377137D01*
X97631453Y-104512465D01*
X97695628Y-104626294D01*
X97745233Y-104715229D01*
X97778309Y-104775874D01*
X97792897Y-104804833D01*
X97793431Y-104806644D01*
X97775321Y-104831217D01*
X97724980Y-104868807D01*
X97648395Y-104915722D01*
X97551552Y-104968274D01*
X97450167Y-105018213D01*
X97312215Y-105078769D01*
X97167142Y-105133179D01*
X97009950Y-105182651D01*
X96835643Y-105228395D01*
X96639222Y-105271620D01*
X96415689Y-105313534D01*
X96160048Y-105355347D01*
X95895606Y-105394284D01*
X95665852Y-105428828D01*
X95472917Y-105463026D01*
X95311964Y-105498577D01*
X95178155Y-105537182D01*
X95066650Y-105580539D01*
X94972614Y-105630348D01*
X94891206Y-105688309D01*
X94817590Y-105756120D01*
X94793851Y-105781312D01*
X94742397Y-105839958D01*
X94704334Y-105887815D01*
X94686677Y-105915958D01*
X94686206Y-105918265D01*
X94680028Y-105932416D01*
X94658590Y-105932575D01*
X94617533Y-105916861D01*
X94552501Y-105883391D01*
X94459137Y-105830281D01*
X94394252Y-105792088D01*
X94297501Y-105732385D01*
X94222312Y-105681263D01*
X94173739Y-105642399D01*
X94156835Y-105619472D01*
X94156845Y-105619305D01*
X94167328Y-105597456D01*
X94196931Y-105542739D01*
X94243938Y-105458136D01*
X94306629Y-105346629D01*
X94383286Y-105211201D01*
X94472191Y-105054833D01*
X94571626Y-104880507D01*
X94679872Y-104691206D01*
X94795211Y-104489911D01*
X94915924Y-104279605D01*
X95040294Y-104063271D01*
X95166601Y-103843889D01*
X95293127Y-103624442D01*
X95418155Y-103407912D01*
X95539965Y-103197281D01*
X95656839Y-102995532D01*
X95767060Y-102805647D01*
X95868908Y-102630606D01*
X95960665Y-102473394D01*
X96040613Y-102336991D01*
X96107034Y-102224380D01*
X96158209Y-102138543D01*
X96192420Y-102082462D01*
X96207948Y-102059119D01*
X96208598Y-102058621D01*
X96220878Y-102076166D01*
G36*
X98676146Y-106315908D02*
G01*
X98691469Y-106341590D01*
X98725911Y-106400469D01*
X98777769Y-106489602D01*
X98845340Y-106606049D01*
X98926921Y-106746867D01*
X99020809Y-106909114D01*
X99125299Y-107089849D01*
X99238690Y-107286130D01*
X99359278Y-107495016D01*
X99483313Y-107710017D01*
X99609987Y-107929649D01*
X99731608Y-108140495D01*
X99846412Y-108339499D01*
X99952638Y-108523607D01*
X100048523Y-108689765D01*
X100132302Y-108834917D01*
X100202214Y-108956009D01*
X100256496Y-109049988D01*
X100293385Y-109113797D01*
X100310731Y-109143719D01*
X100339007Y-109194271D01*
X100354382Y-109225914D01*
X100355224Y-109231420D01*
X100336488Y-109221082D01*
X100284386Y-109191407D01*
X100201640Y-109143968D01*
X100090975Y-109080333D01*
X99955114Y-109002074D01*
X99796781Y-108910759D01*
X99618698Y-108807960D01*
X99423590Y-108695247D01*
X99214180Y-108574189D01*
X98993191Y-108446357D01*
X98909113Y-108397702D01*
X98684170Y-108267567D01*
X98469524Y-108143497D01*
X98267932Y-108027077D01*
X98082148Y-107919893D01*
X97914928Y-107823531D01*
X97769027Y-107739578D01*
X97647201Y-107669620D01*
X97552204Y-107615243D01*
X97486792Y-107578034D01*
X97453720Y-107559578D01*
X97450262Y-107557830D01*
X97460339Y-107542005D01*
X97495407Y-107499692D01*
X97551885Y-107434790D01*
X97626193Y-107351196D01*
X97714752Y-107252809D01*
X97813980Y-107143525D01*
X97920298Y-107027244D01*
X98030125Y-106907862D01*
X98139882Y-106789277D01*
X98245988Y-106675388D01*
X98344862Y-106570092D01*
X98432926Y-106477287D01*
X98506599Y-106400870D01*
X98562300Y-106344740D01*
X98581403Y-106326335D01*
X98644708Y-106266872D01*
X98676146Y-106315908D01*
G37*
X98676146Y-106315908D02*
X98691469Y-106341590D01*
X98725911Y-106400469D01*
X98777769Y-106489602D01*
X98845340Y-106606049D01*
X98926921Y-106746867D01*
X99020809Y-106909114D01*
X99125299Y-107089849D01*
X99238690Y-107286130D01*
X99359278Y-107495016D01*
X99483313Y-107710017D01*
X99609987Y-107929649D01*
X99731608Y-108140495D01*
X99846412Y-108339499D01*
X99952638Y-108523607D01*
X100048523Y-108689765D01*
X100132302Y-108834917D01*
X100202214Y-108956009D01*
X100256496Y-109049988D01*
X100293385Y-109113797D01*
X100310731Y-109143719D01*
X100339007Y-109194271D01*
X100354382Y-109225914D01*
X100355224Y-109231420D01*
X100336488Y-109221082D01*
X100284386Y-109191407D01*
X100201640Y-109143968D01*
X100090975Y-109080333D01*
X99955114Y-109002074D01*
X99796781Y-108910759D01*
X99618698Y-108807960D01*
X99423590Y-108695247D01*
X99214180Y-108574189D01*
X98993191Y-108446357D01*
X98909113Y-108397702D01*
X98684170Y-108267567D01*
X98469524Y-108143497D01*
X98267932Y-108027077D01*
X98082148Y-107919893D01*
X97914928Y-107823531D01*
X97769027Y-107739578D01*
X97647201Y-107669620D01*
X97552204Y-107615243D01*
X97486792Y-107578034D01*
X97453720Y-107559578D01*
X97450262Y-107557830D01*
X97460339Y-107542005D01*
X97495407Y-107499692D01*
X97551885Y-107434790D01*
X97626193Y-107351196D01*
X97714752Y-107252809D01*
X97813980Y-107143525D01*
X97920298Y-107027244D01*
X98030125Y-106907862D01*
X98139882Y-106789277D01*
X98245988Y-106675388D01*
X98344862Y-106570092D01*
X98432926Y-106477287D01*
X98506599Y-106400870D01*
X98562300Y-106344740D01*
X98581403Y-106326335D01*
X98644708Y-106266872D01*
X98676146Y-106315908D01*
M02*
