G04 #@! TF.GenerationSoftware,KiCad,Pcbnew,(6.0.6)*
G04 #@! TF.CreationDate,2022-06-25T19:15:55+02:00*
G04 #@! TF.ProjectId,brutzelkarte,62727574-7a65-46c6-9b61-7274652e6b69,rev?*
G04 #@! TF.SameCoordinates,Original*
G04 #@! TF.FileFunction,Copper,L2,Bot*
G04 #@! TF.FilePolarity,Positive*
%FSLAX46Y46*%
G04 Gerber Fmt 4.6, Leading zero omitted, Abs format (unit mm)*
G04 Created by KiCad (PCBNEW (6.0.6)) date 2022-06-25 19:15:55*
%MOMM*%
%LPD*%
G01*
G04 APERTURE LIST*
G04 #@! TA.AperFunction,ComponentPad*
%ADD10C,2.500000*%
G04 #@! TD*
G04 #@! TA.AperFunction,ComponentPad*
%ADD11R,1.700000X1.700000*%
G04 #@! TD*
G04 #@! TA.AperFunction,ComponentPad*
%ADD12O,1.700000X1.700000*%
G04 #@! TD*
G04 #@! TA.AperFunction,SMDPad,CuDef*
%ADD13R,1.500000X7.000000*%
G04 #@! TD*
G04 #@! TA.AperFunction,ViaPad*
%ADD14C,0.600000*%
G04 #@! TD*
G04 #@! TA.AperFunction,Conductor*
%ADD15C,1.000000*%
G04 #@! TD*
G04 #@! TA.AperFunction,Conductor*
%ADD16C,0.250000*%
G04 #@! TD*
G04 APERTURE END LIST*
D10*
X85350000Y-122600000D03*
X180150000Y-122600000D03*
D11*
X102500000Y-90500000D03*
D12*
X102500000Y-87960000D03*
X105040000Y-90500000D03*
X105040000Y-87960000D03*
X107580000Y-90500000D03*
X107580000Y-87960000D03*
X110120000Y-90500000D03*
X110120000Y-87960000D03*
X112660000Y-90500000D03*
X112660000Y-87960000D03*
X115200000Y-90500000D03*
X115200000Y-87960000D03*
X117740000Y-90500000D03*
X117740000Y-87960000D03*
X120280000Y-90500000D03*
X120280000Y-87960000D03*
X122820000Y-90500000D03*
X122820000Y-87960000D03*
X125360000Y-90500000D03*
X125360000Y-87960000D03*
X127900000Y-90500000D03*
X127900000Y-87960000D03*
X130440000Y-90500000D03*
X130440000Y-87960000D03*
X132980000Y-90500000D03*
X132980000Y-87960000D03*
X135520000Y-90500000D03*
X135520000Y-87960000D03*
X138060000Y-90500000D03*
X138060000Y-87960000D03*
X140600000Y-90500000D03*
X140600000Y-87960000D03*
X143140000Y-90500000D03*
X143140000Y-87960000D03*
X145680000Y-90500000D03*
X145680000Y-87960000D03*
X148220000Y-90500000D03*
X148220000Y-87960000D03*
X150760000Y-90500000D03*
X150760000Y-87960000D03*
X153300000Y-90500000D03*
X153300000Y-87960000D03*
X155840000Y-90500000D03*
X155840000Y-87960000D03*
X158380000Y-90500000D03*
X158380000Y-87960000D03*
X160920000Y-90500000D03*
X160920000Y-87960000D03*
X163460000Y-90500000D03*
X163460000Y-87960000D03*
D13*
X162750000Y-126000000D03*
X160250000Y-126000000D03*
X157750000Y-126000000D03*
X155250000Y-126000000D03*
X152750000Y-126000000D03*
X150250000Y-126000000D03*
X147750000Y-126000000D03*
X145250000Y-126000000D03*
X142750000Y-126000000D03*
X140250000Y-126000000D03*
X137750000Y-126000000D03*
X135250000Y-126000000D03*
X132750000Y-126000000D03*
X130250000Y-126000000D03*
X127750000Y-126000000D03*
X125250000Y-126000000D03*
X122750000Y-126000000D03*
X120250000Y-126000000D03*
X117750000Y-126000000D03*
X115250000Y-126000000D03*
X112750000Y-126000000D03*
X110250000Y-126000000D03*
X107750000Y-126000000D03*
X105250000Y-126000000D03*
X102750000Y-126000000D03*
D14*
X116500000Y-94500000D03*
X119000000Y-94500000D03*
X121500000Y-94500000D03*
X124000000Y-94500000D03*
X126500000Y-94500000D03*
X129000000Y-94500000D03*
X131500000Y-94500000D03*
X134000000Y-94500000D03*
X136500000Y-94500000D03*
X139000000Y-94500000D03*
X141500000Y-94500000D03*
X144000000Y-94500000D03*
X146500000Y-94500000D03*
X149000000Y-94500000D03*
X151500000Y-94500000D03*
X154000000Y-94500000D03*
X156500000Y-94500000D03*
X159000000Y-94500000D03*
X111500000Y-94500000D03*
X109000000Y-94500000D03*
X106500000Y-94500000D03*
X104000000Y-94500000D03*
X124000000Y-98500000D03*
X126500000Y-98500000D03*
X129000000Y-98500000D03*
X136500000Y-98500000D03*
X139000000Y-98500000D03*
X149000000Y-98500000D03*
X121500000Y-98500000D03*
X106500000Y-98500000D03*
X159000000Y-98500000D03*
X104000000Y-98500000D03*
X109000000Y-98500000D03*
X131500000Y-98500000D03*
X116500000Y-98500000D03*
X154000000Y-98500000D03*
X151500000Y-98500000D03*
X144000000Y-98500000D03*
X146500000Y-98500000D03*
X134000000Y-98500000D03*
X119000000Y-98500000D03*
X156500000Y-98500000D03*
X114000000Y-98500000D03*
X141500000Y-98500000D03*
X111500000Y-98500000D03*
X104000000Y-102500000D03*
X126500000Y-102500000D03*
X109000000Y-102500000D03*
X111500000Y-102500000D03*
X159000000Y-102500000D03*
X124000000Y-102500000D03*
X156500000Y-102500000D03*
X151500000Y-102500000D03*
X129000000Y-102500000D03*
X131500000Y-102500000D03*
X154000000Y-102500000D03*
X121500000Y-102500000D03*
X134000000Y-102500000D03*
X114000000Y-102500000D03*
X149000000Y-102500000D03*
X136500000Y-102500000D03*
X144000000Y-102500000D03*
X141500000Y-102500000D03*
X146500000Y-102500000D03*
X139000000Y-102500000D03*
X116500000Y-102500000D03*
X119000000Y-102500000D03*
X106500000Y-102500000D03*
X151500000Y-106500000D03*
X136500000Y-106500000D03*
X154000000Y-106500000D03*
X116500000Y-106500000D03*
X114000000Y-106500000D03*
X106500000Y-106500000D03*
X146500000Y-106500000D03*
X144000000Y-106500000D03*
X156500000Y-106500000D03*
X121500000Y-106500000D03*
X104000000Y-106500000D03*
X139000000Y-106500000D03*
X124000000Y-106500000D03*
X109000000Y-106500000D03*
X134000000Y-106500000D03*
X126500000Y-106500000D03*
X119000000Y-106500000D03*
X131500000Y-106500000D03*
X129000000Y-106500000D03*
X111500000Y-106500000D03*
X149000000Y-106500000D03*
X141500000Y-106500000D03*
X159000000Y-106500000D03*
X156500000Y-110500000D03*
X114000000Y-110500000D03*
X119000000Y-110500000D03*
X126500000Y-110500000D03*
X144000000Y-110500000D03*
X116500000Y-110500000D03*
X151500000Y-110500000D03*
X109000000Y-110500000D03*
X159000000Y-110500000D03*
X124000000Y-110500000D03*
X154000000Y-110500000D03*
X106500000Y-110500000D03*
X129000000Y-110500000D03*
X111500000Y-110500000D03*
X121500000Y-110500000D03*
X104000000Y-110500000D03*
X149000000Y-110500000D03*
X139000000Y-110500000D03*
X141500000Y-110500000D03*
X146500000Y-110500000D03*
X131500000Y-110500000D03*
X136500000Y-110500000D03*
X134000000Y-110500000D03*
X104000000Y-114500000D03*
X106500000Y-114500000D03*
X156500000Y-114500000D03*
X121500000Y-114500000D03*
X141500000Y-114500000D03*
X124000000Y-114500000D03*
X109000000Y-114500000D03*
X154000000Y-114500000D03*
X111500000Y-114500000D03*
X136500000Y-114500000D03*
X151500000Y-114500000D03*
X119000000Y-114500000D03*
X126500000Y-114500000D03*
X129000000Y-114500000D03*
X144000000Y-114500000D03*
X159000000Y-114500000D03*
X131500000Y-114500000D03*
X116500000Y-114500000D03*
X149000000Y-114500000D03*
X114000000Y-114500000D03*
X146500000Y-114500000D03*
X139000000Y-114500000D03*
X134000000Y-114500000D03*
X124000000Y-118500000D03*
X149000000Y-118500000D03*
X141500000Y-118500000D03*
X121500000Y-118500000D03*
X134000000Y-118500000D03*
X146500000Y-118500000D03*
X144000000Y-118500000D03*
X154000000Y-118500000D03*
X114000000Y-118500000D03*
X111500000Y-118500000D03*
X156500000Y-118500000D03*
X119000000Y-118500000D03*
X131500000Y-118500000D03*
X116500000Y-118500000D03*
X126500000Y-118500000D03*
X159000000Y-118500000D03*
X104000000Y-118500000D03*
X151500000Y-118500000D03*
X109000000Y-118500000D03*
X129000000Y-118500000D03*
X106500000Y-118500000D03*
X136500000Y-118500000D03*
X139000000Y-118500000D03*
X114000000Y-94500000D03*
D15*
X107750000Y-126000000D02*
X107750000Y-120250000D01*
X110250000Y-126000000D02*
X110250000Y-120250000D01*
X160250000Y-126000000D02*
X160250000Y-120250000D01*
X150250000Y-126000000D02*
X150250000Y-120750000D01*
X162750000Y-126000000D02*
X162750000Y-120250000D01*
X102750000Y-126000000D02*
X102750000Y-120250000D01*
X122820000Y-86860000D02*
X124180000Y-85500000D01*
X122820000Y-87960000D02*
X122820000Y-86860000D01*
X122750000Y-126000000D02*
X122750000Y-88030000D01*
X143140000Y-90500000D02*
X143140000Y-87960000D01*
X124180000Y-85500000D02*
X141500000Y-85500000D01*
X141500000Y-85500000D02*
X143140000Y-87140000D01*
X122750000Y-88030000D02*
X122820000Y-87960000D01*
X143140000Y-87140000D02*
X143140000Y-87960000D01*
X142750000Y-90890000D02*
X143140000Y-90500000D01*
X142750000Y-126000000D02*
X142750000Y-90890000D01*
D16*
X127750000Y-126000000D02*
X127750000Y-90650000D01*
X127750000Y-90650000D02*
X127900000Y-90500000D01*
X125250000Y-126000000D02*
X125250000Y-90610000D01*
X125250000Y-90610000D02*
X125360000Y-90500000D01*
X120250000Y-126000000D02*
X120250000Y-90530000D01*
X120250000Y-90530000D02*
X120280000Y-90500000D01*
X117750000Y-90510000D02*
X117740000Y-90500000D01*
X117750000Y-126000000D02*
X117750000Y-90510000D01*
X115250000Y-90550000D02*
X115200000Y-90500000D01*
X115250000Y-126000000D02*
X115250000Y-90550000D01*
X112750000Y-90590000D02*
X112660000Y-90500000D01*
X112750000Y-126000000D02*
X112750000Y-90590000D01*
X157750000Y-91130000D02*
X157750000Y-113630000D01*
X157750000Y-91130000D02*
X158380000Y-90500000D01*
X157750000Y-126000000D02*
X157750000Y-113630000D01*
X155250000Y-91090000D02*
X155840000Y-90500000D01*
X155250000Y-126000000D02*
X155250000Y-91000000D01*
X152750000Y-91050000D02*
X153300000Y-90500000D01*
X152750000Y-126000000D02*
X152750000Y-91050000D01*
X147750000Y-90970000D02*
X148220000Y-90500000D01*
X147750000Y-126000000D02*
X147750000Y-90970000D01*
X145250000Y-90930000D02*
X145680000Y-90500000D01*
X145250000Y-126000000D02*
X145250000Y-90930000D01*
X140250000Y-90850000D02*
X140600000Y-90500000D01*
X140250000Y-126000000D02*
X140250000Y-90850000D01*
X137750000Y-90810000D02*
X138060000Y-90500000D01*
X137750000Y-126000000D02*
X137750000Y-90810000D01*
X135250000Y-90770000D02*
X135520000Y-90500000D01*
X135250000Y-126000000D02*
X135250000Y-90770000D01*
X105250000Y-126000000D02*
X105250000Y-90710000D01*
X105250000Y-90710000D02*
X105040000Y-90500000D01*
G04 #@! TA.AperFunction,Conductor*
G36*
X181741621Y-70220502D02*
G01*
X181788114Y-70274158D01*
X181799500Y-70326500D01*
X181799500Y-91173500D01*
X181779498Y-91241621D01*
X181725842Y-91288114D01*
X181673500Y-91299500D01*
X179405892Y-91299500D01*
X179368626Y-91299467D01*
X179368624Y-91299467D01*
X179354437Y-91299455D01*
X179341646Y-91305597D01*
X179336733Y-91306713D01*
X179329183Y-91309350D01*
X179324649Y-91311532D01*
X179310815Y-91314688D01*
X179299720Y-91323529D01*
X179294846Y-91325875D01*
X179288994Y-91329546D01*
X179284762Y-91332912D01*
X179271976Y-91339052D01*
X179263116Y-91350131D01*
X179259176Y-91353265D01*
X179253518Y-91358913D01*
X179250375Y-91362851D01*
X179239276Y-91371695D01*
X179233111Y-91384478D01*
X179229737Y-91388704D01*
X179226058Y-91394547D01*
X179223707Y-91399410D01*
X179214844Y-91410492D01*
X179211664Y-91424320D01*
X179209474Y-91428851D01*
X179206824Y-91436397D01*
X179205700Y-91441307D01*
X179199535Y-91454087D01*
X179199515Y-91477155D01*
X179197490Y-91477153D01*
X179197474Y-91477219D01*
X179199500Y-91477219D01*
X179199500Y-91494108D01*
X179199455Y-91545563D01*
X179194650Y-91545559D01*
X179194644Y-91545657D01*
X179199500Y-91545657D01*
X179199500Y-92994108D01*
X179199455Y-93045563D01*
X179205597Y-93058354D01*
X179206713Y-93063267D01*
X179209350Y-93070817D01*
X179211532Y-93075351D01*
X179214688Y-93089185D01*
X179223529Y-93100280D01*
X179225875Y-93105154D01*
X179229546Y-93111006D01*
X179232912Y-93115238D01*
X179239052Y-93128024D01*
X179250131Y-93136884D01*
X179253265Y-93140824D01*
X179258916Y-93146485D01*
X179262852Y-93149627D01*
X179271695Y-93160724D01*
X179284477Y-93166889D01*
X179288704Y-93170263D01*
X179294547Y-93173942D01*
X179299410Y-93176293D01*
X179310492Y-93185156D01*
X179324320Y-93188336D01*
X179328851Y-93190526D01*
X179336397Y-93193176D01*
X179341307Y-93194300D01*
X179354087Y-93200465D01*
X179377155Y-93200485D01*
X179377153Y-93202510D01*
X179377219Y-93202526D01*
X179377219Y-93200500D01*
X179394108Y-93200500D01*
X179445563Y-93200545D01*
X179445559Y-93205350D01*
X179445657Y-93205356D01*
X179445657Y-93200500D01*
X181673500Y-93200500D01*
X181741621Y-93220502D01*
X181788114Y-93274158D01*
X181799500Y-93326500D01*
X181799500Y-98994108D01*
X181799455Y-99045563D01*
X181805597Y-99058354D01*
X181806713Y-99063267D01*
X181809350Y-99070817D01*
X181811532Y-99075351D01*
X181814688Y-99089185D01*
X181823529Y-99100280D01*
X181825875Y-99105154D01*
X181829546Y-99111006D01*
X181832912Y-99115238D01*
X181839052Y-99128024D01*
X181850131Y-99136884D01*
X181853265Y-99140824D01*
X181858916Y-99146485D01*
X181862852Y-99149627D01*
X181871695Y-99160724D01*
X181884477Y-99166889D01*
X181888704Y-99170263D01*
X181894547Y-99173942D01*
X181899410Y-99176293D01*
X181910492Y-99185156D01*
X181924320Y-99188336D01*
X181928851Y-99190526D01*
X181936397Y-99193176D01*
X181941307Y-99194300D01*
X181954087Y-99200465D01*
X181977155Y-99200485D01*
X181977153Y-99202510D01*
X181977219Y-99202526D01*
X181977219Y-99200500D01*
X181994108Y-99200500D01*
X182045563Y-99200545D01*
X182045559Y-99205350D01*
X182045657Y-99205356D01*
X182045657Y-99200500D01*
X182173500Y-99200500D01*
X182241621Y-99220502D01*
X182288114Y-99274158D01*
X182299500Y-99326500D01*
X182299500Y-125673500D01*
X182279498Y-125741621D01*
X182225842Y-125788114D01*
X182173500Y-125799500D01*
X176826500Y-125799500D01*
X176758379Y-125779498D01*
X176711886Y-125725842D01*
X176700500Y-125673500D01*
X176700500Y-119505892D01*
X176700533Y-119468626D01*
X176700533Y-119468624D01*
X176700545Y-119454437D01*
X176694403Y-119441646D01*
X176693287Y-119436733D01*
X176690650Y-119429183D01*
X176688468Y-119424649D01*
X176685312Y-119410815D01*
X176676471Y-119399720D01*
X176674125Y-119394846D01*
X176670454Y-119388994D01*
X176667088Y-119384762D01*
X176660948Y-119371976D01*
X176649869Y-119363116D01*
X176646735Y-119359176D01*
X176641084Y-119353515D01*
X176637148Y-119350373D01*
X176628305Y-119339276D01*
X176615523Y-119333111D01*
X176611296Y-119329737D01*
X176605453Y-119326058D01*
X176600590Y-119323707D01*
X176589508Y-119314844D01*
X176575680Y-119311664D01*
X176571149Y-119309474D01*
X176563603Y-119306824D01*
X176558693Y-119305700D01*
X176545913Y-119299535D01*
X176522845Y-119299515D01*
X176522847Y-119297490D01*
X176522781Y-119297474D01*
X176522781Y-119299500D01*
X176505892Y-119299500D01*
X176454437Y-119299455D01*
X176454441Y-119294650D01*
X176454343Y-119294644D01*
X176454343Y-119299500D01*
X165005892Y-119299500D01*
X164968626Y-119299467D01*
X164968624Y-119299467D01*
X164954437Y-119299455D01*
X164941646Y-119305597D01*
X164936733Y-119306713D01*
X164929183Y-119309350D01*
X164924649Y-119311532D01*
X164910815Y-119314688D01*
X164899720Y-119323529D01*
X164894846Y-119325875D01*
X164888994Y-119329546D01*
X164884762Y-119332912D01*
X164871976Y-119339052D01*
X164863116Y-119350131D01*
X164859176Y-119353265D01*
X164853515Y-119358916D01*
X164850373Y-119362852D01*
X164839276Y-119371695D01*
X164833111Y-119384477D01*
X164829737Y-119388704D01*
X164826058Y-119394547D01*
X164823707Y-119399410D01*
X164814844Y-119410492D01*
X164811664Y-119424320D01*
X164809474Y-119428851D01*
X164806824Y-119436397D01*
X164805700Y-119441307D01*
X164799535Y-119454087D01*
X164799515Y-119477155D01*
X164797490Y-119477153D01*
X164797474Y-119477219D01*
X164799500Y-119477219D01*
X164799500Y-119494108D01*
X164799455Y-119545563D01*
X164794650Y-119545559D01*
X164794644Y-119545657D01*
X164799500Y-119545657D01*
X164799500Y-121904000D01*
X164779498Y-121972121D01*
X164725842Y-122018614D01*
X164673500Y-122030000D01*
X158251500Y-122030000D01*
X158183379Y-122009998D01*
X158136886Y-121956342D01*
X158125500Y-121904000D01*
X158125500Y-91722476D01*
X158145502Y-91654355D01*
X158199158Y-91607862D01*
X158256445Y-91596573D01*
X158437842Y-91603700D01*
X158525751Y-91590954D01*
X158632286Y-91575508D01*
X158632291Y-91575507D01*
X158638007Y-91574678D01*
X158643479Y-91572820D01*
X158643481Y-91572820D01*
X158824067Y-91511519D01*
X158824069Y-91511518D01*
X158829531Y-91509664D01*
X158966158Y-91433150D01*
X159000964Y-91413658D01*
X159000965Y-91413657D01*
X159006001Y-91410837D01*
X159010930Y-91406738D01*
X159148132Y-91292627D01*
X159161505Y-91281505D01*
X159290837Y-91126001D01*
X159389664Y-90949531D01*
X159405525Y-90902808D01*
X159436024Y-90812962D01*
X159812890Y-90812962D01*
X159829896Y-90879923D01*
X159833737Y-90890769D01*
X159917386Y-91072218D01*
X159923137Y-91082179D01*
X160038455Y-91245350D01*
X160045921Y-91254092D01*
X160189047Y-91393520D01*
X160197981Y-91400754D01*
X160364112Y-91511760D01*
X160374225Y-91517251D01*
X160557798Y-91596120D01*
X160568747Y-91599677D01*
X160602331Y-91607276D01*
X160616405Y-91606387D01*
X160620000Y-91596988D01*
X160620000Y-90818115D01*
X160615525Y-90802876D01*
X160614135Y-90801671D01*
X160606452Y-90800000D01*
X159827713Y-90800000D01*
X159814182Y-90803973D01*
X159812890Y-90812962D01*
X159436024Y-90812962D01*
X159452820Y-90763481D01*
X159452820Y-90763479D01*
X159454678Y-90758007D01*
X159455507Y-90752291D01*
X159455508Y-90752286D01*
X159474629Y-90620406D01*
X159483700Y-90557842D01*
X159485215Y-90500000D01*
X159466708Y-90298591D01*
X159411807Y-90103926D01*
X159322351Y-89922527D01*
X159306824Y-89901733D01*
X159204788Y-89765091D01*
X159204787Y-89765090D01*
X159201335Y-89760467D01*
X159178350Y-89739220D01*
X159057053Y-89627094D01*
X159057051Y-89627092D01*
X159052812Y-89623174D01*
X159025374Y-89605862D01*
X158886637Y-89518325D01*
X158881757Y-89515246D01*
X158693898Y-89440298D01*
X158495526Y-89400839D01*
X158489752Y-89400763D01*
X158489748Y-89400763D01*
X158387257Y-89399422D01*
X158293286Y-89398192D01*
X158287589Y-89399171D01*
X158287588Y-89399171D01*
X158099646Y-89431465D01*
X158099645Y-89431465D01*
X158093949Y-89432444D01*
X157904193Y-89502449D01*
X157899232Y-89505401D01*
X157899231Y-89505401D01*
X157772744Y-89580653D01*
X157730371Y-89605862D01*
X157578305Y-89739220D01*
X157453089Y-89898057D01*
X157358914Y-90077053D01*
X157298937Y-90270213D01*
X157275164Y-90471069D01*
X157288392Y-90672894D01*
X157289815Y-90678496D01*
X157323965Y-90812962D01*
X157338178Y-90868928D01*
X157340595Y-90874170D01*
X157340600Y-90874183D01*
X157376692Y-90952471D01*
X157387048Y-91022708D01*
X157381150Y-91046969D01*
X157374977Y-91064548D01*
X157374500Y-91070055D01*
X157374500Y-91072762D01*
X157374389Y-91075335D01*
X157374341Y-91075494D01*
X157374197Y-91075488D01*
X157374158Y-91076108D01*
X157372310Y-91082287D01*
X157372903Y-91097383D01*
X157374403Y-91135555D01*
X157374500Y-91140502D01*
X157374500Y-121904000D01*
X157354498Y-121972121D01*
X157300842Y-122018614D01*
X157248500Y-122030000D01*
X155751500Y-122030000D01*
X155683379Y-122009998D01*
X155636886Y-121956342D01*
X155625500Y-121904000D01*
X155625500Y-91724048D01*
X155645502Y-91655927D01*
X155699158Y-91609434D01*
X155756446Y-91598145D01*
X155769558Y-91598660D01*
X155897842Y-91603700D01*
X155985751Y-91590954D01*
X156092286Y-91575508D01*
X156092291Y-91575507D01*
X156098007Y-91574678D01*
X156103479Y-91572820D01*
X156103481Y-91572820D01*
X156284067Y-91511519D01*
X156284069Y-91511518D01*
X156289531Y-91509664D01*
X156426158Y-91433150D01*
X156460964Y-91413658D01*
X156460965Y-91413657D01*
X156466001Y-91410837D01*
X156470930Y-91406738D01*
X156608132Y-91292627D01*
X156621505Y-91281505D01*
X156750837Y-91126001D01*
X156849664Y-90949531D01*
X156865525Y-90902808D01*
X156912820Y-90763481D01*
X156912820Y-90763479D01*
X156914678Y-90758007D01*
X156915507Y-90752291D01*
X156915508Y-90752286D01*
X156934629Y-90620406D01*
X156943700Y-90557842D01*
X156945215Y-90500000D01*
X156926708Y-90298591D01*
X156871807Y-90103926D01*
X156782351Y-89922527D01*
X156766824Y-89901733D01*
X156664788Y-89765091D01*
X156664787Y-89765090D01*
X156661335Y-89760467D01*
X156638350Y-89739220D01*
X156517053Y-89627094D01*
X156517051Y-89627092D01*
X156512812Y-89623174D01*
X156485374Y-89605862D01*
X156346637Y-89518325D01*
X156341757Y-89515246D01*
X156153898Y-89440298D01*
X155955526Y-89400839D01*
X155949752Y-89400763D01*
X155949748Y-89400763D01*
X155847257Y-89399422D01*
X155753286Y-89398192D01*
X155747589Y-89399171D01*
X155747588Y-89399171D01*
X155559646Y-89431465D01*
X155559645Y-89431465D01*
X155553949Y-89432444D01*
X155364193Y-89502449D01*
X155359232Y-89505401D01*
X155359231Y-89505401D01*
X155232744Y-89580653D01*
X155190371Y-89605862D01*
X155038305Y-89739220D01*
X154913089Y-89898057D01*
X154818914Y-90077053D01*
X154758937Y-90270213D01*
X154735164Y-90471069D01*
X154748392Y-90672894D01*
X154798178Y-90868928D01*
X154861279Y-91005803D01*
X154872755Y-91053606D01*
X154874403Y-91095556D01*
X154874500Y-91100502D01*
X154874500Y-121904000D01*
X154854498Y-121972121D01*
X154800842Y-122018614D01*
X154748500Y-122030000D01*
X153251500Y-122030000D01*
X153183379Y-122009998D01*
X153136886Y-121956342D01*
X153125500Y-121904000D01*
X153125500Y-91725619D01*
X153145502Y-91657498D01*
X153199158Y-91611005D01*
X153256445Y-91599716D01*
X153357842Y-91603700D01*
X153445751Y-91590954D01*
X153552286Y-91575508D01*
X153552291Y-91575507D01*
X153558007Y-91574678D01*
X153563479Y-91572820D01*
X153563481Y-91572820D01*
X153744067Y-91511519D01*
X153744069Y-91511518D01*
X153749531Y-91509664D01*
X153886158Y-91433150D01*
X153920964Y-91413658D01*
X153920965Y-91413657D01*
X153926001Y-91410837D01*
X153930930Y-91406738D01*
X154068132Y-91292627D01*
X154081505Y-91281505D01*
X154210837Y-91126001D01*
X154309664Y-90949531D01*
X154325525Y-90902808D01*
X154372820Y-90763481D01*
X154372820Y-90763479D01*
X154374678Y-90758007D01*
X154375507Y-90752291D01*
X154375508Y-90752286D01*
X154394629Y-90620406D01*
X154403700Y-90557842D01*
X154405215Y-90500000D01*
X154386708Y-90298591D01*
X154331807Y-90103926D01*
X154242351Y-89922527D01*
X154226824Y-89901733D01*
X154124788Y-89765091D01*
X154124787Y-89765090D01*
X154121335Y-89760467D01*
X154098350Y-89739220D01*
X153977053Y-89627094D01*
X153977051Y-89627092D01*
X153972812Y-89623174D01*
X153945374Y-89605862D01*
X153806637Y-89518325D01*
X153801757Y-89515246D01*
X153613898Y-89440298D01*
X153415526Y-89400839D01*
X153409752Y-89400763D01*
X153409748Y-89400763D01*
X153307257Y-89399422D01*
X153213286Y-89398192D01*
X153207589Y-89399171D01*
X153207588Y-89399171D01*
X153019646Y-89431465D01*
X153019645Y-89431465D01*
X153013949Y-89432444D01*
X152824193Y-89502449D01*
X152819232Y-89505401D01*
X152819231Y-89505401D01*
X152692744Y-89580653D01*
X152650371Y-89605862D01*
X152498305Y-89739220D01*
X152373089Y-89898057D01*
X152278914Y-90077053D01*
X152218937Y-90270213D01*
X152195164Y-90471069D01*
X152208392Y-90672894D01*
X152209815Y-90678496D01*
X152243965Y-90812962D01*
X152258178Y-90868928D01*
X152342856Y-91052607D01*
X152351397Y-91064692D01*
X152374500Y-91137411D01*
X152374500Y-121904000D01*
X152354498Y-121972121D01*
X152300842Y-122018614D01*
X152248500Y-122030000D01*
X148251500Y-122030000D01*
X148183379Y-122009998D01*
X148136886Y-121956342D01*
X148125500Y-121904000D01*
X148125500Y-91728762D01*
X148145502Y-91660641D01*
X148199158Y-91614148D01*
X148256447Y-91602859D01*
X148277842Y-91603700D01*
X148365751Y-91590954D01*
X148472286Y-91575508D01*
X148472291Y-91575507D01*
X148478007Y-91574678D01*
X148483479Y-91572820D01*
X148483481Y-91572820D01*
X148664067Y-91511519D01*
X148664069Y-91511518D01*
X148669531Y-91509664D01*
X148806158Y-91433150D01*
X148840964Y-91413658D01*
X148840965Y-91413657D01*
X148846001Y-91410837D01*
X148850930Y-91406738D01*
X148988132Y-91292627D01*
X149001505Y-91281505D01*
X149130837Y-91126001D01*
X149229664Y-90949531D01*
X149245525Y-90902808D01*
X149276024Y-90812962D01*
X149652890Y-90812962D01*
X149669896Y-90879923D01*
X149673737Y-90890769D01*
X149757386Y-91072218D01*
X149763137Y-91082179D01*
X149878455Y-91245350D01*
X149885921Y-91254092D01*
X150029047Y-91393520D01*
X150037981Y-91400754D01*
X150204112Y-91511760D01*
X150214225Y-91517251D01*
X150397798Y-91596120D01*
X150408747Y-91599677D01*
X150442331Y-91607276D01*
X150456405Y-91606387D01*
X150460000Y-91596988D01*
X150460000Y-91594586D01*
X151060000Y-91594586D01*
X151063973Y-91608117D01*
X151070669Y-91609079D01*
X151224287Y-91556933D01*
X151234784Y-91552259D01*
X151409124Y-91454625D01*
X151418596Y-91448115D01*
X151572219Y-91320348D01*
X151580348Y-91312219D01*
X151708115Y-91158596D01*
X151714625Y-91149124D01*
X151812259Y-90974784D01*
X151816933Y-90964287D01*
X151866877Y-90817156D01*
X151867464Y-90803065D01*
X151861431Y-90800000D01*
X151078115Y-90800000D01*
X151062876Y-90804475D01*
X151061671Y-90805865D01*
X151060000Y-90813548D01*
X151060000Y-91594586D01*
X150460000Y-91594586D01*
X150460000Y-90818115D01*
X150455525Y-90802876D01*
X150454135Y-90801671D01*
X150446452Y-90800000D01*
X149667713Y-90800000D01*
X149654182Y-90803973D01*
X149652890Y-90812962D01*
X149276024Y-90812962D01*
X149292820Y-90763481D01*
X149292820Y-90763479D01*
X149294678Y-90758007D01*
X149295507Y-90752291D01*
X149295508Y-90752286D01*
X149314629Y-90620406D01*
X149323700Y-90557842D01*
X149325215Y-90500000D01*
X149306708Y-90298591D01*
X149251807Y-90103926D01*
X149162351Y-89922527D01*
X149146824Y-89901733D01*
X149044788Y-89765091D01*
X149044787Y-89765090D01*
X149041335Y-89760467D01*
X149018350Y-89739220D01*
X148897053Y-89627094D01*
X148897051Y-89627092D01*
X148892812Y-89623174D01*
X148865374Y-89605862D01*
X148726637Y-89518325D01*
X148721757Y-89515246D01*
X148533898Y-89440298D01*
X148335526Y-89400839D01*
X148329752Y-89400763D01*
X148329748Y-89400763D01*
X148227257Y-89399422D01*
X148133286Y-89398192D01*
X148127589Y-89399171D01*
X148127588Y-89399171D01*
X147939646Y-89431465D01*
X147939645Y-89431465D01*
X147933949Y-89432444D01*
X147744193Y-89502449D01*
X147739232Y-89505401D01*
X147739231Y-89505401D01*
X147612744Y-89580653D01*
X147570371Y-89605862D01*
X147418305Y-89739220D01*
X147293089Y-89898057D01*
X147198914Y-90077053D01*
X147138937Y-90270213D01*
X147115164Y-90471069D01*
X147128392Y-90672894D01*
X147129815Y-90678496D01*
X147163965Y-90812962D01*
X147178178Y-90868928D01*
X147262856Y-91052607D01*
X147266186Y-91057319D01*
X147266189Y-91057324D01*
X147351397Y-91177891D01*
X147374500Y-91250611D01*
X147374500Y-121904000D01*
X147354498Y-121972121D01*
X147300842Y-122018614D01*
X147248500Y-122030000D01*
X145751500Y-122030000D01*
X145683379Y-122009998D01*
X145636886Y-121956342D01*
X145625500Y-121904000D01*
X145625500Y-91728628D01*
X145645502Y-91660507D01*
X145699158Y-91614014D01*
X145737958Y-91604502D01*
X145737842Y-91603700D01*
X145932286Y-91575508D01*
X145932291Y-91575507D01*
X145938007Y-91574678D01*
X145943479Y-91572820D01*
X145943481Y-91572820D01*
X146124067Y-91511519D01*
X146124069Y-91511518D01*
X146129531Y-91509664D01*
X146266158Y-91433150D01*
X146300964Y-91413658D01*
X146300965Y-91413657D01*
X146306001Y-91410837D01*
X146310930Y-91406738D01*
X146448132Y-91292627D01*
X146461505Y-91281505D01*
X146590837Y-91126001D01*
X146689664Y-90949531D01*
X146705525Y-90902808D01*
X146752820Y-90763481D01*
X146752820Y-90763479D01*
X146754678Y-90758007D01*
X146755507Y-90752291D01*
X146755508Y-90752286D01*
X146774629Y-90620406D01*
X146783700Y-90557842D01*
X146785215Y-90500000D01*
X146766708Y-90298591D01*
X146711807Y-90103926D01*
X146622351Y-89922527D01*
X146606824Y-89901733D01*
X146504788Y-89765091D01*
X146504787Y-89765090D01*
X146501335Y-89760467D01*
X146478350Y-89739220D01*
X146357053Y-89627094D01*
X146357051Y-89627092D01*
X146352812Y-89623174D01*
X146325374Y-89605862D01*
X146186637Y-89518325D01*
X146181757Y-89515246D01*
X145993898Y-89440298D01*
X145795526Y-89400839D01*
X145789752Y-89400763D01*
X145789748Y-89400763D01*
X145687257Y-89399422D01*
X145593286Y-89398192D01*
X145587589Y-89399171D01*
X145587588Y-89399171D01*
X145399646Y-89431465D01*
X145399645Y-89431465D01*
X145393949Y-89432444D01*
X145204193Y-89502449D01*
X145199232Y-89505401D01*
X145199231Y-89505401D01*
X145072744Y-89580653D01*
X145030371Y-89605862D01*
X144878305Y-89739220D01*
X144753089Y-89898057D01*
X144658914Y-90077053D01*
X144598937Y-90270213D01*
X144575164Y-90471069D01*
X144588392Y-90672894D01*
X144589815Y-90678496D01*
X144623965Y-90812962D01*
X144638178Y-90868928D01*
X144722856Y-91052607D01*
X144726189Y-91057323D01*
X144784974Y-91140502D01*
X144839588Y-91217780D01*
X144843722Y-91221807D01*
X144844312Y-91222498D01*
X144873343Y-91287288D01*
X144874500Y-91304327D01*
X144874500Y-121904000D01*
X144854498Y-121972121D01*
X144800842Y-122018614D01*
X144748500Y-122030000D01*
X143626500Y-122030000D01*
X143558379Y-122009998D01*
X143511886Y-121956342D01*
X143500500Y-121904000D01*
X143500500Y-91630176D01*
X143520502Y-91562055D01*
X143574158Y-91515562D01*
X143581775Y-91512539D01*
X143584066Y-91511519D01*
X143589531Y-91509664D01*
X143726158Y-91433150D01*
X143760964Y-91413658D01*
X143760965Y-91413657D01*
X143766001Y-91410837D01*
X143770930Y-91406738D01*
X143908132Y-91292627D01*
X143921505Y-91281505D01*
X144050837Y-91126001D01*
X144149664Y-90949531D01*
X144165525Y-90902808D01*
X144212820Y-90763481D01*
X144212820Y-90763479D01*
X144214678Y-90758007D01*
X144215507Y-90752291D01*
X144215508Y-90752286D01*
X144234629Y-90620406D01*
X144243700Y-90557842D01*
X144245215Y-90500000D01*
X144226708Y-90298591D01*
X144171807Y-90103926D01*
X144082351Y-89922527D01*
X144066824Y-89901733D01*
X143964788Y-89765091D01*
X143964787Y-89765090D01*
X143961335Y-89760467D01*
X143943263Y-89743761D01*
X143930971Y-89732399D01*
X143894526Y-89671471D01*
X143890500Y-89639874D01*
X143890500Y-88823954D01*
X143910502Y-88755833D01*
X143921831Y-88741776D01*
X143921505Y-88741505D01*
X144047146Y-88590439D01*
X144050837Y-88586001D01*
X144149664Y-88409531D01*
X144214678Y-88218007D01*
X144215507Y-88212291D01*
X144215508Y-88212286D01*
X144243167Y-88021516D01*
X144243700Y-88017842D01*
X144245215Y-87960000D01*
X144242557Y-87931069D01*
X144575164Y-87931069D01*
X144588392Y-88132894D01*
X144589815Y-88138496D01*
X144623965Y-88272962D01*
X144638178Y-88328928D01*
X144722856Y-88512607D01*
X144839588Y-88677780D01*
X144843730Y-88681815D01*
X144891421Y-88728273D01*
X144984466Y-88818913D01*
X145152637Y-88931282D01*
X145157940Y-88933560D01*
X145157943Y-88933562D01*
X145246291Y-88971519D01*
X145338470Y-89011122D01*
X145535740Y-89055760D01*
X145541509Y-89055987D01*
X145541512Y-89055987D01*
X145617683Y-89058979D01*
X145737842Y-89063700D01*
X145824132Y-89051189D01*
X145932286Y-89035508D01*
X145932291Y-89035507D01*
X145938007Y-89034678D01*
X145943479Y-89032820D01*
X145943481Y-89032820D01*
X146124067Y-88971519D01*
X146124069Y-88971518D01*
X146129531Y-88969664D01*
X146306001Y-88870837D01*
X146368433Y-88818913D01*
X146432813Y-88765368D01*
X146461505Y-88741505D01*
X146590837Y-88586001D01*
X146689664Y-88409531D01*
X146754678Y-88218007D01*
X146755507Y-88212291D01*
X146755508Y-88212286D01*
X146783167Y-88021516D01*
X146783700Y-88017842D01*
X146785215Y-87960000D01*
X146782557Y-87931069D01*
X147115164Y-87931069D01*
X147128392Y-88132894D01*
X147129815Y-88138496D01*
X147163965Y-88272962D01*
X147178178Y-88328928D01*
X147262856Y-88512607D01*
X147379588Y-88677780D01*
X147383730Y-88681815D01*
X147431421Y-88728273D01*
X147524466Y-88818913D01*
X147692637Y-88931282D01*
X147697940Y-88933560D01*
X147697943Y-88933562D01*
X147786291Y-88971519D01*
X147878470Y-89011122D01*
X148075740Y-89055760D01*
X148081509Y-89055987D01*
X148081512Y-89055987D01*
X148157683Y-89058979D01*
X148277842Y-89063700D01*
X148364132Y-89051189D01*
X148472286Y-89035508D01*
X148472291Y-89035507D01*
X148478007Y-89034678D01*
X148483479Y-89032820D01*
X148483481Y-89032820D01*
X148664067Y-88971519D01*
X148664069Y-88971518D01*
X148669531Y-88969664D01*
X148846001Y-88870837D01*
X148908433Y-88818913D01*
X148972813Y-88765368D01*
X149001505Y-88741505D01*
X149130837Y-88586001D01*
X149229664Y-88409531D01*
X149276023Y-88272962D01*
X149652890Y-88272962D01*
X149669896Y-88339923D01*
X149673737Y-88350769D01*
X149757386Y-88532218D01*
X149763137Y-88542179D01*
X149878455Y-88705350D01*
X149885921Y-88714092D01*
X150029047Y-88853520D01*
X150037981Y-88860754D01*
X150204112Y-88971760D01*
X150214225Y-88977251D01*
X150397805Y-89056123D01*
X150408738Y-89059675D01*
X150603615Y-89103771D01*
X150620753Y-89106027D01*
X150620570Y-89107419D01*
X150681370Y-89127899D01*
X150725719Y-89183339D01*
X150733055Y-89253956D01*
X150701048Y-89317328D01*
X150639860Y-89353336D01*
X150630476Y-89355319D01*
X150466780Y-89383447D01*
X150455660Y-89386427D01*
X150268207Y-89455582D01*
X150257829Y-89460532D01*
X150086119Y-89562688D01*
X150076807Y-89569453D01*
X149926587Y-89701194D01*
X149918670Y-89709537D01*
X149794975Y-89866443D01*
X149788704Y-89876100D01*
X149695679Y-90052912D01*
X149691273Y-90063549D01*
X149654276Y-90182698D01*
X149654057Y-90196799D01*
X149660789Y-90200000D01*
X151852222Y-90200000D01*
X151865753Y-90196027D01*
X151866922Y-90187892D01*
X151839786Y-90091675D01*
X151835661Y-90080928D01*
X151747292Y-89901733D01*
X151741282Y-89891925D01*
X151621731Y-89731827D01*
X151614041Y-89723287D01*
X151467315Y-89587654D01*
X151458190Y-89580653D01*
X151289209Y-89474034D01*
X151278965Y-89468814D01*
X151093385Y-89394775D01*
X151082347Y-89391505D01*
X150882283Y-89351710D01*
X150819373Y-89318803D01*
X150784241Y-89257108D01*
X150788041Y-89186213D01*
X150829567Y-89128627D01*
X150888784Y-89103435D01*
X151023898Y-89083845D01*
X151035081Y-89081160D01*
X151224283Y-89016934D01*
X151234786Y-89012258D01*
X151409124Y-88914625D01*
X151418596Y-88908115D01*
X151572219Y-88780348D01*
X151580348Y-88772219D01*
X151708115Y-88618596D01*
X151714625Y-88609124D01*
X151812259Y-88434784D01*
X151816933Y-88424287D01*
X151866877Y-88277156D01*
X151867464Y-88263065D01*
X151861431Y-88260000D01*
X149667713Y-88260000D01*
X149654182Y-88263973D01*
X149652890Y-88272962D01*
X149276023Y-88272962D01*
X149294678Y-88218007D01*
X149295507Y-88212291D01*
X149295508Y-88212286D01*
X149323167Y-88021516D01*
X149323700Y-88017842D01*
X149325215Y-87960000D01*
X149322557Y-87931069D01*
X152195164Y-87931069D01*
X152208392Y-88132894D01*
X152209815Y-88138496D01*
X152243965Y-88272962D01*
X152258178Y-88328928D01*
X152342856Y-88512607D01*
X152459588Y-88677780D01*
X152463730Y-88681815D01*
X152511421Y-88728273D01*
X152604466Y-88818913D01*
X152772637Y-88931282D01*
X152777940Y-88933560D01*
X152777943Y-88933562D01*
X152866291Y-88971519D01*
X152958470Y-89011122D01*
X153155740Y-89055760D01*
X153161509Y-89055987D01*
X153161512Y-89055987D01*
X153237683Y-89058979D01*
X153357842Y-89063700D01*
X153444132Y-89051189D01*
X153552286Y-89035508D01*
X153552291Y-89035507D01*
X153558007Y-89034678D01*
X153563479Y-89032820D01*
X153563481Y-89032820D01*
X153744067Y-88971519D01*
X153744069Y-88971518D01*
X153749531Y-88969664D01*
X153926001Y-88870837D01*
X153988433Y-88818913D01*
X154052813Y-88765368D01*
X154081505Y-88741505D01*
X154210837Y-88586001D01*
X154309664Y-88409531D01*
X154374678Y-88218007D01*
X154375507Y-88212291D01*
X154375508Y-88212286D01*
X154403167Y-88021516D01*
X154403700Y-88017842D01*
X154405215Y-87960000D01*
X154402557Y-87931069D01*
X154735164Y-87931069D01*
X154748392Y-88132894D01*
X154749815Y-88138496D01*
X154783965Y-88272962D01*
X154798178Y-88328928D01*
X154882856Y-88512607D01*
X154999588Y-88677780D01*
X155003730Y-88681815D01*
X155051421Y-88728273D01*
X155144466Y-88818913D01*
X155312637Y-88931282D01*
X155317940Y-88933560D01*
X155317943Y-88933562D01*
X155406291Y-88971519D01*
X155498470Y-89011122D01*
X155695740Y-89055760D01*
X155701509Y-89055987D01*
X155701512Y-89055987D01*
X155777683Y-89058979D01*
X155897842Y-89063700D01*
X155984132Y-89051189D01*
X156092286Y-89035508D01*
X156092291Y-89035507D01*
X156098007Y-89034678D01*
X156103479Y-89032820D01*
X156103481Y-89032820D01*
X156284067Y-88971519D01*
X156284069Y-88971518D01*
X156289531Y-88969664D01*
X156466001Y-88870837D01*
X156528433Y-88818913D01*
X156592813Y-88765368D01*
X156621505Y-88741505D01*
X156750837Y-88586001D01*
X156849664Y-88409531D01*
X156914678Y-88218007D01*
X156915507Y-88212291D01*
X156915508Y-88212286D01*
X156943167Y-88021516D01*
X156943700Y-88017842D01*
X156945215Y-87960000D01*
X156942557Y-87931069D01*
X157275164Y-87931069D01*
X157288392Y-88132894D01*
X157289815Y-88138496D01*
X157323965Y-88272962D01*
X157338178Y-88328928D01*
X157422856Y-88512607D01*
X157539588Y-88677780D01*
X157543730Y-88681815D01*
X157591421Y-88728273D01*
X157684466Y-88818913D01*
X157852637Y-88931282D01*
X157857940Y-88933560D01*
X157857943Y-88933562D01*
X157946291Y-88971519D01*
X158038470Y-89011122D01*
X158235740Y-89055760D01*
X158241509Y-89055987D01*
X158241512Y-89055987D01*
X158317683Y-89058979D01*
X158437842Y-89063700D01*
X158524132Y-89051189D01*
X158632286Y-89035508D01*
X158632291Y-89035507D01*
X158638007Y-89034678D01*
X158643479Y-89032820D01*
X158643481Y-89032820D01*
X158824067Y-88971519D01*
X158824069Y-88971518D01*
X158829531Y-88969664D01*
X159006001Y-88870837D01*
X159068433Y-88818913D01*
X159132813Y-88765368D01*
X159161505Y-88741505D01*
X159290837Y-88586001D01*
X159389664Y-88409531D01*
X159436023Y-88272962D01*
X159812890Y-88272962D01*
X159829896Y-88339923D01*
X159833737Y-88350769D01*
X159917386Y-88532218D01*
X159923137Y-88542179D01*
X160038455Y-88705350D01*
X160045921Y-88714092D01*
X160189047Y-88853520D01*
X160197981Y-88860754D01*
X160364112Y-88971760D01*
X160374225Y-88977251D01*
X160557805Y-89056123D01*
X160568738Y-89059675D01*
X160763615Y-89103771D01*
X160780753Y-89106027D01*
X160780570Y-89107419D01*
X160841370Y-89127899D01*
X160885719Y-89183339D01*
X160893055Y-89253956D01*
X160861048Y-89317328D01*
X160799860Y-89353336D01*
X160790476Y-89355319D01*
X160626780Y-89383447D01*
X160615660Y-89386427D01*
X160428207Y-89455582D01*
X160417829Y-89460532D01*
X160246119Y-89562688D01*
X160236807Y-89569453D01*
X160086587Y-89701194D01*
X160078670Y-89709537D01*
X159954975Y-89866443D01*
X159948704Y-89876100D01*
X159855679Y-90052912D01*
X159851273Y-90063549D01*
X159814276Y-90182698D01*
X159814057Y-90196799D01*
X159820789Y-90200000D01*
X161094000Y-90200000D01*
X161162121Y-90220002D01*
X161208614Y-90273658D01*
X161220000Y-90326000D01*
X161220000Y-91594586D01*
X161223973Y-91608117D01*
X161230669Y-91609079D01*
X161384287Y-91556933D01*
X161394784Y-91552259D01*
X161569124Y-91454625D01*
X161578596Y-91448115D01*
X161732219Y-91320348D01*
X161740348Y-91312219D01*
X161868115Y-91158596D01*
X161874625Y-91149124D01*
X161972258Y-90974786D01*
X161976934Y-90964283D01*
X162028301Y-90812962D01*
X162352890Y-90812962D01*
X162369896Y-90879923D01*
X162373737Y-90890769D01*
X162457386Y-91072218D01*
X162463137Y-91082179D01*
X162578455Y-91245350D01*
X162585921Y-91254092D01*
X162729047Y-91393520D01*
X162737981Y-91400754D01*
X162904112Y-91511760D01*
X162914225Y-91517251D01*
X163097798Y-91596120D01*
X163108747Y-91599677D01*
X163142331Y-91607276D01*
X163156405Y-91606387D01*
X163160000Y-91596988D01*
X163160000Y-91594586D01*
X163760000Y-91594586D01*
X163763973Y-91608117D01*
X163770669Y-91609079D01*
X163924287Y-91556933D01*
X163934784Y-91552259D01*
X164109124Y-91454625D01*
X164118596Y-91448115D01*
X164272219Y-91320348D01*
X164280348Y-91312219D01*
X164408115Y-91158596D01*
X164414625Y-91149124D01*
X164512259Y-90974784D01*
X164516933Y-90964287D01*
X164566877Y-90817156D01*
X164567464Y-90803065D01*
X164561431Y-90800000D01*
X163778115Y-90800000D01*
X163762876Y-90804475D01*
X163761671Y-90805865D01*
X163760000Y-90813548D01*
X163760000Y-91594586D01*
X163160000Y-91594586D01*
X163160000Y-90818115D01*
X163155525Y-90802876D01*
X163154135Y-90801671D01*
X163146452Y-90800000D01*
X162367713Y-90800000D01*
X162354182Y-90803973D01*
X162352890Y-90812962D01*
X162028301Y-90812962D01*
X162041160Y-90775081D01*
X162043845Y-90763898D01*
X162072811Y-90564118D01*
X162073441Y-90556736D01*
X162074830Y-90503704D01*
X162074587Y-90496305D01*
X162056117Y-90295285D01*
X162054020Y-90283971D01*
X161999785Y-90091670D01*
X161995663Y-90080931D01*
X161907292Y-89901733D01*
X161901282Y-89891925D01*
X161781731Y-89731827D01*
X161774041Y-89723287D01*
X161627315Y-89587654D01*
X161618190Y-89580653D01*
X161449209Y-89474034D01*
X161438965Y-89468814D01*
X161253385Y-89394775D01*
X161242347Y-89391505D01*
X161042283Y-89351710D01*
X160979373Y-89318803D01*
X160944241Y-89257108D01*
X160948041Y-89186213D01*
X160989567Y-89128627D01*
X161048784Y-89103435D01*
X161183898Y-89083845D01*
X161195081Y-89081160D01*
X161384283Y-89016934D01*
X161394786Y-89012258D01*
X161569124Y-88914625D01*
X161578596Y-88908115D01*
X161732219Y-88780348D01*
X161740348Y-88772219D01*
X161868115Y-88618596D01*
X161874625Y-88609124D01*
X161972258Y-88434786D01*
X161976934Y-88424283D01*
X162028301Y-88272962D01*
X162352890Y-88272962D01*
X162369896Y-88339923D01*
X162373737Y-88350769D01*
X162457386Y-88532218D01*
X162463137Y-88542179D01*
X162578455Y-88705350D01*
X162585921Y-88714092D01*
X162729047Y-88853520D01*
X162737981Y-88860754D01*
X162904112Y-88971760D01*
X162914225Y-88977251D01*
X163097805Y-89056123D01*
X163108738Y-89059675D01*
X163303615Y-89103771D01*
X163320753Y-89106027D01*
X163320570Y-89107419D01*
X163381370Y-89127899D01*
X163425719Y-89183339D01*
X163433055Y-89253956D01*
X163401048Y-89317328D01*
X163339860Y-89353336D01*
X163330476Y-89355319D01*
X163166780Y-89383447D01*
X163155660Y-89386427D01*
X162968207Y-89455582D01*
X162957829Y-89460532D01*
X162786119Y-89562688D01*
X162776807Y-89569453D01*
X162626587Y-89701194D01*
X162618670Y-89709537D01*
X162494975Y-89866443D01*
X162488704Y-89876100D01*
X162395679Y-90052912D01*
X162391273Y-90063549D01*
X162354276Y-90182698D01*
X162354057Y-90196799D01*
X162360789Y-90200000D01*
X164552222Y-90200000D01*
X164565753Y-90196027D01*
X164566922Y-90187892D01*
X164539786Y-90091675D01*
X164535661Y-90080928D01*
X164447292Y-89901733D01*
X164441282Y-89891925D01*
X164321731Y-89731827D01*
X164314041Y-89723287D01*
X164167315Y-89587654D01*
X164158190Y-89580653D01*
X163989209Y-89474034D01*
X163978965Y-89468814D01*
X163793385Y-89394775D01*
X163782347Y-89391505D01*
X163582283Y-89351710D01*
X163519373Y-89318803D01*
X163484241Y-89257108D01*
X163488041Y-89186213D01*
X163529567Y-89128627D01*
X163588784Y-89103435D01*
X163723898Y-89083845D01*
X163735081Y-89081160D01*
X163924283Y-89016934D01*
X163934786Y-89012258D01*
X164109124Y-88914625D01*
X164118596Y-88908115D01*
X164272219Y-88780348D01*
X164280348Y-88772219D01*
X164408115Y-88618596D01*
X164414625Y-88609124D01*
X164512259Y-88434784D01*
X164516933Y-88424287D01*
X164566877Y-88277156D01*
X164567464Y-88263065D01*
X164561431Y-88260000D01*
X162367713Y-88260000D01*
X162354182Y-88263973D01*
X162352890Y-88272962D01*
X162028301Y-88272962D01*
X162041160Y-88235081D01*
X162043845Y-88223898D01*
X162072811Y-88024118D01*
X162073441Y-88016736D01*
X162074830Y-87963704D01*
X162074587Y-87956305D01*
X162056117Y-87755285D01*
X162054020Y-87743971D01*
X162029435Y-87656799D01*
X162354057Y-87656799D01*
X162360789Y-87660000D01*
X163141885Y-87660000D01*
X163157124Y-87655525D01*
X163158329Y-87654135D01*
X163160000Y-87646452D01*
X163160000Y-87641885D01*
X163760000Y-87641885D01*
X163764475Y-87657124D01*
X163765865Y-87658329D01*
X163773548Y-87660000D01*
X164552222Y-87660000D01*
X164565753Y-87656027D01*
X164566922Y-87647892D01*
X164539786Y-87551675D01*
X164535661Y-87540928D01*
X164447292Y-87361733D01*
X164441282Y-87351925D01*
X164321731Y-87191827D01*
X164314041Y-87183287D01*
X164167315Y-87047654D01*
X164158190Y-87040653D01*
X163989209Y-86934034D01*
X163978965Y-86928814D01*
X163793377Y-86854772D01*
X163782356Y-86851507D01*
X163777770Y-86850595D01*
X163764894Y-86851747D01*
X163760000Y-86866903D01*
X163760000Y-87641885D01*
X163160000Y-87641885D01*
X163160000Y-86862941D01*
X163156027Y-86849410D01*
X163149944Y-86848536D01*
X162968207Y-86915582D01*
X162957829Y-86920532D01*
X162786119Y-87022688D01*
X162776807Y-87029453D01*
X162626587Y-87161194D01*
X162618670Y-87169537D01*
X162494975Y-87326443D01*
X162488704Y-87336100D01*
X162395679Y-87512912D01*
X162391273Y-87523549D01*
X162354276Y-87642698D01*
X162354057Y-87656799D01*
X162029435Y-87656799D01*
X161999785Y-87551670D01*
X161995663Y-87540931D01*
X161907292Y-87361733D01*
X161901282Y-87351925D01*
X161781731Y-87191827D01*
X161774041Y-87183287D01*
X161627315Y-87047654D01*
X161618190Y-87040653D01*
X161449209Y-86934034D01*
X161438965Y-86928814D01*
X161253377Y-86854772D01*
X161242356Y-86851507D01*
X161237770Y-86850595D01*
X161224894Y-86851747D01*
X161220000Y-86866903D01*
X161220000Y-88134000D01*
X161199998Y-88202121D01*
X161146342Y-88248614D01*
X161094000Y-88260000D01*
X159827713Y-88260000D01*
X159814182Y-88263973D01*
X159812890Y-88272962D01*
X159436023Y-88272962D01*
X159454678Y-88218007D01*
X159455507Y-88212291D01*
X159455508Y-88212286D01*
X159483167Y-88021516D01*
X159483700Y-88017842D01*
X159485215Y-87960000D01*
X159466708Y-87758591D01*
X159438000Y-87656799D01*
X159814057Y-87656799D01*
X159820789Y-87660000D01*
X160601885Y-87660000D01*
X160617124Y-87655525D01*
X160618329Y-87654135D01*
X160620000Y-87646452D01*
X160620000Y-86862941D01*
X160616027Y-86849410D01*
X160609944Y-86848536D01*
X160428207Y-86915582D01*
X160417829Y-86920532D01*
X160246119Y-87022688D01*
X160236807Y-87029453D01*
X160086587Y-87161194D01*
X160078670Y-87169537D01*
X159954975Y-87326443D01*
X159948704Y-87336100D01*
X159855679Y-87512912D01*
X159851273Y-87523549D01*
X159814276Y-87642698D01*
X159814057Y-87656799D01*
X159438000Y-87656799D01*
X159411807Y-87563926D01*
X159322351Y-87382527D01*
X159306824Y-87361733D01*
X159204788Y-87225091D01*
X159204787Y-87225090D01*
X159201335Y-87220467D01*
X159178350Y-87199220D01*
X159057053Y-87087094D01*
X159057051Y-87087092D01*
X159052812Y-87083174D01*
X159022247Y-87063889D01*
X158886637Y-86978325D01*
X158881757Y-86975246D01*
X158693898Y-86900298D01*
X158519261Y-86865560D01*
X158501192Y-86861966D01*
X158501191Y-86861966D01*
X158495526Y-86860839D01*
X158489752Y-86860763D01*
X158489748Y-86860763D01*
X158387257Y-86859422D01*
X158293286Y-86858192D01*
X158287589Y-86859171D01*
X158287588Y-86859171D01*
X158099646Y-86891465D01*
X158099645Y-86891465D01*
X158093949Y-86892444D01*
X157904193Y-86962449D01*
X157899232Y-86965401D01*
X157899231Y-86965401D01*
X157772744Y-87040653D01*
X157730371Y-87065862D01*
X157578305Y-87199220D01*
X157453089Y-87358057D01*
X157358914Y-87537053D01*
X157298937Y-87730213D01*
X157275164Y-87931069D01*
X156942557Y-87931069D01*
X156926708Y-87758591D01*
X156871807Y-87563926D01*
X156782351Y-87382527D01*
X156766824Y-87361733D01*
X156664788Y-87225091D01*
X156664787Y-87225090D01*
X156661335Y-87220467D01*
X156638350Y-87199220D01*
X156517053Y-87087094D01*
X156517051Y-87087092D01*
X156512812Y-87083174D01*
X156482247Y-87063889D01*
X156346637Y-86978325D01*
X156341757Y-86975246D01*
X156153898Y-86900298D01*
X155979261Y-86865560D01*
X155961192Y-86861966D01*
X155961191Y-86861966D01*
X155955526Y-86860839D01*
X155949752Y-86860763D01*
X155949748Y-86860763D01*
X155847257Y-86859422D01*
X155753286Y-86858192D01*
X155747589Y-86859171D01*
X155747588Y-86859171D01*
X155559646Y-86891465D01*
X155559645Y-86891465D01*
X155553949Y-86892444D01*
X155364193Y-86962449D01*
X155359232Y-86965401D01*
X155359231Y-86965401D01*
X155232744Y-87040653D01*
X155190371Y-87065862D01*
X155038305Y-87199220D01*
X154913089Y-87358057D01*
X154818914Y-87537053D01*
X154758937Y-87730213D01*
X154735164Y-87931069D01*
X154402557Y-87931069D01*
X154386708Y-87758591D01*
X154331807Y-87563926D01*
X154242351Y-87382527D01*
X154226824Y-87361733D01*
X154124788Y-87225091D01*
X154124787Y-87225090D01*
X154121335Y-87220467D01*
X154098350Y-87199220D01*
X153977053Y-87087094D01*
X153977051Y-87087092D01*
X153972812Y-87083174D01*
X153942247Y-87063889D01*
X153806637Y-86978325D01*
X153801757Y-86975246D01*
X153613898Y-86900298D01*
X153439261Y-86865560D01*
X153421192Y-86861966D01*
X153421191Y-86861966D01*
X153415526Y-86860839D01*
X153409752Y-86860763D01*
X153409748Y-86860763D01*
X153307257Y-86859422D01*
X153213286Y-86858192D01*
X153207589Y-86859171D01*
X153207588Y-86859171D01*
X153019646Y-86891465D01*
X153019645Y-86891465D01*
X153013949Y-86892444D01*
X152824193Y-86962449D01*
X152819232Y-86965401D01*
X152819231Y-86965401D01*
X152692744Y-87040653D01*
X152650371Y-87065862D01*
X152498305Y-87199220D01*
X152373089Y-87358057D01*
X152278914Y-87537053D01*
X152218937Y-87730213D01*
X152195164Y-87931069D01*
X149322557Y-87931069D01*
X149306708Y-87758591D01*
X149278000Y-87656799D01*
X149654057Y-87656799D01*
X149660789Y-87660000D01*
X150441885Y-87660000D01*
X150457124Y-87655525D01*
X150458329Y-87654135D01*
X150460000Y-87646452D01*
X150460000Y-87641885D01*
X151060000Y-87641885D01*
X151064475Y-87657124D01*
X151065865Y-87658329D01*
X151073548Y-87660000D01*
X151852222Y-87660000D01*
X151865753Y-87656027D01*
X151866922Y-87647892D01*
X151839786Y-87551675D01*
X151835661Y-87540928D01*
X151747292Y-87361733D01*
X151741282Y-87351925D01*
X151621731Y-87191827D01*
X151614041Y-87183287D01*
X151467315Y-87047654D01*
X151458190Y-87040653D01*
X151289209Y-86934034D01*
X151278965Y-86928814D01*
X151093377Y-86854772D01*
X151082356Y-86851507D01*
X151077770Y-86850595D01*
X151064894Y-86851747D01*
X151060000Y-86866903D01*
X151060000Y-87641885D01*
X150460000Y-87641885D01*
X150460000Y-86862941D01*
X150456027Y-86849410D01*
X150449944Y-86848536D01*
X150268207Y-86915582D01*
X150257829Y-86920532D01*
X150086119Y-87022688D01*
X150076807Y-87029453D01*
X149926587Y-87161194D01*
X149918670Y-87169537D01*
X149794975Y-87326443D01*
X149788704Y-87336100D01*
X149695679Y-87512912D01*
X149691273Y-87523549D01*
X149654276Y-87642698D01*
X149654057Y-87656799D01*
X149278000Y-87656799D01*
X149251807Y-87563926D01*
X149162351Y-87382527D01*
X149146824Y-87361733D01*
X149044788Y-87225091D01*
X149044787Y-87225090D01*
X149041335Y-87220467D01*
X149018350Y-87199220D01*
X148897053Y-87087094D01*
X148897051Y-87087092D01*
X148892812Y-87083174D01*
X148862247Y-87063889D01*
X148726637Y-86978325D01*
X148721757Y-86975246D01*
X148533898Y-86900298D01*
X148359261Y-86865560D01*
X148341192Y-86861966D01*
X148341191Y-86861966D01*
X148335526Y-86860839D01*
X148329752Y-86860763D01*
X148329748Y-86860763D01*
X148227257Y-86859422D01*
X148133286Y-86858192D01*
X148127589Y-86859171D01*
X148127588Y-86859171D01*
X147939646Y-86891465D01*
X147939645Y-86891465D01*
X147933949Y-86892444D01*
X147744193Y-86962449D01*
X147739232Y-86965401D01*
X147739231Y-86965401D01*
X147612744Y-87040653D01*
X147570371Y-87065862D01*
X147418305Y-87199220D01*
X147293089Y-87358057D01*
X147198914Y-87537053D01*
X147138937Y-87730213D01*
X147115164Y-87931069D01*
X146782557Y-87931069D01*
X146766708Y-87758591D01*
X146711807Y-87563926D01*
X146622351Y-87382527D01*
X146606824Y-87361733D01*
X146504788Y-87225091D01*
X146504787Y-87225090D01*
X146501335Y-87220467D01*
X146478350Y-87199220D01*
X146357053Y-87087094D01*
X146357051Y-87087092D01*
X146352812Y-87083174D01*
X146322247Y-87063889D01*
X146186637Y-86978325D01*
X146181757Y-86975246D01*
X145993898Y-86900298D01*
X145819261Y-86865560D01*
X145801192Y-86861966D01*
X145801191Y-86861966D01*
X145795526Y-86860839D01*
X145789752Y-86860763D01*
X145789748Y-86860763D01*
X145687257Y-86859422D01*
X145593286Y-86858192D01*
X145587589Y-86859171D01*
X145587588Y-86859171D01*
X145399646Y-86891465D01*
X145399645Y-86891465D01*
X145393949Y-86892444D01*
X145204193Y-86962449D01*
X145199232Y-86965401D01*
X145199231Y-86965401D01*
X145072744Y-87040653D01*
X145030371Y-87065862D01*
X144878305Y-87199220D01*
X144753089Y-87358057D01*
X144658914Y-87537053D01*
X144598937Y-87730213D01*
X144575164Y-87931069D01*
X144242557Y-87931069D01*
X144226708Y-87758591D01*
X144171807Y-87563926D01*
X144082351Y-87382527D01*
X143961335Y-87220467D01*
X143930969Y-87192397D01*
X143894526Y-87131472D01*
X143890959Y-87103475D01*
X143890712Y-87103489D01*
X143890504Y-87099903D01*
X143890500Y-87099875D01*
X143890500Y-87096178D01*
X143887246Y-87068264D01*
X143886813Y-87063889D01*
X143881554Y-86999236D01*
X143880961Y-86991941D01*
X143878706Y-86984979D01*
X143877548Y-86979184D01*
X143876191Y-86973442D01*
X143875343Y-86966172D01*
X143850694Y-86898264D01*
X143849277Y-86894136D01*
X143829283Y-86832417D01*
X143829282Y-86832415D01*
X143827027Y-86825454D01*
X143823232Y-86819200D01*
X143820769Y-86813821D01*
X143818127Y-86808545D01*
X143815631Y-86801669D01*
X143776046Y-86741291D01*
X143773705Y-86737581D01*
X143739152Y-86680639D01*
X143739147Y-86680632D01*
X143736239Y-86675840D01*
X143728915Y-86667548D01*
X143728940Y-86667526D01*
X143726194Y-86664431D01*
X143723691Y-86661437D01*
X143719677Y-86655315D01*
X143664047Y-86602616D01*
X143661606Y-86600239D01*
X142077678Y-85016311D01*
X142065291Y-85001898D01*
X142056959Y-84990575D01*
X142056955Y-84990571D01*
X142052617Y-84984676D01*
X142012800Y-84950849D01*
X142005296Y-84943929D01*
X141999697Y-84938330D01*
X141977649Y-84920886D01*
X141974273Y-84918117D01*
X141924825Y-84876108D01*
X141924822Y-84876106D01*
X141919245Y-84871368D01*
X141912726Y-84868040D01*
X141907816Y-84864765D01*
X141902796Y-84861664D01*
X141897051Y-84857119D01*
X141831651Y-84826553D01*
X141827705Y-84824625D01*
X141818350Y-84819848D01*
X141763384Y-84791781D01*
X141756275Y-84790042D01*
X141750740Y-84787983D01*
X141745132Y-84786117D01*
X141738507Y-84783021D01*
X141731347Y-84781532D01*
X141731345Y-84781531D01*
X141667807Y-84768315D01*
X141663518Y-84767344D01*
X141629577Y-84759039D01*
X141593394Y-84750185D01*
X141587794Y-84749838D01*
X141587790Y-84749837D01*
X141582352Y-84749500D01*
X141582354Y-84749468D01*
X141578224Y-84749221D01*
X141574344Y-84748875D01*
X141567169Y-84747382D01*
X141559848Y-84747580D01*
X141559847Y-84747580D01*
X141490600Y-84749454D01*
X141487192Y-84749500D01*
X124246454Y-84749500D01*
X124227504Y-84748067D01*
X124213604Y-84745952D01*
X124213600Y-84745952D01*
X124206370Y-84744852D01*
X124199078Y-84745445D01*
X124199075Y-84745445D01*
X124154325Y-84749085D01*
X124144111Y-84749500D01*
X124136178Y-84749500D01*
X124130303Y-84750185D01*
X124108264Y-84752754D01*
X124103889Y-84753187D01*
X124073726Y-84755640D01*
X124031941Y-84759039D01*
X124024979Y-84761294D01*
X124019184Y-84762452D01*
X124013442Y-84763809D01*
X124006172Y-84764657D01*
X123938264Y-84789306D01*
X123934136Y-84790723D01*
X123872417Y-84810717D01*
X123872415Y-84810718D01*
X123865454Y-84812973D01*
X123859200Y-84816768D01*
X123853821Y-84819231D01*
X123848545Y-84821873D01*
X123841669Y-84824369D01*
X123796450Y-84854016D01*
X123781267Y-84863970D01*
X123777554Y-84866312D01*
X123715840Y-84903762D01*
X123711641Y-84907470D01*
X123711636Y-84907474D01*
X123707548Y-84911085D01*
X123707526Y-84911060D01*
X123704435Y-84913803D01*
X123701439Y-84916308D01*
X123695315Y-84920323D01*
X123690281Y-84925637D01*
X123642617Y-84975952D01*
X123640239Y-84978394D01*
X122336311Y-86282322D01*
X122321898Y-86294709D01*
X122310575Y-86303041D01*
X122310571Y-86303045D01*
X122304676Y-86307383D01*
X122270849Y-86347200D01*
X122263929Y-86354704D01*
X122258330Y-86360303D01*
X122240886Y-86382351D01*
X122238117Y-86385727D01*
X122196108Y-86435175D01*
X122196106Y-86435178D01*
X122191368Y-86440755D01*
X122188040Y-86447274D01*
X122184765Y-86452184D01*
X122181664Y-86457204D01*
X122177119Y-86462949D01*
X122174017Y-86469587D01*
X122174016Y-86469588D01*
X122146556Y-86528343D01*
X122144628Y-86532289D01*
X122111781Y-86596616D01*
X122110042Y-86603725D01*
X122107983Y-86609260D01*
X122106117Y-86614868D01*
X122103021Y-86621493D01*
X122101532Y-86628653D01*
X122101531Y-86628655D01*
X122088315Y-86692193D01*
X122087344Y-86696482D01*
X122070185Y-86766606D01*
X122069500Y-86777648D01*
X122069468Y-86777646D01*
X122069221Y-86781776D01*
X122068875Y-86785656D01*
X122067382Y-86792831D01*
X122067580Y-86800152D01*
X122067580Y-86800153D01*
X122069454Y-86869400D01*
X122069500Y-86872808D01*
X122069500Y-87097233D01*
X122049498Y-87165354D01*
X122026576Y-87191966D01*
X122022652Y-87195407D01*
X122022648Y-87195412D01*
X122018305Y-87199220D01*
X122014726Y-87203760D01*
X122014725Y-87203761D01*
X121945162Y-87292002D01*
X121893089Y-87358057D01*
X121798914Y-87537053D01*
X121738937Y-87730213D01*
X121715164Y-87931069D01*
X121728392Y-88132894D01*
X121729815Y-88138496D01*
X121763965Y-88272962D01*
X121778178Y-88328928D01*
X121862856Y-88512607D01*
X121866189Y-88517323D01*
X121976397Y-88673265D01*
X121999500Y-88745985D01*
X121999500Y-89719382D01*
X121979498Y-89787503D01*
X121972450Y-89797387D01*
X121893089Y-89898057D01*
X121798914Y-90077053D01*
X121738937Y-90270213D01*
X121715164Y-90471069D01*
X121728392Y-90672894D01*
X121729815Y-90678496D01*
X121763965Y-90812962D01*
X121778178Y-90868928D01*
X121862856Y-91052607D01*
X121866189Y-91057323D01*
X121976397Y-91213265D01*
X121999500Y-91285985D01*
X121999500Y-121904000D01*
X121979498Y-121972121D01*
X121925842Y-122018614D01*
X121873500Y-122030000D01*
X120751500Y-122030000D01*
X120683379Y-122009998D01*
X120636886Y-121956342D01*
X120625500Y-121904000D01*
X120625500Y-91635268D01*
X120645502Y-91567147D01*
X120699158Y-91520654D01*
X120710999Y-91515955D01*
X120724064Y-91511520D01*
X120724066Y-91511519D01*
X120729531Y-91509664D01*
X120866158Y-91433150D01*
X120900964Y-91413658D01*
X120900965Y-91413657D01*
X120906001Y-91410837D01*
X120910930Y-91406738D01*
X121048132Y-91292627D01*
X121061505Y-91281505D01*
X121190837Y-91126001D01*
X121289664Y-90949531D01*
X121305525Y-90902808D01*
X121352820Y-90763481D01*
X121352820Y-90763479D01*
X121354678Y-90758007D01*
X121355507Y-90752291D01*
X121355508Y-90752286D01*
X121374629Y-90620406D01*
X121383700Y-90557842D01*
X121385215Y-90500000D01*
X121366708Y-90298591D01*
X121311807Y-90103926D01*
X121222351Y-89922527D01*
X121206824Y-89901733D01*
X121104788Y-89765091D01*
X121104787Y-89765090D01*
X121101335Y-89760467D01*
X121078350Y-89739220D01*
X120957053Y-89627094D01*
X120957051Y-89627092D01*
X120952812Y-89623174D01*
X120925374Y-89605862D01*
X120786637Y-89518325D01*
X120781757Y-89515246D01*
X120593898Y-89440298D01*
X120395526Y-89400839D01*
X120389752Y-89400763D01*
X120389748Y-89400763D01*
X120287257Y-89399422D01*
X120193286Y-89398192D01*
X120187589Y-89399171D01*
X120187588Y-89399171D01*
X119999646Y-89431465D01*
X119999645Y-89431465D01*
X119993949Y-89432444D01*
X119804193Y-89502449D01*
X119799232Y-89505401D01*
X119799231Y-89505401D01*
X119672744Y-89580653D01*
X119630371Y-89605862D01*
X119478305Y-89739220D01*
X119353089Y-89898057D01*
X119258914Y-90077053D01*
X119198937Y-90270213D01*
X119175164Y-90471069D01*
X119188392Y-90672894D01*
X119189815Y-90678496D01*
X119223965Y-90812962D01*
X119238178Y-90868928D01*
X119322856Y-91052607D01*
X119439588Y-91217780D01*
X119443730Y-91221815D01*
X119500446Y-91277065D01*
X119584466Y-91358913D01*
X119752637Y-91471282D01*
X119757940Y-91473560D01*
X119757945Y-91473563D01*
X119789308Y-91487037D01*
X119795244Y-91489587D01*
X119798237Y-91490873D01*
X119852930Y-91536141D01*
X119874500Y-91606641D01*
X119874500Y-121904000D01*
X119854498Y-121972121D01*
X119800842Y-122018614D01*
X119748500Y-122030000D01*
X118251500Y-122030000D01*
X118183379Y-122009998D01*
X118136886Y-121956342D01*
X118125500Y-121904000D01*
X118125500Y-91619373D01*
X118145502Y-91551252D01*
X118189933Y-91509439D01*
X118326158Y-91433150D01*
X118360964Y-91413658D01*
X118360965Y-91413657D01*
X118366001Y-91410837D01*
X118370930Y-91406738D01*
X118508132Y-91292627D01*
X118521505Y-91281505D01*
X118650837Y-91126001D01*
X118749664Y-90949531D01*
X118765525Y-90902808D01*
X118812820Y-90763481D01*
X118812820Y-90763479D01*
X118814678Y-90758007D01*
X118815507Y-90752291D01*
X118815508Y-90752286D01*
X118834629Y-90620406D01*
X118843700Y-90557842D01*
X118845215Y-90500000D01*
X118826708Y-90298591D01*
X118771807Y-90103926D01*
X118682351Y-89922527D01*
X118666824Y-89901733D01*
X118564788Y-89765091D01*
X118564787Y-89765090D01*
X118561335Y-89760467D01*
X118538350Y-89739220D01*
X118417053Y-89627094D01*
X118417051Y-89627092D01*
X118412812Y-89623174D01*
X118385374Y-89605862D01*
X118246637Y-89518325D01*
X118241757Y-89515246D01*
X118053898Y-89440298D01*
X117855526Y-89400839D01*
X117849752Y-89400763D01*
X117849748Y-89400763D01*
X117747257Y-89399422D01*
X117653286Y-89398192D01*
X117647589Y-89399171D01*
X117647588Y-89399171D01*
X117459646Y-89431465D01*
X117459645Y-89431465D01*
X117453949Y-89432444D01*
X117264193Y-89502449D01*
X117259232Y-89505401D01*
X117259231Y-89505401D01*
X117132744Y-89580653D01*
X117090371Y-89605862D01*
X116938305Y-89739220D01*
X116813089Y-89898057D01*
X116718914Y-90077053D01*
X116658937Y-90270213D01*
X116635164Y-90471069D01*
X116648392Y-90672894D01*
X116649815Y-90678496D01*
X116683965Y-90812962D01*
X116698178Y-90868928D01*
X116782856Y-91052607D01*
X116899588Y-91217780D01*
X116903730Y-91221815D01*
X116960446Y-91277065D01*
X117044466Y-91358913D01*
X117212637Y-91471282D01*
X117217940Y-91473560D01*
X117217943Y-91473562D01*
X117298238Y-91508059D01*
X117352931Y-91553327D01*
X117374500Y-91623827D01*
X117374500Y-121904000D01*
X117354498Y-121972121D01*
X117300842Y-122018614D01*
X117248500Y-122030000D01*
X115751500Y-122030000D01*
X115683379Y-122009998D01*
X115636886Y-121956342D01*
X115625500Y-121904000D01*
X115625500Y-91596972D01*
X115645502Y-91528851D01*
X115689933Y-91487038D01*
X115786158Y-91433150D01*
X115820964Y-91413658D01*
X115820965Y-91413657D01*
X115826001Y-91410837D01*
X115830930Y-91406738D01*
X115968132Y-91292627D01*
X115981505Y-91281505D01*
X116110837Y-91126001D01*
X116209664Y-90949531D01*
X116225525Y-90902808D01*
X116272820Y-90763481D01*
X116272820Y-90763479D01*
X116274678Y-90758007D01*
X116275507Y-90752291D01*
X116275508Y-90752286D01*
X116294629Y-90620406D01*
X116303700Y-90557842D01*
X116305215Y-90500000D01*
X116286708Y-90298591D01*
X116231807Y-90103926D01*
X116142351Y-89922527D01*
X116126824Y-89901733D01*
X116024788Y-89765091D01*
X116024787Y-89765090D01*
X116021335Y-89760467D01*
X115998350Y-89739220D01*
X115877053Y-89627094D01*
X115877051Y-89627092D01*
X115872812Y-89623174D01*
X115845374Y-89605862D01*
X115706637Y-89518325D01*
X115701757Y-89515246D01*
X115513898Y-89440298D01*
X115315526Y-89400839D01*
X115309752Y-89400763D01*
X115309748Y-89400763D01*
X115207257Y-89399422D01*
X115113286Y-89398192D01*
X115107589Y-89399171D01*
X115107588Y-89399171D01*
X114919646Y-89431465D01*
X114919645Y-89431465D01*
X114913949Y-89432444D01*
X114724193Y-89502449D01*
X114719232Y-89505401D01*
X114719231Y-89505401D01*
X114592744Y-89580653D01*
X114550371Y-89605862D01*
X114398305Y-89739220D01*
X114273089Y-89898057D01*
X114178914Y-90077053D01*
X114118937Y-90270213D01*
X114095164Y-90471069D01*
X114108392Y-90672894D01*
X114109815Y-90678496D01*
X114143965Y-90812962D01*
X114158178Y-90868928D01*
X114242856Y-91052607D01*
X114359588Y-91217780D01*
X114363730Y-91221815D01*
X114420446Y-91277065D01*
X114504466Y-91358913D01*
X114672637Y-91471282D01*
X114677941Y-91473561D01*
X114677947Y-91473564D01*
X114798237Y-91525244D01*
X114852931Y-91570512D01*
X114874500Y-91641012D01*
X114874500Y-121904000D01*
X114854498Y-121972121D01*
X114800842Y-122018614D01*
X114748500Y-122030000D01*
X113251500Y-122030000D01*
X113183379Y-122009998D01*
X113136886Y-121956342D01*
X113125500Y-121904000D01*
X113125500Y-91574572D01*
X113145502Y-91506451D01*
X113189934Y-91464637D01*
X113280964Y-91413658D01*
X113280965Y-91413657D01*
X113286001Y-91410837D01*
X113290930Y-91406738D01*
X113428132Y-91292627D01*
X113441505Y-91281505D01*
X113570837Y-91126001D01*
X113669664Y-90949531D01*
X113685525Y-90902808D01*
X113732820Y-90763481D01*
X113732820Y-90763479D01*
X113734678Y-90758007D01*
X113735507Y-90752291D01*
X113735508Y-90752286D01*
X113754629Y-90620406D01*
X113763700Y-90557842D01*
X113765215Y-90500000D01*
X113746708Y-90298591D01*
X113691807Y-90103926D01*
X113602351Y-89922527D01*
X113586824Y-89901733D01*
X113484788Y-89765091D01*
X113484787Y-89765090D01*
X113481335Y-89760467D01*
X113458350Y-89739220D01*
X113337053Y-89627094D01*
X113337051Y-89627092D01*
X113332812Y-89623174D01*
X113305374Y-89605862D01*
X113166637Y-89518325D01*
X113161757Y-89515246D01*
X112973898Y-89440298D01*
X112775526Y-89400839D01*
X112769752Y-89400763D01*
X112769748Y-89400763D01*
X112667257Y-89399422D01*
X112573286Y-89398192D01*
X112567589Y-89399171D01*
X112567588Y-89399171D01*
X112379646Y-89431465D01*
X112379645Y-89431465D01*
X112373949Y-89432444D01*
X112184193Y-89502449D01*
X112179232Y-89505401D01*
X112179231Y-89505401D01*
X112052744Y-89580653D01*
X112010371Y-89605862D01*
X111858305Y-89739220D01*
X111733089Y-89898057D01*
X111638914Y-90077053D01*
X111578937Y-90270213D01*
X111555164Y-90471069D01*
X111568392Y-90672894D01*
X111569815Y-90678496D01*
X111603965Y-90812962D01*
X111618178Y-90868928D01*
X111702856Y-91052607D01*
X111819588Y-91217780D01*
X111823730Y-91221815D01*
X111880446Y-91277065D01*
X111964466Y-91358913D01*
X112132637Y-91471282D01*
X112137940Y-91473560D01*
X112137943Y-91473562D01*
X112298238Y-91542430D01*
X112352931Y-91587698D01*
X112374500Y-91658198D01*
X112374500Y-121904000D01*
X112354498Y-121972121D01*
X112300842Y-122018614D01*
X112248500Y-122030000D01*
X105751500Y-122030000D01*
X105683379Y-122009998D01*
X105636886Y-121956342D01*
X105625500Y-121904000D01*
X105625500Y-91503612D01*
X105645502Y-91435491D01*
X105670930Y-91406738D01*
X105817072Y-91285192D01*
X105817073Y-91285191D01*
X105821505Y-91281505D01*
X105950837Y-91126001D01*
X106049664Y-90949531D01*
X106065525Y-90902808D01*
X106096024Y-90812962D01*
X106472890Y-90812962D01*
X106489896Y-90879923D01*
X106493737Y-90890769D01*
X106577386Y-91072218D01*
X106583137Y-91082179D01*
X106698455Y-91245350D01*
X106705921Y-91254092D01*
X106849047Y-91393520D01*
X106857981Y-91400754D01*
X107024112Y-91511760D01*
X107034225Y-91517251D01*
X107217798Y-91596120D01*
X107228747Y-91599677D01*
X107262331Y-91607276D01*
X107276405Y-91606387D01*
X107280000Y-91596988D01*
X107280000Y-90818115D01*
X107275525Y-90802876D01*
X107274135Y-90801671D01*
X107266452Y-90800000D01*
X106487713Y-90800000D01*
X106474182Y-90803973D01*
X106472890Y-90812962D01*
X106096024Y-90812962D01*
X106112820Y-90763481D01*
X106112820Y-90763479D01*
X106114678Y-90758007D01*
X106115507Y-90752291D01*
X106115508Y-90752286D01*
X106134629Y-90620406D01*
X106143700Y-90557842D01*
X106145215Y-90500000D01*
X106126708Y-90298591D01*
X106071807Y-90103926D01*
X105982351Y-89922527D01*
X105966824Y-89901733D01*
X105864788Y-89765091D01*
X105864787Y-89765090D01*
X105861335Y-89760467D01*
X105838350Y-89739220D01*
X105717053Y-89627094D01*
X105717051Y-89627092D01*
X105712812Y-89623174D01*
X105685374Y-89605862D01*
X105546637Y-89518325D01*
X105541757Y-89515246D01*
X105353898Y-89440298D01*
X105155526Y-89400839D01*
X105149752Y-89400763D01*
X105149748Y-89400763D01*
X105047257Y-89399422D01*
X104953286Y-89398192D01*
X104947589Y-89399171D01*
X104947588Y-89399171D01*
X104759646Y-89431465D01*
X104759645Y-89431465D01*
X104753949Y-89432444D01*
X104564193Y-89502449D01*
X104559232Y-89505401D01*
X104559231Y-89505401D01*
X104432744Y-89580653D01*
X104390371Y-89605862D01*
X104238305Y-89739220D01*
X104113089Y-89898057D01*
X104018914Y-90077053D01*
X103958937Y-90270213D01*
X103935164Y-90471069D01*
X103948392Y-90672894D01*
X103949815Y-90678496D01*
X103983965Y-90812962D01*
X103998178Y-90868928D01*
X104082856Y-91052607D01*
X104199588Y-91217780D01*
X104203730Y-91221815D01*
X104260446Y-91277065D01*
X104344466Y-91358913D01*
X104512637Y-91471282D01*
X104517940Y-91473560D01*
X104517943Y-91473562D01*
X104678239Y-91542430D01*
X104698470Y-91551122D01*
X104776308Y-91568735D01*
X104838335Y-91603278D01*
X104871839Y-91665871D01*
X104874500Y-91691628D01*
X104874500Y-121904000D01*
X104854498Y-121972121D01*
X104800842Y-122018614D01*
X104748500Y-122030000D01*
X100826500Y-122030000D01*
X100758379Y-122009998D01*
X100711886Y-121956342D01*
X100700500Y-121904000D01*
X100700500Y-119505892D01*
X100700533Y-119468626D01*
X100700533Y-119468624D01*
X100700545Y-119454437D01*
X100694403Y-119441646D01*
X100693287Y-119436733D01*
X100690650Y-119429183D01*
X100688468Y-119424649D01*
X100685312Y-119410815D01*
X100676471Y-119399720D01*
X100674125Y-119394846D01*
X100670454Y-119388994D01*
X100667088Y-119384762D01*
X100660948Y-119371976D01*
X100649869Y-119363116D01*
X100646735Y-119359176D01*
X100641084Y-119353515D01*
X100637148Y-119350373D01*
X100628305Y-119339276D01*
X100615523Y-119333111D01*
X100611296Y-119329737D01*
X100605453Y-119326058D01*
X100600590Y-119323707D01*
X100589508Y-119314844D01*
X100575680Y-119311664D01*
X100571149Y-119309474D01*
X100563603Y-119306824D01*
X100558693Y-119305700D01*
X100545913Y-119299535D01*
X100522845Y-119299515D01*
X100522847Y-119297490D01*
X100522781Y-119297474D01*
X100522781Y-119299500D01*
X100505892Y-119299500D01*
X100454437Y-119299455D01*
X100454441Y-119294650D01*
X100454343Y-119294644D01*
X100454343Y-119299500D01*
X89005892Y-119299500D01*
X88968626Y-119299467D01*
X88968624Y-119299467D01*
X88954437Y-119299455D01*
X88941646Y-119305597D01*
X88936733Y-119306713D01*
X88929183Y-119309350D01*
X88924649Y-119311532D01*
X88910815Y-119314688D01*
X88899720Y-119323529D01*
X88894846Y-119325875D01*
X88888994Y-119329546D01*
X88884762Y-119332912D01*
X88871976Y-119339052D01*
X88863116Y-119350131D01*
X88859176Y-119353265D01*
X88853515Y-119358916D01*
X88850373Y-119362852D01*
X88839276Y-119371695D01*
X88833111Y-119384477D01*
X88829737Y-119388704D01*
X88826058Y-119394547D01*
X88823707Y-119399410D01*
X88814844Y-119410492D01*
X88811664Y-119424320D01*
X88809474Y-119428851D01*
X88806824Y-119436397D01*
X88805700Y-119441307D01*
X88799535Y-119454087D01*
X88799515Y-119477155D01*
X88797490Y-119477153D01*
X88797474Y-119477219D01*
X88799500Y-119477219D01*
X88799500Y-119494108D01*
X88799455Y-119545563D01*
X88794650Y-119545559D01*
X88794644Y-119545657D01*
X88799500Y-119545657D01*
X88799500Y-125673500D01*
X88779498Y-125741621D01*
X88725842Y-125788114D01*
X88673500Y-125799500D01*
X82826500Y-125799500D01*
X82758379Y-125779498D01*
X82711886Y-125725842D01*
X82700500Y-125673500D01*
X82700500Y-97826500D01*
X82720502Y-97758379D01*
X82774158Y-97711886D01*
X82826500Y-97700500D01*
X83494108Y-97700500D01*
X83531374Y-97700533D01*
X83531376Y-97700533D01*
X83545563Y-97700545D01*
X83558354Y-97694403D01*
X83563267Y-97693287D01*
X83570817Y-97690650D01*
X83575351Y-97688468D01*
X83589185Y-97685312D01*
X83600280Y-97676471D01*
X83605154Y-97674125D01*
X83611006Y-97670454D01*
X83615238Y-97667088D01*
X83628024Y-97660948D01*
X83636884Y-97649869D01*
X83640824Y-97646735D01*
X83646485Y-97641084D01*
X83649627Y-97637148D01*
X83660724Y-97628305D01*
X83666889Y-97615523D01*
X83670263Y-97611296D01*
X83673942Y-97605453D01*
X83676293Y-97600590D01*
X83685156Y-97589508D01*
X83688336Y-97575680D01*
X83690526Y-97571149D01*
X83693176Y-97563603D01*
X83694300Y-97558693D01*
X83700465Y-97545913D01*
X83700485Y-97522845D01*
X83702510Y-97522847D01*
X83702526Y-97522781D01*
X83700500Y-97522781D01*
X83700500Y-97505892D01*
X83700545Y-97454437D01*
X83705350Y-97454441D01*
X83705356Y-97454343D01*
X83700500Y-97454343D01*
X83700500Y-94826500D01*
X83720502Y-94758379D01*
X83774158Y-94711886D01*
X83826500Y-94700500D01*
X85994108Y-94700500D01*
X86031374Y-94700533D01*
X86031376Y-94700533D01*
X86045563Y-94700545D01*
X86058354Y-94694403D01*
X86063267Y-94693287D01*
X86070817Y-94690650D01*
X86075351Y-94688468D01*
X86089185Y-94685312D01*
X86100280Y-94676471D01*
X86105154Y-94674125D01*
X86111006Y-94670454D01*
X86115238Y-94667088D01*
X86128024Y-94660948D01*
X86136884Y-94649869D01*
X86140824Y-94646735D01*
X86146485Y-94641084D01*
X86149627Y-94637148D01*
X86160724Y-94628305D01*
X86166889Y-94615523D01*
X86170263Y-94611296D01*
X86173942Y-94605453D01*
X86176293Y-94600590D01*
X86185156Y-94589508D01*
X86188336Y-94575680D01*
X86190526Y-94571149D01*
X86193176Y-94563603D01*
X86194300Y-94558693D01*
X86200465Y-94545913D01*
X86200485Y-94522845D01*
X86202510Y-94522847D01*
X86202526Y-94522781D01*
X86200500Y-94522781D01*
X86200500Y-94505892D01*
X86200545Y-94454437D01*
X86205350Y-94454441D01*
X86205356Y-94454343D01*
X86200500Y-94454343D01*
X86200500Y-93005892D01*
X86200545Y-92954437D01*
X86194403Y-92941646D01*
X86193287Y-92936733D01*
X86190650Y-92929183D01*
X86188468Y-92924649D01*
X86185312Y-92910815D01*
X86176471Y-92899720D01*
X86174125Y-92894846D01*
X86170454Y-92888994D01*
X86167088Y-92884762D01*
X86160948Y-92871976D01*
X86149869Y-92863116D01*
X86146735Y-92859176D01*
X86141084Y-92853515D01*
X86137148Y-92850373D01*
X86128305Y-92839276D01*
X86115523Y-92833111D01*
X86111296Y-92829737D01*
X86105453Y-92826058D01*
X86100590Y-92823707D01*
X86089508Y-92814844D01*
X86075680Y-92811664D01*
X86071149Y-92809474D01*
X86063603Y-92806824D01*
X86058693Y-92805700D01*
X86045913Y-92799535D01*
X86022845Y-92799515D01*
X86022847Y-92797490D01*
X86022781Y-92797474D01*
X86022781Y-92799500D01*
X86005892Y-92799500D01*
X85954437Y-92799455D01*
X85954441Y-92794650D01*
X85954343Y-92794644D01*
X85954343Y-92799500D01*
X82826500Y-92799500D01*
X82758379Y-92779498D01*
X82711886Y-92725842D01*
X82700500Y-92673500D01*
X82700500Y-91390840D01*
X101350000Y-91390840D01*
X101350442Y-91398286D01*
X101351994Y-91411336D01*
X101356952Y-91429374D01*
X101393755Y-91512231D01*
X101406713Y-91531085D01*
X101469342Y-91593604D01*
X101488212Y-91606525D01*
X101571125Y-91643180D01*
X101589202Y-91648108D01*
X101601787Y-91649576D01*
X101609088Y-91650000D01*
X102181885Y-91650000D01*
X102197124Y-91645525D01*
X102198329Y-91644135D01*
X102200000Y-91636452D01*
X102200000Y-91631885D01*
X102800000Y-91631885D01*
X102804475Y-91647124D01*
X102805865Y-91648329D01*
X102813548Y-91650000D01*
X103390840Y-91650000D01*
X103398286Y-91649558D01*
X103411336Y-91648006D01*
X103429374Y-91643048D01*
X103512231Y-91606245D01*
X103531085Y-91593287D01*
X103593604Y-91530658D01*
X103606525Y-91511788D01*
X103643180Y-91428875D01*
X103648108Y-91410798D01*
X103649576Y-91398213D01*
X103650000Y-91390912D01*
X103650000Y-90818115D01*
X103645525Y-90802876D01*
X103644135Y-90801671D01*
X103636452Y-90800000D01*
X102818115Y-90800000D01*
X102802876Y-90804475D01*
X102801671Y-90805865D01*
X102800000Y-90813548D01*
X102800000Y-91631885D01*
X102200000Y-91631885D01*
X102200000Y-90818115D01*
X102195525Y-90802876D01*
X102194135Y-90801671D01*
X102186452Y-90800000D01*
X101368115Y-90800000D01*
X101352876Y-90804475D01*
X101351671Y-90805865D01*
X101350000Y-90813548D01*
X101350000Y-91390840D01*
X82700500Y-91390840D01*
X82700500Y-90181885D01*
X101350000Y-90181885D01*
X101354475Y-90197124D01*
X101355865Y-90198329D01*
X101363548Y-90200000D01*
X103631885Y-90200000D01*
X103647124Y-90195525D01*
X103648329Y-90194135D01*
X103650000Y-90186452D01*
X103650000Y-89609160D01*
X103649558Y-89601714D01*
X103648006Y-89588664D01*
X103643048Y-89570626D01*
X103606245Y-89487769D01*
X103593287Y-89468915D01*
X103530658Y-89406396D01*
X103511788Y-89393475D01*
X103428875Y-89356820D01*
X103410798Y-89351892D01*
X103398213Y-89350424D01*
X103390912Y-89350000D01*
X102675356Y-89350000D01*
X102607235Y-89329998D01*
X102560742Y-89276342D01*
X102550638Y-89206068D01*
X102580132Y-89141488D01*
X102639858Y-89103104D01*
X102657276Y-89099304D01*
X102763898Y-89083845D01*
X102775081Y-89081160D01*
X102964283Y-89016934D01*
X102974786Y-89012258D01*
X103149124Y-88914625D01*
X103158596Y-88908115D01*
X103312219Y-88780348D01*
X103320348Y-88772219D01*
X103448115Y-88618596D01*
X103454625Y-88609124D01*
X103552259Y-88434784D01*
X103556933Y-88424287D01*
X103606877Y-88277156D01*
X103607464Y-88263065D01*
X103601431Y-88260000D01*
X101407713Y-88260000D01*
X101394182Y-88263973D01*
X101392890Y-88272962D01*
X101409896Y-88339923D01*
X101413737Y-88350769D01*
X101497386Y-88532218D01*
X101503137Y-88542179D01*
X101618455Y-88705350D01*
X101625921Y-88714092D01*
X101769047Y-88853520D01*
X101777981Y-88860754D01*
X101944112Y-88971760D01*
X101954225Y-88977251D01*
X102137805Y-89056123D01*
X102148738Y-89059675D01*
X102331844Y-89101107D01*
X102393870Y-89135650D01*
X102427375Y-89198243D01*
X102421721Y-89269014D01*
X102378702Y-89325493D01*
X102311978Y-89349749D01*
X102304036Y-89350000D01*
X101609160Y-89350000D01*
X101601714Y-89350442D01*
X101588664Y-89351994D01*
X101570626Y-89356952D01*
X101487769Y-89393755D01*
X101468915Y-89406713D01*
X101406396Y-89469342D01*
X101393475Y-89488212D01*
X101356820Y-89571125D01*
X101351892Y-89589202D01*
X101350424Y-89601787D01*
X101350000Y-89609088D01*
X101350000Y-90181885D01*
X82700500Y-90181885D01*
X82700500Y-87931069D01*
X103935164Y-87931069D01*
X103948392Y-88132894D01*
X103949815Y-88138496D01*
X103983965Y-88272962D01*
X103998178Y-88328928D01*
X104082856Y-88512607D01*
X104199588Y-88677780D01*
X104203730Y-88681815D01*
X104251421Y-88728273D01*
X104344466Y-88818913D01*
X104512637Y-88931282D01*
X104517940Y-88933560D01*
X104517943Y-88933562D01*
X104606291Y-88971519D01*
X104698470Y-89011122D01*
X104895740Y-89055760D01*
X104901509Y-89055987D01*
X104901512Y-89055987D01*
X104977683Y-89058979D01*
X105097842Y-89063700D01*
X105184132Y-89051189D01*
X105292286Y-89035508D01*
X105292291Y-89035507D01*
X105298007Y-89034678D01*
X105303479Y-89032820D01*
X105303481Y-89032820D01*
X105484067Y-88971519D01*
X105484069Y-88971518D01*
X105489531Y-88969664D01*
X105666001Y-88870837D01*
X105728433Y-88818913D01*
X105792813Y-88765368D01*
X105821505Y-88741505D01*
X105950837Y-88586001D01*
X106049664Y-88409531D01*
X106096023Y-88272962D01*
X106472890Y-88272962D01*
X106489896Y-88339923D01*
X106493737Y-88350769D01*
X106577386Y-88532218D01*
X106583137Y-88542179D01*
X106698455Y-88705350D01*
X106705921Y-88714092D01*
X106849047Y-88853520D01*
X106857981Y-88860754D01*
X107024112Y-88971760D01*
X107034225Y-88977251D01*
X107217805Y-89056123D01*
X107228738Y-89059675D01*
X107423615Y-89103771D01*
X107440753Y-89106027D01*
X107440570Y-89107419D01*
X107501370Y-89127899D01*
X107545719Y-89183339D01*
X107553055Y-89253956D01*
X107521048Y-89317328D01*
X107459860Y-89353336D01*
X107450476Y-89355319D01*
X107286780Y-89383447D01*
X107275660Y-89386427D01*
X107088207Y-89455582D01*
X107077829Y-89460532D01*
X106906119Y-89562688D01*
X106896807Y-89569453D01*
X106746587Y-89701194D01*
X106738670Y-89709537D01*
X106614975Y-89866443D01*
X106608704Y-89876100D01*
X106515679Y-90052912D01*
X106511273Y-90063549D01*
X106474276Y-90182698D01*
X106474057Y-90196799D01*
X106480789Y-90200000D01*
X107754000Y-90200000D01*
X107822121Y-90220002D01*
X107868614Y-90273658D01*
X107880000Y-90326000D01*
X107880000Y-91594586D01*
X107883973Y-91608117D01*
X107890669Y-91609079D01*
X108044287Y-91556933D01*
X108054784Y-91552259D01*
X108229124Y-91454625D01*
X108238596Y-91448115D01*
X108392219Y-91320348D01*
X108400348Y-91312219D01*
X108528115Y-91158596D01*
X108534625Y-91149124D01*
X108632258Y-90974786D01*
X108636934Y-90964283D01*
X108688301Y-90812962D01*
X109012890Y-90812962D01*
X109029896Y-90879923D01*
X109033737Y-90890769D01*
X109117386Y-91072218D01*
X109123137Y-91082179D01*
X109238455Y-91245350D01*
X109245921Y-91254092D01*
X109389047Y-91393520D01*
X109397981Y-91400754D01*
X109564112Y-91511760D01*
X109574225Y-91517251D01*
X109757798Y-91596120D01*
X109768747Y-91599677D01*
X109802331Y-91607276D01*
X109816405Y-91606387D01*
X109820000Y-91596988D01*
X109820000Y-91594586D01*
X110420000Y-91594586D01*
X110423973Y-91608117D01*
X110430669Y-91609079D01*
X110584287Y-91556933D01*
X110594784Y-91552259D01*
X110769124Y-91454625D01*
X110778596Y-91448115D01*
X110932219Y-91320348D01*
X110940348Y-91312219D01*
X111068115Y-91158596D01*
X111074625Y-91149124D01*
X111172259Y-90974784D01*
X111176933Y-90964287D01*
X111226877Y-90817156D01*
X111227464Y-90803065D01*
X111221431Y-90800000D01*
X110438115Y-90800000D01*
X110422876Y-90804475D01*
X110421671Y-90805865D01*
X110420000Y-90813548D01*
X110420000Y-91594586D01*
X109820000Y-91594586D01*
X109820000Y-90818115D01*
X109815525Y-90802876D01*
X109814135Y-90801671D01*
X109806452Y-90800000D01*
X109027713Y-90800000D01*
X109014182Y-90803973D01*
X109012890Y-90812962D01*
X108688301Y-90812962D01*
X108701160Y-90775081D01*
X108703845Y-90763898D01*
X108732811Y-90564118D01*
X108733441Y-90556736D01*
X108734830Y-90503704D01*
X108734587Y-90496305D01*
X108716117Y-90295285D01*
X108714020Y-90283971D01*
X108659785Y-90091670D01*
X108655663Y-90080931D01*
X108567292Y-89901733D01*
X108561282Y-89891925D01*
X108441731Y-89731827D01*
X108434041Y-89723287D01*
X108287315Y-89587654D01*
X108278190Y-89580653D01*
X108109209Y-89474034D01*
X108098965Y-89468814D01*
X107913385Y-89394775D01*
X107902347Y-89391505D01*
X107702283Y-89351710D01*
X107639373Y-89318803D01*
X107604241Y-89257108D01*
X107608041Y-89186213D01*
X107649567Y-89128627D01*
X107708784Y-89103435D01*
X107843898Y-89083845D01*
X107855081Y-89081160D01*
X108044283Y-89016934D01*
X108054786Y-89012258D01*
X108229124Y-88914625D01*
X108238596Y-88908115D01*
X108392219Y-88780348D01*
X108400348Y-88772219D01*
X108528115Y-88618596D01*
X108534625Y-88609124D01*
X108632258Y-88434786D01*
X108636934Y-88424283D01*
X108688301Y-88272962D01*
X109012890Y-88272962D01*
X109029896Y-88339923D01*
X109033737Y-88350769D01*
X109117386Y-88532218D01*
X109123137Y-88542179D01*
X109238455Y-88705350D01*
X109245921Y-88714092D01*
X109389047Y-88853520D01*
X109397981Y-88860754D01*
X109564112Y-88971760D01*
X109574225Y-88977251D01*
X109757805Y-89056123D01*
X109768738Y-89059675D01*
X109963615Y-89103771D01*
X109980753Y-89106027D01*
X109980570Y-89107419D01*
X110041370Y-89127899D01*
X110085719Y-89183339D01*
X110093055Y-89253956D01*
X110061048Y-89317328D01*
X109999860Y-89353336D01*
X109990476Y-89355319D01*
X109826780Y-89383447D01*
X109815660Y-89386427D01*
X109628207Y-89455582D01*
X109617829Y-89460532D01*
X109446119Y-89562688D01*
X109436807Y-89569453D01*
X109286587Y-89701194D01*
X109278670Y-89709537D01*
X109154975Y-89866443D01*
X109148704Y-89876100D01*
X109055679Y-90052912D01*
X109051273Y-90063549D01*
X109014276Y-90182698D01*
X109014057Y-90196799D01*
X109020789Y-90200000D01*
X111212222Y-90200000D01*
X111225753Y-90196027D01*
X111226922Y-90187892D01*
X111199786Y-90091675D01*
X111195661Y-90080928D01*
X111107292Y-89901733D01*
X111101282Y-89891925D01*
X110981731Y-89731827D01*
X110974041Y-89723287D01*
X110827315Y-89587654D01*
X110818190Y-89580653D01*
X110649209Y-89474034D01*
X110638965Y-89468814D01*
X110453385Y-89394775D01*
X110442347Y-89391505D01*
X110242283Y-89351710D01*
X110179373Y-89318803D01*
X110144241Y-89257108D01*
X110148041Y-89186213D01*
X110189567Y-89128627D01*
X110248784Y-89103435D01*
X110383898Y-89083845D01*
X110395081Y-89081160D01*
X110584283Y-89016934D01*
X110594786Y-89012258D01*
X110769124Y-88914625D01*
X110778596Y-88908115D01*
X110932219Y-88780348D01*
X110940348Y-88772219D01*
X111068115Y-88618596D01*
X111074625Y-88609124D01*
X111172259Y-88434784D01*
X111176933Y-88424287D01*
X111226877Y-88277156D01*
X111227464Y-88263065D01*
X111221431Y-88260000D01*
X109027713Y-88260000D01*
X109014182Y-88263973D01*
X109012890Y-88272962D01*
X108688301Y-88272962D01*
X108701160Y-88235081D01*
X108703845Y-88223898D01*
X108732811Y-88024118D01*
X108733441Y-88016736D01*
X108734830Y-87963704D01*
X108734587Y-87956305D01*
X108732268Y-87931069D01*
X111555164Y-87931069D01*
X111568392Y-88132894D01*
X111569815Y-88138496D01*
X111603965Y-88272962D01*
X111618178Y-88328928D01*
X111702856Y-88512607D01*
X111819588Y-88677780D01*
X111823730Y-88681815D01*
X111871421Y-88728273D01*
X111964466Y-88818913D01*
X112132637Y-88931282D01*
X112137940Y-88933560D01*
X112137943Y-88933562D01*
X112226291Y-88971519D01*
X112318470Y-89011122D01*
X112515740Y-89055760D01*
X112521509Y-89055987D01*
X112521512Y-89055987D01*
X112597683Y-89058979D01*
X112717842Y-89063700D01*
X112804132Y-89051189D01*
X112912286Y-89035508D01*
X112912291Y-89035507D01*
X112918007Y-89034678D01*
X112923479Y-89032820D01*
X112923481Y-89032820D01*
X113104067Y-88971519D01*
X113104069Y-88971518D01*
X113109531Y-88969664D01*
X113286001Y-88870837D01*
X113348433Y-88818913D01*
X113412813Y-88765368D01*
X113441505Y-88741505D01*
X113570837Y-88586001D01*
X113669664Y-88409531D01*
X113734678Y-88218007D01*
X113735507Y-88212291D01*
X113735508Y-88212286D01*
X113763167Y-88021516D01*
X113763700Y-88017842D01*
X113765215Y-87960000D01*
X113762557Y-87931069D01*
X114095164Y-87931069D01*
X114108392Y-88132894D01*
X114109815Y-88138496D01*
X114143965Y-88272962D01*
X114158178Y-88328928D01*
X114242856Y-88512607D01*
X114359588Y-88677780D01*
X114363730Y-88681815D01*
X114411421Y-88728273D01*
X114504466Y-88818913D01*
X114672637Y-88931282D01*
X114677940Y-88933560D01*
X114677943Y-88933562D01*
X114766291Y-88971519D01*
X114858470Y-89011122D01*
X115055740Y-89055760D01*
X115061509Y-89055987D01*
X115061512Y-89055987D01*
X115137683Y-89058979D01*
X115257842Y-89063700D01*
X115344132Y-89051189D01*
X115452286Y-89035508D01*
X115452291Y-89035507D01*
X115458007Y-89034678D01*
X115463479Y-89032820D01*
X115463481Y-89032820D01*
X115644067Y-88971519D01*
X115644069Y-88971518D01*
X115649531Y-88969664D01*
X115826001Y-88870837D01*
X115888433Y-88818913D01*
X115952813Y-88765368D01*
X115981505Y-88741505D01*
X116110837Y-88586001D01*
X116209664Y-88409531D01*
X116274678Y-88218007D01*
X116275507Y-88212291D01*
X116275508Y-88212286D01*
X116303167Y-88021516D01*
X116303700Y-88017842D01*
X116305215Y-87960000D01*
X116302557Y-87931069D01*
X116635164Y-87931069D01*
X116648392Y-88132894D01*
X116649815Y-88138496D01*
X116683965Y-88272962D01*
X116698178Y-88328928D01*
X116782856Y-88512607D01*
X116899588Y-88677780D01*
X116903730Y-88681815D01*
X116951421Y-88728273D01*
X117044466Y-88818913D01*
X117212637Y-88931282D01*
X117217940Y-88933560D01*
X117217943Y-88933562D01*
X117306291Y-88971519D01*
X117398470Y-89011122D01*
X117595740Y-89055760D01*
X117601509Y-89055987D01*
X117601512Y-89055987D01*
X117677683Y-89058979D01*
X117797842Y-89063700D01*
X117884132Y-89051189D01*
X117992286Y-89035508D01*
X117992291Y-89035507D01*
X117998007Y-89034678D01*
X118003479Y-89032820D01*
X118003481Y-89032820D01*
X118184067Y-88971519D01*
X118184069Y-88971518D01*
X118189531Y-88969664D01*
X118366001Y-88870837D01*
X118428433Y-88818913D01*
X118492813Y-88765368D01*
X118521505Y-88741505D01*
X118650837Y-88586001D01*
X118749664Y-88409531D01*
X118814678Y-88218007D01*
X118815507Y-88212291D01*
X118815508Y-88212286D01*
X118843167Y-88021516D01*
X118843700Y-88017842D01*
X118845215Y-87960000D01*
X118842557Y-87931069D01*
X119175164Y-87931069D01*
X119188392Y-88132894D01*
X119189815Y-88138496D01*
X119223965Y-88272962D01*
X119238178Y-88328928D01*
X119322856Y-88512607D01*
X119439588Y-88677780D01*
X119443730Y-88681815D01*
X119491421Y-88728273D01*
X119584466Y-88818913D01*
X119752637Y-88931282D01*
X119757940Y-88933560D01*
X119757943Y-88933562D01*
X119846291Y-88971519D01*
X119938470Y-89011122D01*
X120135740Y-89055760D01*
X120141509Y-89055987D01*
X120141512Y-89055987D01*
X120217683Y-89058979D01*
X120337842Y-89063700D01*
X120424132Y-89051189D01*
X120532286Y-89035508D01*
X120532291Y-89035507D01*
X120538007Y-89034678D01*
X120543479Y-89032820D01*
X120543481Y-89032820D01*
X120724067Y-88971519D01*
X120724069Y-88971518D01*
X120729531Y-88969664D01*
X120906001Y-88870837D01*
X120968433Y-88818913D01*
X121032813Y-88765368D01*
X121061505Y-88741505D01*
X121190837Y-88586001D01*
X121289664Y-88409531D01*
X121354678Y-88218007D01*
X121355507Y-88212291D01*
X121355508Y-88212286D01*
X121383167Y-88021516D01*
X121383700Y-88017842D01*
X121385215Y-87960000D01*
X121366708Y-87758591D01*
X121311807Y-87563926D01*
X121222351Y-87382527D01*
X121206824Y-87361733D01*
X121104788Y-87225091D01*
X121104787Y-87225090D01*
X121101335Y-87220467D01*
X121078350Y-87199220D01*
X120957053Y-87087094D01*
X120957051Y-87087092D01*
X120952812Y-87083174D01*
X120922247Y-87063889D01*
X120786637Y-86978325D01*
X120781757Y-86975246D01*
X120593898Y-86900298D01*
X120419261Y-86865560D01*
X120401192Y-86861966D01*
X120401191Y-86861966D01*
X120395526Y-86860839D01*
X120389752Y-86860763D01*
X120389748Y-86860763D01*
X120287257Y-86859422D01*
X120193286Y-86858192D01*
X120187589Y-86859171D01*
X120187588Y-86859171D01*
X119999646Y-86891465D01*
X119999645Y-86891465D01*
X119993949Y-86892444D01*
X119804193Y-86962449D01*
X119799232Y-86965401D01*
X119799231Y-86965401D01*
X119672744Y-87040653D01*
X119630371Y-87065862D01*
X119478305Y-87199220D01*
X119353089Y-87358057D01*
X119258914Y-87537053D01*
X119198937Y-87730213D01*
X119175164Y-87931069D01*
X118842557Y-87931069D01*
X118826708Y-87758591D01*
X118771807Y-87563926D01*
X118682351Y-87382527D01*
X118666824Y-87361733D01*
X118564788Y-87225091D01*
X118564787Y-87225090D01*
X118561335Y-87220467D01*
X118538350Y-87199220D01*
X118417053Y-87087094D01*
X118417051Y-87087092D01*
X118412812Y-87083174D01*
X118382247Y-87063889D01*
X118246637Y-86978325D01*
X118241757Y-86975246D01*
X118053898Y-86900298D01*
X117879261Y-86865560D01*
X117861192Y-86861966D01*
X117861191Y-86861966D01*
X117855526Y-86860839D01*
X117849752Y-86860763D01*
X117849748Y-86860763D01*
X117747257Y-86859422D01*
X117653286Y-86858192D01*
X117647589Y-86859171D01*
X117647588Y-86859171D01*
X117459646Y-86891465D01*
X117459645Y-86891465D01*
X117453949Y-86892444D01*
X117264193Y-86962449D01*
X117259232Y-86965401D01*
X117259231Y-86965401D01*
X117132744Y-87040653D01*
X117090371Y-87065862D01*
X116938305Y-87199220D01*
X116813089Y-87358057D01*
X116718914Y-87537053D01*
X116658937Y-87730213D01*
X116635164Y-87931069D01*
X116302557Y-87931069D01*
X116286708Y-87758591D01*
X116231807Y-87563926D01*
X116142351Y-87382527D01*
X116126824Y-87361733D01*
X116024788Y-87225091D01*
X116024787Y-87225090D01*
X116021335Y-87220467D01*
X115998350Y-87199220D01*
X115877053Y-87087094D01*
X115877051Y-87087092D01*
X115872812Y-87083174D01*
X115842247Y-87063889D01*
X115706637Y-86978325D01*
X115701757Y-86975246D01*
X115513898Y-86900298D01*
X115339261Y-86865560D01*
X115321192Y-86861966D01*
X115321191Y-86861966D01*
X115315526Y-86860839D01*
X115309752Y-86860763D01*
X115309748Y-86860763D01*
X115207257Y-86859422D01*
X115113286Y-86858192D01*
X115107589Y-86859171D01*
X115107588Y-86859171D01*
X114919646Y-86891465D01*
X114919645Y-86891465D01*
X114913949Y-86892444D01*
X114724193Y-86962449D01*
X114719232Y-86965401D01*
X114719231Y-86965401D01*
X114592744Y-87040653D01*
X114550371Y-87065862D01*
X114398305Y-87199220D01*
X114273089Y-87358057D01*
X114178914Y-87537053D01*
X114118937Y-87730213D01*
X114095164Y-87931069D01*
X113762557Y-87931069D01*
X113746708Y-87758591D01*
X113691807Y-87563926D01*
X113602351Y-87382527D01*
X113586824Y-87361733D01*
X113484788Y-87225091D01*
X113484787Y-87225090D01*
X113481335Y-87220467D01*
X113458350Y-87199220D01*
X113337053Y-87087094D01*
X113337051Y-87087092D01*
X113332812Y-87083174D01*
X113302247Y-87063889D01*
X113166637Y-86978325D01*
X113161757Y-86975246D01*
X112973898Y-86900298D01*
X112799261Y-86865560D01*
X112781192Y-86861966D01*
X112781191Y-86861966D01*
X112775526Y-86860839D01*
X112769752Y-86860763D01*
X112769748Y-86860763D01*
X112667257Y-86859422D01*
X112573286Y-86858192D01*
X112567589Y-86859171D01*
X112567588Y-86859171D01*
X112379646Y-86891465D01*
X112379645Y-86891465D01*
X112373949Y-86892444D01*
X112184193Y-86962449D01*
X112179232Y-86965401D01*
X112179231Y-86965401D01*
X112052744Y-87040653D01*
X112010371Y-87065862D01*
X111858305Y-87199220D01*
X111733089Y-87358057D01*
X111638914Y-87537053D01*
X111578937Y-87730213D01*
X111555164Y-87931069D01*
X108732268Y-87931069D01*
X108716117Y-87755285D01*
X108714020Y-87743971D01*
X108689435Y-87656799D01*
X109014057Y-87656799D01*
X109020789Y-87660000D01*
X109801885Y-87660000D01*
X109817124Y-87655525D01*
X109818329Y-87654135D01*
X109820000Y-87646452D01*
X109820000Y-87641885D01*
X110420000Y-87641885D01*
X110424475Y-87657124D01*
X110425865Y-87658329D01*
X110433548Y-87660000D01*
X111212222Y-87660000D01*
X111225753Y-87656027D01*
X111226922Y-87647892D01*
X111199786Y-87551675D01*
X111195661Y-87540928D01*
X111107292Y-87361733D01*
X111101282Y-87351925D01*
X110981731Y-87191827D01*
X110974041Y-87183287D01*
X110827315Y-87047654D01*
X110818190Y-87040653D01*
X110649209Y-86934034D01*
X110638965Y-86928814D01*
X110453377Y-86854772D01*
X110442356Y-86851507D01*
X110437770Y-86850595D01*
X110424894Y-86851747D01*
X110420000Y-86866903D01*
X110420000Y-87641885D01*
X109820000Y-87641885D01*
X109820000Y-86862941D01*
X109816027Y-86849410D01*
X109809944Y-86848536D01*
X109628207Y-86915582D01*
X109617829Y-86920532D01*
X109446119Y-87022688D01*
X109436807Y-87029453D01*
X109286587Y-87161194D01*
X109278670Y-87169537D01*
X109154975Y-87326443D01*
X109148704Y-87336100D01*
X109055679Y-87512912D01*
X109051273Y-87523549D01*
X109014276Y-87642698D01*
X109014057Y-87656799D01*
X108689435Y-87656799D01*
X108659785Y-87551670D01*
X108655663Y-87540931D01*
X108567292Y-87361733D01*
X108561282Y-87351925D01*
X108441731Y-87191827D01*
X108434041Y-87183287D01*
X108287315Y-87047654D01*
X108278190Y-87040653D01*
X108109209Y-86934034D01*
X108098965Y-86928814D01*
X107913377Y-86854772D01*
X107902356Y-86851507D01*
X107897770Y-86850595D01*
X107884894Y-86851747D01*
X107880000Y-86866903D01*
X107880000Y-88134000D01*
X107859998Y-88202121D01*
X107806342Y-88248614D01*
X107754000Y-88260000D01*
X106487713Y-88260000D01*
X106474182Y-88263973D01*
X106472890Y-88272962D01*
X106096023Y-88272962D01*
X106114678Y-88218007D01*
X106115507Y-88212291D01*
X106115508Y-88212286D01*
X106143167Y-88021516D01*
X106143700Y-88017842D01*
X106145215Y-87960000D01*
X106126708Y-87758591D01*
X106098000Y-87656799D01*
X106474057Y-87656799D01*
X106480789Y-87660000D01*
X107261885Y-87660000D01*
X107277124Y-87655525D01*
X107278329Y-87654135D01*
X107280000Y-87646452D01*
X107280000Y-86862941D01*
X107276027Y-86849410D01*
X107269944Y-86848536D01*
X107088207Y-86915582D01*
X107077829Y-86920532D01*
X106906119Y-87022688D01*
X106896807Y-87029453D01*
X106746587Y-87161194D01*
X106738670Y-87169537D01*
X106614975Y-87326443D01*
X106608704Y-87336100D01*
X106515679Y-87512912D01*
X106511273Y-87523549D01*
X106474276Y-87642698D01*
X106474057Y-87656799D01*
X106098000Y-87656799D01*
X106071807Y-87563926D01*
X105982351Y-87382527D01*
X105966824Y-87361733D01*
X105864788Y-87225091D01*
X105864787Y-87225090D01*
X105861335Y-87220467D01*
X105838350Y-87199220D01*
X105717053Y-87087094D01*
X105717051Y-87087092D01*
X105712812Y-87083174D01*
X105682247Y-87063889D01*
X105546637Y-86978325D01*
X105541757Y-86975246D01*
X105353898Y-86900298D01*
X105179261Y-86865560D01*
X105161192Y-86861966D01*
X105161191Y-86861966D01*
X105155526Y-86860839D01*
X105149752Y-86860763D01*
X105149748Y-86860763D01*
X105047257Y-86859422D01*
X104953286Y-86858192D01*
X104947589Y-86859171D01*
X104947588Y-86859171D01*
X104759646Y-86891465D01*
X104759645Y-86891465D01*
X104753949Y-86892444D01*
X104564193Y-86962449D01*
X104559232Y-86965401D01*
X104559231Y-86965401D01*
X104432744Y-87040653D01*
X104390371Y-87065862D01*
X104238305Y-87199220D01*
X104113089Y-87358057D01*
X104018914Y-87537053D01*
X103958937Y-87730213D01*
X103935164Y-87931069D01*
X82700500Y-87931069D01*
X82700500Y-87656799D01*
X101394057Y-87656799D01*
X101400789Y-87660000D01*
X102181885Y-87660000D01*
X102197124Y-87655525D01*
X102198329Y-87654135D01*
X102200000Y-87646452D01*
X102200000Y-87641885D01*
X102800000Y-87641885D01*
X102804475Y-87657124D01*
X102805865Y-87658329D01*
X102813548Y-87660000D01*
X103592222Y-87660000D01*
X103605753Y-87656027D01*
X103606922Y-87647892D01*
X103579786Y-87551675D01*
X103575661Y-87540928D01*
X103487292Y-87361733D01*
X103481282Y-87351925D01*
X103361731Y-87191827D01*
X103354041Y-87183287D01*
X103207315Y-87047654D01*
X103198190Y-87040653D01*
X103029209Y-86934034D01*
X103018965Y-86928814D01*
X102833377Y-86854772D01*
X102822356Y-86851507D01*
X102817770Y-86850595D01*
X102804894Y-86851747D01*
X102800000Y-86866903D01*
X102800000Y-87641885D01*
X102200000Y-87641885D01*
X102200000Y-86862941D01*
X102196027Y-86849410D01*
X102189944Y-86848536D01*
X102008207Y-86915582D01*
X101997829Y-86920532D01*
X101826119Y-87022688D01*
X101816807Y-87029453D01*
X101666587Y-87161194D01*
X101658670Y-87169537D01*
X101534975Y-87326443D01*
X101528704Y-87336100D01*
X101435679Y-87512912D01*
X101431273Y-87523549D01*
X101394276Y-87642698D01*
X101394057Y-87656799D01*
X82700500Y-87656799D01*
X82700500Y-72826500D01*
X82720502Y-72758379D01*
X82774158Y-72711886D01*
X82826500Y-72700500D01*
X83294108Y-72700500D01*
X83331374Y-72700533D01*
X83331376Y-72700533D01*
X83345563Y-72700545D01*
X83358354Y-72694403D01*
X83363267Y-72693287D01*
X83370817Y-72690650D01*
X83375351Y-72688468D01*
X83389185Y-72685312D01*
X83400280Y-72676471D01*
X83405154Y-72674125D01*
X83411006Y-72670454D01*
X83415238Y-72667088D01*
X83428024Y-72660948D01*
X83436884Y-72649869D01*
X83440824Y-72646735D01*
X83446485Y-72641084D01*
X83449627Y-72637148D01*
X83460724Y-72628305D01*
X83466889Y-72615523D01*
X83470263Y-72611296D01*
X83473942Y-72605453D01*
X83476293Y-72600590D01*
X83485156Y-72589508D01*
X83488336Y-72575680D01*
X83490526Y-72571149D01*
X83493176Y-72563603D01*
X83494300Y-72558693D01*
X83500465Y-72545913D01*
X83500485Y-72522845D01*
X83502510Y-72522847D01*
X83502526Y-72522781D01*
X83500500Y-72522781D01*
X83500500Y-72505892D01*
X83500545Y-72454437D01*
X83505350Y-72454441D01*
X83505356Y-72454343D01*
X83500500Y-72454343D01*
X83500500Y-70326500D01*
X83520502Y-70258379D01*
X83574158Y-70211886D01*
X83626500Y-70200500D01*
X181673500Y-70200500D01*
X181741621Y-70220502D01*
G37*
G04 #@! TD.AperFunction*
G04 #@! TA.AperFunction,Conductor*
G36*
X141205064Y-86270502D02*
G01*
X141226038Y-86287405D01*
X142176283Y-87237650D01*
X142210309Y-87299962D01*
X142205244Y-87370777D01*
X142198696Y-87385413D01*
X142118914Y-87537053D01*
X142058937Y-87730213D01*
X142035164Y-87931069D01*
X142048392Y-88132894D01*
X142049815Y-88138496D01*
X142083965Y-88272962D01*
X142098178Y-88328928D01*
X142182856Y-88512607D01*
X142299588Y-88677780D01*
X142336864Y-88714092D01*
X142351421Y-88728273D01*
X142386259Y-88790134D01*
X142389500Y-88818527D01*
X142389500Y-89637233D01*
X142369498Y-89705354D01*
X142346576Y-89731966D01*
X142342652Y-89735407D01*
X142342648Y-89735412D01*
X142338305Y-89739220D01*
X142213089Y-89898057D01*
X142118914Y-90077053D01*
X142058937Y-90270213D01*
X142035164Y-90471069D01*
X142035542Y-90476835D01*
X142035542Y-90476836D01*
X142043224Y-90594047D01*
X142037052Y-90642059D01*
X142036118Y-90644867D01*
X142033021Y-90651493D01*
X142031532Y-90658653D01*
X142031531Y-90658655D01*
X142018315Y-90722193D01*
X142017344Y-90726482D01*
X142000185Y-90796606D01*
X141999838Y-90802206D01*
X141999837Y-90802210D01*
X141999500Y-90807646D01*
X141999500Y-90807648D01*
X141999468Y-90807646D01*
X141999221Y-90811776D01*
X141998875Y-90815656D01*
X141997382Y-90822831D01*
X141997580Y-90830152D01*
X141997580Y-90830153D01*
X141999454Y-90899400D01*
X141999500Y-90902808D01*
X141999500Y-121904000D01*
X141979498Y-121972121D01*
X141925842Y-122018614D01*
X141873500Y-122030000D01*
X140751500Y-122030000D01*
X140683379Y-122009998D01*
X140636886Y-121956342D01*
X140625500Y-121904000D01*
X140625500Y-91717438D01*
X140645502Y-91649317D01*
X140699158Y-91602824D01*
X140733420Y-91592742D01*
X140852286Y-91575508D01*
X140852291Y-91575507D01*
X140858007Y-91574678D01*
X140863479Y-91572820D01*
X140863481Y-91572820D01*
X141044067Y-91511519D01*
X141044069Y-91511518D01*
X141049531Y-91509664D01*
X141186158Y-91433150D01*
X141220964Y-91413658D01*
X141220965Y-91413657D01*
X141226001Y-91410837D01*
X141230930Y-91406738D01*
X141368132Y-91292627D01*
X141381505Y-91281505D01*
X141510837Y-91126001D01*
X141609664Y-90949531D01*
X141625525Y-90902808D01*
X141672820Y-90763481D01*
X141672820Y-90763479D01*
X141674678Y-90758007D01*
X141675507Y-90752291D01*
X141675508Y-90752286D01*
X141694629Y-90620406D01*
X141703700Y-90557842D01*
X141705215Y-90500000D01*
X141686708Y-90298591D01*
X141631807Y-90103926D01*
X141542351Y-89922527D01*
X141526824Y-89901733D01*
X141424788Y-89765091D01*
X141424787Y-89765090D01*
X141421335Y-89760467D01*
X141398350Y-89739220D01*
X141277053Y-89627094D01*
X141277051Y-89627092D01*
X141272812Y-89623174D01*
X141245374Y-89605862D01*
X141106637Y-89518325D01*
X141101757Y-89515246D01*
X140913898Y-89440298D01*
X140715526Y-89400839D01*
X140709752Y-89400763D01*
X140709748Y-89400763D01*
X140607257Y-89399422D01*
X140513286Y-89398192D01*
X140507589Y-89399171D01*
X140507588Y-89399171D01*
X140319646Y-89431465D01*
X140319645Y-89431465D01*
X140313949Y-89432444D01*
X140124193Y-89502449D01*
X140119232Y-89505401D01*
X140119231Y-89505401D01*
X139992744Y-89580653D01*
X139950371Y-89605862D01*
X139798305Y-89739220D01*
X139673089Y-89898057D01*
X139578914Y-90077053D01*
X139518937Y-90270213D01*
X139495164Y-90471069D01*
X139508392Y-90672894D01*
X139509815Y-90678496D01*
X139543965Y-90812962D01*
X139558178Y-90868928D01*
X139642856Y-91052607D01*
X139759588Y-91217780D01*
X139787890Y-91245350D01*
X139836421Y-91292627D01*
X139871259Y-91354488D01*
X139874500Y-91382881D01*
X139874500Y-121904000D01*
X139854498Y-121972121D01*
X139800842Y-122018614D01*
X139748500Y-122030000D01*
X138251500Y-122030000D01*
X138183379Y-122009998D01*
X138136886Y-121956342D01*
X138125500Y-121904000D01*
X138125500Y-91711638D01*
X138145502Y-91643517D01*
X138199158Y-91597024D01*
X138233419Y-91586943D01*
X138285502Y-91579391D01*
X138312284Y-91575508D01*
X138312286Y-91575507D01*
X138318007Y-91574678D01*
X138323479Y-91572820D01*
X138323481Y-91572820D01*
X138504067Y-91511519D01*
X138504069Y-91511518D01*
X138509531Y-91509664D01*
X138646158Y-91433150D01*
X138680964Y-91413658D01*
X138680965Y-91413657D01*
X138686001Y-91410837D01*
X138690930Y-91406738D01*
X138828132Y-91292627D01*
X138841505Y-91281505D01*
X138970837Y-91126001D01*
X139069664Y-90949531D01*
X139085525Y-90902808D01*
X139132820Y-90763481D01*
X139132820Y-90763479D01*
X139134678Y-90758007D01*
X139135507Y-90752291D01*
X139135508Y-90752286D01*
X139154629Y-90620406D01*
X139163700Y-90557842D01*
X139165215Y-90500000D01*
X139146708Y-90298591D01*
X139091807Y-90103926D01*
X139002351Y-89922527D01*
X138986824Y-89901733D01*
X138884788Y-89765091D01*
X138884787Y-89765090D01*
X138881335Y-89760467D01*
X138858350Y-89739220D01*
X138737053Y-89627094D01*
X138737051Y-89627092D01*
X138732812Y-89623174D01*
X138705374Y-89605862D01*
X138566637Y-89518325D01*
X138561757Y-89515246D01*
X138373898Y-89440298D01*
X138175526Y-89400839D01*
X138169752Y-89400763D01*
X138169748Y-89400763D01*
X138067257Y-89399422D01*
X137973286Y-89398192D01*
X137967589Y-89399171D01*
X137967588Y-89399171D01*
X137779646Y-89431465D01*
X137779645Y-89431465D01*
X137773949Y-89432444D01*
X137584193Y-89502449D01*
X137579232Y-89505401D01*
X137579231Y-89505401D01*
X137452744Y-89580653D01*
X137410371Y-89605862D01*
X137258305Y-89739220D01*
X137133089Y-89898057D01*
X137038914Y-90077053D01*
X136978937Y-90270213D01*
X136955164Y-90471069D01*
X136968392Y-90672894D01*
X136969815Y-90678496D01*
X137003965Y-90812962D01*
X137018178Y-90868928D01*
X137102856Y-91052607D01*
X137219588Y-91217780D01*
X137223730Y-91221815D01*
X137336421Y-91331593D01*
X137371259Y-91393454D01*
X137374500Y-91421847D01*
X137374500Y-121904000D01*
X137354498Y-121972121D01*
X137300842Y-122018614D01*
X137248500Y-122030000D01*
X135751500Y-122030000D01*
X135683379Y-122009998D01*
X135636886Y-121956342D01*
X135625500Y-121904000D01*
X135625500Y-91705839D01*
X135645502Y-91637718D01*
X135699158Y-91591225D01*
X135733419Y-91581143D01*
X135746934Y-91579183D01*
X135778007Y-91574678D01*
X135783479Y-91572820D01*
X135783481Y-91572820D01*
X135964067Y-91511519D01*
X135964069Y-91511518D01*
X135969531Y-91509664D01*
X136106158Y-91433150D01*
X136140964Y-91413658D01*
X136140965Y-91413657D01*
X136146001Y-91410837D01*
X136150930Y-91406738D01*
X136288132Y-91292627D01*
X136301505Y-91281505D01*
X136430837Y-91126001D01*
X136529664Y-90949531D01*
X136545525Y-90902808D01*
X136592820Y-90763481D01*
X136592820Y-90763479D01*
X136594678Y-90758007D01*
X136595507Y-90752291D01*
X136595508Y-90752286D01*
X136614629Y-90620406D01*
X136623700Y-90557842D01*
X136625215Y-90500000D01*
X136606708Y-90298591D01*
X136551807Y-90103926D01*
X136462351Y-89922527D01*
X136446824Y-89901733D01*
X136344788Y-89765091D01*
X136344787Y-89765090D01*
X136341335Y-89760467D01*
X136318350Y-89739220D01*
X136197053Y-89627094D01*
X136197051Y-89627092D01*
X136192812Y-89623174D01*
X136165374Y-89605862D01*
X136026637Y-89518325D01*
X136021757Y-89515246D01*
X135833898Y-89440298D01*
X135635526Y-89400839D01*
X135629752Y-89400763D01*
X135629748Y-89400763D01*
X135527257Y-89399422D01*
X135433286Y-89398192D01*
X135427589Y-89399171D01*
X135427588Y-89399171D01*
X135239646Y-89431465D01*
X135239645Y-89431465D01*
X135233949Y-89432444D01*
X135044193Y-89502449D01*
X135039232Y-89505401D01*
X135039231Y-89505401D01*
X134912744Y-89580653D01*
X134870371Y-89605862D01*
X134718305Y-89739220D01*
X134593089Y-89898057D01*
X134498914Y-90077053D01*
X134438937Y-90270213D01*
X134415164Y-90471069D01*
X134428392Y-90672894D01*
X134429815Y-90678496D01*
X134463965Y-90812962D01*
X134478178Y-90868928D01*
X134562856Y-91052607D01*
X134679588Y-91217780D01*
X134824466Y-91358913D01*
X134828064Y-91361317D01*
X134868146Y-91419342D01*
X134874500Y-91458848D01*
X134874500Y-121904000D01*
X134854498Y-121972121D01*
X134800842Y-122018614D01*
X134748500Y-122030000D01*
X128251500Y-122030000D01*
X128183379Y-122009998D01*
X128136886Y-121956342D01*
X128125500Y-121904000D01*
X128125500Y-91676003D01*
X128145502Y-91607882D01*
X128199158Y-91561389D01*
X128210998Y-91556690D01*
X128344067Y-91511519D01*
X128344069Y-91511518D01*
X128349531Y-91509664D01*
X128486158Y-91433150D01*
X128520964Y-91413658D01*
X128520965Y-91413657D01*
X128526001Y-91410837D01*
X128530930Y-91406738D01*
X128668132Y-91292627D01*
X128681505Y-91281505D01*
X128810837Y-91126001D01*
X128909664Y-90949531D01*
X128925525Y-90902808D01*
X128972820Y-90763481D01*
X128972820Y-90763479D01*
X128974678Y-90758007D01*
X128975507Y-90752291D01*
X128975508Y-90752286D01*
X128994629Y-90620406D01*
X129003700Y-90557842D01*
X129005215Y-90500000D01*
X129002557Y-90471069D01*
X129335164Y-90471069D01*
X129348392Y-90672894D01*
X129349815Y-90678496D01*
X129383965Y-90812962D01*
X129398178Y-90868928D01*
X129482856Y-91052607D01*
X129599588Y-91217780D01*
X129603730Y-91221815D01*
X129660446Y-91277065D01*
X129744466Y-91358913D01*
X129912637Y-91471282D01*
X129917940Y-91473560D01*
X129917943Y-91473562D01*
X130078239Y-91542430D01*
X130098470Y-91551122D01*
X130206240Y-91575508D01*
X130274501Y-91590954D01*
X130295740Y-91595760D01*
X130301509Y-91595987D01*
X130301512Y-91595987D01*
X130377683Y-91598979D01*
X130497842Y-91603700D01*
X130585751Y-91590954D01*
X130692286Y-91575508D01*
X130692291Y-91575507D01*
X130698007Y-91574678D01*
X130703479Y-91572820D01*
X130703481Y-91572820D01*
X130884067Y-91511519D01*
X130884069Y-91511518D01*
X130889531Y-91509664D01*
X131026158Y-91433150D01*
X131060964Y-91413658D01*
X131060965Y-91413657D01*
X131066001Y-91410837D01*
X131070930Y-91406738D01*
X131208132Y-91292627D01*
X131221505Y-91281505D01*
X131350837Y-91126001D01*
X131449664Y-90949531D01*
X131465525Y-90902808D01*
X131512820Y-90763481D01*
X131512820Y-90763479D01*
X131514678Y-90758007D01*
X131515507Y-90752291D01*
X131515508Y-90752286D01*
X131534629Y-90620406D01*
X131543700Y-90557842D01*
X131545215Y-90500000D01*
X131542557Y-90471069D01*
X131875164Y-90471069D01*
X131888392Y-90672894D01*
X131889815Y-90678496D01*
X131923965Y-90812962D01*
X131938178Y-90868928D01*
X132022856Y-91052607D01*
X132139588Y-91217780D01*
X132143730Y-91221815D01*
X132200446Y-91277065D01*
X132284466Y-91358913D01*
X132452637Y-91471282D01*
X132457940Y-91473560D01*
X132457943Y-91473562D01*
X132618239Y-91542430D01*
X132638470Y-91551122D01*
X132746240Y-91575508D01*
X132814501Y-91590954D01*
X132835740Y-91595760D01*
X132841509Y-91595987D01*
X132841512Y-91595987D01*
X132917683Y-91598979D01*
X133037842Y-91603700D01*
X133125751Y-91590954D01*
X133232286Y-91575508D01*
X133232291Y-91575507D01*
X133238007Y-91574678D01*
X133243479Y-91572820D01*
X133243481Y-91572820D01*
X133424067Y-91511519D01*
X133424069Y-91511518D01*
X133429531Y-91509664D01*
X133566158Y-91433150D01*
X133600964Y-91413658D01*
X133600965Y-91413657D01*
X133606001Y-91410837D01*
X133610930Y-91406738D01*
X133748132Y-91292627D01*
X133761505Y-91281505D01*
X133890837Y-91126001D01*
X133989664Y-90949531D01*
X134005525Y-90902808D01*
X134052820Y-90763481D01*
X134052820Y-90763479D01*
X134054678Y-90758007D01*
X134055507Y-90752291D01*
X134055508Y-90752286D01*
X134074629Y-90620406D01*
X134083700Y-90557842D01*
X134085215Y-90500000D01*
X134066708Y-90298591D01*
X134011807Y-90103926D01*
X133922351Y-89922527D01*
X133906824Y-89901733D01*
X133804788Y-89765091D01*
X133804787Y-89765090D01*
X133801335Y-89760467D01*
X133778350Y-89739220D01*
X133657053Y-89627094D01*
X133657051Y-89627092D01*
X133652812Y-89623174D01*
X133625374Y-89605862D01*
X133486637Y-89518325D01*
X133481757Y-89515246D01*
X133293898Y-89440298D01*
X133095526Y-89400839D01*
X133089752Y-89400763D01*
X133089748Y-89400763D01*
X132987257Y-89399422D01*
X132893286Y-89398192D01*
X132887589Y-89399171D01*
X132887588Y-89399171D01*
X132699646Y-89431465D01*
X132699645Y-89431465D01*
X132693949Y-89432444D01*
X132504193Y-89502449D01*
X132499232Y-89505401D01*
X132499231Y-89505401D01*
X132372744Y-89580653D01*
X132330371Y-89605862D01*
X132178305Y-89739220D01*
X132053089Y-89898057D01*
X131958914Y-90077053D01*
X131898937Y-90270213D01*
X131875164Y-90471069D01*
X131542557Y-90471069D01*
X131526708Y-90298591D01*
X131471807Y-90103926D01*
X131382351Y-89922527D01*
X131366824Y-89901733D01*
X131264788Y-89765091D01*
X131264787Y-89765090D01*
X131261335Y-89760467D01*
X131238350Y-89739220D01*
X131117053Y-89627094D01*
X131117051Y-89627092D01*
X131112812Y-89623174D01*
X131085374Y-89605862D01*
X130946637Y-89518325D01*
X130941757Y-89515246D01*
X130753898Y-89440298D01*
X130555526Y-89400839D01*
X130549752Y-89400763D01*
X130549748Y-89400763D01*
X130447257Y-89399422D01*
X130353286Y-89398192D01*
X130347589Y-89399171D01*
X130347588Y-89399171D01*
X130159646Y-89431465D01*
X130159645Y-89431465D01*
X130153949Y-89432444D01*
X129964193Y-89502449D01*
X129959232Y-89505401D01*
X129959231Y-89505401D01*
X129832744Y-89580653D01*
X129790371Y-89605862D01*
X129638305Y-89739220D01*
X129513089Y-89898057D01*
X129418914Y-90077053D01*
X129358937Y-90270213D01*
X129335164Y-90471069D01*
X129002557Y-90471069D01*
X128986708Y-90298591D01*
X128931807Y-90103926D01*
X128842351Y-89922527D01*
X128826824Y-89901733D01*
X128724788Y-89765091D01*
X128724787Y-89765090D01*
X128721335Y-89760467D01*
X128698350Y-89739220D01*
X128577053Y-89627094D01*
X128577051Y-89627092D01*
X128572812Y-89623174D01*
X128545374Y-89605862D01*
X128406637Y-89518325D01*
X128401757Y-89515246D01*
X128213898Y-89440298D01*
X128015526Y-89400839D01*
X128009752Y-89400763D01*
X128009748Y-89400763D01*
X127907257Y-89399422D01*
X127813286Y-89398192D01*
X127807589Y-89399171D01*
X127807588Y-89399171D01*
X127619646Y-89431465D01*
X127619645Y-89431465D01*
X127613949Y-89432444D01*
X127424193Y-89502449D01*
X127419232Y-89505401D01*
X127419231Y-89505401D01*
X127292744Y-89580653D01*
X127250371Y-89605862D01*
X127098305Y-89739220D01*
X126973089Y-89898057D01*
X126878914Y-90077053D01*
X126818937Y-90270213D01*
X126795164Y-90471069D01*
X126808392Y-90672894D01*
X126809815Y-90678496D01*
X126843965Y-90812962D01*
X126858178Y-90868928D01*
X126942856Y-91052607D01*
X127059588Y-91217780D01*
X127063730Y-91221815D01*
X127120446Y-91277065D01*
X127204466Y-91358913D01*
X127209270Y-91362123D01*
X127318502Y-91435110D01*
X127364030Y-91489587D01*
X127374500Y-91539875D01*
X127374500Y-121904000D01*
X127354498Y-121972121D01*
X127300842Y-122018614D01*
X127248500Y-122030000D01*
X125751500Y-122030000D01*
X125683379Y-122009998D01*
X125636886Y-121956342D01*
X125625500Y-121904000D01*
X125625500Y-91662424D01*
X125645502Y-91594303D01*
X125699158Y-91547810D01*
X125710999Y-91543111D01*
X125731532Y-91536141D01*
X125809531Y-91509664D01*
X125946158Y-91433150D01*
X125980964Y-91413658D01*
X125980965Y-91413657D01*
X125986001Y-91410837D01*
X125990930Y-91406738D01*
X126128132Y-91292627D01*
X126141505Y-91281505D01*
X126270837Y-91126001D01*
X126369664Y-90949531D01*
X126385525Y-90902808D01*
X126432820Y-90763481D01*
X126432820Y-90763479D01*
X126434678Y-90758007D01*
X126435507Y-90752291D01*
X126435508Y-90752286D01*
X126454629Y-90620406D01*
X126463700Y-90557842D01*
X126465215Y-90500000D01*
X126446708Y-90298591D01*
X126391807Y-90103926D01*
X126302351Y-89922527D01*
X126286824Y-89901733D01*
X126184788Y-89765091D01*
X126184787Y-89765090D01*
X126181335Y-89760467D01*
X126158350Y-89739220D01*
X126037053Y-89627094D01*
X126037051Y-89627092D01*
X126032812Y-89623174D01*
X126005374Y-89605862D01*
X125866637Y-89518325D01*
X125861757Y-89515246D01*
X125673898Y-89440298D01*
X125475526Y-89400839D01*
X125469752Y-89400763D01*
X125469748Y-89400763D01*
X125367257Y-89399422D01*
X125273286Y-89398192D01*
X125267589Y-89399171D01*
X125267588Y-89399171D01*
X125079646Y-89431465D01*
X125079645Y-89431465D01*
X125073949Y-89432444D01*
X124884193Y-89502449D01*
X124879232Y-89505401D01*
X124879231Y-89505401D01*
X124752744Y-89580653D01*
X124710371Y-89605862D01*
X124558305Y-89739220D01*
X124433089Y-89898057D01*
X124338914Y-90077053D01*
X124278937Y-90270213D01*
X124255164Y-90471069D01*
X124268392Y-90672894D01*
X124269815Y-90678496D01*
X124303965Y-90812962D01*
X124318178Y-90868928D01*
X124402856Y-91052607D01*
X124519588Y-91217780D01*
X124523730Y-91221815D01*
X124580446Y-91277065D01*
X124664466Y-91358913D01*
X124814029Y-91458848D01*
X124818502Y-91461837D01*
X124864030Y-91516314D01*
X124874500Y-91566602D01*
X124874500Y-121904000D01*
X124854498Y-121972121D01*
X124800842Y-122018614D01*
X124748500Y-122030000D01*
X123626500Y-122030000D01*
X123558379Y-122009998D01*
X123511886Y-121956342D01*
X123500500Y-121904000D01*
X123500500Y-91424599D01*
X123520502Y-91356478D01*
X123545930Y-91327727D01*
X123601505Y-91281505D01*
X123624305Y-91254092D01*
X123727146Y-91130439D01*
X123730837Y-91126001D01*
X123829664Y-90949531D01*
X123845525Y-90902808D01*
X123892820Y-90763481D01*
X123892820Y-90763479D01*
X123894678Y-90758007D01*
X123895507Y-90752291D01*
X123895508Y-90752286D01*
X123914629Y-90620406D01*
X123923700Y-90557842D01*
X123925215Y-90500000D01*
X123906708Y-90298591D01*
X123851807Y-90103926D01*
X123762351Y-89922527D01*
X123746824Y-89901733D01*
X123644788Y-89765091D01*
X123644787Y-89765090D01*
X123641335Y-89760467D01*
X123623263Y-89743761D01*
X123540971Y-89667692D01*
X123504526Y-89606764D01*
X123500500Y-89575167D01*
X123500500Y-88884599D01*
X123520502Y-88816478D01*
X123545930Y-88787727D01*
X123601505Y-88741505D01*
X123624305Y-88714092D01*
X123727146Y-88590439D01*
X123730837Y-88586001D01*
X123829664Y-88409531D01*
X123894678Y-88218007D01*
X123895507Y-88212291D01*
X123895508Y-88212286D01*
X123923167Y-88021516D01*
X123923700Y-88017842D01*
X123925215Y-87960000D01*
X123922557Y-87931069D01*
X124255164Y-87931069D01*
X124268392Y-88132894D01*
X124269815Y-88138496D01*
X124303965Y-88272962D01*
X124318178Y-88328928D01*
X124402856Y-88512607D01*
X124519588Y-88677780D01*
X124523730Y-88681815D01*
X124571421Y-88728273D01*
X124664466Y-88818913D01*
X124832637Y-88931282D01*
X124837940Y-88933560D01*
X124837943Y-88933562D01*
X124926291Y-88971519D01*
X125018470Y-89011122D01*
X125215740Y-89055760D01*
X125221509Y-89055987D01*
X125221512Y-89055987D01*
X125297683Y-89058979D01*
X125417842Y-89063700D01*
X125504132Y-89051189D01*
X125612286Y-89035508D01*
X125612291Y-89035507D01*
X125618007Y-89034678D01*
X125623479Y-89032820D01*
X125623481Y-89032820D01*
X125804067Y-88971519D01*
X125804069Y-88971518D01*
X125809531Y-88969664D01*
X125986001Y-88870837D01*
X126048433Y-88818913D01*
X126112813Y-88765368D01*
X126141505Y-88741505D01*
X126270837Y-88586001D01*
X126369664Y-88409531D01*
X126434678Y-88218007D01*
X126435507Y-88212291D01*
X126435508Y-88212286D01*
X126463167Y-88021516D01*
X126463700Y-88017842D01*
X126465215Y-87960000D01*
X126462557Y-87931069D01*
X126795164Y-87931069D01*
X126808392Y-88132894D01*
X126809815Y-88138496D01*
X126843965Y-88272962D01*
X126858178Y-88328928D01*
X126942856Y-88512607D01*
X127059588Y-88677780D01*
X127063730Y-88681815D01*
X127111421Y-88728273D01*
X127204466Y-88818913D01*
X127372637Y-88931282D01*
X127377940Y-88933560D01*
X127377943Y-88933562D01*
X127466291Y-88971519D01*
X127558470Y-89011122D01*
X127755740Y-89055760D01*
X127761509Y-89055987D01*
X127761512Y-89055987D01*
X127837683Y-89058979D01*
X127957842Y-89063700D01*
X128044132Y-89051189D01*
X128152286Y-89035508D01*
X128152291Y-89035507D01*
X128158007Y-89034678D01*
X128163479Y-89032820D01*
X128163481Y-89032820D01*
X128344067Y-88971519D01*
X128344069Y-88971518D01*
X128349531Y-88969664D01*
X128526001Y-88870837D01*
X128588433Y-88818913D01*
X128652813Y-88765368D01*
X128681505Y-88741505D01*
X128810837Y-88586001D01*
X128909664Y-88409531D01*
X128974678Y-88218007D01*
X128975507Y-88212291D01*
X128975508Y-88212286D01*
X129003167Y-88021516D01*
X129003700Y-88017842D01*
X129005215Y-87960000D01*
X129002557Y-87931069D01*
X129335164Y-87931069D01*
X129348392Y-88132894D01*
X129349815Y-88138496D01*
X129383965Y-88272962D01*
X129398178Y-88328928D01*
X129482856Y-88512607D01*
X129599588Y-88677780D01*
X129603730Y-88681815D01*
X129651421Y-88728273D01*
X129744466Y-88818913D01*
X129912637Y-88931282D01*
X129917940Y-88933560D01*
X129917943Y-88933562D01*
X130006291Y-88971519D01*
X130098470Y-89011122D01*
X130295740Y-89055760D01*
X130301509Y-89055987D01*
X130301512Y-89055987D01*
X130377683Y-89058979D01*
X130497842Y-89063700D01*
X130584132Y-89051189D01*
X130692286Y-89035508D01*
X130692291Y-89035507D01*
X130698007Y-89034678D01*
X130703479Y-89032820D01*
X130703481Y-89032820D01*
X130884067Y-88971519D01*
X130884069Y-88971518D01*
X130889531Y-88969664D01*
X131066001Y-88870837D01*
X131128433Y-88818913D01*
X131192813Y-88765368D01*
X131221505Y-88741505D01*
X131350837Y-88586001D01*
X131449664Y-88409531D01*
X131514678Y-88218007D01*
X131515507Y-88212291D01*
X131515508Y-88212286D01*
X131543167Y-88021516D01*
X131543700Y-88017842D01*
X131545215Y-87960000D01*
X131542557Y-87931069D01*
X131875164Y-87931069D01*
X131888392Y-88132894D01*
X131889815Y-88138496D01*
X131923965Y-88272962D01*
X131938178Y-88328928D01*
X132022856Y-88512607D01*
X132139588Y-88677780D01*
X132143730Y-88681815D01*
X132191421Y-88728273D01*
X132284466Y-88818913D01*
X132452637Y-88931282D01*
X132457940Y-88933560D01*
X132457943Y-88933562D01*
X132546291Y-88971519D01*
X132638470Y-89011122D01*
X132835740Y-89055760D01*
X132841509Y-89055987D01*
X132841512Y-89055987D01*
X132917683Y-89058979D01*
X133037842Y-89063700D01*
X133124132Y-89051189D01*
X133232286Y-89035508D01*
X133232291Y-89035507D01*
X133238007Y-89034678D01*
X133243479Y-89032820D01*
X133243481Y-89032820D01*
X133424067Y-88971519D01*
X133424069Y-88971518D01*
X133429531Y-88969664D01*
X133606001Y-88870837D01*
X133668433Y-88818913D01*
X133732813Y-88765368D01*
X133761505Y-88741505D01*
X133890837Y-88586001D01*
X133989664Y-88409531D01*
X134054678Y-88218007D01*
X134055507Y-88212291D01*
X134055508Y-88212286D01*
X134083167Y-88021516D01*
X134083700Y-88017842D01*
X134085215Y-87960000D01*
X134082557Y-87931069D01*
X134415164Y-87931069D01*
X134428392Y-88132894D01*
X134429815Y-88138496D01*
X134463965Y-88272962D01*
X134478178Y-88328928D01*
X134562856Y-88512607D01*
X134679588Y-88677780D01*
X134683730Y-88681815D01*
X134731421Y-88728273D01*
X134824466Y-88818913D01*
X134992637Y-88931282D01*
X134997940Y-88933560D01*
X134997943Y-88933562D01*
X135086291Y-88971519D01*
X135178470Y-89011122D01*
X135375740Y-89055760D01*
X135381509Y-89055987D01*
X135381512Y-89055987D01*
X135457683Y-89058979D01*
X135577842Y-89063700D01*
X135664132Y-89051189D01*
X135772286Y-89035508D01*
X135772291Y-89035507D01*
X135778007Y-89034678D01*
X135783479Y-89032820D01*
X135783481Y-89032820D01*
X135964067Y-88971519D01*
X135964069Y-88971518D01*
X135969531Y-88969664D01*
X136146001Y-88870837D01*
X136208433Y-88818913D01*
X136272813Y-88765368D01*
X136301505Y-88741505D01*
X136430837Y-88586001D01*
X136529664Y-88409531D01*
X136594678Y-88218007D01*
X136595507Y-88212291D01*
X136595508Y-88212286D01*
X136623167Y-88021516D01*
X136623700Y-88017842D01*
X136625215Y-87960000D01*
X136622557Y-87931069D01*
X136955164Y-87931069D01*
X136968392Y-88132894D01*
X136969815Y-88138496D01*
X137003965Y-88272962D01*
X137018178Y-88328928D01*
X137102856Y-88512607D01*
X137219588Y-88677780D01*
X137223730Y-88681815D01*
X137271421Y-88728273D01*
X137364466Y-88818913D01*
X137532637Y-88931282D01*
X137537940Y-88933560D01*
X137537943Y-88933562D01*
X137626291Y-88971519D01*
X137718470Y-89011122D01*
X137915740Y-89055760D01*
X137921509Y-89055987D01*
X137921512Y-89055987D01*
X137997683Y-89058979D01*
X138117842Y-89063700D01*
X138204132Y-89051189D01*
X138312286Y-89035508D01*
X138312291Y-89035507D01*
X138318007Y-89034678D01*
X138323479Y-89032820D01*
X138323481Y-89032820D01*
X138504067Y-88971519D01*
X138504069Y-88971518D01*
X138509531Y-88969664D01*
X138686001Y-88870837D01*
X138748433Y-88818913D01*
X138812813Y-88765368D01*
X138841505Y-88741505D01*
X138970837Y-88586001D01*
X139069664Y-88409531D01*
X139134678Y-88218007D01*
X139135507Y-88212291D01*
X139135508Y-88212286D01*
X139163167Y-88021516D01*
X139163700Y-88017842D01*
X139165215Y-87960000D01*
X139162557Y-87931069D01*
X139495164Y-87931069D01*
X139508392Y-88132894D01*
X139509815Y-88138496D01*
X139543965Y-88272962D01*
X139558178Y-88328928D01*
X139642856Y-88512607D01*
X139759588Y-88677780D01*
X139763730Y-88681815D01*
X139811421Y-88728273D01*
X139904466Y-88818913D01*
X140072637Y-88931282D01*
X140077940Y-88933560D01*
X140077943Y-88933562D01*
X140166291Y-88971519D01*
X140258470Y-89011122D01*
X140455740Y-89055760D01*
X140461509Y-89055987D01*
X140461512Y-89055987D01*
X140537683Y-89058979D01*
X140657842Y-89063700D01*
X140744132Y-89051189D01*
X140852286Y-89035508D01*
X140852291Y-89035507D01*
X140858007Y-89034678D01*
X140863479Y-89032820D01*
X140863481Y-89032820D01*
X141044067Y-88971519D01*
X141044069Y-88971518D01*
X141049531Y-88969664D01*
X141226001Y-88870837D01*
X141288433Y-88818913D01*
X141352813Y-88765368D01*
X141381505Y-88741505D01*
X141510837Y-88586001D01*
X141609664Y-88409531D01*
X141674678Y-88218007D01*
X141675507Y-88212291D01*
X141675508Y-88212286D01*
X141703167Y-88021516D01*
X141703700Y-88017842D01*
X141705215Y-87960000D01*
X141686708Y-87758591D01*
X141631807Y-87563926D01*
X141542351Y-87382527D01*
X141526824Y-87361733D01*
X141424788Y-87225091D01*
X141424787Y-87225090D01*
X141421335Y-87220467D01*
X141398350Y-87199220D01*
X141277053Y-87087094D01*
X141277051Y-87087092D01*
X141272812Y-87083174D01*
X141242247Y-87063889D01*
X141106637Y-86978325D01*
X141101757Y-86975246D01*
X140913898Y-86900298D01*
X140739261Y-86865560D01*
X140721192Y-86861966D01*
X140721191Y-86861966D01*
X140715526Y-86860839D01*
X140709752Y-86860763D01*
X140709748Y-86860763D01*
X140607257Y-86859422D01*
X140513286Y-86858192D01*
X140507589Y-86859171D01*
X140507588Y-86859171D01*
X140319646Y-86891465D01*
X140319645Y-86891465D01*
X140313949Y-86892444D01*
X140124193Y-86962449D01*
X140119232Y-86965401D01*
X140119231Y-86965401D01*
X139992744Y-87040653D01*
X139950371Y-87065862D01*
X139798305Y-87199220D01*
X139673089Y-87358057D01*
X139578914Y-87537053D01*
X139518937Y-87730213D01*
X139495164Y-87931069D01*
X139162557Y-87931069D01*
X139146708Y-87758591D01*
X139091807Y-87563926D01*
X139002351Y-87382527D01*
X138986824Y-87361733D01*
X138884788Y-87225091D01*
X138884787Y-87225090D01*
X138881335Y-87220467D01*
X138858350Y-87199220D01*
X138737053Y-87087094D01*
X138737051Y-87087092D01*
X138732812Y-87083174D01*
X138702247Y-87063889D01*
X138566637Y-86978325D01*
X138561757Y-86975246D01*
X138373898Y-86900298D01*
X138199261Y-86865560D01*
X138181192Y-86861966D01*
X138181191Y-86861966D01*
X138175526Y-86860839D01*
X138169752Y-86860763D01*
X138169748Y-86860763D01*
X138067257Y-86859422D01*
X137973286Y-86858192D01*
X137967589Y-86859171D01*
X137967588Y-86859171D01*
X137779646Y-86891465D01*
X137779645Y-86891465D01*
X137773949Y-86892444D01*
X137584193Y-86962449D01*
X137579232Y-86965401D01*
X137579231Y-86965401D01*
X137452744Y-87040653D01*
X137410371Y-87065862D01*
X137258305Y-87199220D01*
X137133089Y-87358057D01*
X137038914Y-87537053D01*
X136978937Y-87730213D01*
X136955164Y-87931069D01*
X136622557Y-87931069D01*
X136606708Y-87758591D01*
X136551807Y-87563926D01*
X136462351Y-87382527D01*
X136446824Y-87361733D01*
X136344788Y-87225091D01*
X136344787Y-87225090D01*
X136341335Y-87220467D01*
X136318350Y-87199220D01*
X136197053Y-87087094D01*
X136197051Y-87087092D01*
X136192812Y-87083174D01*
X136162247Y-87063889D01*
X136026637Y-86978325D01*
X136021757Y-86975246D01*
X135833898Y-86900298D01*
X135659261Y-86865560D01*
X135641192Y-86861966D01*
X135641191Y-86861966D01*
X135635526Y-86860839D01*
X135629752Y-86860763D01*
X135629748Y-86860763D01*
X135527257Y-86859422D01*
X135433286Y-86858192D01*
X135427589Y-86859171D01*
X135427588Y-86859171D01*
X135239646Y-86891465D01*
X135239645Y-86891465D01*
X135233949Y-86892444D01*
X135044193Y-86962449D01*
X135039232Y-86965401D01*
X135039231Y-86965401D01*
X134912744Y-87040653D01*
X134870371Y-87065862D01*
X134718305Y-87199220D01*
X134593089Y-87358057D01*
X134498914Y-87537053D01*
X134438937Y-87730213D01*
X134415164Y-87931069D01*
X134082557Y-87931069D01*
X134066708Y-87758591D01*
X134011807Y-87563926D01*
X133922351Y-87382527D01*
X133906824Y-87361733D01*
X133804788Y-87225091D01*
X133804787Y-87225090D01*
X133801335Y-87220467D01*
X133778350Y-87199220D01*
X133657053Y-87087094D01*
X133657051Y-87087092D01*
X133652812Y-87083174D01*
X133622247Y-87063889D01*
X133486637Y-86978325D01*
X133481757Y-86975246D01*
X133293898Y-86900298D01*
X133119261Y-86865560D01*
X133101192Y-86861966D01*
X133101191Y-86861966D01*
X133095526Y-86860839D01*
X133089752Y-86860763D01*
X133089748Y-86860763D01*
X132987257Y-86859422D01*
X132893286Y-86858192D01*
X132887589Y-86859171D01*
X132887588Y-86859171D01*
X132699646Y-86891465D01*
X132699645Y-86891465D01*
X132693949Y-86892444D01*
X132504193Y-86962449D01*
X132499232Y-86965401D01*
X132499231Y-86965401D01*
X132372744Y-87040653D01*
X132330371Y-87065862D01*
X132178305Y-87199220D01*
X132053089Y-87358057D01*
X131958914Y-87537053D01*
X131898937Y-87730213D01*
X131875164Y-87931069D01*
X131542557Y-87931069D01*
X131526708Y-87758591D01*
X131471807Y-87563926D01*
X131382351Y-87382527D01*
X131366824Y-87361733D01*
X131264788Y-87225091D01*
X131264787Y-87225090D01*
X131261335Y-87220467D01*
X131238350Y-87199220D01*
X131117053Y-87087094D01*
X131117051Y-87087092D01*
X131112812Y-87083174D01*
X131082247Y-87063889D01*
X130946637Y-86978325D01*
X130941757Y-86975246D01*
X130753898Y-86900298D01*
X130579261Y-86865560D01*
X130561192Y-86861966D01*
X130561191Y-86861966D01*
X130555526Y-86860839D01*
X130549752Y-86860763D01*
X130549748Y-86860763D01*
X130447257Y-86859422D01*
X130353286Y-86858192D01*
X130347589Y-86859171D01*
X130347588Y-86859171D01*
X130159646Y-86891465D01*
X130159645Y-86891465D01*
X130153949Y-86892444D01*
X129964193Y-86962449D01*
X129959232Y-86965401D01*
X129959231Y-86965401D01*
X129832744Y-87040653D01*
X129790371Y-87065862D01*
X129638305Y-87199220D01*
X129513089Y-87358057D01*
X129418914Y-87537053D01*
X129358937Y-87730213D01*
X129335164Y-87931069D01*
X129002557Y-87931069D01*
X128986708Y-87758591D01*
X128931807Y-87563926D01*
X128842351Y-87382527D01*
X128826824Y-87361733D01*
X128724788Y-87225091D01*
X128724787Y-87225090D01*
X128721335Y-87220467D01*
X128698350Y-87199220D01*
X128577053Y-87087094D01*
X128577051Y-87087092D01*
X128572812Y-87083174D01*
X128542247Y-87063889D01*
X128406637Y-86978325D01*
X128401757Y-86975246D01*
X128213898Y-86900298D01*
X128039261Y-86865560D01*
X128021192Y-86861966D01*
X128021191Y-86861966D01*
X128015526Y-86860839D01*
X128009752Y-86860763D01*
X128009748Y-86860763D01*
X127907257Y-86859422D01*
X127813286Y-86858192D01*
X127807589Y-86859171D01*
X127807588Y-86859171D01*
X127619646Y-86891465D01*
X127619645Y-86891465D01*
X127613949Y-86892444D01*
X127424193Y-86962449D01*
X127419232Y-86965401D01*
X127419231Y-86965401D01*
X127292744Y-87040653D01*
X127250371Y-87065862D01*
X127098305Y-87199220D01*
X126973089Y-87358057D01*
X126878914Y-87537053D01*
X126818937Y-87730213D01*
X126795164Y-87931069D01*
X126462557Y-87931069D01*
X126446708Y-87758591D01*
X126391807Y-87563926D01*
X126302351Y-87382527D01*
X126286824Y-87361733D01*
X126184788Y-87225091D01*
X126184787Y-87225090D01*
X126181335Y-87220467D01*
X126158350Y-87199220D01*
X126037053Y-87087094D01*
X126037051Y-87087092D01*
X126032812Y-87083174D01*
X126002247Y-87063889D01*
X125866637Y-86978325D01*
X125861757Y-86975246D01*
X125673898Y-86900298D01*
X125499261Y-86865560D01*
X125481192Y-86861966D01*
X125481191Y-86861966D01*
X125475526Y-86860839D01*
X125469752Y-86860763D01*
X125469748Y-86860763D01*
X125367257Y-86859422D01*
X125273286Y-86858192D01*
X125267589Y-86859171D01*
X125267588Y-86859171D01*
X125079646Y-86891465D01*
X125079645Y-86891465D01*
X125073949Y-86892444D01*
X124884193Y-86962449D01*
X124879232Y-86965401D01*
X124879231Y-86965401D01*
X124752744Y-87040653D01*
X124710371Y-87065862D01*
X124558305Y-87199220D01*
X124433089Y-87358057D01*
X124338914Y-87537053D01*
X124278937Y-87730213D01*
X124255164Y-87931069D01*
X123922557Y-87931069D01*
X123906708Y-87758591D01*
X123851807Y-87563926D01*
X123762351Y-87382527D01*
X123747894Y-87363167D01*
X123655095Y-87238893D01*
X123630363Y-87172343D01*
X123645538Y-87102987D01*
X123666958Y-87074409D01*
X124453962Y-86287405D01*
X124516274Y-86253379D01*
X124543057Y-86250500D01*
X141136943Y-86250500D01*
X141205064Y-86270502D01*
G37*
G04 #@! TD.AperFunction*
M02*
