G04 #@! TF.GenerationSoftware,KiCad,Pcbnew,5.1.10*
G04 #@! TF.CreationDate,2021-08-16T17:54:08+02:00*
G04 #@! TF.ProjectId,brutzelkarte,62727574-7a65-46c6-9b61-7274652e6b69,rev?*
G04 #@! TF.SameCoordinates,Original*
G04 #@! TF.FileFunction,Copper,L2,Bot*
G04 #@! TF.FilePolarity,Positive*
%FSLAX46Y46*%
G04 Gerber Fmt 4.6, Leading zero omitted, Abs format (unit mm)*
G04 Created by KiCad (PCBNEW 5.1.10) date 2021-08-16 17:54:08*
%MOMM*%
%LPD*%
G01*
G04 APERTURE LIST*
G04 #@! TA.AperFunction,ComponentPad*
%ADD10O,1.700000X1.700000*%
G04 #@! TD*
G04 #@! TA.AperFunction,ComponentPad*
%ADD11R,1.700000X1.700000*%
G04 #@! TD*
G04 #@! TA.AperFunction,SMDPad,CuDef*
%ADD12R,1.500000X7.000000*%
G04 #@! TD*
G04 #@! TA.AperFunction,ComponentPad*
%ADD13C,2.500000*%
G04 #@! TD*
G04 #@! TA.AperFunction,ViaPad*
%ADD14C,0.600000*%
G04 #@! TD*
G04 #@! TA.AperFunction,Conductor*
%ADD15C,1.000000*%
G04 #@! TD*
G04 #@! TA.AperFunction,Conductor*
%ADD16C,0.250000*%
G04 #@! TD*
G04 #@! TA.AperFunction,Conductor*
%ADD17C,0.254000*%
G04 #@! TD*
G04 #@! TA.AperFunction,Conductor*
%ADD18C,0.100000*%
G04 #@! TD*
G04 APERTURE END LIST*
D10*
X163460000Y-87960000D03*
X163460000Y-90500000D03*
X160920000Y-87960000D03*
X160920000Y-90500000D03*
X158380000Y-87960000D03*
X158380000Y-90500000D03*
X155840000Y-87960000D03*
X155840000Y-90500000D03*
X153300000Y-87960000D03*
X153300000Y-90500000D03*
X150760000Y-87960000D03*
X150760000Y-90500000D03*
X148220000Y-87960000D03*
X148220000Y-90500000D03*
X145680000Y-87960000D03*
X145680000Y-90500000D03*
X143140000Y-87960000D03*
X143140000Y-90500000D03*
X140600000Y-87960000D03*
X140600000Y-90500000D03*
X138060000Y-87960000D03*
X138060000Y-90500000D03*
X135520000Y-87960000D03*
X135520000Y-90500000D03*
X132980000Y-87960000D03*
X132980000Y-90500000D03*
X130440000Y-87960000D03*
X130440000Y-90500000D03*
X127900000Y-87960000D03*
X127900000Y-90500000D03*
X125360000Y-87960000D03*
X125360000Y-90500000D03*
X122820000Y-87960000D03*
X122820000Y-90500000D03*
X120280000Y-87960000D03*
X120280000Y-90500000D03*
X117740000Y-87960000D03*
X117740000Y-90500000D03*
X115200000Y-87960000D03*
X115200000Y-90500000D03*
X112660000Y-87960000D03*
X112660000Y-90500000D03*
X110120000Y-87960000D03*
X110120000Y-90500000D03*
X107580000Y-87960000D03*
X107580000Y-90500000D03*
X105040000Y-87960000D03*
X105040000Y-90500000D03*
X102500000Y-87960000D03*
D11*
X102500000Y-90500000D03*
D12*
X102750000Y-126000000D03*
X105250000Y-126000000D03*
X107750000Y-126000000D03*
X110250000Y-126000000D03*
X112750000Y-126000000D03*
X115250000Y-126000000D03*
X117750000Y-126000000D03*
X120250000Y-126000000D03*
X122750000Y-126000000D03*
X125250000Y-126000000D03*
X127750000Y-126000000D03*
X130250000Y-126000000D03*
X132750000Y-126000000D03*
X135250000Y-126000000D03*
X137750000Y-126000000D03*
X140250000Y-126000000D03*
X142750000Y-126000000D03*
X145250000Y-126000000D03*
X147750000Y-126000000D03*
X150250000Y-126000000D03*
X152750000Y-126000000D03*
X155250000Y-126000000D03*
X157750000Y-126000000D03*
X160250000Y-126000000D03*
X162750000Y-126000000D03*
D13*
X180150000Y-122600000D03*
X85350000Y-122600000D03*
D14*
X114000000Y-94500000D03*
X116500000Y-94500000D03*
X119000000Y-94500000D03*
X121500000Y-94500000D03*
X124000000Y-94500000D03*
X126500000Y-94500000D03*
X129000000Y-94500000D03*
X131500000Y-94500000D03*
X134000000Y-94500000D03*
X136500000Y-94500000D03*
X139000000Y-94500000D03*
X141500000Y-94500000D03*
X144000000Y-94500000D03*
X146500000Y-94500000D03*
X149000000Y-94500000D03*
X151500000Y-94500000D03*
X154000000Y-94500000D03*
X156500000Y-94500000D03*
X159000000Y-94500000D03*
X111500000Y-94500000D03*
X109000000Y-94500000D03*
X106500000Y-94500000D03*
X104000000Y-94500000D03*
X124000000Y-98500000D03*
X126500000Y-98500000D03*
X129000000Y-98500000D03*
X136500000Y-98500000D03*
X139000000Y-98500000D03*
X149000000Y-98500000D03*
X121500000Y-98500000D03*
X106500000Y-98500000D03*
X159000000Y-98500000D03*
X104000000Y-98500000D03*
X109000000Y-98500000D03*
X131500000Y-98500000D03*
X116500000Y-98500000D03*
X154000000Y-98500000D03*
X151500000Y-98500000D03*
X144000000Y-98500000D03*
X146500000Y-98500000D03*
X134000000Y-98500000D03*
X119000000Y-98500000D03*
X156500000Y-98500000D03*
X114000000Y-98500000D03*
X141500000Y-98500000D03*
X111500000Y-98500000D03*
X104000000Y-102500000D03*
X126500000Y-102500000D03*
X109000000Y-102500000D03*
X111500000Y-102500000D03*
X159000000Y-102500000D03*
X124000000Y-102500000D03*
X156500000Y-102500000D03*
X151500000Y-102500000D03*
X129000000Y-102500000D03*
X131500000Y-102500000D03*
X154000000Y-102500000D03*
X121500000Y-102500000D03*
X134000000Y-102500000D03*
X114000000Y-102500000D03*
X149000000Y-102500000D03*
X136500000Y-102500000D03*
X144000000Y-102500000D03*
X141500000Y-102500000D03*
X146500000Y-102500000D03*
X139000000Y-102500000D03*
X116500000Y-102500000D03*
X119000000Y-102500000D03*
X106500000Y-102500000D03*
X151500000Y-106500000D03*
X136500000Y-106500000D03*
X154000000Y-106500000D03*
X116500000Y-106500000D03*
X114000000Y-106500000D03*
X106500000Y-106500000D03*
X146500000Y-106500000D03*
X144000000Y-106500000D03*
X156500000Y-106500000D03*
X121500000Y-106500000D03*
X104000000Y-106500000D03*
X139000000Y-106500000D03*
X124000000Y-106500000D03*
X109000000Y-106500000D03*
X134000000Y-106500000D03*
X126500000Y-106500000D03*
X119000000Y-106500000D03*
X131500000Y-106500000D03*
X129000000Y-106500000D03*
X111500000Y-106500000D03*
X149000000Y-106500000D03*
X141500000Y-106500000D03*
X159000000Y-106500000D03*
X156500000Y-110500000D03*
X114000000Y-110500000D03*
X119000000Y-110500000D03*
X126500000Y-110500000D03*
X144000000Y-110500000D03*
X116500000Y-110500000D03*
X151500000Y-110500000D03*
X109000000Y-110500000D03*
X159000000Y-110500000D03*
X124000000Y-110500000D03*
X154000000Y-110500000D03*
X106500000Y-110500000D03*
X129000000Y-110500000D03*
X111500000Y-110500000D03*
X121500000Y-110500000D03*
X104000000Y-110500000D03*
X149000000Y-110500000D03*
X139000000Y-110500000D03*
X141500000Y-110500000D03*
X146500000Y-110500000D03*
X131500000Y-110500000D03*
X136500000Y-110500000D03*
X134000000Y-110500000D03*
X104000000Y-114500000D03*
X106500000Y-114500000D03*
X156500000Y-114500000D03*
X121500000Y-114500000D03*
X141500000Y-114500000D03*
X124000000Y-114500000D03*
X109000000Y-114500000D03*
X154000000Y-114500000D03*
X111500000Y-114500000D03*
X136500000Y-114500000D03*
X151500000Y-114500000D03*
X119000000Y-114500000D03*
X126500000Y-114500000D03*
X129000000Y-114500000D03*
X144000000Y-114500000D03*
X159000000Y-114500000D03*
X131500000Y-114500000D03*
X116500000Y-114500000D03*
X149000000Y-114500000D03*
X114000000Y-114500000D03*
X146500000Y-114500000D03*
X139000000Y-114500000D03*
X134000000Y-114500000D03*
X124000000Y-118500000D03*
X149000000Y-118500000D03*
X141500000Y-118500000D03*
X121500000Y-118500000D03*
X134000000Y-118500000D03*
X146500000Y-118500000D03*
X144000000Y-118500000D03*
X154000000Y-118500000D03*
X114000000Y-118500000D03*
X111500000Y-118500000D03*
X156500000Y-118500000D03*
X119000000Y-118500000D03*
X131500000Y-118500000D03*
X116500000Y-118500000D03*
X126500000Y-118500000D03*
X159000000Y-118500000D03*
X104000000Y-118500000D03*
X151500000Y-118500000D03*
X109000000Y-118500000D03*
X129000000Y-118500000D03*
X106500000Y-118500000D03*
X136500000Y-118500000D03*
X139000000Y-118500000D03*
D15*
X162750000Y-126000000D02*
X162750000Y-120250000D01*
X160250000Y-126000000D02*
X160250000Y-120250000D01*
X150250000Y-126000000D02*
X150250000Y-120750000D01*
X110250000Y-126000000D02*
X110250000Y-120250000D01*
X107750000Y-126000000D02*
X107750000Y-120250000D01*
X102750000Y-126000000D02*
X102750000Y-120250000D01*
X143140000Y-87140000D02*
X143140000Y-87960000D01*
X124180000Y-85500000D02*
X141500000Y-85500000D01*
X141500000Y-85500000D02*
X143140000Y-87140000D01*
X122820000Y-86860000D02*
X124180000Y-85500000D01*
X122820000Y-87960000D02*
X122820000Y-86860000D01*
X122750000Y-88030000D02*
X122820000Y-87960000D01*
X122750000Y-126000000D02*
X122750000Y-88030000D01*
X142750000Y-90890000D02*
X143140000Y-90500000D01*
X142750000Y-126000000D02*
X142750000Y-90890000D01*
X143140000Y-90500000D02*
X143140000Y-87960000D01*
D16*
X127750000Y-90650000D02*
X127900000Y-90500000D01*
X127750000Y-126000000D02*
X127750000Y-90650000D01*
X125250000Y-90610000D02*
X125360000Y-90500000D01*
X125250000Y-126000000D02*
X125250000Y-90610000D01*
X120250000Y-90530000D02*
X120280000Y-90500000D01*
X120250000Y-126000000D02*
X120250000Y-90530000D01*
X117750000Y-90510000D02*
X117740000Y-90500000D01*
X117750000Y-126000000D02*
X117750000Y-90510000D01*
X115250000Y-90550000D02*
X115200000Y-90500000D01*
X115250000Y-126000000D02*
X115250000Y-90550000D01*
X112750000Y-90590000D02*
X112660000Y-90500000D01*
X112750000Y-126000000D02*
X112750000Y-90590000D01*
X157750000Y-91130000D02*
X158380000Y-90500000D01*
X157750000Y-126000000D02*
X157750000Y-113630000D01*
X157750000Y-91130000D02*
X157750000Y-113630000D01*
X155250000Y-91090000D02*
X155840000Y-90500000D01*
X155250000Y-126000000D02*
X155250000Y-91000000D01*
X152750000Y-91050000D02*
X153300000Y-90500000D01*
X152750000Y-126000000D02*
X152750000Y-91050000D01*
X147750000Y-90970000D02*
X148220000Y-90500000D01*
X147750000Y-126000000D02*
X147750000Y-90970000D01*
X145250000Y-90930000D02*
X145680000Y-90500000D01*
X145250000Y-126000000D02*
X145250000Y-90930000D01*
X140250000Y-90850000D02*
X140600000Y-90500000D01*
X140250000Y-126000000D02*
X140250000Y-90850000D01*
X137750000Y-90810000D02*
X138060000Y-90500000D01*
X137750000Y-126000000D02*
X137750000Y-90810000D01*
X135250000Y-90770000D02*
X135520000Y-90500000D01*
X135250000Y-126000000D02*
X135250000Y-90770000D01*
X105250000Y-90710000D02*
X105040000Y-90500000D01*
X105250000Y-126000000D02*
X105250000Y-90710000D01*
D17*
X181623001Y-91123000D02*
X179418519Y-91123000D01*
X179400000Y-91121176D01*
X179374239Y-91123713D01*
X179326095Y-91128455D01*
X179255030Y-91150012D01*
X179189537Y-91185019D01*
X179132131Y-91232131D01*
X179085019Y-91289537D01*
X179050012Y-91355030D01*
X179028455Y-91426095D01*
X179021176Y-91500000D01*
X179023001Y-91518529D01*
X179023000Y-92981480D01*
X179021176Y-93000000D01*
X179028455Y-93073905D01*
X179050012Y-93144970D01*
X179085019Y-93210463D01*
X179132131Y-93267869D01*
X179189537Y-93314981D01*
X179255030Y-93349988D01*
X179326095Y-93371545D01*
X179400000Y-93378824D01*
X179418519Y-93377000D01*
X181623000Y-93377000D01*
X181623001Y-98981471D01*
X181621176Y-99000000D01*
X181628455Y-99073905D01*
X181650012Y-99144970D01*
X181685019Y-99210463D01*
X181732131Y-99267869D01*
X181789537Y-99314981D01*
X181855030Y-99349988D01*
X181926095Y-99371545D01*
X181981481Y-99377000D01*
X182000000Y-99378824D01*
X182018519Y-99377000D01*
X182123001Y-99377000D01*
X182123000Y-125623000D01*
X176877000Y-125623000D01*
X176877000Y-119518519D01*
X176878824Y-119500000D01*
X176871545Y-119426095D01*
X176849988Y-119355030D01*
X176814981Y-119289537D01*
X176767869Y-119232131D01*
X176710463Y-119185019D01*
X176644970Y-119150012D01*
X176573905Y-119128455D01*
X176518519Y-119123000D01*
X176500000Y-119121176D01*
X176481481Y-119123000D01*
X165018519Y-119123000D01*
X165000000Y-119121176D01*
X164981481Y-119123000D01*
X164926095Y-119128455D01*
X164855030Y-119150012D01*
X164789537Y-119185019D01*
X164732131Y-119232131D01*
X164685019Y-119289537D01*
X164650012Y-119355030D01*
X164628455Y-119426095D01*
X164621176Y-119500000D01*
X164623001Y-119518530D01*
X164623001Y-121903000D01*
X158252000Y-121903000D01*
X158252000Y-91725578D01*
X158259151Y-91727000D01*
X158500849Y-91727000D01*
X158737903Y-91679847D01*
X158961202Y-91587353D01*
X159162167Y-91453073D01*
X159333073Y-91282167D01*
X159467353Y-91081202D01*
X159555334Y-90868796D01*
X159697405Y-90868796D01*
X159792845Y-91100226D01*
X159931601Y-91308590D01*
X160108341Y-91485880D01*
X160316272Y-91625283D01*
X160547404Y-91721442D01*
X160551205Y-91722587D01*
X160747000Y-91657392D01*
X160747000Y-90673000D01*
X161093000Y-90673000D01*
X161093000Y-91657392D01*
X161288795Y-91722587D01*
X161292596Y-91721442D01*
X161523728Y-91625283D01*
X161731659Y-91485880D01*
X161908399Y-91308590D01*
X162047155Y-91100226D01*
X162142595Y-90868796D01*
X162237405Y-90868796D01*
X162332845Y-91100226D01*
X162471601Y-91308590D01*
X162648341Y-91485880D01*
X162856272Y-91625283D01*
X163087404Y-91721442D01*
X163091205Y-91722587D01*
X163287000Y-91657392D01*
X163287000Y-90673000D01*
X163633000Y-90673000D01*
X163633000Y-91657392D01*
X163828795Y-91722587D01*
X163832596Y-91721442D01*
X164063728Y-91625283D01*
X164271659Y-91485880D01*
X164448399Y-91308590D01*
X164587155Y-91100226D01*
X164682595Y-90868796D01*
X164618485Y-90673000D01*
X163633000Y-90673000D01*
X163287000Y-90673000D01*
X162301515Y-90673000D01*
X162237405Y-90868796D01*
X162142595Y-90868796D01*
X162078485Y-90673000D01*
X161093000Y-90673000D01*
X160747000Y-90673000D01*
X159761515Y-90673000D01*
X159697405Y-90868796D01*
X159555334Y-90868796D01*
X159559847Y-90857903D01*
X159607000Y-90620849D01*
X159607000Y-90379151D01*
X159559847Y-90142097D01*
X159555335Y-90131204D01*
X159697405Y-90131204D01*
X159761515Y-90327000D01*
X160747000Y-90327000D01*
X160747000Y-89342608D01*
X161093000Y-89342608D01*
X161093000Y-90327000D01*
X162078485Y-90327000D01*
X162142595Y-90131204D01*
X162237405Y-90131204D01*
X162301515Y-90327000D01*
X163287000Y-90327000D01*
X163287000Y-89342608D01*
X163633000Y-89342608D01*
X163633000Y-90327000D01*
X164618485Y-90327000D01*
X164682595Y-90131204D01*
X164587155Y-89899774D01*
X164448399Y-89691410D01*
X164271659Y-89514120D01*
X164063728Y-89374717D01*
X163832596Y-89278558D01*
X163828795Y-89277413D01*
X163633000Y-89342608D01*
X163287000Y-89342608D01*
X163091205Y-89277413D01*
X163087404Y-89278558D01*
X162856272Y-89374717D01*
X162648341Y-89514120D01*
X162471601Y-89691410D01*
X162332845Y-89899774D01*
X162237405Y-90131204D01*
X162142595Y-90131204D01*
X162047155Y-89899774D01*
X161908399Y-89691410D01*
X161731659Y-89514120D01*
X161523728Y-89374717D01*
X161292596Y-89278558D01*
X161288795Y-89277413D01*
X161093000Y-89342608D01*
X160747000Y-89342608D01*
X160551205Y-89277413D01*
X160547404Y-89278558D01*
X160316272Y-89374717D01*
X160108341Y-89514120D01*
X159931601Y-89691410D01*
X159792845Y-89899774D01*
X159697405Y-90131204D01*
X159555335Y-90131204D01*
X159467353Y-89918798D01*
X159333073Y-89717833D01*
X159162167Y-89546927D01*
X158961202Y-89412647D01*
X158737903Y-89320153D01*
X158500849Y-89273000D01*
X158259151Y-89273000D01*
X158022097Y-89320153D01*
X157798798Y-89412647D01*
X157597833Y-89546927D01*
X157426927Y-89717833D01*
X157292647Y-89918798D01*
X157200153Y-90142097D01*
X157153000Y-90379151D01*
X157153000Y-90620849D01*
X157200153Y-90857903D01*
X157262380Y-91008132D01*
X157255264Y-91031592D01*
X157248000Y-91105348D01*
X157248000Y-91105357D01*
X157245573Y-91130000D01*
X157248000Y-91154643D01*
X157248001Y-113605347D01*
X157248000Y-121903000D01*
X155752000Y-121903000D01*
X155752000Y-91727000D01*
X155960849Y-91727000D01*
X156197903Y-91679847D01*
X156421202Y-91587353D01*
X156622167Y-91453073D01*
X156793073Y-91282167D01*
X156927353Y-91081202D01*
X157019847Y-90857903D01*
X157067000Y-90620849D01*
X157067000Y-90379151D01*
X157019847Y-90142097D01*
X156927353Y-89918798D01*
X156793073Y-89717833D01*
X156622167Y-89546927D01*
X156421202Y-89412647D01*
X156197903Y-89320153D01*
X155960849Y-89273000D01*
X155719151Y-89273000D01*
X155482097Y-89320153D01*
X155258798Y-89412647D01*
X155057833Y-89546927D01*
X154886927Y-89717833D01*
X154752647Y-89918798D01*
X154660153Y-90142097D01*
X154613000Y-90379151D01*
X154613000Y-90620849D01*
X154660153Y-90857903D01*
X154747632Y-91069095D01*
X154745573Y-91090000D01*
X154748001Y-91114653D01*
X154748000Y-121903000D01*
X153252000Y-121903000D01*
X153252000Y-91727000D01*
X153420849Y-91727000D01*
X153657903Y-91679847D01*
X153881202Y-91587353D01*
X154082167Y-91453073D01*
X154253073Y-91282167D01*
X154387353Y-91081202D01*
X154479847Y-90857903D01*
X154527000Y-90620849D01*
X154527000Y-90379151D01*
X154479847Y-90142097D01*
X154387353Y-89918798D01*
X154253073Y-89717833D01*
X154082167Y-89546927D01*
X153881202Y-89412647D01*
X153657903Y-89320153D01*
X153420849Y-89273000D01*
X153179151Y-89273000D01*
X152942097Y-89320153D01*
X152718798Y-89412647D01*
X152517833Y-89546927D01*
X152346927Y-89717833D01*
X152212647Y-89918798D01*
X152120153Y-90142097D01*
X152073000Y-90379151D01*
X152073000Y-90620849D01*
X152120153Y-90857903D01*
X152212647Y-91081202D01*
X152248001Y-91134113D01*
X152248000Y-121903000D01*
X148252000Y-121903000D01*
X148252000Y-91727000D01*
X148340849Y-91727000D01*
X148577903Y-91679847D01*
X148801202Y-91587353D01*
X149002167Y-91453073D01*
X149173073Y-91282167D01*
X149307353Y-91081202D01*
X149395334Y-90868796D01*
X149537405Y-90868796D01*
X149632845Y-91100226D01*
X149771601Y-91308590D01*
X149948341Y-91485880D01*
X150156272Y-91625283D01*
X150387404Y-91721442D01*
X150391205Y-91722587D01*
X150587000Y-91657392D01*
X150587000Y-90673000D01*
X150933000Y-90673000D01*
X150933000Y-91657392D01*
X151128795Y-91722587D01*
X151132596Y-91721442D01*
X151363728Y-91625283D01*
X151571659Y-91485880D01*
X151748399Y-91308590D01*
X151887155Y-91100226D01*
X151982595Y-90868796D01*
X151918485Y-90673000D01*
X150933000Y-90673000D01*
X150587000Y-90673000D01*
X149601515Y-90673000D01*
X149537405Y-90868796D01*
X149395334Y-90868796D01*
X149399847Y-90857903D01*
X149447000Y-90620849D01*
X149447000Y-90379151D01*
X149399847Y-90142097D01*
X149395335Y-90131204D01*
X149537405Y-90131204D01*
X149601515Y-90327000D01*
X150587000Y-90327000D01*
X150587000Y-89342608D01*
X150933000Y-89342608D01*
X150933000Y-90327000D01*
X151918485Y-90327000D01*
X151982595Y-90131204D01*
X151887155Y-89899774D01*
X151748399Y-89691410D01*
X151571659Y-89514120D01*
X151363728Y-89374717D01*
X151132596Y-89278558D01*
X151128795Y-89277413D01*
X150933000Y-89342608D01*
X150587000Y-89342608D01*
X150391205Y-89277413D01*
X150387404Y-89278558D01*
X150156272Y-89374717D01*
X149948341Y-89514120D01*
X149771601Y-89691410D01*
X149632845Y-89899774D01*
X149537405Y-90131204D01*
X149395335Y-90131204D01*
X149307353Y-89918798D01*
X149173073Y-89717833D01*
X149002167Y-89546927D01*
X148801202Y-89412647D01*
X148577903Y-89320153D01*
X148340849Y-89273000D01*
X148099151Y-89273000D01*
X147862097Y-89320153D01*
X147638798Y-89412647D01*
X147437833Y-89546927D01*
X147266927Y-89717833D01*
X147132647Y-89918798D01*
X147040153Y-90142097D01*
X146993000Y-90379151D01*
X146993000Y-90620849D01*
X147040153Y-90857903D01*
X147132647Y-91081202D01*
X147248001Y-91253842D01*
X147248000Y-121903000D01*
X145752000Y-121903000D01*
X145752000Y-91727000D01*
X145800849Y-91727000D01*
X146037903Y-91679847D01*
X146261202Y-91587353D01*
X146462167Y-91453073D01*
X146633073Y-91282167D01*
X146767353Y-91081202D01*
X146859847Y-90857903D01*
X146907000Y-90620849D01*
X146907000Y-90379151D01*
X146859847Y-90142097D01*
X146767353Y-89918798D01*
X146633073Y-89717833D01*
X146462167Y-89546927D01*
X146261202Y-89412647D01*
X146037903Y-89320153D01*
X145800849Y-89273000D01*
X145559151Y-89273000D01*
X145322097Y-89320153D01*
X145098798Y-89412647D01*
X144897833Y-89546927D01*
X144726927Y-89717833D01*
X144592647Y-89918798D01*
X144500153Y-90142097D01*
X144453000Y-90379151D01*
X144453000Y-90620849D01*
X144500153Y-90857903D01*
X144592647Y-91081202D01*
X144726927Y-91282167D01*
X144748001Y-91303241D01*
X144748000Y-121903000D01*
X143627000Y-121903000D01*
X143627000Y-91626373D01*
X143721202Y-91587353D01*
X143922167Y-91453073D01*
X144093073Y-91282167D01*
X144227353Y-91081202D01*
X144319847Y-90857903D01*
X144367000Y-90620849D01*
X144367000Y-90379151D01*
X144319847Y-90142097D01*
X144227353Y-89918798D01*
X144093073Y-89717833D01*
X144017000Y-89641760D01*
X144017000Y-88818240D01*
X144093073Y-88742167D01*
X144227353Y-88541202D01*
X144319847Y-88317903D01*
X144367000Y-88080849D01*
X144367000Y-87839151D01*
X144453000Y-87839151D01*
X144453000Y-88080849D01*
X144500153Y-88317903D01*
X144592647Y-88541202D01*
X144726927Y-88742167D01*
X144897833Y-88913073D01*
X145098798Y-89047353D01*
X145322097Y-89139847D01*
X145559151Y-89187000D01*
X145800849Y-89187000D01*
X146037903Y-89139847D01*
X146261202Y-89047353D01*
X146462167Y-88913073D01*
X146633073Y-88742167D01*
X146767353Y-88541202D01*
X146859847Y-88317903D01*
X146907000Y-88080849D01*
X146907000Y-87839151D01*
X146993000Y-87839151D01*
X146993000Y-88080849D01*
X147040153Y-88317903D01*
X147132647Y-88541202D01*
X147266927Y-88742167D01*
X147437833Y-88913073D01*
X147638798Y-89047353D01*
X147862097Y-89139847D01*
X148099151Y-89187000D01*
X148340849Y-89187000D01*
X148577903Y-89139847D01*
X148801202Y-89047353D01*
X149002167Y-88913073D01*
X149173073Y-88742167D01*
X149307353Y-88541202D01*
X149395334Y-88328796D01*
X149537405Y-88328796D01*
X149632845Y-88560226D01*
X149771601Y-88768590D01*
X149948341Y-88945880D01*
X150156272Y-89085283D01*
X150387404Y-89181442D01*
X150391205Y-89182587D01*
X150587000Y-89117392D01*
X150587000Y-88133000D01*
X150933000Y-88133000D01*
X150933000Y-89117392D01*
X151128795Y-89182587D01*
X151132596Y-89181442D01*
X151363728Y-89085283D01*
X151571659Y-88945880D01*
X151748399Y-88768590D01*
X151887155Y-88560226D01*
X151982595Y-88328796D01*
X151918485Y-88133000D01*
X150933000Y-88133000D01*
X150587000Y-88133000D01*
X149601515Y-88133000D01*
X149537405Y-88328796D01*
X149395334Y-88328796D01*
X149399847Y-88317903D01*
X149447000Y-88080849D01*
X149447000Y-87839151D01*
X152073000Y-87839151D01*
X152073000Y-88080849D01*
X152120153Y-88317903D01*
X152212647Y-88541202D01*
X152346927Y-88742167D01*
X152517833Y-88913073D01*
X152718798Y-89047353D01*
X152942097Y-89139847D01*
X153179151Y-89187000D01*
X153420849Y-89187000D01*
X153657903Y-89139847D01*
X153881202Y-89047353D01*
X154082167Y-88913073D01*
X154253073Y-88742167D01*
X154387353Y-88541202D01*
X154479847Y-88317903D01*
X154527000Y-88080849D01*
X154527000Y-87839151D01*
X154613000Y-87839151D01*
X154613000Y-88080849D01*
X154660153Y-88317903D01*
X154752647Y-88541202D01*
X154886927Y-88742167D01*
X155057833Y-88913073D01*
X155258798Y-89047353D01*
X155482097Y-89139847D01*
X155719151Y-89187000D01*
X155960849Y-89187000D01*
X156197903Y-89139847D01*
X156421202Y-89047353D01*
X156622167Y-88913073D01*
X156793073Y-88742167D01*
X156927353Y-88541202D01*
X157019847Y-88317903D01*
X157067000Y-88080849D01*
X157067000Y-87839151D01*
X157153000Y-87839151D01*
X157153000Y-88080849D01*
X157200153Y-88317903D01*
X157292647Y-88541202D01*
X157426927Y-88742167D01*
X157597833Y-88913073D01*
X157798798Y-89047353D01*
X158022097Y-89139847D01*
X158259151Y-89187000D01*
X158500849Y-89187000D01*
X158737903Y-89139847D01*
X158961202Y-89047353D01*
X159162167Y-88913073D01*
X159333073Y-88742167D01*
X159467353Y-88541202D01*
X159555334Y-88328796D01*
X159697405Y-88328796D01*
X159792845Y-88560226D01*
X159931601Y-88768590D01*
X160108341Y-88945880D01*
X160316272Y-89085283D01*
X160547404Y-89181442D01*
X160551205Y-89182587D01*
X160747000Y-89117392D01*
X160747000Y-88133000D01*
X161093000Y-88133000D01*
X161093000Y-89117392D01*
X161288795Y-89182587D01*
X161292596Y-89181442D01*
X161523728Y-89085283D01*
X161731659Y-88945880D01*
X161908399Y-88768590D01*
X162047155Y-88560226D01*
X162142595Y-88328796D01*
X162237405Y-88328796D01*
X162332845Y-88560226D01*
X162471601Y-88768590D01*
X162648341Y-88945880D01*
X162856272Y-89085283D01*
X163087404Y-89181442D01*
X163091205Y-89182587D01*
X163287000Y-89117392D01*
X163287000Y-88133000D01*
X163633000Y-88133000D01*
X163633000Y-89117392D01*
X163828795Y-89182587D01*
X163832596Y-89181442D01*
X164063728Y-89085283D01*
X164271659Y-88945880D01*
X164448399Y-88768590D01*
X164587155Y-88560226D01*
X164682595Y-88328796D01*
X164618485Y-88133000D01*
X163633000Y-88133000D01*
X163287000Y-88133000D01*
X162301515Y-88133000D01*
X162237405Y-88328796D01*
X162142595Y-88328796D01*
X162078485Y-88133000D01*
X161093000Y-88133000D01*
X160747000Y-88133000D01*
X159761515Y-88133000D01*
X159697405Y-88328796D01*
X159555334Y-88328796D01*
X159559847Y-88317903D01*
X159607000Y-88080849D01*
X159607000Y-87839151D01*
X159559847Y-87602097D01*
X159555335Y-87591204D01*
X159697405Y-87591204D01*
X159761515Y-87787000D01*
X160747000Y-87787000D01*
X160747000Y-86802608D01*
X161093000Y-86802608D01*
X161093000Y-87787000D01*
X162078485Y-87787000D01*
X162142595Y-87591204D01*
X162237405Y-87591204D01*
X162301515Y-87787000D01*
X163287000Y-87787000D01*
X163287000Y-86802608D01*
X163633000Y-86802608D01*
X163633000Y-87787000D01*
X164618485Y-87787000D01*
X164682595Y-87591204D01*
X164587155Y-87359774D01*
X164448399Y-87151410D01*
X164271659Y-86974120D01*
X164063728Y-86834717D01*
X163832596Y-86738558D01*
X163828795Y-86737413D01*
X163633000Y-86802608D01*
X163287000Y-86802608D01*
X163091205Y-86737413D01*
X163087404Y-86738558D01*
X162856272Y-86834717D01*
X162648341Y-86974120D01*
X162471601Y-87151410D01*
X162332845Y-87359774D01*
X162237405Y-87591204D01*
X162142595Y-87591204D01*
X162047155Y-87359774D01*
X161908399Y-87151410D01*
X161731659Y-86974120D01*
X161523728Y-86834717D01*
X161292596Y-86738558D01*
X161288795Y-86737413D01*
X161093000Y-86802608D01*
X160747000Y-86802608D01*
X160551205Y-86737413D01*
X160547404Y-86738558D01*
X160316272Y-86834717D01*
X160108341Y-86974120D01*
X159931601Y-87151410D01*
X159792845Y-87359774D01*
X159697405Y-87591204D01*
X159555335Y-87591204D01*
X159467353Y-87378798D01*
X159333073Y-87177833D01*
X159162167Y-87006927D01*
X158961202Y-86872647D01*
X158737903Y-86780153D01*
X158500849Y-86733000D01*
X158259151Y-86733000D01*
X158022097Y-86780153D01*
X157798798Y-86872647D01*
X157597833Y-87006927D01*
X157426927Y-87177833D01*
X157292647Y-87378798D01*
X157200153Y-87602097D01*
X157153000Y-87839151D01*
X157067000Y-87839151D01*
X157019847Y-87602097D01*
X156927353Y-87378798D01*
X156793073Y-87177833D01*
X156622167Y-87006927D01*
X156421202Y-86872647D01*
X156197903Y-86780153D01*
X155960849Y-86733000D01*
X155719151Y-86733000D01*
X155482097Y-86780153D01*
X155258798Y-86872647D01*
X155057833Y-87006927D01*
X154886927Y-87177833D01*
X154752647Y-87378798D01*
X154660153Y-87602097D01*
X154613000Y-87839151D01*
X154527000Y-87839151D01*
X154479847Y-87602097D01*
X154387353Y-87378798D01*
X154253073Y-87177833D01*
X154082167Y-87006927D01*
X153881202Y-86872647D01*
X153657903Y-86780153D01*
X153420849Y-86733000D01*
X153179151Y-86733000D01*
X152942097Y-86780153D01*
X152718798Y-86872647D01*
X152517833Y-87006927D01*
X152346927Y-87177833D01*
X152212647Y-87378798D01*
X152120153Y-87602097D01*
X152073000Y-87839151D01*
X149447000Y-87839151D01*
X149399847Y-87602097D01*
X149395335Y-87591204D01*
X149537405Y-87591204D01*
X149601515Y-87787000D01*
X150587000Y-87787000D01*
X150587000Y-86802608D01*
X150933000Y-86802608D01*
X150933000Y-87787000D01*
X151918485Y-87787000D01*
X151982595Y-87591204D01*
X151887155Y-87359774D01*
X151748399Y-87151410D01*
X151571659Y-86974120D01*
X151363728Y-86834717D01*
X151132596Y-86738558D01*
X151128795Y-86737413D01*
X150933000Y-86802608D01*
X150587000Y-86802608D01*
X150391205Y-86737413D01*
X150387404Y-86738558D01*
X150156272Y-86834717D01*
X149948341Y-86974120D01*
X149771601Y-87151410D01*
X149632845Y-87359774D01*
X149537405Y-87591204D01*
X149395335Y-87591204D01*
X149307353Y-87378798D01*
X149173073Y-87177833D01*
X149002167Y-87006927D01*
X148801202Y-86872647D01*
X148577903Y-86780153D01*
X148340849Y-86733000D01*
X148099151Y-86733000D01*
X147862097Y-86780153D01*
X147638798Y-86872647D01*
X147437833Y-87006927D01*
X147266927Y-87177833D01*
X147132647Y-87378798D01*
X147040153Y-87602097D01*
X146993000Y-87839151D01*
X146907000Y-87839151D01*
X146859847Y-87602097D01*
X146767353Y-87378798D01*
X146633073Y-87177833D01*
X146462167Y-87006927D01*
X146261202Y-86872647D01*
X146037903Y-86780153D01*
X145800849Y-86733000D01*
X145559151Y-86733000D01*
X145322097Y-86780153D01*
X145098798Y-86872647D01*
X144897833Y-87006927D01*
X144726927Y-87177833D01*
X144592647Y-87378798D01*
X144500153Y-87602097D01*
X144453000Y-87839151D01*
X144367000Y-87839151D01*
X144319847Y-87602097D01*
X144227353Y-87378798D01*
X144093073Y-87177833D01*
X144017528Y-87102288D01*
X144017000Y-87096930D01*
X144017000Y-87096921D01*
X144004310Y-86968078D01*
X143954162Y-86802763D01*
X143872727Y-86650408D01*
X143763133Y-86516867D01*
X143729669Y-86489404D01*
X142150597Y-84910332D01*
X142123133Y-84876867D01*
X141989592Y-84767273D01*
X141837237Y-84685838D01*
X141671922Y-84635690D01*
X141543079Y-84623000D01*
X141500000Y-84618757D01*
X141456921Y-84623000D01*
X124223069Y-84623000D01*
X124179999Y-84618758D01*
X124136930Y-84623000D01*
X124136921Y-84623000D01*
X124008078Y-84635690D01*
X123842763Y-84685838D01*
X123690408Y-84767273D01*
X123556867Y-84876867D01*
X123529403Y-84910332D01*
X122230327Y-86209408D01*
X122196868Y-86236867D01*
X122169409Y-86270326D01*
X122169406Y-86270329D01*
X122087274Y-86370408D01*
X122005838Y-86522764D01*
X121955690Y-86688078D01*
X121938757Y-86860000D01*
X121943001Y-86903089D01*
X121943001Y-87101759D01*
X121866927Y-87177833D01*
X121732647Y-87378798D01*
X121640153Y-87602097D01*
X121593000Y-87839151D01*
X121593000Y-88080849D01*
X121640153Y-88317903D01*
X121732647Y-88541202D01*
X121866927Y-88742167D01*
X121873001Y-88748241D01*
X121873001Y-89711759D01*
X121866927Y-89717833D01*
X121732647Y-89918798D01*
X121640153Y-90142097D01*
X121593000Y-90379151D01*
X121593000Y-90620849D01*
X121640153Y-90857903D01*
X121732647Y-91081202D01*
X121866927Y-91282167D01*
X121873001Y-91288241D01*
X121873000Y-121903000D01*
X120752000Y-121903000D01*
X120752000Y-91632586D01*
X120861202Y-91587353D01*
X121062167Y-91453073D01*
X121233073Y-91282167D01*
X121367353Y-91081202D01*
X121459847Y-90857903D01*
X121507000Y-90620849D01*
X121507000Y-90379151D01*
X121459847Y-90142097D01*
X121367353Y-89918798D01*
X121233073Y-89717833D01*
X121062167Y-89546927D01*
X120861202Y-89412647D01*
X120637903Y-89320153D01*
X120400849Y-89273000D01*
X120159151Y-89273000D01*
X119922097Y-89320153D01*
X119698798Y-89412647D01*
X119497833Y-89546927D01*
X119326927Y-89717833D01*
X119192647Y-89918798D01*
X119100153Y-90142097D01*
X119053000Y-90379151D01*
X119053000Y-90620849D01*
X119100153Y-90857903D01*
X119192647Y-91081202D01*
X119326927Y-91282167D01*
X119497833Y-91453073D01*
X119698798Y-91587353D01*
X119748001Y-91607734D01*
X119748000Y-121903000D01*
X118252000Y-121903000D01*
X118252000Y-91616018D01*
X118321202Y-91587353D01*
X118522167Y-91453073D01*
X118693073Y-91282167D01*
X118827353Y-91081202D01*
X118919847Y-90857903D01*
X118967000Y-90620849D01*
X118967000Y-90379151D01*
X118919847Y-90142097D01*
X118827353Y-89918798D01*
X118693073Y-89717833D01*
X118522167Y-89546927D01*
X118321202Y-89412647D01*
X118097903Y-89320153D01*
X117860849Y-89273000D01*
X117619151Y-89273000D01*
X117382097Y-89320153D01*
X117158798Y-89412647D01*
X116957833Y-89546927D01*
X116786927Y-89717833D01*
X116652647Y-89918798D01*
X116560153Y-90142097D01*
X116513000Y-90379151D01*
X116513000Y-90620849D01*
X116560153Y-90857903D01*
X116652647Y-91081202D01*
X116786927Y-91282167D01*
X116957833Y-91453073D01*
X117158798Y-91587353D01*
X117248001Y-91624302D01*
X117248000Y-121903000D01*
X115752000Y-121903000D01*
X115752000Y-91599449D01*
X115781202Y-91587353D01*
X115982167Y-91453073D01*
X116153073Y-91282167D01*
X116287353Y-91081202D01*
X116379847Y-90857903D01*
X116427000Y-90620849D01*
X116427000Y-90379151D01*
X116379847Y-90142097D01*
X116287353Y-89918798D01*
X116153073Y-89717833D01*
X115982167Y-89546927D01*
X115781202Y-89412647D01*
X115557903Y-89320153D01*
X115320849Y-89273000D01*
X115079151Y-89273000D01*
X114842097Y-89320153D01*
X114618798Y-89412647D01*
X114417833Y-89546927D01*
X114246927Y-89717833D01*
X114112647Y-89918798D01*
X114020153Y-90142097D01*
X113973000Y-90379151D01*
X113973000Y-90620849D01*
X114020153Y-90857903D01*
X114112647Y-91081202D01*
X114246927Y-91282167D01*
X114417833Y-91453073D01*
X114618798Y-91587353D01*
X114748001Y-91640871D01*
X114748000Y-121903000D01*
X113252000Y-121903000D01*
X113252000Y-91580138D01*
X113442167Y-91453073D01*
X113613073Y-91282167D01*
X113747353Y-91081202D01*
X113839847Y-90857903D01*
X113887000Y-90620849D01*
X113887000Y-90379151D01*
X113839847Y-90142097D01*
X113747353Y-89918798D01*
X113613073Y-89717833D01*
X113442167Y-89546927D01*
X113241202Y-89412647D01*
X113017903Y-89320153D01*
X112780849Y-89273000D01*
X112539151Y-89273000D01*
X112302097Y-89320153D01*
X112078798Y-89412647D01*
X111877833Y-89546927D01*
X111706927Y-89717833D01*
X111572647Y-89918798D01*
X111480153Y-90142097D01*
X111433000Y-90379151D01*
X111433000Y-90620849D01*
X111480153Y-90857903D01*
X111572647Y-91081202D01*
X111706927Y-91282167D01*
X111877833Y-91453073D01*
X112078798Y-91587353D01*
X112248001Y-91657440D01*
X112248000Y-121903000D01*
X105752000Y-121903000D01*
X105752000Y-91499957D01*
X105822167Y-91453073D01*
X105993073Y-91282167D01*
X106127353Y-91081202D01*
X106215334Y-90868796D01*
X106357405Y-90868796D01*
X106452845Y-91100226D01*
X106591601Y-91308590D01*
X106768341Y-91485880D01*
X106976272Y-91625283D01*
X107207404Y-91721442D01*
X107211205Y-91722587D01*
X107407000Y-91657392D01*
X107407000Y-90673000D01*
X107753000Y-90673000D01*
X107753000Y-91657392D01*
X107948795Y-91722587D01*
X107952596Y-91721442D01*
X108183728Y-91625283D01*
X108391659Y-91485880D01*
X108568399Y-91308590D01*
X108707155Y-91100226D01*
X108802595Y-90868796D01*
X108897405Y-90868796D01*
X108992845Y-91100226D01*
X109131601Y-91308590D01*
X109308341Y-91485880D01*
X109516272Y-91625283D01*
X109747404Y-91721442D01*
X109751205Y-91722587D01*
X109947000Y-91657392D01*
X109947000Y-90673000D01*
X110293000Y-90673000D01*
X110293000Y-91657392D01*
X110488795Y-91722587D01*
X110492596Y-91721442D01*
X110723728Y-91625283D01*
X110931659Y-91485880D01*
X111108399Y-91308590D01*
X111247155Y-91100226D01*
X111342595Y-90868796D01*
X111278485Y-90673000D01*
X110293000Y-90673000D01*
X109947000Y-90673000D01*
X108961515Y-90673000D01*
X108897405Y-90868796D01*
X108802595Y-90868796D01*
X108738485Y-90673000D01*
X107753000Y-90673000D01*
X107407000Y-90673000D01*
X106421515Y-90673000D01*
X106357405Y-90868796D01*
X106215334Y-90868796D01*
X106219847Y-90857903D01*
X106267000Y-90620849D01*
X106267000Y-90379151D01*
X106219847Y-90142097D01*
X106215335Y-90131204D01*
X106357405Y-90131204D01*
X106421515Y-90327000D01*
X107407000Y-90327000D01*
X107407000Y-89342608D01*
X107753000Y-89342608D01*
X107753000Y-90327000D01*
X108738485Y-90327000D01*
X108802595Y-90131204D01*
X108897405Y-90131204D01*
X108961515Y-90327000D01*
X109947000Y-90327000D01*
X109947000Y-89342608D01*
X110293000Y-89342608D01*
X110293000Y-90327000D01*
X111278485Y-90327000D01*
X111342595Y-90131204D01*
X111247155Y-89899774D01*
X111108399Y-89691410D01*
X110931659Y-89514120D01*
X110723728Y-89374717D01*
X110492596Y-89278558D01*
X110488795Y-89277413D01*
X110293000Y-89342608D01*
X109947000Y-89342608D01*
X109751205Y-89277413D01*
X109747404Y-89278558D01*
X109516272Y-89374717D01*
X109308341Y-89514120D01*
X109131601Y-89691410D01*
X108992845Y-89899774D01*
X108897405Y-90131204D01*
X108802595Y-90131204D01*
X108707155Y-89899774D01*
X108568399Y-89691410D01*
X108391659Y-89514120D01*
X108183728Y-89374717D01*
X107952596Y-89278558D01*
X107948795Y-89277413D01*
X107753000Y-89342608D01*
X107407000Y-89342608D01*
X107211205Y-89277413D01*
X107207404Y-89278558D01*
X106976272Y-89374717D01*
X106768341Y-89514120D01*
X106591601Y-89691410D01*
X106452845Y-89899774D01*
X106357405Y-90131204D01*
X106215335Y-90131204D01*
X106127353Y-89918798D01*
X105993073Y-89717833D01*
X105822167Y-89546927D01*
X105621202Y-89412647D01*
X105397903Y-89320153D01*
X105160849Y-89273000D01*
X104919151Y-89273000D01*
X104682097Y-89320153D01*
X104458798Y-89412647D01*
X104257833Y-89546927D01*
X104086927Y-89717833D01*
X103952647Y-89918798D01*
X103860153Y-90142097D01*
X103813000Y-90379151D01*
X103813000Y-90620849D01*
X103860153Y-90857903D01*
X103952647Y-91081202D01*
X104086927Y-91282167D01*
X104257833Y-91453073D01*
X104458798Y-91587353D01*
X104682097Y-91679847D01*
X104748001Y-91692956D01*
X104748000Y-121903000D01*
X100877000Y-121903000D01*
X100877000Y-119518519D01*
X100878824Y-119500000D01*
X100871545Y-119426095D01*
X100849988Y-119355030D01*
X100814981Y-119289537D01*
X100767869Y-119232131D01*
X100710463Y-119185019D01*
X100644970Y-119150012D01*
X100573905Y-119128455D01*
X100518519Y-119123000D01*
X100500000Y-119121176D01*
X100481481Y-119123000D01*
X89018519Y-119123000D01*
X89000000Y-119121176D01*
X88981481Y-119123000D01*
X88926095Y-119128455D01*
X88855030Y-119150012D01*
X88789537Y-119185019D01*
X88732131Y-119232131D01*
X88685019Y-119289537D01*
X88650012Y-119355030D01*
X88628455Y-119426095D01*
X88621176Y-119500000D01*
X88623000Y-119518519D01*
X88623001Y-125623000D01*
X82877000Y-125623000D01*
X82877000Y-97877000D01*
X83481481Y-97877000D01*
X83500000Y-97878824D01*
X83518519Y-97877000D01*
X83573905Y-97871545D01*
X83644970Y-97849988D01*
X83710463Y-97814981D01*
X83767869Y-97767869D01*
X83814981Y-97710463D01*
X83849988Y-97644970D01*
X83871545Y-97573905D01*
X83878824Y-97500000D01*
X83877000Y-97481481D01*
X83877000Y-94877000D01*
X85981481Y-94877000D01*
X86000000Y-94878824D01*
X86018519Y-94877000D01*
X86073905Y-94871545D01*
X86144970Y-94849988D01*
X86210463Y-94814981D01*
X86267869Y-94767869D01*
X86314981Y-94710463D01*
X86349988Y-94644970D01*
X86371545Y-94573905D01*
X86378824Y-94500000D01*
X86377000Y-94481481D01*
X86377000Y-93018518D01*
X86378824Y-93000000D01*
X86371545Y-92926095D01*
X86349988Y-92855030D01*
X86314981Y-92789537D01*
X86267869Y-92732131D01*
X86210463Y-92685019D01*
X86144970Y-92650012D01*
X86073905Y-92628455D01*
X86018519Y-92623000D01*
X86000000Y-92621176D01*
X85981481Y-92623000D01*
X82877000Y-92623000D01*
X82877000Y-91350000D01*
X101220934Y-91350000D01*
X101229178Y-91433707D01*
X101253595Y-91514196D01*
X101293245Y-91588376D01*
X101346605Y-91653395D01*
X101411624Y-91706755D01*
X101485804Y-91746405D01*
X101566293Y-91770822D01*
X101650000Y-91779066D01*
X102220250Y-91777000D01*
X102327000Y-91670250D01*
X102327000Y-90673000D01*
X102673000Y-90673000D01*
X102673000Y-91670250D01*
X102779750Y-91777000D01*
X103350000Y-91779066D01*
X103433707Y-91770822D01*
X103514196Y-91746405D01*
X103588376Y-91706755D01*
X103653395Y-91653395D01*
X103706755Y-91588376D01*
X103746405Y-91514196D01*
X103770822Y-91433707D01*
X103779066Y-91350000D01*
X103777000Y-90779750D01*
X103670250Y-90673000D01*
X102673000Y-90673000D01*
X102327000Y-90673000D01*
X101329750Y-90673000D01*
X101223000Y-90779750D01*
X101220934Y-91350000D01*
X82877000Y-91350000D01*
X82877000Y-89650000D01*
X101220934Y-89650000D01*
X101223000Y-90220250D01*
X101329750Y-90327000D01*
X102327000Y-90327000D01*
X102327000Y-89329750D01*
X102673000Y-89329750D01*
X102673000Y-90327000D01*
X103670250Y-90327000D01*
X103777000Y-90220250D01*
X103779066Y-89650000D01*
X103770822Y-89566293D01*
X103746405Y-89485804D01*
X103706755Y-89411624D01*
X103653395Y-89346605D01*
X103588376Y-89293245D01*
X103514196Y-89253595D01*
X103433707Y-89229178D01*
X103350000Y-89220934D01*
X102779750Y-89223000D01*
X102673000Y-89329750D01*
X102327000Y-89329750D01*
X102220250Y-89223000D01*
X101650000Y-89220934D01*
X101566293Y-89229178D01*
X101485804Y-89253595D01*
X101411624Y-89293245D01*
X101346605Y-89346605D01*
X101293245Y-89411624D01*
X101253595Y-89485804D01*
X101229178Y-89566293D01*
X101220934Y-89650000D01*
X82877000Y-89650000D01*
X82877000Y-88328796D01*
X101277405Y-88328796D01*
X101372845Y-88560226D01*
X101511601Y-88768590D01*
X101688341Y-88945880D01*
X101896272Y-89085283D01*
X102127404Y-89181442D01*
X102131205Y-89182587D01*
X102327000Y-89117392D01*
X102327000Y-88133000D01*
X102673000Y-88133000D01*
X102673000Y-89117392D01*
X102868795Y-89182587D01*
X102872596Y-89181442D01*
X103103728Y-89085283D01*
X103311659Y-88945880D01*
X103488399Y-88768590D01*
X103627155Y-88560226D01*
X103722595Y-88328796D01*
X103658485Y-88133000D01*
X102673000Y-88133000D01*
X102327000Y-88133000D01*
X101341515Y-88133000D01*
X101277405Y-88328796D01*
X82877000Y-88328796D01*
X82877000Y-87839151D01*
X103813000Y-87839151D01*
X103813000Y-88080849D01*
X103860153Y-88317903D01*
X103952647Y-88541202D01*
X104086927Y-88742167D01*
X104257833Y-88913073D01*
X104458798Y-89047353D01*
X104682097Y-89139847D01*
X104919151Y-89187000D01*
X105160849Y-89187000D01*
X105397903Y-89139847D01*
X105621202Y-89047353D01*
X105822167Y-88913073D01*
X105993073Y-88742167D01*
X106127353Y-88541202D01*
X106215334Y-88328796D01*
X106357405Y-88328796D01*
X106452845Y-88560226D01*
X106591601Y-88768590D01*
X106768341Y-88945880D01*
X106976272Y-89085283D01*
X107207404Y-89181442D01*
X107211205Y-89182587D01*
X107407000Y-89117392D01*
X107407000Y-88133000D01*
X107753000Y-88133000D01*
X107753000Y-89117392D01*
X107948795Y-89182587D01*
X107952596Y-89181442D01*
X108183728Y-89085283D01*
X108391659Y-88945880D01*
X108568399Y-88768590D01*
X108707155Y-88560226D01*
X108802595Y-88328796D01*
X108897405Y-88328796D01*
X108992845Y-88560226D01*
X109131601Y-88768590D01*
X109308341Y-88945880D01*
X109516272Y-89085283D01*
X109747404Y-89181442D01*
X109751205Y-89182587D01*
X109947000Y-89117392D01*
X109947000Y-88133000D01*
X110293000Y-88133000D01*
X110293000Y-89117392D01*
X110488795Y-89182587D01*
X110492596Y-89181442D01*
X110723728Y-89085283D01*
X110931659Y-88945880D01*
X111108399Y-88768590D01*
X111247155Y-88560226D01*
X111342595Y-88328796D01*
X111278485Y-88133000D01*
X110293000Y-88133000D01*
X109947000Y-88133000D01*
X108961515Y-88133000D01*
X108897405Y-88328796D01*
X108802595Y-88328796D01*
X108738485Y-88133000D01*
X107753000Y-88133000D01*
X107407000Y-88133000D01*
X106421515Y-88133000D01*
X106357405Y-88328796D01*
X106215334Y-88328796D01*
X106219847Y-88317903D01*
X106267000Y-88080849D01*
X106267000Y-87839151D01*
X111433000Y-87839151D01*
X111433000Y-88080849D01*
X111480153Y-88317903D01*
X111572647Y-88541202D01*
X111706927Y-88742167D01*
X111877833Y-88913073D01*
X112078798Y-89047353D01*
X112302097Y-89139847D01*
X112539151Y-89187000D01*
X112780849Y-89187000D01*
X113017903Y-89139847D01*
X113241202Y-89047353D01*
X113442167Y-88913073D01*
X113613073Y-88742167D01*
X113747353Y-88541202D01*
X113839847Y-88317903D01*
X113887000Y-88080849D01*
X113887000Y-87839151D01*
X113973000Y-87839151D01*
X113973000Y-88080849D01*
X114020153Y-88317903D01*
X114112647Y-88541202D01*
X114246927Y-88742167D01*
X114417833Y-88913073D01*
X114618798Y-89047353D01*
X114842097Y-89139847D01*
X115079151Y-89187000D01*
X115320849Y-89187000D01*
X115557903Y-89139847D01*
X115781202Y-89047353D01*
X115982167Y-88913073D01*
X116153073Y-88742167D01*
X116287353Y-88541202D01*
X116379847Y-88317903D01*
X116427000Y-88080849D01*
X116427000Y-87839151D01*
X116513000Y-87839151D01*
X116513000Y-88080849D01*
X116560153Y-88317903D01*
X116652647Y-88541202D01*
X116786927Y-88742167D01*
X116957833Y-88913073D01*
X117158798Y-89047353D01*
X117382097Y-89139847D01*
X117619151Y-89187000D01*
X117860849Y-89187000D01*
X118097903Y-89139847D01*
X118321202Y-89047353D01*
X118522167Y-88913073D01*
X118693073Y-88742167D01*
X118827353Y-88541202D01*
X118919847Y-88317903D01*
X118967000Y-88080849D01*
X118967000Y-87839151D01*
X119053000Y-87839151D01*
X119053000Y-88080849D01*
X119100153Y-88317903D01*
X119192647Y-88541202D01*
X119326927Y-88742167D01*
X119497833Y-88913073D01*
X119698798Y-89047353D01*
X119922097Y-89139847D01*
X120159151Y-89187000D01*
X120400849Y-89187000D01*
X120637903Y-89139847D01*
X120861202Y-89047353D01*
X121062167Y-88913073D01*
X121233073Y-88742167D01*
X121367353Y-88541202D01*
X121459847Y-88317903D01*
X121507000Y-88080849D01*
X121507000Y-87839151D01*
X121459847Y-87602097D01*
X121367353Y-87378798D01*
X121233073Y-87177833D01*
X121062167Y-87006927D01*
X120861202Y-86872647D01*
X120637903Y-86780153D01*
X120400849Y-86733000D01*
X120159151Y-86733000D01*
X119922097Y-86780153D01*
X119698798Y-86872647D01*
X119497833Y-87006927D01*
X119326927Y-87177833D01*
X119192647Y-87378798D01*
X119100153Y-87602097D01*
X119053000Y-87839151D01*
X118967000Y-87839151D01*
X118919847Y-87602097D01*
X118827353Y-87378798D01*
X118693073Y-87177833D01*
X118522167Y-87006927D01*
X118321202Y-86872647D01*
X118097903Y-86780153D01*
X117860849Y-86733000D01*
X117619151Y-86733000D01*
X117382097Y-86780153D01*
X117158798Y-86872647D01*
X116957833Y-87006927D01*
X116786927Y-87177833D01*
X116652647Y-87378798D01*
X116560153Y-87602097D01*
X116513000Y-87839151D01*
X116427000Y-87839151D01*
X116379847Y-87602097D01*
X116287353Y-87378798D01*
X116153073Y-87177833D01*
X115982167Y-87006927D01*
X115781202Y-86872647D01*
X115557903Y-86780153D01*
X115320849Y-86733000D01*
X115079151Y-86733000D01*
X114842097Y-86780153D01*
X114618798Y-86872647D01*
X114417833Y-87006927D01*
X114246927Y-87177833D01*
X114112647Y-87378798D01*
X114020153Y-87602097D01*
X113973000Y-87839151D01*
X113887000Y-87839151D01*
X113839847Y-87602097D01*
X113747353Y-87378798D01*
X113613073Y-87177833D01*
X113442167Y-87006927D01*
X113241202Y-86872647D01*
X113017903Y-86780153D01*
X112780849Y-86733000D01*
X112539151Y-86733000D01*
X112302097Y-86780153D01*
X112078798Y-86872647D01*
X111877833Y-87006927D01*
X111706927Y-87177833D01*
X111572647Y-87378798D01*
X111480153Y-87602097D01*
X111433000Y-87839151D01*
X106267000Y-87839151D01*
X106219847Y-87602097D01*
X106215335Y-87591204D01*
X106357405Y-87591204D01*
X106421515Y-87787000D01*
X107407000Y-87787000D01*
X107407000Y-86802608D01*
X107753000Y-86802608D01*
X107753000Y-87787000D01*
X108738485Y-87787000D01*
X108802595Y-87591204D01*
X108897405Y-87591204D01*
X108961515Y-87787000D01*
X109947000Y-87787000D01*
X109947000Y-86802608D01*
X110293000Y-86802608D01*
X110293000Y-87787000D01*
X111278485Y-87787000D01*
X111342595Y-87591204D01*
X111247155Y-87359774D01*
X111108399Y-87151410D01*
X110931659Y-86974120D01*
X110723728Y-86834717D01*
X110492596Y-86738558D01*
X110488795Y-86737413D01*
X110293000Y-86802608D01*
X109947000Y-86802608D01*
X109751205Y-86737413D01*
X109747404Y-86738558D01*
X109516272Y-86834717D01*
X109308341Y-86974120D01*
X109131601Y-87151410D01*
X108992845Y-87359774D01*
X108897405Y-87591204D01*
X108802595Y-87591204D01*
X108707155Y-87359774D01*
X108568399Y-87151410D01*
X108391659Y-86974120D01*
X108183728Y-86834717D01*
X107952596Y-86738558D01*
X107948795Y-86737413D01*
X107753000Y-86802608D01*
X107407000Y-86802608D01*
X107211205Y-86737413D01*
X107207404Y-86738558D01*
X106976272Y-86834717D01*
X106768341Y-86974120D01*
X106591601Y-87151410D01*
X106452845Y-87359774D01*
X106357405Y-87591204D01*
X106215335Y-87591204D01*
X106127353Y-87378798D01*
X105993073Y-87177833D01*
X105822167Y-87006927D01*
X105621202Y-86872647D01*
X105397903Y-86780153D01*
X105160849Y-86733000D01*
X104919151Y-86733000D01*
X104682097Y-86780153D01*
X104458798Y-86872647D01*
X104257833Y-87006927D01*
X104086927Y-87177833D01*
X103952647Y-87378798D01*
X103860153Y-87602097D01*
X103813000Y-87839151D01*
X82877000Y-87839151D01*
X82877000Y-87591204D01*
X101277405Y-87591204D01*
X101341515Y-87787000D01*
X102327000Y-87787000D01*
X102327000Y-86802608D01*
X102673000Y-86802608D01*
X102673000Y-87787000D01*
X103658485Y-87787000D01*
X103722595Y-87591204D01*
X103627155Y-87359774D01*
X103488399Y-87151410D01*
X103311659Y-86974120D01*
X103103728Y-86834717D01*
X102872596Y-86738558D01*
X102868795Y-86737413D01*
X102673000Y-86802608D01*
X102327000Y-86802608D01*
X102131205Y-86737413D01*
X102127404Y-86738558D01*
X101896272Y-86834717D01*
X101688341Y-86974120D01*
X101511601Y-87151410D01*
X101372845Y-87359774D01*
X101277405Y-87591204D01*
X82877000Y-87591204D01*
X82877000Y-72877000D01*
X83281481Y-72877000D01*
X83300000Y-72878824D01*
X83318519Y-72877000D01*
X83373905Y-72871545D01*
X83444970Y-72849988D01*
X83510463Y-72814981D01*
X83567869Y-72767869D01*
X83614981Y-72710463D01*
X83649988Y-72644970D01*
X83671545Y-72573905D01*
X83678824Y-72500000D01*
X83677000Y-72481481D01*
X83677000Y-70377000D01*
X181623000Y-70377000D01*
X181623001Y-91123000D01*
G04 #@! TA.AperFunction,Conductor*
D18*
G36*
X181623001Y-91123000D02*
G01*
X179418519Y-91123000D01*
X179400000Y-91121176D01*
X179374239Y-91123713D01*
X179326095Y-91128455D01*
X179255030Y-91150012D01*
X179189537Y-91185019D01*
X179132131Y-91232131D01*
X179085019Y-91289537D01*
X179050012Y-91355030D01*
X179028455Y-91426095D01*
X179021176Y-91500000D01*
X179023001Y-91518529D01*
X179023000Y-92981480D01*
X179021176Y-93000000D01*
X179028455Y-93073905D01*
X179050012Y-93144970D01*
X179085019Y-93210463D01*
X179132131Y-93267869D01*
X179189537Y-93314981D01*
X179255030Y-93349988D01*
X179326095Y-93371545D01*
X179400000Y-93378824D01*
X179418519Y-93377000D01*
X181623000Y-93377000D01*
X181623001Y-98981471D01*
X181621176Y-99000000D01*
X181628455Y-99073905D01*
X181650012Y-99144970D01*
X181685019Y-99210463D01*
X181732131Y-99267869D01*
X181789537Y-99314981D01*
X181855030Y-99349988D01*
X181926095Y-99371545D01*
X181981481Y-99377000D01*
X182000000Y-99378824D01*
X182018519Y-99377000D01*
X182123001Y-99377000D01*
X182123000Y-125623000D01*
X176877000Y-125623000D01*
X176877000Y-119518519D01*
X176878824Y-119500000D01*
X176871545Y-119426095D01*
X176849988Y-119355030D01*
X176814981Y-119289537D01*
X176767869Y-119232131D01*
X176710463Y-119185019D01*
X176644970Y-119150012D01*
X176573905Y-119128455D01*
X176518519Y-119123000D01*
X176500000Y-119121176D01*
X176481481Y-119123000D01*
X165018519Y-119123000D01*
X165000000Y-119121176D01*
X164981481Y-119123000D01*
X164926095Y-119128455D01*
X164855030Y-119150012D01*
X164789537Y-119185019D01*
X164732131Y-119232131D01*
X164685019Y-119289537D01*
X164650012Y-119355030D01*
X164628455Y-119426095D01*
X164621176Y-119500000D01*
X164623001Y-119518530D01*
X164623001Y-121903000D01*
X158252000Y-121903000D01*
X158252000Y-91725578D01*
X158259151Y-91727000D01*
X158500849Y-91727000D01*
X158737903Y-91679847D01*
X158961202Y-91587353D01*
X159162167Y-91453073D01*
X159333073Y-91282167D01*
X159467353Y-91081202D01*
X159555334Y-90868796D01*
X159697405Y-90868796D01*
X159792845Y-91100226D01*
X159931601Y-91308590D01*
X160108341Y-91485880D01*
X160316272Y-91625283D01*
X160547404Y-91721442D01*
X160551205Y-91722587D01*
X160747000Y-91657392D01*
X160747000Y-90673000D01*
X161093000Y-90673000D01*
X161093000Y-91657392D01*
X161288795Y-91722587D01*
X161292596Y-91721442D01*
X161523728Y-91625283D01*
X161731659Y-91485880D01*
X161908399Y-91308590D01*
X162047155Y-91100226D01*
X162142595Y-90868796D01*
X162237405Y-90868796D01*
X162332845Y-91100226D01*
X162471601Y-91308590D01*
X162648341Y-91485880D01*
X162856272Y-91625283D01*
X163087404Y-91721442D01*
X163091205Y-91722587D01*
X163287000Y-91657392D01*
X163287000Y-90673000D01*
X163633000Y-90673000D01*
X163633000Y-91657392D01*
X163828795Y-91722587D01*
X163832596Y-91721442D01*
X164063728Y-91625283D01*
X164271659Y-91485880D01*
X164448399Y-91308590D01*
X164587155Y-91100226D01*
X164682595Y-90868796D01*
X164618485Y-90673000D01*
X163633000Y-90673000D01*
X163287000Y-90673000D01*
X162301515Y-90673000D01*
X162237405Y-90868796D01*
X162142595Y-90868796D01*
X162078485Y-90673000D01*
X161093000Y-90673000D01*
X160747000Y-90673000D01*
X159761515Y-90673000D01*
X159697405Y-90868796D01*
X159555334Y-90868796D01*
X159559847Y-90857903D01*
X159607000Y-90620849D01*
X159607000Y-90379151D01*
X159559847Y-90142097D01*
X159555335Y-90131204D01*
X159697405Y-90131204D01*
X159761515Y-90327000D01*
X160747000Y-90327000D01*
X160747000Y-89342608D01*
X161093000Y-89342608D01*
X161093000Y-90327000D01*
X162078485Y-90327000D01*
X162142595Y-90131204D01*
X162237405Y-90131204D01*
X162301515Y-90327000D01*
X163287000Y-90327000D01*
X163287000Y-89342608D01*
X163633000Y-89342608D01*
X163633000Y-90327000D01*
X164618485Y-90327000D01*
X164682595Y-90131204D01*
X164587155Y-89899774D01*
X164448399Y-89691410D01*
X164271659Y-89514120D01*
X164063728Y-89374717D01*
X163832596Y-89278558D01*
X163828795Y-89277413D01*
X163633000Y-89342608D01*
X163287000Y-89342608D01*
X163091205Y-89277413D01*
X163087404Y-89278558D01*
X162856272Y-89374717D01*
X162648341Y-89514120D01*
X162471601Y-89691410D01*
X162332845Y-89899774D01*
X162237405Y-90131204D01*
X162142595Y-90131204D01*
X162047155Y-89899774D01*
X161908399Y-89691410D01*
X161731659Y-89514120D01*
X161523728Y-89374717D01*
X161292596Y-89278558D01*
X161288795Y-89277413D01*
X161093000Y-89342608D01*
X160747000Y-89342608D01*
X160551205Y-89277413D01*
X160547404Y-89278558D01*
X160316272Y-89374717D01*
X160108341Y-89514120D01*
X159931601Y-89691410D01*
X159792845Y-89899774D01*
X159697405Y-90131204D01*
X159555335Y-90131204D01*
X159467353Y-89918798D01*
X159333073Y-89717833D01*
X159162167Y-89546927D01*
X158961202Y-89412647D01*
X158737903Y-89320153D01*
X158500849Y-89273000D01*
X158259151Y-89273000D01*
X158022097Y-89320153D01*
X157798798Y-89412647D01*
X157597833Y-89546927D01*
X157426927Y-89717833D01*
X157292647Y-89918798D01*
X157200153Y-90142097D01*
X157153000Y-90379151D01*
X157153000Y-90620849D01*
X157200153Y-90857903D01*
X157262380Y-91008132D01*
X157255264Y-91031592D01*
X157248000Y-91105348D01*
X157248000Y-91105357D01*
X157245573Y-91130000D01*
X157248000Y-91154643D01*
X157248001Y-113605347D01*
X157248000Y-121903000D01*
X155752000Y-121903000D01*
X155752000Y-91727000D01*
X155960849Y-91727000D01*
X156197903Y-91679847D01*
X156421202Y-91587353D01*
X156622167Y-91453073D01*
X156793073Y-91282167D01*
X156927353Y-91081202D01*
X157019847Y-90857903D01*
X157067000Y-90620849D01*
X157067000Y-90379151D01*
X157019847Y-90142097D01*
X156927353Y-89918798D01*
X156793073Y-89717833D01*
X156622167Y-89546927D01*
X156421202Y-89412647D01*
X156197903Y-89320153D01*
X155960849Y-89273000D01*
X155719151Y-89273000D01*
X155482097Y-89320153D01*
X155258798Y-89412647D01*
X155057833Y-89546927D01*
X154886927Y-89717833D01*
X154752647Y-89918798D01*
X154660153Y-90142097D01*
X154613000Y-90379151D01*
X154613000Y-90620849D01*
X154660153Y-90857903D01*
X154747632Y-91069095D01*
X154745573Y-91090000D01*
X154748001Y-91114653D01*
X154748000Y-121903000D01*
X153252000Y-121903000D01*
X153252000Y-91727000D01*
X153420849Y-91727000D01*
X153657903Y-91679847D01*
X153881202Y-91587353D01*
X154082167Y-91453073D01*
X154253073Y-91282167D01*
X154387353Y-91081202D01*
X154479847Y-90857903D01*
X154527000Y-90620849D01*
X154527000Y-90379151D01*
X154479847Y-90142097D01*
X154387353Y-89918798D01*
X154253073Y-89717833D01*
X154082167Y-89546927D01*
X153881202Y-89412647D01*
X153657903Y-89320153D01*
X153420849Y-89273000D01*
X153179151Y-89273000D01*
X152942097Y-89320153D01*
X152718798Y-89412647D01*
X152517833Y-89546927D01*
X152346927Y-89717833D01*
X152212647Y-89918798D01*
X152120153Y-90142097D01*
X152073000Y-90379151D01*
X152073000Y-90620849D01*
X152120153Y-90857903D01*
X152212647Y-91081202D01*
X152248001Y-91134113D01*
X152248000Y-121903000D01*
X148252000Y-121903000D01*
X148252000Y-91727000D01*
X148340849Y-91727000D01*
X148577903Y-91679847D01*
X148801202Y-91587353D01*
X149002167Y-91453073D01*
X149173073Y-91282167D01*
X149307353Y-91081202D01*
X149395334Y-90868796D01*
X149537405Y-90868796D01*
X149632845Y-91100226D01*
X149771601Y-91308590D01*
X149948341Y-91485880D01*
X150156272Y-91625283D01*
X150387404Y-91721442D01*
X150391205Y-91722587D01*
X150587000Y-91657392D01*
X150587000Y-90673000D01*
X150933000Y-90673000D01*
X150933000Y-91657392D01*
X151128795Y-91722587D01*
X151132596Y-91721442D01*
X151363728Y-91625283D01*
X151571659Y-91485880D01*
X151748399Y-91308590D01*
X151887155Y-91100226D01*
X151982595Y-90868796D01*
X151918485Y-90673000D01*
X150933000Y-90673000D01*
X150587000Y-90673000D01*
X149601515Y-90673000D01*
X149537405Y-90868796D01*
X149395334Y-90868796D01*
X149399847Y-90857903D01*
X149447000Y-90620849D01*
X149447000Y-90379151D01*
X149399847Y-90142097D01*
X149395335Y-90131204D01*
X149537405Y-90131204D01*
X149601515Y-90327000D01*
X150587000Y-90327000D01*
X150587000Y-89342608D01*
X150933000Y-89342608D01*
X150933000Y-90327000D01*
X151918485Y-90327000D01*
X151982595Y-90131204D01*
X151887155Y-89899774D01*
X151748399Y-89691410D01*
X151571659Y-89514120D01*
X151363728Y-89374717D01*
X151132596Y-89278558D01*
X151128795Y-89277413D01*
X150933000Y-89342608D01*
X150587000Y-89342608D01*
X150391205Y-89277413D01*
X150387404Y-89278558D01*
X150156272Y-89374717D01*
X149948341Y-89514120D01*
X149771601Y-89691410D01*
X149632845Y-89899774D01*
X149537405Y-90131204D01*
X149395335Y-90131204D01*
X149307353Y-89918798D01*
X149173073Y-89717833D01*
X149002167Y-89546927D01*
X148801202Y-89412647D01*
X148577903Y-89320153D01*
X148340849Y-89273000D01*
X148099151Y-89273000D01*
X147862097Y-89320153D01*
X147638798Y-89412647D01*
X147437833Y-89546927D01*
X147266927Y-89717833D01*
X147132647Y-89918798D01*
X147040153Y-90142097D01*
X146993000Y-90379151D01*
X146993000Y-90620849D01*
X147040153Y-90857903D01*
X147132647Y-91081202D01*
X147248001Y-91253842D01*
X147248000Y-121903000D01*
X145752000Y-121903000D01*
X145752000Y-91727000D01*
X145800849Y-91727000D01*
X146037903Y-91679847D01*
X146261202Y-91587353D01*
X146462167Y-91453073D01*
X146633073Y-91282167D01*
X146767353Y-91081202D01*
X146859847Y-90857903D01*
X146907000Y-90620849D01*
X146907000Y-90379151D01*
X146859847Y-90142097D01*
X146767353Y-89918798D01*
X146633073Y-89717833D01*
X146462167Y-89546927D01*
X146261202Y-89412647D01*
X146037903Y-89320153D01*
X145800849Y-89273000D01*
X145559151Y-89273000D01*
X145322097Y-89320153D01*
X145098798Y-89412647D01*
X144897833Y-89546927D01*
X144726927Y-89717833D01*
X144592647Y-89918798D01*
X144500153Y-90142097D01*
X144453000Y-90379151D01*
X144453000Y-90620849D01*
X144500153Y-90857903D01*
X144592647Y-91081202D01*
X144726927Y-91282167D01*
X144748001Y-91303241D01*
X144748000Y-121903000D01*
X143627000Y-121903000D01*
X143627000Y-91626373D01*
X143721202Y-91587353D01*
X143922167Y-91453073D01*
X144093073Y-91282167D01*
X144227353Y-91081202D01*
X144319847Y-90857903D01*
X144367000Y-90620849D01*
X144367000Y-90379151D01*
X144319847Y-90142097D01*
X144227353Y-89918798D01*
X144093073Y-89717833D01*
X144017000Y-89641760D01*
X144017000Y-88818240D01*
X144093073Y-88742167D01*
X144227353Y-88541202D01*
X144319847Y-88317903D01*
X144367000Y-88080849D01*
X144367000Y-87839151D01*
X144453000Y-87839151D01*
X144453000Y-88080849D01*
X144500153Y-88317903D01*
X144592647Y-88541202D01*
X144726927Y-88742167D01*
X144897833Y-88913073D01*
X145098798Y-89047353D01*
X145322097Y-89139847D01*
X145559151Y-89187000D01*
X145800849Y-89187000D01*
X146037903Y-89139847D01*
X146261202Y-89047353D01*
X146462167Y-88913073D01*
X146633073Y-88742167D01*
X146767353Y-88541202D01*
X146859847Y-88317903D01*
X146907000Y-88080849D01*
X146907000Y-87839151D01*
X146993000Y-87839151D01*
X146993000Y-88080849D01*
X147040153Y-88317903D01*
X147132647Y-88541202D01*
X147266927Y-88742167D01*
X147437833Y-88913073D01*
X147638798Y-89047353D01*
X147862097Y-89139847D01*
X148099151Y-89187000D01*
X148340849Y-89187000D01*
X148577903Y-89139847D01*
X148801202Y-89047353D01*
X149002167Y-88913073D01*
X149173073Y-88742167D01*
X149307353Y-88541202D01*
X149395334Y-88328796D01*
X149537405Y-88328796D01*
X149632845Y-88560226D01*
X149771601Y-88768590D01*
X149948341Y-88945880D01*
X150156272Y-89085283D01*
X150387404Y-89181442D01*
X150391205Y-89182587D01*
X150587000Y-89117392D01*
X150587000Y-88133000D01*
X150933000Y-88133000D01*
X150933000Y-89117392D01*
X151128795Y-89182587D01*
X151132596Y-89181442D01*
X151363728Y-89085283D01*
X151571659Y-88945880D01*
X151748399Y-88768590D01*
X151887155Y-88560226D01*
X151982595Y-88328796D01*
X151918485Y-88133000D01*
X150933000Y-88133000D01*
X150587000Y-88133000D01*
X149601515Y-88133000D01*
X149537405Y-88328796D01*
X149395334Y-88328796D01*
X149399847Y-88317903D01*
X149447000Y-88080849D01*
X149447000Y-87839151D01*
X152073000Y-87839151D01*
X152073000Y-88080849D01*
X152120153Y-88317903D01*
X152212647Y-88541202D01*
X152346927Y-88742167D01*
X152517833Y-88913073D01*
X152718798Y-89047353D01*
X152942097Y-89139847D01*
X153179151Y-89187000D01*
X153420849Y-89187000D01*
X153657903Y-89139847D01*
X153881202Y-89047353D01*
X154082167Y-88913073D01*
X154253073Y-88742167D01*
X154387353Y-88541202D01*
X154479847Y-88317903D01*
X154527000Y-88080849D01*
X154527000Y-87839151D01*
X154613000Y-87839151D01*
X154613000Y-88080849D01*
X154660153Y-88317903D01*
X154752647Y-88541202D01*
X154886927Y-88742167D01*
X155057833Y-88913073D01*
X155258798Y-89047353D01*
X155482097Y-89139847D01*
X155719151Y-89187000D01*
X155960849Y-89187000D01*
X156197903Y-89139847D01*
X156421202Y-89047353D01*
X156622167Y-88913073D01*
X156793073Y-88742167D01*
X156927353Y-88541202D01*
X157019847Y-88317903D01*
X157067000Y-88080849D01*
X157067000Y-87839151D01*
X157153000Y-87839151D01*
X157153000Y-88080849D01*
X157200153Y-88317903D01*
X157292647Y-88541202D01*
X157426927Y-88742167D01*
X157597833Y-88913073D01*
X157798798Y-89047353D01*
X158022097Y-89139847D01*
X158259151Y-89187000D01*
X158500849Y-89187000D01*
X158737903Y-89139847D01*
X158961202Y-89047353D01*
X159162167Y-88913073D01*
X159333073Y-88742167D01*
X159467353Y-88541202D01*
X159555334Y-88328796D01*
X159697405Y-88328796D01*
X159792845Y-88560226D01*
X159931601Y-88768590D01*
X160108341Y-88945880D01*
X160316272Y-89085283D01*
X160547404Y-89181442D01*
X160551205Y-89182587D01*
X160747000Y-89117392D01*
X160747000Y-88133000D01*
X161093000Y-88133000D01*
X161093000Y-89117392D01*
X161288795Y-89182587D01*
X161292596Y-89181442D01*
X161523728Y-89085283D01*
X161731659Y-88945880D01*
X161908399Y-88768590D01*
X162047155Y-88560226D01*
X162142595Y-88328796D01*
X162237405Y-88328796D01*
X162332845Y-88560226D01*
X162471601Y-88768590D01*
X162648341Y-88945880D01*
X162856272Y-89085283D01*
X163087404Y-89181442D01*
X163091205Y-89182587D01*
X163287000Y-89117392D01*
X163287000Y-88133000D01*
X163633000Y-88133000D01*
X163633000Y-89117392D01*
X163828795Y-89182587D01*
X163832596Y-89181442D01*
X164063728Y-89085283D01*
X164271659Y-88945880D01*
X164448399Y-88768590D01*
X164587155Y-88560226D01*
X164682595Y-88328796D01*
X164618485Y-88133000D01*
X163633000Y-88133000D01*
X163287000Y-88133000D01*
X162301515Y-88133000D01*
X162237405Y-88328796D01*
X162142595Y-88328796D01*
X162078485Y-88133000D01*
X161093000Y-88133000D01*
X160747000Y-88133000D01*
X159761515Y-88133000D01*
X159697405Y-88328796D01*
X159555334Y-88328796D01*
X159559847Y-88317903D01*
X159607000Y-88080849D01*
X159607000Y-87839151D01*
X159559847Y-87602097D01*
X159555335Y-87591204D01*
X159697405Y-87591204D01*
X159761515Y-87787000D01*
X160747000Y-87787000D01*
X160747000Y-86802608D01*
X161093000Y-86802608D01*
X161093000Y-87787000D01*
X162078485Y-87787000D01*
X162142595Y-87591204D01*
X162237405Y-87591204D01*
X162301515Y-87787000D01*
X163287000Y-87787000D01*
X163287000Y-86802608D01*
X163633000Y-86802608D01*
X163633000Y-87787000D01*
X164618485Y-87787000D01*
X164682595Y-87591204D01*
X164587155Y-87359774D01*
X164448399Y-87151410D01*
X164271659Y-86974120D01*
X164063728Y-86834717D01*
X163832596Y-86738558D01*
X163828795Y-86737413D01*
X163633000Y-86802608D01*
X163287000Y-86802608D01*
X163091205Y-86737413D01*
X163087404Y-86738558D01*
X162856272Y-86834717D01*
X162648341Y-86974120D01*
X162471601Y-87151410D01*
X162332845Y-87359774D01*
X162237405Y-87591204D01*
X162142595Y-87591204D01*
X162047155Y-87359774D01*
X161908399Y-87151410D01*
X161731659Y-86974120D01*
X161523728Y-86834717D01*
X161292596Y-86738558D01*
X161288795Y-86737413D01*
X161093000Y-86802608D01*
X160747000Y-86802608D01*
X160551205Y-86737413D01*
X160547404Y-86738558D01*
X160316272Y-86834717D01*
X160108341Y-86974120D01*
X159931601Y-87151410D01*
X159792845Y-87359774D01*
X159697405Y-87591204D01*
X159555335Y-87591204D01*
X159467353Y-87378798D01*
X159333073Y-87177833D01*
X159162167Y-87006927D01*
X158961202Y-86872647D01*
X158737903Y-86780153D01*
X158500849Y-86733000D01*
X158259151Y-86733000D01*
X158022097Y-86780153D01*
X157798798Y-86872647D01*
X157597833Y-87006927D01*
X157426927Y-87177833D01*
X157292647Y-87378798D01*
X157200153Y-87602097D01*
X157153000Y-87839151D01*
X157067000Y-87839151D01*
X157019847Y-87602097D01*
X156927353Y-87378798D01*
X156793073Y-87177833D01*
X156622167Y-87006927D01*
X156421202Y-86872647D01*
X156197903Y-86780153D01*
X155960849Y-86733000D01*
X155719151Y-86733000D01*
X155482097Y-86780153D01*
X155258798Y-86872647D01*
X155057833Y-87006927D01*
X154886927Y-87177833D01*
X154752647Y-87378798D01*
X154660153Y-87602097D01*
X154613000Y-87839151D01*
X154527000Y-87839151D01*
X154479847Y-87602097D01*
X154387353Y-87378798D01*
X154253073Y-87177833D01*
X154082167Y-87006927D01*
X153881202Y-86872647D01*
X153657903Y-86780153D01*
X153420849Y-86733000D01*
X153179151Y-86733000D01*
X152942097Y-86780153D01*
X152718798Y-86872647D01*
X152517833Y-87006927D01*
X152346927Y-87177833D01*
X152212647Y-87378798D01*
X152120153Y-87602097D01*
X152073000Y-87839151D01*
X149447000Y-87839151D01*
X149399847Y-87602097D01*
X149395335Y-87591204D01*
X149537405Y-87591204D01*
X149601515Y-87787000D01*
X150587000Y-87787000D01*
X150587000Y-86802608D01*
X150933000Y-86802608D01*
X150933000Y-87787000D01*
X151918485Y-87787000D01*
X151982595Y-87591204D01*
X151887155Y-87359774D01*
X151748399Y-87151410D01*
X151571659Y-86974120D01*
X151363728Y-86834717D01*
X151132596Y-86738558D01*
X151128795Y-86737413D01*
X150933000Y-86802608D01*
X150587000Y-86802608D01*
X150391205Y-86737413D01*
X150387404Y-86738558D01*
X150156272Y-86834717D01*
X149948341Y-86974120D01*
X149771601Y-87151410D01*
X149632845Y-87359774D01*
X149537405Y-87591204D01*
X149395335Y-87591204D01*
X149307353Y-87378798D01*
X149173073Y-87177833D01*
X149002167Y-87006927D01*
X148801202Y-86872647D01*
X148577903Y-86780153D01*
X148340849Y-86733000D01*
X148099151Y-86733000D01*
X147862097Y-86780153D01*
X147638798Y-86872647D01*
X147437833Y-87006927D01*
X147266927Y-87177833D01*
X147132647Y-87378798D01*
X147040153Y-87602097D01*
X146993000Y-87839151D01*
X146907000Y-87839151D01*
X146859847Y-87602097D01*
X146767353Y-87378798D01*
X146633073Y-87177833D01*
X146462167Y-87006927D01*
X146261202Y-86872647D01*
X146037903Y-86780153D01*
X145800849Y-86733000D01*
X145559151Y-86733000D01*
X145322097Y-86780153D01*
X145098798Y-86872647D01*
X144897833Y-87006927D01*
X144726927Y-87177833D01*
X144592647Y-87378798D01*
X144500153Y-87602097D01*
X144453000Y-87839151D01*
X144367000Y-87839151D01*
X144319847Y-87602097D01*
X144227353Y-87378798D01*
X144093073Y-87177833D01*
X144017528Y-87102288D01*
X144017000Y-87096930D01*
X144017000Y-87096921D01*
X144004310Y-86968078D01*
X143954162Y-86802763D01*
X143872727Y-86650408D01*
X143763133Y-86516867D01*
X143729669Y-86489404D01*
X142150597Y-84910332D01*
X142123133Y-84876867D01*
X141989592Y-84767273D01*
X141837237Y-84685838D01*
X141671922Y-84635690D01*
X141543079Y-84623000D01*
X141500000Y-84618757D01*
X141456921Y-84623000D01*
X124223069Y-84623000D01*
X124179999Y-84618758D01*
X124136930Y-84623000D01*
X124136921Y-84623000D01*
X124008078Y-84635690D01*
X123842763Y-84685838D01*
X123690408Y-84767273D01*
X123556867Y-84876867D01*
X123529403Y-84910332D01*
X122230327Y-86209408D01*
X122196868Y-86236867D01*
X122169409Y-86270326D01*
X122169406Y-86270329D01*
X122087274Y-86370408D01*
X122005838Y-86522764D01*
X121955690Y-86688078D01*
X121938757Y-86860000D01*
X121943001Y-86903089D01*
X121943001Y-87101759D01*
X121866927Y-87177833D01*
X121732647Y-87378798D01*
X121640153Y-87602097D01*
X121593000Y-87839151D01*
X121593000Y-88080849D01*
X121640153Y-88317903D01*
X121732647Y-88541202D01*
X121866927Y-88742167D01*
X121873001Y-88748241D01*
X121873001Y-89711759D01*
X121866927Y-89717833D01*
X121732647Y-89918798D01*
X121640153Y-90142097D01*
X121593000Y-90379151D01*
X121593000Y-90620849D01*
X121640153Y-90857903D01*
X121732647Y-91081202D01*
X121866927Y-91282167D01*
X121873001Y-91288241D01*
X121873000Y-121903000D01*
X120752000Y-121903000D01*
X120752000Y-91632586D01*
X120861202Y-91587353D01*
X121062167Y-91453073D01*
X121233073Y-91282167D01*
X121367353Y-91081202D01*
X121459847Y-90857903D01*
X121507000Y-90620849D01*
X121507000Y-90379151D01*
X121459847Y-90142097D01*
X121367353Y-89918798D01*
X121233073Y-89717833D01*
X121062167Y-89546927D01*
X120861202Y-89412647D01*
X120637903Y-89320153D01*
X120400849Y-89273000D01*
X120159151Y-89273000D01*
X119922097Y-89320153D01*
X119698798Y-89412647D01*
X119497833Y-89546927D01*
X119326927Y-89717833D01*
X119192647Y-89918798D01*
X119100153Y-90142097D01*
X119053000Y-90379151D01*
X119053000Y-90620849D01*
X119100153Y-90857903D01*
X119192647Y-91081202D01*
X119326927Y-91282167D01*
X119497833Y-91453073D01*
X119698798Y-91587353D01*
X119748001Y-91607734D01*
X119748000Y-121903000D01*
X118252000Y-121903000D01*
X118252000Y-91616018D01*
X118321202Y-91587353D01*
X118522167Y-91453073D01*
X118693073Y-91282167D01*
X118827353Y-91081202D01*
X118919847Y-90857903D01*
X118967000Y-90620849D01*
X118967000Y-90379151D01*
X118919847Y-90142097D01*
X118827353Y-89918798D01*
X118693073Y-89717833D01*
X118522167Y-89546927D01*
X118321202Y-89412647D01*
X118097903Y-89320153D01*
X117860849Y-89273000D01*
X117619151Y-89273000D01*
X117382097Y-89320153D01*
X117158798Y-89412647D01*
X116957833Y-89546927D01*
X116786927Y-89717833D01*
X116652647Y-89918798D01*
X116560153Y-90142097D01*
X116513000Y-90379151D01*
X116513000Y-90620849D01*
X116560153Y-90857903D01*
X116652647Y-91081202D01*
X116786927Y-91282167D01*
X116957833Y-91453073D01*
X117158798Y-91587353D01*
X117248001Y-91624302D01*
X117248000Y-121903000D01*
X115752000Y-121903000D01*
X115752000Y-91599449D01*
X115781202Y-91587353D01*
X115982167Y-91453073D01*
X116153073Y-91282167D01*
X116287353Y-91081202D01*
X116379847Y-90857903D01*
X116427000Y-90620849D01*
X116427000Y-90379151D01*
X116379847Y-90142097D01*
X116287353Y-89918798D01*
X116153073Y-89717833D01*
X115982167Y-89546927D01*
X115781202Y-89412647D01*
X115557903Y-89320153D01*
X115320849Y-89273000D01*
X115079151Y-89273000D01*
X114842097Y-89320153D01*
X114618798Y-89412647D01*
X114417833Y-89546927D01*
X114246927Y-89717833D01*
X114112647Y-89918798D01*
X114020153Y-90142097D01*
X113973000Y-90379151D01*
X113973000Y-90620849D01*
X114020153Y-90857903D01*
X114112647Y-91081202D01*
X114246927Y-91282167D01*
X114417833Y-91453073D01*
X114618798Y-91587353D01*
X114748001Y-91640871D01*
X114748000Y-121903000D01*
X113252000Y-121903000D01*
X113252000Y-91580138D01*
X113442167Y-91453073D01*
X113613073Y-91282167D01*
X113747353Y-91081202D01*
X113839847Y-90857903D01*
X113887000Y-90620849D01*
X113887000Y-90379151D01*
X113839847Y-90142097D01*
X113747353Y-89918798D01*
X113613073Y-89717833D01*
X113442167Y-89546927D01*
X113241202Y-89412647D01*
X113017903Y-89320153D01*
X112780849Y-89273000D01*
X112539151Y-89273000D01*
X112302097Y-89320153D01*
X112078798Y-89412647D01*
X111877833Y-89546927D01*
X111706927Y-89717833D01*
X111572647Y-89918798D01*
X111480153Y-90142097D01*
X111433000Y-90379151D01*
X111433000Y-90620849D01*
X111480153Y-90857903D01*
X111572647Y-91081202D01*
X111706927Y-91282167D01*
X111877833Y-91453073D01*
X112078798Y-91587353D01*
X112248001Y-91657440D01*
X112248000Y-121903000D01*
X105752000Y-121903000D01*
X105752000Y-91499957D01*
X105822167Y-91453073D01*
X105993073Y-91282167D01*
X106127353Y-91081202D01*
X106215334Y-90868796D01*
X106357405Y-90868796D01*
X106452845Y-91100226D01*
X106591601Y-91308590D01*
X106768341Y-91485880D01*
X106976272Y-91625283D01*
X107207404Y-91721442D01*
X107211205Y-91722587D01*
X107407000Y-91657392D01*
X107407000Y-90673000D01*
X107753000Y-90673000D01*
X107753000Y-91657392D01*
X107948795Y-91722587D01*
X107952596Y-91721442D01*
X108183728Y-91625283D01*
X108391659Y-91485880D01*
X108568399Y-91308590D01*
X108707155Y-91100226D01*
X108802595Y-90868796D01*
X108897405Y-90868796D01*
X108992845Y-91100226D01*
X109131601Y-91308590D01*
X109308341Y-91485880D01*
X109516272Y-91625283D01*
X109747404Y-91721442D01*
X109751205Y-91722587D01*
X109947000Y-91657392D01*
X109947000Y-90673000D01*
X110293000Y-90673000D01*
X110293000Y-91657392D01*
X110488795Y-91722587D01*
X110492596Y-91721442D01*
X110723728Y-91625283D01*
X110931659Y-91485880D01*
X111108399Y-91308590D01*
X111247155Y-91100226D01*
X111342595Y-90868796D01*
X111278485Y-90673000D01*
X110293000Y-90673000D01*
X109947000Y-90673000D01*
X108961515Y-90673000D01*
X108897405Y-90868796D01*
X108802595Y-90868796D01*
X108738485Y-90673000D01*
X107753000Y-90673000D01*
X107407000Y-90673000D01*
X106421515Y-90673000D01*
X106357405Y-90868796D01*
X106215334Y-90868796D01*
X106219847Y-90857903D01*
X106267000Y-90620849D01*
X106267000Y-90379151D01*
X106219847Y-90142097D01*
X106215335Y-90131204D01*
X106357405Y-90131204D01*
X106421515Y-90327000D01*
X107407000Y-90327000D01*
X107407000Y-89342608D01*
X107753000Y-89342608D01*
X107753000Y-90327000D01*
X108738485Y-90327000D01*
X108802595Y-90131204D01*
X108897405Y-90131204D01*
X108961515Y-90327000D01*
X109947000Y-90327000D01*
X109947000Y-89342608D01*
X110293000Y-89342608D01*
X110293000Y-90327000D01*
X111278485Y-90327000D01*
X111342595Y-90131204D01*
X111247155Y-89899774D01*
X111108399Y-89691410D01*
X110931659Y-89514120D01*
X110723728Y-89374717D01*
X110492596Y-89278558D01*
X110488795Y-89277413D01*
X110293000Y-89342608D01*
X109947000Y-89342608D01*
X109751205Y-89277413D01*
X109747404Y-89278558D01*
X109516272Y-89374717D01*
X109308341Y-89514120D01*
X109131601Y-89691410D01*
X108992845Y-89899774D01*
X108897405Y-90131204D01*
X108802595Y-90131204D01*
X108707155Y-89899774D01*
X108568399Y-89691410D01*
X108391659Y-89514120D01*
X108183728Y-89374717D01*
X107952596Y-89278558D01*
X107948795Y-89277413D01*
X107753000Y-89342608D01*
X107407000Y-89342608D01*
X107211205Y-89277413D01*
X107207404Y-89278558D01*
X106976272Y-89374717D01*
X106768341Y-89514120D01*
X106591601Y-89691410D01*
X106452845Y-89899774D01*
X106357405Y-90131204D01*
X106215335Y-90131204D01*
X106127353Y-89918798D01*
X105993073Y-89717833D01*
X105822167Y-89546927D01*
X105621202Y-89412647D01*
X105397903Y-89320153D01*
X105160849Y-89273000D01*
X104919151Y-89273000D01*
X104682097Y-89320153D01*
X104458798Y-89412647D01*
X104257833Y-89546927D01*
X104086927Y-89717833D01*
X103952647Y-89918798D01*
X103860153Y-90142097D01*
X103813000Y-90379151D01*
X103813000Y-90620849D01*
X103860153Y-90857903D01*
X103952647Y-91081202D01*
X104086927Y-91282167D01*
X104257833Y-91453073D01*
X104458798Y-91587353D01*
X104682097Y-91679847D01*
X104748001Y-91692956D01*
X104748000Y-121903000D01*
X100877000Y-121903000D01*
X100877000Y-119518519D01*
X100878824Y-119500000D01*
X100871545Y-119426095D01*
X100849988Y-119355030D01*
X100814981Y-119289537D01*
X100767869Y-119232131D01*
X100710463Y-119185019D01*
X100644970Y-119150012D01*
X100573905Y-119128455D01*
X100518519Y-119123000D01*
X100500000Y-119121176D01*
X100481481Y-119123000D01*
X89018519Y-119123000D01*
X89000000Y-119121176D01*
X88981481Y-119123000D01*
X88926095Y-119128455D01*
X88855030Y-119150012D01*
X88789537Y-119185019D01*
X88732131Y-119232131D01*
X88685019Y-119289537D01*
X88650012Y-119355030D01*
X88628455Y-119426095D01*
X88621176Y-119500000D01*
X88623000Y-119518519D01*
X88623001Y-125623000D01*
X82877000Y-125623000D01*
X82877000Y-97877000D01*
X83481481Y-97877000D01*
X83500000Y-97878824D01*
X83518519Y-97877000D01*
X83573905Y-97871545D01*
X83644970Y-97849988D01*
X83710463Y-97814981D01*
X83767869Y-97767869D01*
X83814981Y-97710463D01*
X83849988Y-97644970D01*
X83871545Y-97573905D01*
X83878824Y-97500000D01*
X83877000Y-97481481D01*
X83877000Y-94877000D01*
X85981481Y-94877000D01*
X86000000Y-94878824D01*
X86018519Y-94877000D01*
X86073905Y-94871545D01*
X86144970Y-94849988D01*
X86210463Y-94814981D01*
X86267869Y-94767869D01*
X86314981Y-94710463D01*
X86349988Y-94644970D01*
X86371545Y-94573905D01*
X86378824Y-94500000D01*
X86377000Y-94481481D01*
X86377000Y-93018518D01*
X86378824Y-93000000D01*
X86371545Y-92926095D01*
X86349988Y-92855030D01*
X86314981Y-92789537D01*
X86267869Y-92732131D01*
X86210463Y-92685019D01*
X86144970Y-92650012D01*
X86073905Y-92628455D01*
X86018519Y-92623000D01*
X86000000Y-92621176D01*
X85981481Y-92623000D01*
X82877000Y-92623000D01*
X82877000Y-91350000D01*
X101220934Y-91350000D01*
X101229178Y-91433707D01*
X101253595Y-91514196D01*
X101293245Y-91588376D01*
X101346605Y-91653395D01*
X101411624Y-91706755D01*
X101485804Y-91746405D01*
X101566293Y-91770822D01*
X101650000Y-91779066D01*
X102220250Y-91777000D01*
X102327000Y-91670250D01*
X102327000Y-90673000D01*
X102673000Y-90673000D01*
X102673000Y-91670250D01*
X102779750Y-91777000D01*
X103350000Y-91779066D01*
X103433707Y-91770822D01*
X103514196Y-91746405D01*
X103588376Y-91706755D01*
X103653395Y-91653395D01*
X103706755Y-91588376D01*
X103746405Y-91514196D01*
X103770822Y-91433707D01*
X103779066Y-91350000D01*
X103777000Y-90779750D01*
X103670250Y-90673000D01*
X102673000Y-90673000D01*
X102327000Y-90673000D01*
X101329750Y-90673000D01*
X101223000Y-90779750D01*
X101220934Y-91350000D01*
X82877000Y-91350000D01*
X82877000Y-89650000D01*
X101220934Y-89650000D01*
X101223000Y-90220250D01*
X101329750Y-90327000D01*
X102327000Y-90327000D01*
X102327000Y-89329750D01*
X102673000Y-89329750D01*
X102673000Y-90327000D01*
X103670250Y-90327000D01*
X103777000Y-90220250D01*
X103779066Y-89650000D01*
X103770822Y-89566293D01*
X103746405Y-89485804D01*
X103706755Y-89411624D01*
X103653395Y-89346605D01*
X103588376Y-89293245D01*
X103514196Y-89253595D01*
X103433707Y-89229178D01*
X103350000Y-89220934D01*
X102779750Y-89223000D01*
X102673000Y-89329750D01*
X102327000Y-89329750D01*
X102220250Y-89223000D01*
X101650000Y-89220934D01*
X101566293Y-89229178D01*
X101485804Y-89253595D01*
X101411624Y-89293245D01*
X101346605Y-89346605D01*
X101293245Y-89411624D01*
X101253595Y-89485804D01*
X101229178Y-89566293D01*
X101220934Y-89650000D01*
X82877000Y-89650000D01*
X82877000Y-88328796D01*
X101277405Y-88328796D01*
X101372845Y-88560226D01*
X101511601Y-88768590D01*
X101688341Y-88945880D01*
X101896272Y-89085283D01*
X102127404Y-89181442D01*
X102131205Y-89182587D01*
X102327000Y-89117392D01*
X102327000Y-88133000D01*
X102673000Y-88133000D01*
X102673000Y-89117392D01*
X102868795Y-89182587D01*
X102872596Y-89181442D01*
X103103728Y-89085283D01*
X103311659Y-88945880D01*
X103488399Y-88768590D01*
X103627155Y-88560226D01*
X103722595Y-88328796D01*
X103658485Y-88133000D01*
X102673000Y-88133000D01*
X102327000Y-88133000D01*
X101341515Y-88133000D01*
X101277405Y-88328796D01*
X82877000Y-88328796D01*
X82877000Y-87839151D01*
X103813000Y-87839151D01*
X103813000Y-88080849D01*
X103860153Y-88317903D01*
X103952647Y-88541202D01*
X104086927Y-88742167D01*
X104257833Y-88913073D01*
X104458798Y-89047353D01*
X104682097Y-89139847D01*
X104919151Y-89187000D01*
X105160849Y-89187000D01*
X105397903Y-89139847D01*
X105621202Y-89047353D01*
X105822167Y-88913073D01*
X105993073Y-88742167D01*
X106127353Y-88541202D01*
X106215334Y-88328796D01*
X106357405Y-88328796D01*
X106452845Y-88560226D01*
X106591601Y-88768590D01*
X106768341Y-88945880D01*
X106976272Y-89085283D01*
X107207404Y-89181442D01*
X107211205Y-89182587D01*
X107407000Y-89117392D01*
X107407000Y-88133000D01*
X107753000Y-88133000D01*
X107753000Y-89117392D01*
X107948795Y-89182587D01*
X107952596Y-89181442D01*
X108183728Y-89085283D01*
X108391659Y-88945880D01*
X108568399Y-88768590D01*
X108707155Y-88560226D01*
X108802595Y-88328796D01*
X108897405Y-88328796D01*
X108992845Y-88560226D01*
X109131601Y-88768590D01*
X109308341Y-88945880D01*
X109516272Y-89085283D01*
X109747404Y-89181442D01*
X109751205Y-89182587D01*
X109947000Y-89117392D01*
X109947000Y-88133000D01*
X110293000Y-88133000D01*
X110293000Y-89117392D01*
X110488795Y-89182587D01*
X110492596Y-89181442D01*
X110723728Y-89085283D01*
X110931659Y-88945880D01*
X111108399Y-88768590D01*
X111247155Y-88560226D01*
X111342595Y-88328796D01*
X111278485Y-88133000D01*
X110293000Y-88133000D01*
X109947000Y-88133000D01*
X108961515Y-88133000D01*
X108897405Y-88328796D01*
X108802595Y-88328796D01*
X108738485Y-88133000D01*
X107753000Y-88133000D01*
X107407000Y-88133000D01*
X106421515Y-88133000D01*
X106357405Y-88328796D01*
X106215334Y-88328796D01*
X106219847Y-88317903D01*
X106267000Y-88080849D01*
X106267000Y-87839151D01*
X111433000Y-87839151D01*
X111433000Y-88080849D01*
X111480153Y-88317903D01*
X111572647Y-88541202D01*
X111706927Y-88742167D01*
X111877833Y-88913073D01*
X112078798Y-89047353D01*
X112302097Y-89139847D01*
X112539151Y-89187000D01*
X112780849Y-89187000D01*
X113017903Y-89139847D01*
X113241202Y-89047353D01*
X113442167Y-88913073D01*
X113613073Y-88742167D01*
X113747353Y-88541202D01*
X113839847Y-88317903D01*
X113887000Y-88080849D01*
X113887000Y-87839151D01*
X113973000Y-87839151D01*
X113973000Y-88080849D01*
X114020153Y-88317903D01*
X114112647Y-88541202D01*
X114246927Y-88742167D01*
X114417833Y-88913073D01*
X114618798Y-89047353D01*
X114842097Y-89139847D01*
X115079151Y-89187000D01*
X115320849Y-89187000D01*
X115557903Y-89139847D01*
X115781202Y-89047353D01*
X115982167Y-88913073D01*
X116153073Y-88742167D01*
X116287353Y-88541202D01*
X116379847Y-88317903D01*
X116427000Y-88080849D01*
X116427000Y-87839151D01*
X116513000Y-87839151D01*
X116513000Y-88080849D01*
X116560153Y-88317903D01*
X116652647Y-88541202D01*
X116786927Y-88742167D01*
X116957833Y-88913073D01*
X117158798Y-89047353D01*
X117382097Y-89139847D01*
X117619151Y-89187000D01*
X117860849Y-89187000D01*
X118097903Y-89139847D01*
X118321202Y-89047353D01*
X118522167Y-88913073D01*
X118693073Y-88742167D01*
X118827353Y-88541202D01*
X118919847Y-88317903D01*
X118967000Y-88080849D01*
X118967000Y-87839151D01*
X119053000Y-87839151D01*
X119053000Y-88080849D01*
X119100153Y-88317903D01*
X119192647Y-88541202D01*
X119326927Y-88742167D01*
X119497833Y-88913073D01*
X119698798Y-89047353D01*
X119922097Y-89139847D01*
X120159151Y-89187000D01*
X120400849Y-89187000D01*
X120637903Y-89139847D01*
X120861202Y-89047353D01*
X121062167Y-88913073D01*
X121233073Y-88742167D01*
X121367353Y-88541202D01*
X121459847Y-88317903D01*
X121507000Y-88080849D01*
X121507000Y-87839151D01*
X121459847Y-87602097D01*
X121367353Y-87378798D01*
X121233073Y-87177833D01*
X121062167Y-87006927D01*
X120861202Y-86872647D01*
X120637903Y-86780153D01*
X120400849Y-86733000D01*
X120159151Y-86733000D01*
X119922097Y-86780153D01*
X119698798Y-86872647D01*
X119497833Y-87006927D01*
X119326927Y-87177833D01*
X119192647Y-87378798D01*
X119100153Y-87602097D01*
X119053000Y-87839151D01*
X118967000Y-87839151D01*
X118919847Y-87602097D01*
X118827353Y-87378798D01*
X118693073Y-87177833D01*
X118522167Y-87006927D01*
X118321202Y-86872647D01*
X118097903Y-86780153D01*
X117860849Y-86733000D01*
X117619151Y-86733000D01*
X117382097Y-86780153D01*
X117158798Y-86872647D01*
X116957833Y-87006927D01*
X116786927Y-87177833D01*
X116652647Y-87378798D01*
X116560153Y-87602097D01*
X116513000Y-87839151D01*
X116427000Y-87839151D01*
X116379847Y-87602097D01*
X116287353Y-87378798D01*
X116153073Y-87177833D01*
X115982167Y-87006927D01*
X115781202Y-86872647D01*
X115557903Y-86780153D01*
X115320849Y-86733000D01*
X115079151Y-86733000D01*
X114842097Y-86780153D01*
X114618798Y-86872647D01*
X114417833Y-87006927D01*
X114246927Y-87177833D01*
X114112647Y-87378798D01*
X114020153Y-87602097D01*
X113973000Y-87839151D01*
X113887000Y-87839151D01*
X113839847Y-87602097D01*
X113747353Y-87378798D01*
X113613073Y-87177833D01*
X113442167Y-87006927D01*
X113241202Y-86872647D01*
X113017903Y-86780153D01*
X112780849Y-86733000D01*
X112539151Y-86733000D01*
X112302097Y-86780153D01*
X112078798Y-86872647D01*
X111877833Y-87006927D01*
X111706927Y-87177833D01*
X111572647Y-87378798D01*
X111480153Y-87602097D01*
X111433000Y-87839151D01*
X106267000Y-87839151D01*
X106219847Y-87602097D01*
X106215335Y-87591204D01*
X106357405Y-87591204D01*
X106421515Y-87787000D01*
X107407000Y-87787000D01*
X107407000Y-86802608D01*
X107753000Y-86802608D01*
X107753000Y-87787000D01*
X108738485Y-87787000D01*
X108802595Y-87591204D01*
X108897405Y-87591204D01*
X108961515Y-87787000D01*
X109947000Y-87787000D01*
X109947000Y-86802608D01*
X110293000Y-86802608D01*
X110293000Y-87787000D01*
X111278485Y-87787000D01*
X111342595Y-87591204D01*
X111247155Y-87359774D01*
X111108399Y-87151410D01*
X110931659Y-86974120D01*
X110723728Y-86834717D01*
X110492596Y-86738558D01*
X110488795Y-86737413D01*
X110293000Y-86802608D01*
X109947000Y-86802608D01*
X109751205Y-86737413D01*
X109747404Y-86738558D01*
X109516272Y-86834717D01*
X109308341Y-86974120D01*
X109131601Y-87151410D01*
X108992845Y-87359774D01*
X108897405Y-87591204D01*
X108802595Y-87591204D01*
X108707155Y-87359774D01*
X108568399Y-87151410D01*
X108391659Y-86974120D01*
X108183728Y-86834717D01*
X107952596Y-86738558D01*
X107948795Y-86737413D01*
X107753000Y-86802608D01*
X107407000Y-86802608D01*
X107211205Y-86737413D01*
X107207404Y-86738558D01*
X106976272Y-86834717D01*
X106768341Y-86974120D01*
X106591601Y-87151410D01*
X106452845Y-87359774D01*
X106357405Y-87591204D01*
X106215335Y-87591204D01*
X106127353Y-87378798D01*
X105993073Y-87177833D01*
X105822167Y-87006927D01*
X105621202Y-86872647D01*
X105397903Y-86780153D01*
X105160849Y-86733000D01*
X104919151Y-86733000D01*
X104682097Y-86780153D01*
X104458798Y-86872647D01*
X104257833Y-87006927D01*
X104086927Y-87177833D01*
X103952647Y-87378798D01*
X103860153Y-87602097D01*
X103813000Y-87839151D01*
X82877000Y-87839151D01*
X82877000Y-87591204D01*
X101277405Y-87591204D01*
X101341515Y-87787000D01*
X102327000Y-87787000D01*
X102327000Y-86802608D01*
X102673000Y-86802608D01*
X102673000Y-87787000D01*
X103658485Y-87787000D01*
X103722595Y-87591204D01*
X103627155Y-87359774D01*
X103488399Y-87151410D01*
X103311659Y-86974120D01*
X103103728Y-86834717D01*
X102872596Y-86738558D01*
X102868795Y-86737413D01*
X102673000Y-86802608D01*
X102327000Y-86802608D01*
X102131205Y-86737413D01*
X102127404Y-86738558D01*
X101896272Y-86834717D01*
X101688341Y-86974120D01*
X101511601Y-87151410D01*
X101372845Y-87359774D01*
X101277405Y-87591204D01*
X82877000Y-87591204D01*
X82877000Y-72877000D01*
X83281481Y-72877000D01*
X83300000Y-72878824D01*
X83318519Y-72877000D01*
X83373905Y-72871545D01*
X83444970Y-72849988D01*
X83510463Y-72814981D01*
X83567869Y-72767869D01*
X83614981Y-72710463D01*
X83649988Y-72644970D01*
X83671545Y-72573905D01*
X83678824Y-72500000D01*
X83677000Y-72481481D01*
X83677000Y-70377000D01*
X181623000Y-70377000D01*
X181623001Y-91123000D01*
G37*
G04 #@! TD.AperFunction*
D17*
X142087048Y-87327313D02*
X142052647Y-87378798D01*
X141960153Y-87602097D01*
X141913000Y-87839151D01*
X141913000Y-88080849D01*
X141960153Y-88317903D01*
X142052647Y-88541202D01*
X142186927Y-88742167D01*
X142263001Y-88818241D01*
X142263000Y-89641760D01*
X142186927Y-89717833D01*
X142052647Y-89918798D01*
X141960153Y-90142097D01*
X141913000Y-90379151D01*
X141913000Y-90620849D01*
X141913865Y-90625198D01*
X141885690Y-90718078D01*
X141868757Y-90890000D01*
X141873001Y-90933090D01*
X141873000Y-121903000D01*
X140752000Y-121903000D01*
X140752000Y-91720804D01*
X140957903Y-91679847D01*
X141181202Y-91587353D01*
X141382167Y-91453073D01*
X141553073Y-91282167D01*
X141687353Y-91081202D01*
X141779847Y-90857903D01*
X141827000Y-90620849D01*
X141827000Y-90379151D01*
X141779847Y-90142097D01*
X141687353Y-89918798D01*
X141553073Y-89717833D01*
X141382167Y-89546927D01*
X141181202Y-89412647D01*
X140957903Y-89320153D01*
X140720849Y-89273000D01*
X140479151Y-89273000D01*
X140242097Y-89320153D01*
X140018798Y-89412647D01*
X139817833Y-89546927D01*
X139646927Y-89717833D01*
X139512647Y-89918798D01*
X139420153Y-90142097D01*
X139373000Y-90379151D01*
X139373000Y-90620849D01*
X139420153Y-90857903D01*
X139512647Y-91081202D01*
X139646927Y-91282167D01*
X139748001Y-91383241D01*
X139748000Y-121903000D01*
X138252000Y-121903000D01*
X138252000Y-91712847D01*
X138417903Y-91679847D01*
X138641202Y-91587353D01*
X138842167Y-91453073D01*
X139013073Y-91282167D01*
X139147353Y-91081202D01*
X139239847Y-90857903D01*
X139287000Y-90620849D01*
X139287000Y-90379151D01*
X139239847Y-90142097D01*
X139147353Y-89918798D01*
X139013073Y-89717833D01*
X138842167Y-89546927D01*
X138641202Y-89412647D01*
X138417903Y-89320153D01*
X138180849Y-89273000D01*
X137939151Y-89273000D01*
X137702097Y-89320153D01*
X137478798Y-89412647D01*
X137277833Y-89546927D01*
X137106927Y-89717833D01*
X136972647Y-89918798D01*
X136880153Y-90142097D01*
X136833000Y-90379151D01*
X136833000Y-90620849D01*
X136880153Y-90857903D01*
X136972647Y-91081202D01*
X137106927Y-91282167D01*
X137248001Y-91423241D01*
X137248000Y-121903000D01*
X135752000Y-121903000D01*
X135752000Y-91704891D01*
X135877903Y-91679847D01*
X136101202Y-91587353D01*
X136302167Y-91453073D01*
X136473073Y-91282167D01*
X136607353Y-91081202D01*
X136699847Y-90857903D01*
X136747000Y-90620849D01*
X136747000Y-90379151D01*
X136699847Y-90142097D01*
X136607353Y-89918798D01*
X136473073Y-89717833D01*
X136302167Y-89546927D01*
X136101202Y-89412647D01*
X135877903Y-89320153D01*
X135640849Y-89273000D01*
X135399151Y-89273000D01*
X135162097Y-89320153D01*
X134938798Y-89412647D01*
X134737833Y-89546927D01*
X134566927Y-89717833D01*
X134432647Y-89918798D01*
X134340153Y-90142097D01*
X134293000Y-90379151D01*
X134293000Y-90620849D01*
X134340153Y-90857903D01*
X134432647Y-91081202D01*
X134566927Y-91282167D01*
X134737833Y-91453073D01*
X134748001Y-91459867D01*
X134748000Y-121903000D01*
X128252000Y-121903000D01*
X128252000Y-91681021D01*
X128257903Y-91679847D01*
X128481202Y-91587353D01*
X128682167Y-91453073D01*
X128853073Y-91282167D01*
X128987353Y-91081202D01*
X129079847Y-90857903D01*
X129127000Y-90620849D01*
X129127000Y-90379151D01*
X129213000Y-90379151D01*
X129213000Y-90620849D01*
X129260153Y-90857903D01*
X129352647Y-91081202D01*
X129486927Y-91282167D01*
X129657833Y-91453073D01*
X129858798Y-91587353D01*
X130082097Y-91679847D01*
X130319151Y-91727000D01*
X130560849Y-91727000D01*
X130797903Y-91679847D01*
X131021202Y-91587353D01*
X131222167Y-91453073D01*
X131393073Y-91282167D01*
X131527353Y-91081202D01*
X131619847Y-90857903D01*
X131667000Y-90620849D01*
X131667000Y-90379151D01*
X131753000Y-90379151D01*
X131753000Y-90620849D01*
X131800153Y-90857903D01*
X131892647Y-91081202D01*
X132026927Y-91282167D01*
X132197833Y-91453073D01*
X132398798Y-91587353D01*
X132622097Y-91679847D01*
X132859151Y-91727000D01*
X133100849Y-91727000D01*
X133337903Y-91679847D01*
X133561202Y-91587353D01*
X133762167Y-91453073D01*
X133933073Y-91282167D01*
X134067353Y-91081202D01*
X134159847Y-90857903D01*
X134207000Y-90620849D01*
X134207000Y-90379151D01*
X134159847Y-90142097D01*
X134067353Y-89918798D01*
X133933073Y-89717833D01*
X133762167Y-89546927D01*
X133561202Y-89412647D01*
X133337903Y-89320153D01*
X133100849Y-89273000D01*
X132859151Y-89273000D01*
X132622097Y-89320153D01*
X132398798Y-89412647D01*
X132197833Y-89546927D01*
X132026927Y-89717833D01*
X131892647Y-89918798D01*
X131800153Y-90142097D01*
X131753000Y-90379151D01*
X131667000Y-90379151D01*
X131619847Y-90142097D01*
X131527353Y-89918798D01*
X131393073Y-89717833D01*
X131222167Y-89546927D01*
X131021202Y-89412647D01*
X130797903Y-89320153D01*
X130560849Y-89273000D01*
X130319151Y-89273000D01*
X130082097Y-89320153D01*
X129858798Y-89412647D01*
X129657833Y-89546927D01*
X129486927Y-89717833D01*
X129352647Y-89918798D01*
X129260153Y-90142097D01*
X129213000Y-90379151D01*
X129127000Y-90379151D01*
X129079847Y-90142097D01*
X128987353Y-89918798D01*
X128853073Y-89717833D01*
X128682167Y-89546927D01*
X128481202Y-89412647D01*
X128257903Y-89320153D01*
X128020849Y-89273000D01*
X127779151Y-89273000D01*
X127542097Y-89320153D01*
X127318798Y-89412647D01*
X127117833Y-89546927D01*
X126946927Y-89717833D01*
X126812647Y-89918798D01*
X126720153Y-90142097D01*
X126673000Y-90379151D01*
X126673000Y-90620849D01*
X126720153Y-90857903D01*
X126812647Y-91081202D01*
X126946927Y-91282167D01*
X127117833Y-91453073D01*
X127248001Y-91540048D01*
X127248000Y-121903000D01*
X125752000Y-121903000D01*
X125752000Y-91665723D01*
X125941202Y-91587353D01*
X126142167Y-91453073D01*
X126313073Y-91282167D01*
X126447353Y-91081202D01*
X126539847Y-90857903D01*
X126587000Y-90620849D01*
X126587000Y-90379151D01*
X126539847Y-90142097D01*
X126447353Y-89918798D01*
X126313073Y-89717833D01*
X126142167Y-89546927D01*
X125941202Y-89412647D01*
X125717903Y-89320153D01*
X125480849Y-89273000D01*
X125239151Y-89273000D01*
X125002097Y-89320153D01*
X124778798Y-89412647D01*
X124577833Y-89546927D01*
X124406927Y-89717833D01*
X124272647Y-89918798D01*
X124180153Y-90142097D01*
X124133000Y-90379151D01*
X124133000Y-90620849D01*
X124180153Y-90857903D01*
X124272647Y-91081202D01*
X124406927Y-91282167D01*
X124577833Y-91453073D01*
X124748001Y-91566775D01*
X124748000Y-121903000D01*
X123627000Y-121903000D01*
X123627000Y-91428240D01*
X123773073Y-91282167D01*
X123907353Y-91081202D01*
X123999847Y-90857903D01*
X124047000Y-90620849D01*
X124047000Y-90379151D01*
X123999847Y-90142097D01*
X123907353Y-89918798D01*
X123773073Y-89717833D01*
X123627000Y-89571760D01*
X123627000Y-88888240D01*
X123773073Y-88742167D01*
X123907353Y-88541202D01*
X123999847Y-88317903D01*
X124047000Y-88080849D01*
X124047000Y-87839151D01*
X124133000Y-87839151D01*
X124133000Y-88080849D01*
X124180153Y-88317903D01*
X124272647Y-88541202D01*
X124406927Y-88742167D01*
X124577833Y-88913073D01*
X124778798Y-89047353D01*
X125002097Y-89139847D01*
X125239151Y-89187000D01*
X125480849Y-89187000D01*
X125717903Y-89139847D01*
X125941202Y-89047353D01*
X126142167Y-88913073D01*
X126313073Y-88742167D01*
X126447353Y-88541202D01*
X126539847Y-88317903D01*
X126587000Y-88080849D01*
X126587000Y-87839151D01*
X126673000Y-87839151D01*
X126673000Y-88080849D01*
X126720153Y-88317903D01*
X126812647Y-88541202D01*
X126946927Y-88742167D01*
X127117833Y-88913073D01*
X127318798Y-89047353D01*
X127542097Y-89139847D01*
X127779151Y-89187000D01*
X128020849Y-89187000D01*
X128257903Y-89139847D01*
X128481202Y-89047353D01*
X128682167Y-88913073D01*
X128853073Y-88742167D01*
X128987353Y-88541202D01*
X129079847Y-88317903D01*
X129127000Y-88080849D01*
X129127000Y-87839151D01*
X129213000Y-87839151D01*
X129213000Y-88080849D01*
X129260153Y-88317903D01*
X129352647Y-88541202D01*
X129486927Y-88742167D01*
X129657833Y-88913073D01*
X129858798Y-89047353D01*
X130082097Y-89139847D01*
X130319151Y-89187000D01*
X130560849Y-89187000D01*
X130797903Y-89139847D01*
X131021202Y-89047353D01*
X131222167Y-88913073D01*
X131393073Y-88742167D01*
X131527353Y-88541202D01*
X131619847Y-88317903D01*
X131667000Y-88080849D01*
X131667000Y-87839151D01*
X131753000Y-87839151D01*
X131753000Y-88080849D01*
X131800153Y-88317903D01*
X131892647Y-88541202D01*
X132026927Y-88742167D01*
X132197833Y-88913073D01*
X132398798Y-89047353D01*
X132622097Y-89139847D01*
X132859151Y-89187000D01*
X133100849Y-89187000D01*
X133337903Y-89139847D01*
X133561202Y-89047353D01*
X133762167Y-88913073D01*
X133933073Y-88742167D01*
X134067353Y-88541202D01*
X134159847Y-88317903D01*
X134207000Y-88080849D01*
X134207000Y-87839151D01*
X134293000Y-87839151D01*
X134293000Y-88080849D01*
X134340153Y-88317903D01*
X134432647Y-88541202D01*
X134566927Y-88742167D01*
X134737833Y-88913073D01*
X134938798Y-89047353D01*
X135162097Y-89139847D01*
X135399151Y-89187000D01*
X135640849Y-89187000D01*
X135877903Y-89139847D01*
X136101202Y-89047353D01*
X136302167Y-88913073D01*
X136473073Y-88742167D01*
X136607353Y-88541202D01*
X136699847Y-88317903D01*
X136747000Y-88080849D01*
X136747000Y-87839151D01*
X136833000Y-87839151D01*
X136833000Y-88080849D01*
X136880153Y-88317903D01*
X136972647Y-88541202D01*
X137106927Y-88742167D01*
X137277833Y-88913073D01*
X137478798Y-89047353D01*
X137702097Y-89139847D01*
X137939151Y-89187000D01*
X138180849Y-89187000D01*
X138417903Y-89139847D01*
X138641202Y-89047353D01*
X138842167Y-88913073D01*
X139013073Y-88742167D01*
X139147353Y-88541202D01*
X139239847Y-88317903D01*
X139287000Y-88080849D01*
X139287000Y-87839151D01*
X139373000Y-87839151D01*
X139373000Y-88080849D01*
X139420153Y-88317903D01*
X139512647Y-88541202D01*
X139646927Y-88742167D01*
X139817833Y-88913073D01*
X140018798Y-89047353D01*
X140242097Y-89139847D01*
X140479151Y-89187000D01*
X140720849Y-89187000D01*
X140957903Y-89139847D01*
X141181202Y-89047353D01*
X141382167Y-88913073D01*
X141553073Y-88742167D01*
X141687353Y-88541202D01*
X141779847Y-88317903D01*
X141827000Y-88080849D01*
X141827000Y-87839151D01*
X141779847Y-87602097D01*
X141687353Y-87378798D01*
X141553073Y-87177833D01*
X141382167Y-87006927D01*
X141181202Y-86872647D01*
X140957903Y-86780153D01*
X140720849Y-86733000D01*
X140479151Y-86733000D01*
X140242097Y-86780153D01*
X140018798Y-86872647D01*
X139817833Y-87006927D01*
X139646927Y-87177833D01*
X139512647Y-87378798D01*
X139420153Y-87602097D01*
X139373000Y-87839151D01*
X139287000Y-87839151D01*
X139239847Y-87602097D01*
X139147353Y-87378798D01*
X139013073Y-87177833D01*
X138842167Y-87006927D01*
X138641202Y-86872647D01*
X138417903Y-86780153D01*
X138180849Y-86733000D01*
X137939151Y-86733000D01*
X137702097Y-86780153D01*
X137478798Y-86872647D01*
X137277833Y-87006927D01*
X137106927Y-87177833D01*
X136972647Y-87378798D01*
X136880153Y-87602097D01*
X136833000Y-87839151D01*
X136747000Y-87839151D01*
X136699847Y-87602097D01*
X136607353Y-87378798D01*
X136473073Y-87177833D01*
X136302167Y-87006927D01*
X136101202Y-86872647D01*
X135877903Y-86780153D01*
X135640849Y-86733000D01*
X135399151Y-86733000D01*
X135162097Y-86780153D01*
X134938798Y-86872647D01*
X134737833Y-87006927D01*
X134566927Y-87177833D01*
X134432647Y-87378798D01*
X134340153Y-87602097D01*
X134293000Y-87839151D01*
X134207000Y-87839151D01*
X134159847Y-87602097D01*
X134067353Y-87378798D01*
X133933073Y-87177833D01*
X133762167Y-87006927D01*
X133561202Y-86872647D01*
X133337903Y-86780153D01*
X133100849Y-86733000D01*
X132859151Y-86733000D01*
X132622097Y-86780153D01*
X132398798Y-86872647D01*
X132197833Y-87006927D01*
X132026927Y-87177833D01*
X131892647Y-87378798D01*
X131800153Y-87602097D01*
X131753000Y-87839151D01*
X131667000Y-87839151D01*
X131619847Y-87602097D01*
X131527353Y-87378798D01*
X131393073Y-87177833D01*
X131222167Y-87006927D01*
X131021202Y-86872647D01*
X130797903Y-86780153D01*
X130560849Y-86733000D01*
X130319151Y-86733000D01*
X130082097Y-86780153D01*
X129858798Y-86872647D01*
X129657833Y-87006927D01*
X129486927Y-87177833D01*
X129352647Y-87378798D01*
X129260153Y-87602097D01*
X129213000Y-87839151D01*
X129127000Y-87839151D01*
X129079847Y-87602097D01*
X128987353Y-87378798D01*
X128853073Y-87177833D01*
X128682167Y-87006927D01*
X128481202Y-86872647D01*
X128257903Y-86780153D01*
X128020849Y-86733000D01*
X127779151Y-86733000D01*
X127542097Y-86780153D01*
X127318798Y-86872647D01*
X127117833Y-87006927D01*
X126946927Y-87177833D01*
X126812647Y-87378798D01*
X126720153Y-87602097D01*
X126673000Y-87839151D01*
X126587000Y-87839151D01*
X126539847Y-87602097D01*
X126447353Y-87378798D01*
X126313073Y-87177833D01*
X126142167Y-87006927D01*
X125941202Y-86872647D01*
X125717903Y-86780153D01*
X125480849Y-86733000D01*
X125239151Y-86733000D01*
X125002097Y-86780153D01*
X124778798Y-86872647D01*
X124577833Y-87006927D01*
X124406927Y-87177833D01*
X124272647Y-87378798D01*
X124180153Y-87602097D01*
X124133000Y-87839151D01*
X124047000Y-87839151D01*
X123999847Y-87602097D01*
X123907353Y-87378798D01*
X123773073Y-87177833D01*
X123757753Y-87162513D01*
X124543265Y-86377000D01*
X141136735Y-86377000D01*
X142087048Y-87327313D01*
G04 #@! TA.AperFunction,Conductor*
D18*
G36*
X142087048Y-87327313D02*
G01*
X142052647Y-87378798D01*
X141960153Y-87602097D01*
X141913000Y-87839151D01*
X141913000Y-88080849D01*
X141960153Y-88317903D01*
X142052647Y-88541202D01*
X142186927Y-88742167D01*
X142263001Y-88818241D01*
X142263000Y-89641760D01*
X142186927Y-89717833D01*
X142052647Y-89918798D01*
X141960153Y-90142097D01*
X141913000Y-90379151D01*
X141913000Y-90620849D01*
X141913865Y-90625198D01*
X141885690Y-90718078D01*
X141868757Y-90890000D01*
X141873001Y-90933090D01*
X141873000Y-121903000D01*
X140752000Y-121903000D01*
X140752000Y-91720804D01*
X140957903Y-91679847D01*
X141181202Y-91587353D01*
X141382167Y-91453073D01*
X141553073Y-91282167D01*
X141687353Y-91081202D01*
X141779847Y-90857903D01*
X141827000Y-90620849D01*
X141827000Y-90379151D01*
X141779847Y-90142097D01*
X141687353Y-89918798D01*
X141553073Y-89717833D01*
X141382167Y-89546927D01*
X141181202Y-89412647D01*
X140957903Y-89320153D01*
X140720849Y-89273000D01*
X140479151Y-89273000D01*
X140242097Y-89320153D01*
X140018798Y-89412647D01*
X139817833Y-89546927D01*
X139646927Y-89717833D01*
X139512647Y-89918798D01*
X139420153Y-90142097D01*
X139373000Y-90379151D01*
X139373000Y-90620849D01*
X139420153Y-90857903D01*
X139512647Y-91081202D01*
X139646927Y-91282167D01*
X139748001Y-91383241D01*
X139748000Y-121903000D01*
X138252000Y-121903000D01*
X138252000Y-91712847D01*
X138417903Y-91679847D01*
X138641202Y-91587353D01*
X138842167Y-91453073D01*
X139013073Y-91282167D01*
X139147353Y-91081202D01*
X139239847Y-90857903D01*
X139287000Y-90620849D01*
X139287000Y-90379151D01*
X139239847Y-90142097D01*
X139147353Y-89918798D01*
X139013073Y-89717833D01*
X138842167Y-89546927D01*
X138641202Y-89412647D01*
X138417903Y-89320153D01*
X138180849Y-89273000D01*
X137939151Y-89273000D01*
X137702097Y-89320153D01*
X137478798Y-89412647D01*
X137277833Y-89546927D01*
X137106927Y-89717833D01*
X136972647Y-89918798D01*
X136880153Y-90142097D01*
X136833000Y-90379151D01*
X136833000Y-90620849D01*
X136880153Y-90857903D01*
X136972647Y-91081202D01*
X137106927Y-91282167D01*
X137248001Y-91423241D01*
X137248000Y-121903000D01*
X135752000Y-121903000D01*
X135752000Y-91704891D01*
X135877903Y-91679847D01*
X136101202Y-91587353D01*
X136302167Y-91453073D01*
X136473073Y-91282167D01*
X136607353Y-91081202D01*
X136699847Y-90857903D01*
X136747000Y-90620849D01*
X136747000Y-90379151D01*
X136699847Y-90142097D01*
X136607353Y-89918798D01*
X136473073Y-89717833D01*
X136302167Y-89546927D01*
X136101202Y-89412647D01*
X135877903Y-89320153D01*
X135640849Y-89273000D01*
X135399151Y-89273000D01*
X135162097Y-89320153D01*
X134938798Y-89412647D01*
X134737833Y-89546927D01*
X134566927Y-89717833D01*
X134432647Y-89918798D01*
X134340153Y-90142097D01*
X134293000Y-90379151D01*
X134293000Y-90620849D01*
X134340153Y-90857903D01*
X134432647Y-91081202D01*
X134566927Y-91282167D01*
X134737833Y-91453073D01*
X134748001Y-91459867D01*
X134748000Y-121903000D01*
X128252000Y-121903000D01*
X128252000Y-91681021D01*
X128257903Y-91679847D01*
X128481202Y-91587353D01*
X128682167Y-91453073D01*
X128853073Y-91282167D01*
X128987353Y-91081202D01*
X129079847Y-90857903D01*
X129127000Y-90620849D01*
X129127000Y-90379151D01*
X129213000Y-90379151D01*
X129213000Y-90620849D01*
X129260153Y-90857903D01*
X129352647Y-91081202D01*
X129486927Y-91282167D01*
X129657833Y-91453073D01*
X129858798Y-91587353D01*
X130082097Y-91679847D01*
X130319151Y-91727000D01*
X130560849Y-91727000D01*
X130797903Y-91679847D01*
X131021202Y-91587353D01*
X131222167Y-91453073D01*
X131393073Y-91282167D01*
X131527353Y-91081202D01*
X131619847Y-90857903D01*
X131667000Y-90620849D01*
X131667000Y-90379151D01*
X131753000Y-90379151D01*
X131753000Y-90620849D01*
X131800153Y-90857903D01*
X131892647Y-91081202D01*
X132026927Y-91282167D01*
X132197833Y-91453073D01*
X132398798Y-91587353D01*
X132622097Y-91679847D01*
X132859151Y-91727000D01*
X133100849Y-91727000D01*
X133337903Y-91679847D01*
X133561202Y-91587353D01*
X133762167Y-91453073D01*
X133933073Y-91282167D01*
X134067353Y-91081202D01*
X134159847Y-90857903D01*
X134207000Y-90620849D01*
X134207000Y-90379151D01*
X134159847Y-90142097D01*
X134067353Y-89918798D01*
X133933073Y-89717833D01*
X133762167Y-89546927D01*
X133561202Y-89412647D01*
X133337903Y-89320153D01*
X133100849Y-89273000D01*
X132859151Y-89273000D01*
X132622097Y-89320153D01*
X132398798Y-89412647D01*
X132197833Y-89546927D01*
X132026927Y-89717833D01*
X131892647Y-89918798D01*
X131800153Y-90142097D01*
X131753000Y-90379151D01*
X131667000Y-90379151D01*
X131619847Y-90142097D01*
X131527353Y-89918798D01*
X131393073Y-89717833D01*
X131222167Y-89546927D01*
X131021202Y-89412647D01*
X130797903Y-89320153D01*
X130560849Y-89273000D01*
X130319151Y-89273000D01*
X130082097Y-89320153D01*
X129858798Y-89412647D01*
X129657833Y-89546927D01*
X129486927Y-89717833D01*
X129352647Y-89918798D01*
X129260153Y-90142097D01*
X129213000Y-90379151D01*
X129127000Y-90379151D01*
X129079847Y-90142097D01*
X128987353Y-89918798D01*
X128853073Y-89717833D01*
X128682167Y-89546927D01*
X128481202Y-89412647D01*
X128257903Y-89320153D01*
X128020849Y-89273000D01*
X127779151Y-89273000D01*
X127542097Y-89320153D01*
X127318798Y-89412647D01*
X127117833Y-89546927D01*
X126946927Y-89717833D01*
X126812647Y-89918798D01*
X126720153Y-90142097D01*
X126673000Y-90379151D01*
X126673000Y-90620849D01*
X126720153Y-90857903D01*
X126812647Y-91081202D01*
X126946927Y-91282167D01*
X127117833Y-91453073D01*
X127248001Y-91540048D01*
X127248000Y-121903000D01*
X125752000Y-121903000D01*
X125752000Y-91665723D01*
X125941202Y-91587353D01*
X126142167Y-91453073D01*
X126313073Y-91282167D01*
X126447353Y-91081202D01*
X126539847Y-90857903D01*
X126587000Y-90620849D01*
X126587000Y-90379151D01*
X126539847Y-90142097D01*
X126447353Y-89918798D01*
X126313073Y-89717833D01*
X126142167Y-89546927D01*
X125941202Y-89412647D01*
X125717903Y-89320153D01*
X125480849Y-89273000D01*
X125239151Y-89273000D01*
X125002097Y-89320153D01*
X124778798Y-89412647D01*
X124577833Y-89546927D01*
X124406927Y-89717833D01*
X124272647Y-89918798D01*
X124180153Y-90142097D01*
X124133000Y-90379151D01*
X124133000Y-90620849D01*
X124180153Y-90857903D01*
X124272647Y-91081202D01*
X124406927Y-91282167D01*
X124577833Y-91453073D01*
X124748001Y-91566775D01*
X124748000Y-121903000D01*
X123627000Y-121903000D01*
X123627000Y-91428240D01*
X123773073Y-91282167D01*
X123907353Y-91081202D01*
X123999847Y-90857903D01*
X124047000Y-90620849D01*
X124047000Y-90379151D01*
X123999847Y-90142097D01*
X123907353Y-89918798D01*
X123773073Y-89717833D01*
X123627000Y-89571760D01*
X123627000Y-88888240D01*
X123773073Y-88742167D01*
X123907353Y-88541202D01*
X123999847Y-88317903D01*
X124047000Y-88080849D01*
X124047000Y-87839151D01*
X124133000Y-87839151D01*
X124133000Y-88080849D01*
X124180153Y-88317903D01*
X124272647Y-88541202D01*
X124406927Y-88742167D01*
X124577833Y-88913073D01*
X124778798Y-89047353D01*
X125002097Y-89139847D01*
X125239151Y-89187000D01*
X125480849Y-89187000D01*
X125717903Y-89139847D01*
X125941202Y-89047353D01*
X126142167Y-88913073D01*
X126313073Y-88742167D01*
X126447353Y-88541202D01*
X126539847Y-88317903D01*
X126587000Y-88080849D01*
X126587000Y-87839151D01*
X126673000Y-87839151D01*
X126673000Y-88080849D01*
X126720153Y-88317903D01*
X126812647Y-88541202D01*
X126946927Y-88742167D01*
X127117833Y-88913073D01*
X127318798Y-89047353D01*
X127542097Y-89139847D01*
X127779151Y-89187000D01*
X128020849Y-89187000D01*
X128257903Y-89139847D01*
X128481202Y-89047353D01*
X128682167Y-88913073D01*
X128853073Y-88742167D01*
X128987353Y-88541202D01*
X129079847Y-88317903D01*
X129127000Y-88080849D01*
X129127000Y-87839151D01*
X129213000Y-87839151D01*
X129213000Y-88080849D01*
X129260153Y-88317903D01*
X129352647Y-88541202D01*
X129486927Y-88742167D01*
X129657833Y-88913073D01*
X129858798Y-89047353D01*
X130082097Y-89139847D01*
X130319151Y-89187000D01*
X130560849Y-89187000D01*
X130797903Y-89139847D01*
X131021202Y-89047353D01*
X131222167Y-88913073D01*
X131393073Y-88742167D01*
X131527353Y-88541202D01*
X131619847Y-88317903D01*
X131667000Y-88080849D01*
X131667000Y-87839151D01*
X131753000Y-87839151D01*
X131753000Y-88080849D01*
X131800153Y-88317903D01*
X131892647Y-88541202D01*
X132026927Y-88742167D01*
X132197833Y-88913073D01*
X132398798Y-89047353D01*
X132622097Y-89139847D01*
X132859151Y-89187000D01*
X133100849Y-89187000D01*
X133337903Y-89139847D01*
X133561202Y-89047353D01*
X133762167Y-88913073D01*
X133933073Y-88742167D01*
X134067353Y-88541202D01*
X134159847Y-88317903D01*
X134207000Y-88080849D01*
X134207000Y-87839151D01*
X134293000Y-87839151D01*
X134293000Y-88080849D01*
X134340153Y-88317903D01*
X134432647Y-88541202D01*
X134566927Y-88742167D01*
X134737833Y-88913073D01*
X134938798Y-89047353D01*
X135162097Y-89139847D01*
X135399151Y-89187000D01*
X135640849Y-89187000D01*
X135877903Y-89139847D01*
X136101202Y-89047353D01*
X136302167Y-88913073D01*
X136473073Y-88742167D01*
X136607353Y-88541202D01*
X136699847Y-88317903D01*
X136747000Y-88080849D01*
X136747000Y-87839151D01*
X136833000Y-87839151D01*
X136833000Y-88080849D01*
X136880153Y-88317903D01*
X136972647Y-88541202D01*
X137106927Y-88742167D01*
X137277833Y-88913073D01*
X137478798Y-89047353D01*
X137702097Y-89139847D01*
X137939151Y-89187000D01*
X138180849Y-89187000D01*
X138417903Y-89139847D01*
X138641202Y-89047353D01*
X138842167Y-88913073D01*
X139013073Y-88742167D01*
X139147353Y-88541202D01*
X139239847Y-88317903D01*
X139287000Y-88080849D01*
X139287000Y-87839151D01*
X139373000Y-87839151D01*
X139373000Y-88080849D01*
X139420153Y-88317903D01*
X139512647Y-88541202D01*
X139646927Y-88742167D01*
X139817833Y-88913073D01*
X140018798Y-89047353D01*
X140242097Y-89139847D01*
X140479151Y-89187000D01*
X140720849Y-89187000D01*
X140957903Y-89139847D01*
X141181202Y-89047353D01*
X141382167Y-88913073D01*
X141553073Y-88742167D01*
X141687353Y-88541202D01*
X141779847Y-88317903D01*
X141827000Y-88080849D01*
X141827000Y-87839151D01*
X141779847Y-87602097D01*
X141687353Y-87378798D01*
X141553073Y-87177833D01*
X141382167Y-87006927D01*
X141181202Y-86872647D01*
X140957903Y-86780153D01*
X140720849Y-86733000D01*
X140479151Y-86733000D01*
X140242097Y-86780153D01*
X140018798Y-86872647D01*
X139817833Y-87006927D01*
X139646927Y-87177833D01*
X139512647Y-87378798D01*
X139420153Y-87602097D01*
X139373000Y-87839151D01*
X139287000Y-87839151D01*
X139239847Y-87602097D01*
X139147353Y-87378798D01*
X139013073Y-87177833D01*
X138842167Y-87006927D01*
X138641202Y-86872647D01*
X138417903Y-86780153D01*
X138180849Y-86733000D01*
X137939151Y-86733000D01*
X137702097Y-86780153D01*
X137478798Y-86872647D01*
X137277833Y-87006927D01*
X137106927Y-87177833D01*
X136972647Y-87378798D01*
X136880153Y-87602097D01*
X136833000Y-87839151D01*
X136747000Y-87839151D01*
X136699847Y-87602097D01*
X136607353Y-87378798D01*
X136473073Y-87177833D01*
X136302167Y-87006927D01*
X136101202Y-86872647D01*
X135877903Y-86780153D01*
X135640849Y-86733000D01*
X135399151Y-86733000D01*
X135162097Y-86780153D01*
X134938798Y-86872647D01*
X134737833Y-87006927D01*
X134566927Y-87177833D01*
X134432647Y-87378798D01*
X134340153Y-87602097D01*
X134293000Y-87839151D01*
X134207000Y-87839151D01*
X134159847Y-87602097D01*
X134067353Y-87378798D01*
X133933073Y-87177833D01*
X133762167Y-87006927D01*
X133561202Y-86872647D01*
X133337903Y-86780153D01*
X133100849Y-86733000D01*
X132859151Y-86733000D01*
X132622097Y-86780153D01*
X132398798Y-86872647D01*
X132197833Y-87006927D01*
X132026927Y-87177833D01*
X131892647Y-87378798D01*
X131800153Y-87602097D01*
X131753000Y-87839151D01*
X131667000Y-87839151D01*
X131619847Y-87602097D01*
X131527353Y-87378798D01*
X131393073Y-87177833D01*
X131222167Y-87006927D01*
X131021202Y-86872647D01*
X130797903Y-86780153D01*
X130560849Y-86733000D01*
X130319151Y-86733000D01*
X130082097Y-86780153D01*
X129858798Y-86872647D01*
X129657833Y-87006927D01*
X129486927Y-87177833D01*
X129352647Y-87378798D01*
X129260153Y-87602097D01*
X129213000Y-87839151D01*
X129127000Y-87839151D01*
X129079847Y-87602097D01*
X128987353Y-87378798D01*
X128853073Y-87177833D01*
X128682167Y-87006927D01*
X128481202Y-86872647D01*
X128257903Y-86780153D01*
X128020849Y-86733000D01*
X127779151Y-86733000D01*
X127542097Y-86780153D01*
X127318798Y-86872647D01*
X127117833Y-87006927D01*
X126946927Y-87177833D01*
X126812647Y-87378798D01*
X126720153Y-87602097D01*
X126673000Y-87839151D01*
X126587000Y-87839151D01*
X126539847Y-87602097D01*
X126447353Y-87378798D01*
X126313073Y-87177833D01*
X126142167Y-87006927D01*
X125941202Y-86872647D01*
X125717903Y-86780153D01*
X125480849Y-86733000D01*
X125239151Y-86733000D01*
X125002097Y-86780153D01*
X124778798Y-86872647D01*
X124577833Y-87006927D01*
X124406927Y-87177833D01*
X124272647Y-87378798D01*
X124180153Y-87602097D01*
X124133000Y-87839151D01*
X124047000Y-87839151D01*
X123999847Y-87602097D01*
X123907353Y-87378798D01*
X123773073Y-87177833D01*
X123757753Y-87162513D01*
X124543265Y-86377000D01*
X141136735Y-86377000D01*
X142087048Y-87327313D01*
G37*
G04 #@! TD.AperFunction*
M02*
