G04 #@! TF.GenerationSoftware,KiCad,Pcbnew,(6.0.6)*
G04 #@! TF.CreationDate,2022-06-25T19:15:56+02:00*
G04 #@! TF.ProjectId,brutzelkarte,62727574-7a65-46c6-9b61-7274652e6b69,rev?*
G04 #@! TF.SameCoordinates,Original*
G04 #@! TF.FileFunction,Soldermask,Bot*
G04 #@! TF.FilePolarity,Negative*
%FSLAX46Y46*%
G04 Gerber Fmt 4.6, Leading zero omitted, Abs format (unit mm)*
G04 Created by KiCad (PCBNEW (6.0.6)) date 2022-06-25 19:15:56*
%MOMM*%
%LPD*%
G01*
G04 APERTURE LIST*
G04 Aperture macros list*
%AMRoundRect*
0 Rectangle with rounded corners*
0 $1 Rounding radius*
0 $2 $3 $4 $5 $6 $7 $8 $9 X,Y pos of 4 corners*
0 Add a 4 corners polygon primitive as box body*
4,1,4,$2,$3,$4,$5,$6,$7,$8,$9,$2,$3,0*
0 Add four circle primitives for the rounded corners*
1,1,$1+$1,$2,$3*
1,1,$1+$1,$4,$5*
1,1,$1+$1,$6,$7*
1,1,$1+$1,$8,$9*
0 Add four rect primitives between the rounded corners*
20,1,$1+$1,$2,$3,$4,$5,0*
20,1,$1+$1,$4,$5,$6,$7,0*
20,1,$1+$1,$6,$7,$8,$9,0*
20,1,$1+$1,$8,$9,$2,$3,0*%
G04 Aperture macros list end*
%ADD10C,2.760000*%
%ADD11RoundRect,0.130000X0.850000X-0.850000X0.850000X0.850000X-0.850000X0.850000X-0.850000X-0.850000X0*%
%ADD12O,1.960000X1.960000*%
%ADD13C,0.860000*%
G04 APERTURE END LIST*
D10*
X85350000Y-122600000D03*
X180150000Y-122600000D03*
D11*
X102500000Y-90500000D03*
D12*
X102500000Y-87960000D03*
X105040000Y-90500000D03*
X105040000Y-87960000D03*
X107580000Y-90500000D03*
X107580000Y-87960000D03*
X110120000Y-90500000D03*
X110120000Y-87960000D03*
X112660000Y-90500000D03*
X112660000Y-87960000D03*
X115200000Y-90500000D03*
X115200000Y-87960000D03*
X117740000Y-90500000D03*
X117740000Y-87960000D03*
X120280000Y-90500000D03*
X120280000Y-87960000D03*
X122820000Y-90500000D03*
X122820000Y-87960000D03*
X125360000Y-90500000D03*
X125360000Y-87960000D03*
X127900000Y-90500000D03*
X127900000Y-87960000D03*
X130440000Y-90500000D03*
X130440000Y-87960000D03*
X132980000Y-90500000D03*
X132980000Y-87960000D03*
X135520000Y-90500000D03*
X135520000Y-87960000D03*
X138060000Y-90500000D03*
X138060000Y-87960000D03*
X140600000Y-90500000D03*
X140600000Y-87960000D03*
X143140000Y-90500000D03*
X143140000Y-87960000D03*
X145680000Y-90500000D03*
X145680000Y-87960000D03*
X148220000Y-90500000D03*
X148220000Y-87960000D03*
X150760000Y-90500000D03*
X150760000Y-87960000D03*
X153300000Y-90500000D03*
X153300000Y-87960000D03*
X155840000Y-90500000D03*
X155840000Y-87960000D03*
X158380000Y-90500000D03*
X158380000Y-87960000D03*
X160920000Y-90500000D03*
X160920000Y-87960000D03*
X163460000Y-90500000D03*
X163460000Y-87960000D03*
D13*
X116500000Y-94500000D03*
X119000000Y-94500000D03*
X121500000Y-94500000D03*
X124000000Y-94500000D03*
X126500000Y-94500000D03*
X129000000Y-94500000D03*
X131500000Y-94500000D03*
X134000000Y-94500000D03*
X136500000Y-94500000D03*
X139000000Y-94500000D03*
X141500000Y-94500000D03*
X144000000Y-94500000D03*
X146500000Y-94500000D03*
X149000000Y-94500000D03*
X151500000Y-94500000D03*
X154000000Y-94500000D03*
X156500000Y-94500000D03*
X159000000Y-94500000D03*
X111500000Y-94500000D03*
X109000000Y-94500000D03*
X106500000Y-94500000D03*
X104000000Y-94500000D03*
X124000000Y-98500000D03*
X126500000Y-98500000D03*
X129000000Y-98500000D03*
X136500000Y-98500000D03*
X139000000Y-98500000D03*
X149000000Y-98500000D03*
X121500000Y-98500000D03*
X106500000Y-98500000D03*
X159000000Y-98500000D03*
X104000000Y-98500000D03*
X109000000Y-98500000D03*
X131500000Y-98500000D03*
X116500000Y-98500000D03*
X154000000Y-98500000D03*
X151500000Y-98500000D03*
X144000000Y-98500000D03*
X146500000Y-98500000D03*
X134000000Y-98500000D03*
X119000000Y-98500000D03*
X156500000Y-98500000D03*
X114000000Y-98500000D03*
X141500000Y-98500000D03*
X111500000Y-98500000D03*
X104000000Y-102500000D03*
X126500000Y-102500000D03*
X109000000Y-102500000D03*
X111500000Y-102500000D03*
X159000000Y-102500000D03*
X124000000Y-102500000D03*
X156500000Y-102500000D03*
X151500000Y-102500000D03*
X129000000Y-102500000D03*
X131500000Y-102500000D03*
X154000000Y-102500000D03*
X121500000Y-102500000D03*
X134000000Y-102500000D03*
X114000000Y-102500000D03*
X149000000Y-102500000D03*
X136500000Y-102500000D03*
X144000000Y-102500000D03*
X141500000Y-102500000D03*
X146500000Y-102500000D03*
X139000000Y-102500000D03*
X116500000Y-102500000D03*
X119000000Y-102500000D03*
X106500000Y-102500000D03*
X151500000Y-106500000D03*
X136500000Y-106500000D03*
X154000000Y-106500000D03*
X116500000Y-106500000D03*
X114000000Y-106500000D03*
X106500000Y-106500000D03*
X146500000Y-106500000D03*
X144000000Y-106500000D03*
X156500000Y-106500000D03*
X121500000Y-106500000D03*
X104000000Y-106500000D03*
X139000000Y-106500000D03*
X124000000Y-106500000D03*
X109000000Y-106500000D03*
X134000000Y-106500000D03*
X126500000Y-106500000D03*
X119000000Y-106500000D03*
X131500000Y-106500000D03*
X129000000Y-106500000D03*
X111500000Y-106500000D03*
X149000000Y-106500000D03*
X141500000Y-106500000D03*
X159000000Y-106500000D03*
X156500000Y-110500000D03*
X114000000Y-110500000D03*
X119000000Y-110500000D03*
X126500000Y-110500000D03*
X144000000Y-110500000D03*
X116500000Y-110500000D03*
X151500000Y-110500000D03*
X109000000Y-110500000D03*
X159000000Y-110500000D03*
X124000000Y-110500000D03*
X154000000Y-110500000D03*
X106500000Y-110500000D03*
X129000000Y-110500000D03*
X111500000Y-110500000D03*
X121500000Y-110500000D03*
X104000000Y-110500000D03*
X149000000Y-110500000D03*
X139000000Y-110500000D03*
X141500000Y-110500000D03*
X146500000Y-110500000D03*
X131500000Y-110500000D03*
X136500000Y-110500000D03*
X134000000Y-110500000D03*
X104000000Y-114500000D03*
X106500000Y-114500000D03*
X156500000Y-114500000D03*
X121500000Y-114500000D03*
X141500000Y-114500000D03*
X124000000Y-114500000D03*
X109000000Y-114500000D03*
X154000000Y-114500000D03*
X111500000Y-114500000D03*
X136500000Y-114500000D03*
X151500000Y-114500000D03*
X119000000Y-114500000D03*
X126500000Y-114500000D03*
X129000000Y-114500000D03*
X144000000Y-114500000D03*
X159000000Y-114500000D03*
X131500000Y-114500000D03*
X116500000Y-114500000D03*
X149000000Y-114500000D03*
X114000000Y-114500000D03*
X146500000Y-114500000D03*
X139000000Y-114500000D03*
X134000000Y-114500000D03*
X124000000Y-118500000D03*
X149000000Y-118500000D03*
X141500000Y-118500000D03*
X121500000Y-118500000D03*
X134000000Y-118500000D03*
X146500000Y-118500000D03*
X144000000Y-118500000D03*
X154000000Y-118500000D03*
X114000000Y-118500000D03*
X111500000Y-118500000D03*
X156500000Y-118500000D03*
X119000000Y-118500000D03*
X131500000Y-118500000D03*
X116500000Y-118500000D03*
X126500000Y-118500000D03*
X159000000Y-118500000D03*
X104000000Y-118500000D03*
X151500000Y-118500000D03*
X109000000Y-118500000D03*
X129000000Y-118500000D03*
X106500000Y-118500000D03*
X136500000Y-118500000D03*
X139000000Y-118500000D03*
X114000000Y-94500000D03*
G36*
X85942121Y-98520002D02*
G01*
X85988614Y-98573658D01*
X86000000Y-98626000D01*
X86000000Y-119481885D01*
X86004475Y-119497124D01*
X86005865Y-119498329D01*
X86013548Y-119500000D01*
X86020838Y-119500000D01*
X86088959Y-119520002D01*
X86135452Y-119573658D01*
X86145556Y-119643932D01*
X86116062Y-119708512D01*
X86056336Y-119746896D01*
X86039329Y-119750636D01*
X86031018Y-119751869D01*
X86018709Y-119753081D01*
X86003094Y-119753848D01*
X85996912Y-119754000D01*
X82626000Y-119754000D01*
X82557879Y-119733998D01*
X82511386Y-119680342D01*
X82500000Y-119628000D01*
X82500000Y-98626000D01*
X82520002Y-98557879D01*
X82573658Y-98511386D01*
X82626000Y-98500000D01*
X85874000Y-98500000D01*
X85942121Y-98520002D01*
G37*
G36*
X182442121Y-100020002D02*
G01*
X182488614Y-100073658D01*
X182500000Y-100126000D01*
X182500000Y-119628000D01*
X182479998Y-119696121D01*
X182426342Y-119742614D01*
X182374000Y-119754000D01*
X179003088Y-119754000D01*
X178996906Y-119753848D01*
X178981291Y-119753081D01*
X178968982Y-119751869D01*
X178960671Y-119750636D01*
X178896223Y-119720854D01*
X178858108Y-119660956D01*
X178858426Y-119589960D01*
X178897077Y-119530407D01*
X178961790Y-119501203D01*
X178979162Y-119500000D01*
X178981885Y-119500000D01*
X178997124Y-119495525D01*
X178998329Y-119494135D01*
X179000000Y-119486452D01*
X179000000Y-100126000D01*
X179020002Y-100057879D01*
X179073658Y-100011386D01*
X179126000Y-100000000D01*
X182374000Y-100000000D01*
X182442121Y-100020002D01*
G37*
G36*
X164942121Y-123020002D02*
G01*
X164988614Y-123073658D01*
X165000000Y-123126000D01*
X165000000Y-128947810D01*
X164979998Y-129015931D01*
X164963095Y-129036905D01*
X164036905Y-129963095D01*
X163974593Y-129997121D01*
X163947810Y-130000000D01*
X101552190Y-130000000D01*
X101484069Y-129979998D01*
X101463095Y-129963095D01*
X100536905Y-129036905D01*
X100502879Y-128974593D01*
X100500000Y-128947810D01*
X100500000Y-123126000D01*
X100520002Y-123057879D01*
X100573658Y-123011386D01*
X100626000Y-123000000D01*
X164874000Y-123000000D01*
X164942121Y-123020002D01*
G37*
G36*
X182442121Y-119266002D02*
G01*
X182488614Y-119319658D01*
X182500000Y-119372000D01*
X182500000Y-125874000D01*
X182479998Y-125942121D01*
X182426342Y-125988614D01*
X182374000Y-126000000D01*
X176626000Y-126000000D01*
X176557879Y-125979998D01*
X176511386Y-125926342D01*
X176500000Y-125874000D01*
X176500000Y-119626000D01*
X176520002Y-119557879D01*
X176573658Y-119511386D01*
X176626000Y-119500000D01*
X178981885Y-119500000D01*
X178997124Y-119495525D01*
X178998329Y-119494135D01*
X179000000Y-119486452D01*
X179000000Y-119372000D01*
X179020002Y-119303879D01*
X179073658Y-119257386D01*
X179126000Y-119246000D01*
X182374000Y-119246000D01*
X182442121Y-119266002D01*
G37*
G36*
X85942121Y-119266002D02*
G01*
X85988614Y-119319658D01*
X86000000Y-119372000D01*
X86000000Y-119481885D01*
X86004475Y-119497124D01*
X86005865Y-119498329D01*
X86013548Y-119500000D01*
X88874000Y-119500000D01*
X88942121Y-119520002D01*
X88988614Y-119573658D01*
X89000000Y-119626000D01*
X89000000Y-125874000D01*
X88979998Y-125942121D01*
X88926342Y-125988614D01*
X88874000Y-126000000D01*
X82626000Y-126000000D01*
X82557879Y-125979998D01*
X82511386Y-125926342D01*
X82500000Y-125874000D01*
X82500000Y-119372000D01*
X82520002Y-119303879D01*
X82573658Y-119257386D01*
X82626000Y-119246000D01*
X85874000Y-119246000D01*
X85942121Y-119266002D01*
G37*
G36*
X164980771Y-122993068D02*
G01*
X164999430Y-122998068D01*
X165000718Y-122999356D01*
X165001000Y-122999356D01*
X165001932Y-123000570D01*
X165006932Y-123019231D01*
X165007000Y-123019749D01*
X165007000Y-128980253D01*
X165006932Y-128980771D01*
X165001932Y-128999432D01*
X165001510Y-128999854D01*
X165001535Y-128999879D01*
X165001535Y-129000915D01*
X164999000Y-129010375D01*
X164998654Y-129011075D01*
X164998167Y-129011709D01*
X164997995Y-129011905D01*
X164018916Y-129990984D01*
X164018502Y-129991302D01*
X164001769Y-130000963D01*
X164001169Y-130000963D01*
X164001169Y-130001000D01*
X164000437Y-130001732D01*
X163991957Y-130006628D01*
X163991219Y-130006879D01*
X163990431Y-130006983D01*
X163990169Y-130007000D01*
X101519749Y-130007000D01*
X101519231Y-130006932D01*
X101500571Y-130001932D01*
X101500146Y-130001507D01*
X101500119Y-130001533D01*
X101499083Y-130001533D01*
X101489625Y-129998999D01*
X101488926Y-129998654D01*
X101488290Y-129998166D01*
X101488093Y-129997993D01*
X100509016Y-129018916D01*
X100508698Y-129018502D01*
X100499037Y-129001769D01*
X100499037Y-129001169D01*
X100499000Y-129001169D01*
X100498268Y-129000437D01*
X100497599Y-128999279D01*
X100502000Y-128999279D01*
X100502183Y-128999355D01*
X101500904Y-129998076D01*
X101501089Y-129998000D01*
X163999279Y-129998000D01*
X163999355Y-129997817D01*
X164998076Y-128999096D01*
X164998000Y-128998914D01*
X164998000Y-123002000D01*
X100502000Y-123002000D01*
X100502000Y-128999279D01*
X100497599Y-128999279D01*
X100493372Y-128991957D01*
X100493121Y-128991219D01*
X100493017Y-128990431D01*
X100493000Y-128990169D01*
X100493000Y-123019749D01*
X100493068Y-123019231D01*
X100498068Y-123000570D01*
X100499356Y-122999282D01*
X100499356Y-122999000D01*
X100500570Y-122998068D01*
X100519231Y-122993068D01*
X100519749Y-122993000D01*
X164980253Y-122993000D01*
X164980771Y-122993068D01*
G37*
G36*
X182480771Y-99993068D02*
G01*
X182499430Y-99998068D01*
X182500718Y-99999356D01*
X182501000Y-99999356D01*
X182501932Y-100000570D01*
X182506932Y-100019231D01*
X182507000Y-100019749D01*
X182507000Y-125980253D01*
X182506932Y-125980771D01*
X182501932Y-125999430D01*
X182500644Y-126000718D01*
X182500644Y-126001000D01*
X182499430Y-126001932D01*
X182480771Y-126006932D01*
X182480253Y-126007000D01*
X176519749Y-126007000D01*
X176519231Y-126006932D01*
X176500570Y-126001932D01*
X176499282Y-126000644D01*
X176499000Y-126000644D01*
X176498068Y-125999430D01*
X176497685Y-125998000D01*
X176502000Y-125998000D01*
X182498000Y-125998000D01*
X182498000Y-100002000D01*
X179002000Y-100002000D01*
X179002000Y-119500000D01*
X179001000Y-119501732D01*
X179000000Y-119502000D01*
X176502000Y-119502000D01*
X176502000Y-125998000D01*
X176497685Y-125998000D01*
X176493068Y-125980771D01*
X176493000Y-125980253D01*
X176493000Y-119519749D01*
X176493068Y-119519231D01*
X176498068Y-119500570D01*
X176499356Y-119499282D01*
X176499356Y-119499000D01*
X176500570Y-119498068D01*
X176519231Y-119493068D01*
X176519749Y-119493000D01*
X178844737Y-119493000D01*
X178918967Y-119473110D01*
X178973110Y-119418967D01*
X178993000Y-119344737D01*
X178993000Y-100019749D01*
X178993068Y-100019231D01*
X178998068Y-100000570D01*
X178999356Y-99999282D01*
X178999356Y-99999000D01*
X179000570Y-99998068D01*
X179019231Y-99993068D01*
X179019749Y-99993000D01*
X182480253Y-99993000D01*
X182480771Y-99993068D01*
G37*
G36*
X85980771Y-98493068D02*
G01*
X85999430Y-98498068D01*
X86000718Y-98499356D01*
X86001000Y-98499356D01*
X86001932Y-98500570D01*
X86006932Y-98519231D01*
X86007000Y-98519749D01*
X86007000Y-119344737D01*
X86026890Y-119418967D01*
X86081034Y-119473110D01*
X86155263Y-119493000D01*
X88980253Y-119493000D01*
X88980771Y-119493068D01*
X88999430Y-119498068D01*
X89000718Y-119499356D01*
X89001000Y-119499356D01*
X89001932Y-119500570D01*
X89006932Y-119519231D01*
X89007000Y-119519749D01*
X89007000Y-125980253D01*
X89006932Y-125980771D01*
X89001932Y-125999430D01*
X89000644Y-126000718D01*
X89000644Y-126001000D01*
X88999430Y-126001932D01*
X88980771Y-126006932D01*
X88980253Y-126007000D01*
X82519749Y-126007000D01*
X82519231Y-126006932D01*
X82500570Y-126001932D01*
X82499282Y-126000644D01*
X82499000Y-126000644D01*
X82498068Y-125999430D01*
X82497685Y-125998000D01*
X82502000Y-125998000D01*
X88998000Y-125998000D01*
X88998000Y-119502000D01*
X86000000Y-119502000D01*
X85998268Y-119501000D01*
X85998000Y-119500000D01*
X85998000Y-98502000D01*
X82502000Y-98502000D01*
X82502000Y-125998000D01*
X82497685Y-125998000D01*
X82493068Y-125980771D01*
X82493000Y-125980253D01*
X82493000Y-98519749D01*
X82493068Y-98519231D01*
X82498068Y-98500570D01*
X82499356Y-98499282D01*
X82499356Y-98499000D01*
X82500570Y-98498068D01*
X82519231Y-98493068D01*
X82519749Y-98493000D01*
X85980253Y-98493000D01*
X85980771Y-98493068D01*
G37*
M02*
