G04 #@! TF.GenerationSoftware,KiCad,Pcbnew,5.1.10*
G04 #@! TF.CreationDate,2021-08-16T17:54:08+02:00*
G04 #@! TF.ProjectId,brutzelkarte,62727574-7a65-46c6-9b61-7274652e6b69,rev?*
G04 #@! TF.SameCoordinates,Original*
G04 #@! TF.FileFunction,Soldermask,Top*
G04 #@! TF.FilePolarity,Negative*
%FSLAX46Y46*%
G04 Gerber Fmt 4.6, Leading zero omitted, Abs format (unit mm)*
G04 Created by KiCad (PCBNEW 5.1.10) date 2021-08-16 17:54:08*
%MOMM*%
%LPD*%
G01*
G04 APERTURE LIST*
%ADD10O,1.960000X1.960000*%
%ADD11C,2.760000*%
%ADD12C,0.860000*%
%ADD13C,0.254000*%
%ADD14C,0.100000*%
G04 APERTURE END LIST*
D10*
X163460000Y-87960000D03*
X163460000Y-90500000D03*
X160920000Y-87960000D03*
X160920000Y-90500000D03*
X158380000Y-87960000D03*
X158380000Y-90500000D03*
X155840000Y-87960000D03*
X155840000Y-90500000D03*
X153300000Y-87960000D03*
X153300000Y-90500000D03*
X150760000Y-87960000D03*
X150760000Y-90500000D03*
X148220000Y-87960000D03*
X148220000Y-90500000D03*
X145680000Y-87960000D03*
X145680000Y-90500000D03*
X143140000Y-87960000D03*
X143140000Y-90500000D03*
X140600000Y-87960000D03*
X140600000Y-90500000D03*
X138060000Y-87960000D03*
X138060000Y-90500000D03*
X135520000Y-87960000D03*
X135520000Y-90500000D03*
X132980000Y-87960000D03*
X132980000Y-90500000D03*
X130440000Y-87960000D03*
X130440000Y-90500000D03*
X127900000Y-87960000D03*
X127900000Y-90500000D03*
X125360000Y-87960000D03*
X125360000Y-90500000D03*
X122820000Y-87960000D03*
X122820000Y-90500000D03*
X120280000Y-87960000D03*
X120280000Y-90500000D03*
X117740000Y-87960000D03*
X117740000Y-90500000D03*
X115200000Y-87960000D03*
X115200000Y-90500000D03*
X112660000Y-87960000D03*
X112660000Y-90500000D03*
X110120000Y-87960000D03*
X110120000Y-90500000D03*
X107580000Y-87960000D03*
X107580000Y-90500000D03*
X105040000Y-87960000D03*
X105040000Y-90500000D03*
X102500000Y-87960000D03*
G36*
G01*
X103350000Y-91480000D02*
X101650000Y-91480000D01*
G75*
G02*
X101520000Y-91350000I0J130000D01*
G01*
X101520000Y-89650000D01*
G75*
G02*
X101650000Y-89520000I130000J0D01*
G01*
X103350000Y-89520000D01*
G75*
G02*
X103480000Y-89650000I0J-130000D01*
G01*
X103480000Y-91350000D01*
G75*
G02*
X103350000Y-91480000I-130000J0D01*
G01*
G37*
D11*
X180150000Y-122600000D03*
X85350000Y-122600000D03*
D12*
X114000000Y-94500000D03*
X116500000Y-94500000D03*
X119000000Y-94500000D03*
X121500000Y-94500000D03*
X124000000Y-94500000D03*
X126500000Y-94500000D03*
X129000000Y-94500000D03*
X131500000Y-94500000D03*
X134000000Y-94500000D03*
X136500000Y-94500000D03*
X139000000Y-94500000D03*
X141500000Y-94500000D03*
X144000000Y-94500000D03*
X146500000Y-94500000D03*
X149000000Y-94500000D03*
X151500000Y-94500000D03*
X154000000Y-94500000D03*
X156500000Y-94500000D03*
X159000000Y-94500000D03*
X111500000Y-94500000D03*
X109000000Y-94500000D03*
X106500000Y-94500000D03*
X104000000Y-94500000D03*
X124000000Y-98500000D03*
X126500000Y-98500000D03*
X129000000Y-98500000D03*
X136500000Y-98500000D03*
X139000000Y-98500000D03*
X149000000Y-98500000D03*
X121500000Y-98500000D03*
X106500000Y-98500000D03*
X159000000Y-98500000D03*
X104000000Y-98500000D03*
X109000000Y-98500000D03*
X131500000Y-98500000D03*
X116500000Y-98500000D03*
X154000000Y-98500000D03*
X151500000Y-98500000D03*
X144000000Y-98500000D03*
X146500000Y-98500000D03*
X134000000Y-98500000D03*
X119000000Y-98500000D03*
X156500000Y-98500000D03*
X114000000Y-98500000D03*
X141500000Y-98500000D03*
X111500000Y-98500000D03*
X104000000Y-102500000D03*
X126500000Y-102500000D03*
X109000000Y-102500000D03*
X111500000Y-102500000D03*
X159000000Y-102500000D03*
X124000000Y-102500000D03*
X156500000Y-102500000D03*
X151500000Y-102500000D03*
X129000000Y-102500000D03*
X131500000Y-102500000D03*
X154000000Y-102500000D03*
X121500000Y-102500000D03*
X134000000Y-102500000D03*
X114000000Y-102500000D03*
X149000000Y-102500000D03*
X136500000Y-102500000D03*
X144000000Y-102500000D03*
X141500000Y-102500000D03*
X146500000Y-102500000D03*
X139000000Y-102500000D03*
X116500000Y-102500000D03*
X119000000Y-102500000D03*
X106500000Y-102500000D03*
X151500000Y-106500000D03*
X136500000Y-106500000D03*
X154000000Y-106500000D03*
X116500000Y-106500000D03*
X114000000Y-106500000D03*
X106500000Y-106500000D03*
X146500000Y-106500000D03*
X144000000Y-106500000D03*
X156500000Y-106500000D03*
X121500000Y-106500000D03*
X104000000Y-106500000D03*
X139000000Y-106500000D03*
X124000000Y-106500000D03*
X109000000Y-106500000D03*
X134000000Y-106500000D03*
X126500000Y-106500000D03*
X119000000Y-106500000D03*
X131500000Y-106500000D03*
X129000000Y-106500000D03*
X111500000Y-106500000D03*
X149000000Y-106500000D03*
X141500000Y-106500000D03*
X159000000Y-106500000D03*
X156500000Y-110500000D03*
X114000000Y-110500000D03*
X119000000Y-110500000D03*
X126500000Y-110500000D03*
X144000000Y-110500000D03*
X116500000Y-110500000D03*
X151500000Y-110500000D03*
X109000000Y-110500000D03*
X159000000Y-110500000D03*
X124000000Y-110500000D03*
X154000000Y-110500000D03*
X106500000Y-110500000D03*
X129000000Y-110500000D03*
X111500000Y-110500000D03*
X121500000Y-110500000D03*
X104000000Y-110500000D03*
X149000000Y-110500000D03*
X139000000Y-110500000D03*
X141500000Y-110500000D03*
X146500000Y-110500000D03*
X131500000Y-110500000D03*
X136500000Y-110500000D03*
X134000000Y-110500000D03*
X104000000Y-114500000D03*
X106500000Y-114500000D03*
X156500000Y-114500000D03*
X121500000Y-114500000D03*
X141500000Y-114500000D03*
X124000000Y-114500000D03*
X109000000Y-114500000D03*
X154000000Y-114500000D03*
X111500000Y-114500000D03*
X136500000Y-114500000D03*
X151500000Y-114500000D03*
X119000000Y-114500000D03*
X126500000Y-114500000D03*
X129000000Y-114500000D03*
X144000000Y-114500000D03*
X159000000Y-114500000D03*
X131500000Y-114500000D03*
X116500000Y-114500000D03*
X149000000Y-114500000D03*
X114000000Y-114500000D03*
X146500000Y-114500000D03*
X139000000Y-114500000D03*
X134000000Y-114500000D03*
X124000000Y-118500000D03*
X149000000Y-118500000D03*
X141500000Y-118500000D03*
X121500000Y-118500000D03*
X134000000Y-118500000D03*
X146500000Y-118500000D03*
X144000000Y-118500000D03*
X154000000Y-118500000D03*
X114000000Y-118500000D03*
X111500000Y-118500000D03*
X156500000Y-118500000D03*
X119000000Y-118500000D03*
X131500000Y-118500000D03*
X116500000Y-118500000D03*
X126500000Y-118500000D03*
X159000000Y-118500000D03*
X104000000Y-118500000D03*
X151500000Y-118500000D03*
X109000000Y-118500000D03*
X129000000Y-118500000D03*
X106500000Y-118500000D03*
X136500000Y-118500000D03*
X139000000Y-118500000D03*
D13*
X88873000Y-125873000D02*
X82627000Y-125873000D01*
X82627000Y-119627000D01*
X88873000Y-119627000D01*
X88873000Y-125873000D01*
D14*
G36*
X88873000Y-125873000D02*
G01*
X82627000Y-125873000D01*
X82627000Y-119627000D01*
X88873000Y-119627000D01*
X88873000Y-125873000D01*
G37*
D13*
X182373000Y-125873000D02*
X176627000Y-125873000D01*
X176627000Y-119627000D01*
X182373000Y-119627000D01*
X182373000Y-125873000D01*
D14*
G36*
X182373000Y-125873000D02*
G01*
X176627000Y-125873000D01*
X176627000Y-119627000D01*
X182373000Y-119627000D01*
X182373000Y-125873000D01*
G37*
D13*
X164873000Y-129127000D02*
X164127000Y-129873000D01*
X101373000Y-129873000D01*
X100627000Y-129127000D01*
X100627000Y-123127000D01*
X164873000Y-123127000D01*
X164873000Y-129127000D01*
D14*
G36*
X164873000Y-129127000D02*
G01*
X164127000Y-129873000D01*
X101373000Y-129873000D01*
X100627000Y-129127000D01*
X100627000Y-123127000D01*
X164873000Y-123127000D01*
X164873000Y-129127000D01*
G37*
D13*
X182373000Y-119373000D02*
X179127000Y-119373000D01*
X179127000Y-100127000D01*
X182373000Y-100127000D01*
X182373000Y-119373000D01*
D14*
G36*
X182373000Y-119373000D02*
G01*
X179127000Y-119373000D01*
X179127000Y-100127000D01*
X182373000Y-100127000D01*
X182373000Y-119373000D01*
G37*
D13*
X85873000Y-119373000D02*
X82627000Y-119373000D01*
X82627000Y-98627000D01*
X85873000Y-98627000D01*
X85873000Y-119373000D01*
D14*
G36*
X85873000Y-119373000D02*
G01*
X82627000Y-119373000D01*
X82627000Y-98627000D01*
X85873000Y-98627000D01*
X85873000Y-119373000D01*
G37*
M02*
