M48
; DRILL file {KiCad 5.1.10} date Mon Aug 16 17:54:11 2021
; FORMAT={-:-/ absolute / inch / decimal}
; #@! TF.CreationDate,2021-08-16T17:54:11+02:00
; #@! TF.GenerationSoftware,Kicad,Pcbnew,5.1.10
FMAT,2
INCH
T1C0.0157
T2C0.0394
T3C0.0984
%
G90
G05
T1
X4.0945Y-3.7205
X4.0945Y-3.878
X4.0945Y-4.0354
X4.0945Y-4.1929
X4.0945Y-4.3504
X4.0945Y-4.5079
X4.0945Y-4.6654
X4.1929Y-3.7205
X4.1929Y-3.878
X4.1929Y-4.0354
X4.1929Y-4.1929
X4.1929Y-4.3504
X4.1929Y-4.5079
X4.1929Y-4.6654
X4.2913Y-3.7205
X4.2913Y-3.878
X4.2913Y-4.0354
X4.2913Y-4.1929
X4.2913Y-4.3504
X4.2913Y-4.5079
X4.2913Y-4.6654
X4.3898Y-3.7205
X4.3898Y-3.878
X4.3898Y-4.0354
X4.3898Y-4.1929
X4.3898Y-4.3504
X4.3898Y-4.5079
X4.3898Y-4.6654
X4.4882Y-3.7205
X4.4882Y-3.878
X4.4882Y-4.0354
X4.4882Y-4.1929
X4.4882Y-4.3504
X4.4882Y-4.5079
X4.4882Y-4.6654
X4.5866Y-3.7205
X4.5866Y-3.878
X4.5866Y-4.0354
X4.5866Y-4.1929
X4.5866Y-4.3504
X4.5866Y-4.5079
X4.5866Y-4.6654
X4.685Y-3.7205
X4.685Y-3.878
X4.685Y-4.0354
X4.685Y-4.1929
X4.685Y-4.3504
X4.685Y-4.5079
X4.685Y-4.6654
X4.7835Y-3.7205
X4.7835Y-3.878
X4.7835Y-4.0354
X4.7835Y-4.1929
X4.7835Y-4.3504
X4.7835Y-4.5079
X4.7835Y-4.6654
X4.8819Y-3.7205
X4.8819Y-3.878
X4.8819Y-4.0354
X4.8819Y-4.1929
X4.8819Y-4.3504
X4.8819Y-4.5079
X4.8819Y-4.6654
X4.9803Y-3.7205
X4.9803Y-3.878
X4.9803Y-4.0354
X4.9803Y-4.1929
X4.9803Y-4.3504
X4.9803Y-4.5079
X4.9803Y-4.6654
X5.0787Y-3.7205
X5.0787Y-3.878
X5.0787Y-4.0354
X5.0787Y-4.1929
X5.0787Y-4.3504
X5.0787Y-4.5079
X5.0787Y-4.6654
X5.1772Y-3.7205
X5.1772Y-3.878
X5.1772Y-4.0354
X5.1772Y-4.1929
X5.1772Y-4.3504
X5.1772Y-4.5079
X5.1772Y-4.6654
X5.2756Y-3.7205
X5.2756Y-3.878
X5.2756Y-4.0354
X5.2756Y-4.1929
X5.2756Y-4.3504
X5.2756Y-4.5079
X5.2756Y-4.6654
X5.374Y-3.7205
X5.374Y-3.878
X5.374Y-4.0354
X5.374Y-4.1929
X5.374Y-4.3504
X5.374Y-4.5079
X5.374Y-4.6654
X5.4724Y-3.7205
X5.4724Y-3.878
X5.4724Y-4.0354
X5.4724Y-4.1929
X5.4724Y-4.3504
X5.4724Y-4.5079
X5.4724Y-4.6654
X5.5709Y-3.7205
X5.5709Y-3.878
X5.5709Y-4.0354
X5.5709Y-4.1929
X5.5709Y-4.3504
X5.5709Y-4.5079
X5.5709Y-4.6654
X5.6693Y-3.7205
X5.6693Y-3.878
X5.6693Y-4.0354
X5.6693Y-4.1929
X5.6693Y-4.3504
X5.6693Y-4.5079
X5.6693Y-4.6654
X5.7677Y-3.7205
X5.7677Y-3.878
X5.7677Y-4.0354
X5.7677Y-4.1929
X5.7677Y-4.3504
X5.7677Y-4.5079
X5.7677Y-4.6654
X5.8661Y-3.7205
X5.8661Y-3.878
X5.8661Y-4.0354
X5.8661Y-4.1929
X5.8661Y-4.3504
X5.8661Y-4.5079
X5.8661Y-4.6654
X5.9646Y-3.7205
X5.9646Y-3.878
X5.9646Y-4.0354
X5.9646Y-4.1929
X5.9646Y-4.3504
X5.9646Y-4.5079
X5.9646Y-4.6654
X6.063Y-3.7205
X6.063Y-3.878
X6.063Y-4.0354
X6.063Y-4.1929
X6.063Y-4.3504
X6.063Y-4.5079
X6.063Y-4.6654
X6.1614Y-3.7205
X6.1614Y-3.878
X6.1614Y-4.0354
X6.1614Y-4.1929
X6.1614Y-4.3504
X6.1614Y-4.5079
X6.1614Y-4.6654
X6.2598Y-3.7205
X6.2598Y-3.878
X6.2598Y-4.0354
X6.2598Y-4.1929
X6.2598Y-4.3504
X6.2598Y-4.5079
X6.2598Y-4.6654
T2
X4.0354Y-3.463
X4.0354Y-3.563
X4.1354Y-3.463
X4.1354Y-3.563
X4.2354Y-3.463
X4.2354Y-3.563
X4.3354Y-3.463
X4.3354Y-3.563
X4.4354Y-3.463
X4.4354Y-3.563
X4.5354Y-3.463
X4.5354Y-3.563
X4.6354Y-3.463
X4.6354Y-3.563
X4.7354Y-3.463
X4.7354Y-3.563
X4.8354Y-3.463
X4.8354Y-3.563
X4.9354Y-3.463
X4.9354Y-3.563
X5.0354Y-3.463
X5.0354Y-3.563
X5.1354Y-3.463
X5.1354Y-3.563
X5.2354Y-3.463
X5.2354Y-3.563
X5.3354Y-3.463
X5.3354Y-3.563
X5.4354Y-3.463
X5.4354Y-3.563
X5.5354Y-3.463
X5.5354Y-3.563
X5.6354Y-3.463
X5.6354Y-3.563
X5.7354Y-3.463
X5.7354Y-3.563
X5.8354Y-3.463
X5.8354Y-3.563
X5.9354Y-3.463
X5.9354Y-3.563
X6.0354Y-3.463
X6.0354Y-3.563
X6.1354Y-3.463
X6.1354Y-3.563
X6.2354Y-3.463
X6.2354Y-3.563
X6.3354Y-3.463
X6.3354Y-3.563
X6.4354Y-3.463
X6.4354Y-3.563
T3
X3.3602Y-4.8268
X7.0925Y-4.8268
T0
M30
