G04 #@! TF.GenerationSoftware,KiCad,Pcbnew,(6.0.6)*
G04 #@! TF.CreationDate,2022-06-25T19:15:55+02:00*
G04 #@! TF.ProjectId,brutzelkarte,62727574-7a65-46c6-9b61-7274652e6b69,rev?*
G04 #@! TF.SameCoordinates,Original*
G04 #@! TF.FileFunction,Copper,L1,Top*
G04 #@! TF.FilePolarity,Positive*
%FSLAX46Y46*%
G04 Gerber Fmt 4.6, Leading zero omitted, Abs format (unit mm)*
G04 Created by KiCad (PCBNEW (6.0.6)) date 2022-06-25 19:15:55*
%MOMM*%
%LPD*%
G01*
G04 APERTURE LIST*
G04 #@! TA.AperFunction,ComponentPad*
%ADD10C,2.500000*%
G04 #@! TD*
G04 #@! TA.AperFunction,ComponentPad*
%ADD11R,1.700000X1.700000*%
G04 #@! TD*
G04 #@! TA.AperFunction,ComponentPad*
%ADD12O,1.700000X1.700000*%
G04 #@! TD*
G04 #@! TA.AperFunction,SMDPad,CuDef*
%ADD13R,1.500000X7.000000*%
G04 #@! TD*
G04 #@! TA.AperFunction,ViaPad*
%ADD14C,0.600000*%
G04 #@! TD*
G04 #@! TA.AperFunction,Conductor*
%ADD15C,0.250000*%
G04 #@! TD*
G04 #@! TA.AperFunction,Conductor*
%ADD16C,1.000000*%
G04 #@! TD*
G04 APERTURE END LIST*
D10*
X85350000Y-122600000D03*
X180150000Y-122600000D03*
D11*
X102500000Y-90500000D03*
D12*
X102500000Y-87960000D03*
X105040000Y-90500000D03*
X105040000Y-87960000D03*
X107580000Y-90500000D03*
X107580000Y-87960000D03*
X110120000Y-90500000D03*
X110120000Y-87960000D03*
X112660000Y-90500000D03*
X112660000Y-87960000D03*
X115200000Y-90500000D03*
X115200000Y-87960000D03*
X117740000Y-90500000D03*
X117740000Y-87960000D03*
X120280000Y-90500000D03*
X120280000Y-87960000D03*
X122820000Y-90500000D03*
X122820000Y-87960000D03*
X125360000Y-90500000D03*
X125360000Y-87960000D03*
X127900000Y-90500000D03*
X127900000Y-87960000D03*
X130440000Y-90500000D03*
X130440000Y-87960000D03*
X132980000Y-90500000D03*
X132980000Y-87960000D03*
X135520000Y-90500000D03*
X135520000Y-87960000D03*
X138060000Y-90500000D03*
X138060000Y-87960000D03*
X140600000Y-90500000D03*
X140600000Y-87960000D03*
X143140000Y-90500000D03*
X143140000Y-87960000D03*
X145680000Y-90500000D03*
X145680000Y-87960000D03*
X148220000Y-90500000D03*
X148220000Y-87960000D03*
X150760000Y-90500000D03*
X150760000Y-87960000D03*
X153300000Y-90500000D03*
X153300000Y-87960000D03*
X155840000Y-90500000D03*
X155840000Y-87960000D03*
X158380000Y-90500000D03*
X158380000Y-87960000D03*
X160920000Y-90500000D03*
X160920000Y-87960000D03*
X163460000Y-90500000D03*
X163460000Y-87960000D03*
D13*
X162750000Y-126000000D03*
X160250000Y-126000000D03*
X157750000Y-126000000D03*
X155250000Y-126000000D03*
X152750000Y-126000000D03*
X150250000Y-126000000D03*
X147750000Y-126000000D03*
X145250000Y-126000000D03*
X142750000Y-126000000D03*
X140250000Y-126000000D03*
X137750000Y-126000000D03*
X135250000Y-126000000D03*
X132750000Y-126000000D03*
X130250000Y-126000000D03*
X127750000Y-126000000D03*
X125250000Y-126000000D03*
X122750000Y-126000000D03*
X120250000Y-126000000D03*
X117750000Y-126000000D03*
X115250000Y-126000000D03*
X112750000Y-126000000D03*
X110250000Y-126000000D03*
X107750000Y-126000000D03*
X105250000Y-126000000D03*
X102750000Y-126000000D03*
D14*
X116500000Y-94500000D03*
X119000000Y-94500000D03*
X121500000Y-94500000D03*
X124000000Y-94500000D03*
X126500000Y-94500000D03*
X129000000Y-94500000D03*
X131500000Y-94500000D03*
X134000000Y-94500000D03*
X136500000Y-94500000D03*
X139000000Y-94500000D03*
X141500000Y-94500000D03*
X144000000Y-94500000D03*
X146500000Y-94500000D03*
X149000000Y-94500000D03*
X151500000Y-94500000D03*
X154000000Y-94500000D03*
X156500000Y-94500000D03*
X159000000Y-94500000D03*
X111500000Y-94500000D03*
X109000000Y-94500000D03*
X106500000Y-94500000D03*
X104000000Y-94500000D03*
X124000000Y-98500000D03*
X126500000Y-98500000D03*
X129000000Y-98500000D03*
X136500000Y-98500000D03*
X139000000Y-98500000D03*
X149000000Y-98500000D03*
X121500000Y-98500000D03*
X106500000Y-98500000D03*
X159000000Y-98500000D03*
X104000000Y-98500000D03*
X109000000Y-98500000D03*
X131500000Y-98500000D03*
X116500000Y-98500000D03*
X154000000Y-98500000D03*
X151500000Y-98500000D03*
X144000000Y-98500000D03*
X146500000Y-98500000D03*
X134000000Y-98500000D03*
X119000000Y-98500000D03*
X156500000Y-98500000D03*
X114000000Y-98500000D03*
X141500000Y-98500000D03*
X111500000Y-98500000D03*
X104000000Y-102500000D03*
X126500000Y-102500000D03*
X109000000Y-102500000D03*
X111500000Y-102500000D03*
X159000000Y-102500000D03*
X124000000Y-102500000D03*
X156500000Y-102500000D03*
X151500000Y-102500000D03*
X129000000Y-102500000D03*
X131500000Y-102500000D03*
X154000000Y-102500000D03*
X121500000Y-102500000D03*
X134000000Y-102500000D03*
X114000000Y-102500000D03*
X149000000Y-102500000D03*
X136500000Y-102500000D03*
X144000000Y-102500000D03*
X141500000Y-102500000D03*
X146500000Y-102500000D03*
X139000000Y-102500000D03*
X116500000Y-102500000D03*
X119000000Y-102500000D03*
X106500000Y-102500000D03*
X151500000Y-106500000D03*
X136500000Y-106500000D03*
X154000000Y-106500000D03*
X116500000Y-106500000D03*
X114000000Y-106500000D03*
X106500000Y-106500000D03*
X146500000Y-106500000D03*
X144000000Y-106500000D03*
X156500000Y-106500000D03*
X121500000Y-106500000D03*
X104000000Y-106500000D03*
X139000000Y-106500000D03*
X124000000Y-106500000D03*
X109000000Y-106500000D03*
X134000000Y-106500000D03*
X126500000Y-106500000D03*
X119000000Y-106500000D03*
X131500000Y-106500000D03*
X129000000Y-106500000D03*
X111500000Y-106500000D03*
X149000000Y-106500000D03*
X141500000Y-106500000D03*
X159000000Y-106500000D03*
X156500000Y-110500000D03*
X114000000Y-110500000D03*
X119000000Y-110500000D03*
X126500000Y-110500000D03*
X144000000Y-110500000D03*
X116500000Y-110500000D03*
X151500000Y-110500000D03*
X109000000Y-110500000D03*
X159000000Y-110500000D03*
X124000000Y-110500000D03*
X154000000Y-110500000D03*
X106500000Y-110500000D03*
X129000000Y-110500000D03*
X111500000Y-110500000D03*
X121500000Y-110500000D03*
X104000000Y-110500000D03*
X149000000Y-110500000D03*
X139000000Y-110500000D03*
X141500000Y-110500000D03*
X146500000Y-110500000D03*
X131500000Y-110500000D03*
X136500000Y-110500000D03*
X134000000Y-110500000D03*
X104000000Y-114500000D03*
X106500000Y-114500000D03*
X156500000Y-114500000D03*
X121500000Y-114500000D03*
X141500000Y-114500000D03*
X124000000Y-114500000D03*
X109000000Y-114500000D03*
X154000000Y-114500000D03*
X111500000Y-114500000D03*
X136500000Y-114500000D03*
X151500000Y-114500000D03*
X119000000Y-114500000D03*
X126500000Y-114500000D03*
X129000000Y-114500000D03*
X144000000Y-114500000D03*
X159000000Y-114500000D03*
X131500000Y-114500000D03*
X116500000Y-114500000D03*
X149000000Y-114500000D03*
X114000000Y-114500000D03*
X146500000Y-114500000D03*
X139000000Y-114500000D03*
X134000000Y-114500000D03*
X124000000Y-118500000D03*
X149000000Y-118500000D03*
X141500000Y-118500000D03*
X121500000Y-118500000D03*
X134000000Y-118500000D03*
X146500000Y-118500000D03*
X144000000Y-118500000D03*
X154000000Y-118500000D03*
X114000000Y-118500000D03*
X111500000Y-118500000D03*
X156500000Y-118500000D03*
X119000000Y-118500000D03*
X131500000Y-118500000D03*
X116500000Y-118500000D03*
X126500000Y-118500000D03*
X159000000Y-118500000D03*
X104000000Y-118500000D03*
X151500000Y-118500000D03*
X109000000Y-118500000D03*
X129000000Y-118500000D03*
X106500000Y-118500000D03*
X136500000Y-118500000D03*
X139000000Y-118500000D03*
X114000000Y-94500000D03*
D15*
X117750000Y-126000000D02*
X117750000Y-92985000D01*
X117750000Y-92985000D02*
X116484400Y-91719400D01*
X116484400Y-91719400D02*
X116484400Y-89215600D01*
X116484400Y-89215600D02*
X117740000Y-87960000D01*
D16*
X102750000Y-126000000D02*
X102750000Y-120250000D01*
X150250000Y-126000000D02*
X150250000Y-120750000D01*
X162750000Y-126000000D02*
X162750000Y-120250000D01*
X160250000Y-126000000D02*
X160250000Y-120250000D01*
X110250000Y-126000000D02*
X110250000Y-120250000D01*
X107750000Y-126000000D02*
X107750000Y-120250000D01*
X122750000Y-126000000D02*
X122750000Y-90570000D01*
X142750000Y-126000000D02*
X142750000Y-90890000D01*
X142750000Y-90890000D02*
X143140000Y-90500000D01*
X122820000Y-90500000D02*
X122820000Y-87960000D01*
X122750000Y-90570000D02*
X122820000Y-90500000D01*
D15*
X146900000Y-92400000D02*
X146900000Y-91093002D01*
X146900000Y-91093002D02*
X146905001Y-91088001D01*
X147750000Y-126000000D02*
X147750000Y-93250000D01*
X146905001Y-89911999D02*
X146900000Y-89906998D01*
X146900000Y-89906998D02*
X146900000Y-89280000D01*
X147750000Y-93250000D02*
X146900000Y-92400000D01*
X146905001Y-91088001D02*
X146905001Y-89911999D01*
X146900000Y-89280000D02*
X148220000Y-87960000D01*
X145250000Y-126000000D02*
X145250000Y-93250000D01*
X145250000Y-93250000D02*
X144400000Y-92400000D01*
X144400000Y-92400000D02*
X144400000Y-89240000D01*
X144400000Y-89240000D02*
X145680000Y-87960000D01*
X139300000Y-89260000D02*
X140600000Y-87960000D01*
X140250000Y-126000000D02*
X140250000Y-92750000D01*
X140250000Y-92750000D02*
X139300000Y-91800000D01*
X139300000Y-91800000D02*
X139300000Y-89260000D01*
X137750000Y-93250000D02*
X136800000Y-92300000D01*
X137750000Y-126000000D02*
X137750000Y-93250000D01*
X136800000Y-92300000D02*
X136800000Y-89220000D01*
X136800000Y-89220000D02*
X138060000Y-87960000D01*
X135250000Y-93250000D02*
X134200000Y-92200000D01*
X134205001Y-91088001D02*
X134205001Y-89911999D01*
X134200000Y-92200000D02*
X134200000Y-91093002D01*
X134200000Y-91093002D02*
X134205001Y-91088001D01*
X135250000Y-93250000D02*
X135000000Y-93000000D01*
X134200000Y-89280000D02*
X135520000Y-87960000D01*
X134205001Y-89911999D02*
X134200000Y-89906998D01*
X134200000Y-89906998D02*
X134200000Y-89280000D01*
X135250000Y-126000000D02*
X135250000Y-93250000D01*
X126600000Y-89260000D02*
X127900000Y-87960000D01*
X126600000Y-92150002D02*
X126600000Y-89260000D01*
X127750000Y-93300002D02*
X126600000Y-92150002D01*
X127750000Y-126000000D02*
X127750000Y-93300002D01*
X124100000Y-89220000D02*
X125360000Y-87960000D01*
X125250000Y-126000000D02*
X125250000Y-93250000D01*
X125250000Y-93250000D02*
X124100000Y-92100000D01*
X124100000Y-92100000D02*
X124100000Y-89220000D01*
X120250000Y-126000000D02*
X120250000Y-93250000D01*
X119000000Y-89240000D02*
X120280000Y-87960000D01*
X120250000Y-93250000D02*
X119000000Y-92000000D01*
X119000000Y-92000000D02*
X119000000Y-89240000D01*
X115250000Y-126000000D02*
X115250000Y-93250000D01*
X113900000Y-91900000D02*
X113900000Y-89260000D01*
X113900000Y-89260000D02*
X115200000Y-87960000D01*
X115250000Y-93250000D02*
X113900000Y-91900000D01*
X157100000Y-92100000D02*
X157100000Y-89240000D01*
X157750000Y-126000000D02*
X157750000Y-92750000D01*
X157750000Y-92750000D02*
X157100000Y-92100000D01*
X157100000Y-89240000D02*
X158380000Y-87960000D01*
X154600000Y-92100000D02*
X154600000Y-89200000D01*
X155250000Y-92750000D02*
X154600000Y-92100000D01*
X155250000Y-126000000D02*
X155250000Y-92750000D01*
X154600000Y-89200000D02*
X155840000Y-87960000D01*
X152000000Y-89260000D02*
X153300000Y-87960000D01*
X152750000Y-126000000D02*
X152750000Y-92750000D01*
X152000000Y-92000000D02*
X152000000Y-89260000D01*
X152750000Y-92750000D02*
X152000000Y-92000000D01*
X105250000Y-93750000D02*
X103800000Y-92300000D01*
X103800000Y-92300000D02*
X103800000Y-89200000D01*
X103800000Y-89200000D02*
X105040000Y-87960000D01*
X105250000Y-126000000D02*
X105250000Y-93750000D01*
G04 #@! TA.AperFunction,Conductor*
G36*
X181741621Y-70220502D02*
G01*
X181788114Y-70274158D01*
X181799500Y-70326500D01*
X181799500Y-91173500D01*
X181779498Y-91241621D01*
X181725842Y-91288114D01*
X181673500Y-91299500D01*
X179405892Y-91299500D01*
X179368626Y-91299467D01*
X179368624Y-91299467D01*
X179354437Y-91299455D01*
X179341646Y-91305597D01*
X179336733Y-91306713D01*
X179329183Y-91309350D01*
X179324649Y-91311532D01*
X179310815Y-91314688D01*
X179299720Y-91323529D01*
X179294846Y-91325875D01*
X179288994Y-91329546D01*
X179284762Y-91332912D01*
X179271976Y-91339052D01*
X179263116Y-91350131D01*
X179259176Y-91353265D01*
X179253518Y-91358913D01*
X179250375Y-91362851D01*
X179239276Y-91371695D01*
X179233111Y-91384478D01*
X179229737Y-91388704D01*
X179226058Y-91394547D01*
X179223707Y-91399410D01*
X179214844Y-91410492D01*
X179211664Y-91424320D01*
X179209474Y-91428851D01*
X179206824Y-91436397D01*
X179205700Y-91441307D01*
X179199535Y-91454087D01*
X179199515Y-91477155D01*
X179197490Y-91477153D01*
X179197474Y-91477219D01*
X179199500Y-91477219D01*
X179199500Y-91494108D01*
X179199455Y-91545563D01*
X179194650Y-91545559D01*
X179194644Y-91545657D01*
X179199500Y-91545657D01*
X179199500Y-92994108D01*
X179199468Y-93031101D01*
X179199455Y-93045563D01*
X179205597Y-93058354D01*
X179206713Y-93063267D01*
X179209350Y-93070817D01*
X179211532Y-93075351D01*
X179214688Y-93089185D01*
X179223529Y-93100280D01*
X179225875Y-93105154D01*
X179229546Y-93111006D01*
X179232912Y-93115238D01*
X179239052Y-93128024D01*
X179250131Y-93136884D01*
X179253265Y-93140824D01*
X179258916Y-93146485D01*
X179262852Y-93149627D01*
X179271695Y-93160724D01*
X179284477Y-93166889D01*
X179288704Y-93170263D01*
X179294547Y-93173942D01*
X179299410Y-93176293D01*
X179310492Y-93185156D01*
X179324320Y-93188336D01*
X179328851Y-93190526D01*
X179336397Y-93193176D01*
X179341307Y-93194300D01*
X179354087Y-93200465D01*
X179377155Y-93200485D01*
X179377153Y-93202510D01*
X179377219Y-93202526D01*
X179377219Y-93200500D01*
X179394108Y-93200500D01*
X179445563Y-93200545D01*
X179445559Y-93205350D01*
X179445657Y-93205356D01*
X179445657Y-93200500D01*
X181673500Y-93200500D01*
X181741621Y-93220502D01*
X181788114Y-93274158D01*
X181799500Y-93326500D01*
X181799500Y-98994108D01*
X181799455Y-99045563D01*
X181805597Y-99058354D01*
X181806713Y-99063267D01*
X181809350Y-99070817D01*
X181811532Y-99075351D01*
X181814688Y-99089185D01*
X181823529Y-99100280D01*
X181825875Y-99105154D01*
X181829546Y-99111006D01*
X181832912Y-99115238D01*
X181839052Y-99128024D01*
X181850131Y-99136884D01*
X181853265Y-99140824D01*
X181858916Y-99146485D01*
X181862852Y-99149627D01*
X181871695Y-99160724D01*
X181884477Y-99166889D01*
X181888704Y-99170263D01*
X181894544Y-99173941D01*
X181899411Y-99176294D01*
X181910492Y-99185156D01*
X181924319Y-99188335D01*
X181928842Y-99190522D01*
X181981466Y-99238180D01*
X182000000Y-99303961D01*
X182000000Y-125673500D01*
X181979998Y-125741621D01*
X181926342Y-125788114D01*
X181874000Y-125799500D01*
X176826500Y-125799500D01*
X176758379Y-125779498D01*
X176711886Y-125725842D01*
X176700500Y-125673500D01*
X176700500Y-119505892D01*
X176700533Y-119468626D01*
X176700533Y-119468624D01*
X176700545Y-119454437D01*
X176694403Y-119441646D01*
X176693287Y-119436733D01*
X176690650Y-119429183D01*
X176688468Y-119424649D01*
X176685312Y-119410815D01*
X176676471Y-119399720D01*
X176674125Y-119394846D01*
X176670454Y-119388994D01*
X176667088Y-119384762D01*
X176660948Y-119371976D01*
X176649869Y-119363116D01*
X176646735Y-119359176D01*
X176641084Y-119353515D01*
X176637148Y-119350373D01*
X176628305Y-119339276D01*
X176615523Y-119333111D01*
X176611296Y-119329737D01*
X176605453Y-119326058D01*
X176600590Y-119323707D01*
X176589508Y-119314844D01*
X176575680Y-119311664D01*
X176571149Y-119309474D01*
X176563603Y-119306824D01*
X176558693Y-119305700D01*
X176545913Y-119299535D01*
X176522845Y-119299515D01*
X176522847Y-119297490D01*
X176522781Y-119297474D01*
X176522781Y-119299500D01*
X176505892Y-119299500D01*
X176454437Y-119299455D01*
X176454441Y-119294650D01*
X176454343Y-119294644D01*
X176454343Y-119299500D01*
X165005892Y-119299500D01*
X164968626Y-119299467D01*
X164968624Y-119299467D01*
X164954437Y-119299455D01*
X164941646Y-119305597D01*
X164936733Y-119306713D01*
X164929183Y-119309350D01*
X164924649Y-119311532D01*
X164910815Y-119314688D01*
X164899720Y-119323529D01*
X164894846Y-119325875D01*
X164888994Y-119329546D01*
X164884762Y-119332912D01*
X164871976Y-119339052D01*
X164863116Y-119350131D01*
X164859176Y-119353265D01*
X164853515Y-119358916D01*
X164850373Y-119362852D01*
X164839276Y-119371695D01*
X164833111Y-119384477D01*
X164829737Y-119388704D01*
X164826059Y-119394544D01*
X164823706Y-119399411D01*
X164814844Y-119410492D01*
X164811665Y-119424319D01*
X164809478Y-119428842D01*
X164761820Y-119481466D01*
X164696039Y-119500000D01*
X164500000Y-119500000D01*
X164500000Y-121904000D01*
X164479998Y-121972121D01*
X164426342Y-122018614D01*
X164374000Y-122030000D01*
X158251500Y-122030000D01*
X158183379Y-122009998D01*
X158136886Y-121956342D01*
X158125500Y-121904000D01*
X158125500Y-92803496D01*
X158127979Y-92780199D01*
X158128077Y-92778114D01*
X158130269Y-92767934D01*
X158126373Y-92735016D01*
X158126029Y-92729179D01*
X158125928Y-92729187D01*
X158125500Y-92724011D01*
X158125500Y-92718807D01*
X158122372Y-92700011D01*
X158121535Y-92694136D01*
X158116800Y-92654133D01*
X158115576Y-92643791D01*
X158111655Y-92635625D01*
X158110167Y-92626687D01*
X158086091Y-92582064D01*
X158083398Y-92576778D01*
X158064896Y-92538247D01*
X158064892Y-92538241D01*
X158061463Y-92531100D01*
X158057906Y-92526869D01*
X158055977Y-92524940D01*
X158054255Y-92523063D01*
X158054181Y-92522926D01*
X158054291Y-92522826D01*
X158053868Y-92522346D01*
X158050806Y-92516671D01*
X158039490Y-92506210D01*
X158011633Y-92480460D01*
X158008067Y-92477030D01*
X157512405Y-91981368D01*
X157478379Y-91919056D01*
X157475500Y-91892273D01*
X157475500Y-91453180D01*
X157495502Y-91385059D01*
X157549158Y-91338566D01*
X157619432Y-91328462D01*
X157680651Y-91355196D01*
X157684466Y-91358913D01*
X157852637Y-91471282D01*
X157857940Y-91473560D01*
X157857943Y-91473562D01*
X158008989Y-91538456D01*
X158038470Y-91551122D01*
X158235740Y-91595760D01*
X158241509Y-91595987D01*
X158241512Y-91595987D01*
X158317683Y-91598979D01*
X158437842Y-91603700D01*
X158524132Y-91591189D01*
X158632286Y-91575508D01*
X158632291Y-91575507D01*
X158638007Y-91574678D01*
X158643479Y-91572820D01*
X158643481Y-91572820D01*
X158824067Y-91511519D01*
X158824069Y-91511518D01*
X158829531Y-91509664D01*
X158968517Y-91431829D01*
X159000964Y-91413658D01*
X159000965Y-91413657D01*
X159006001Y-91410837D01*
X159025588Y-91394547D01*
X159131814Y-91306199D01*
X159161505Y-91281505D01*
X159264500Y-91157668D01*
X159287146Y-91130439D01*
X159290837Y-91126001D01*
X159389664Y-90949531D01*
X159405525Y-90902808D01*
X159436024Y-90812962D01*
X159812890Y-90812962D01*
X159829896Y-90879923D01*
X159833737Y-90890769D01*
X159917386Y-91072218D01*
X159923137Y-91082179D01*
X160038455Y-91245350D01*
X160045921Y-91254092D01*
X160189047Y-91393520D01*
X160197981Y-91400754D01*
X160364112Y-91511760D01*
X160374225Y-91517251D01*
X160557798Y-91596120D01*
X160568747Y-91599677D01*
X160602331Y-91607276D01*
X160616405Y-91606387D01*
X160620000Y-91596988D01*
X160620000Y-90818115D01*
X160615525Y-90802876D01*
X160614135Y-90801671D01*
X160606452Y-90800000D01*
X159827713Y-90800000D01*
X159814182Y-90803973D01*
X159812890Y-90812962D01*
X159436024Y-90812962D01*
X159452820Y-90763481D01*
X159452820Y-90763479D01*
X159454678Y-90758007D01*
X159455507Y-90752291D01*
X159455508Y-90752286D01*
X159474629Y-90620406D01*
X159483700Y-90557842D01*
X159485215Y-90500000D01*
X159466708Y-90298591D01*
X159411807Y-90103926D01*
X159322351Y-89922527D01*
X159306824Y-89901733D01*
X159204788Y-89765091D01*
X159204787Y-89765090D01*
X159201335Y-89760467D01*
X159178350Y-89739220D01*
X159057053Y-89627094D01*
X159057051Y-89627092D01*
X159052812Y-89623174D01*
X159025374Y-89605862D01*
X158886637Y-89518325D01*
X158881757Y-89515246D01*
X158693898Y-89440298D01*
X158495526Y-89400839D01*
X158489752Y-89400763D01*
X158489748Y-89400763D01*
X158387257Y-89399422D01*
X158293286Y-89398192D01*
X158287589Y-89399171D01*
X158287588Y-89399171D01*
X158099646Y-89431465D01*
X158099645Y-89431465D01*
X158093949Y-89432444D01*
X157904193Y-89502449D01*
X157899232Y-89505401D01*
X157899231Y-89505401D01*
X157736019Y-89602502D01*
X157730371Y-89605862D01*
X157704578Y-89628482D01*
X157684577Y-89646022D01*
X157620173Y-89675899D01*
X157549840Y-89666213D01*
X157495909Y-89620040D01*
X157475500Y-89551290D01*
X157475500Y-89447727D01*
X157495502Y-89379606D01*
X157512405Y-89358632D01*
X157853195Y-89017842D01*
X157915507Y-88983816D01*
X157992027Y-88991169D01*
X158033167Y-89008844D01*
X158033170Y-89008845D01*
X158038470Y-89011122D01*
X158044099Y-89012396D01*
X158044100Y-89012396D01*
X158226221Y-89053606D01*
X158235740Y-89055760D01*
X158241509Y-89055987D01*
X158241512Y-89055987D01*
X158317683Y-89058979D01*
X158437842Y-89063700D01*
X158533821Y-89049784D01*
X158632286Y-89035508D01*
X158632291Y-89035507D01*
X158638007Y-89034678D01*
X158643479Y-89032820D01*
X158643481Y-89032820D01*
X158824067Y-88971519D01*
X158824069Y-88971518D01*
X158829531Y-88969664D01*
X159006001Y-88870837D01*
X159068433Y-88818913D01*
X159132813Y-88765368D01*
X159161505Y-88741505D01*
X159290837Y-88586001D01*
X159389664Y-88409531D01*
X159436023Y-88272962D01*
X159812890Y-88272962D01*
X159829896Y-88339923D01*
X159833737Y-88350769D01*
X159917386Y-88532218D01*
X159923137Y-88542179D01*
X160038455Y-88705350D01*
X160045921Y-88714092D01*
X160189047Y-88853520D01*
X160197981Y-88860754D01*
X160364112Y-88971760D01*
X160374225Y-88977251D01*
X160557805Y-89056123D01*
X160568738Y-89059675D01*
X160763615Y-89103771D01*
X160780753Y-89106027D01*
X160780570Y-89107419D01*
X160841370Y-89127899D01*
X160885719Y-89183339D01*
X160893055Y-89253956D01*
X160861048Y-89317328D01*
X160799860Y-89353336D01*
X160790476Y-89355319D01*
X160626780Y-89383447D01*
X160615660Y-89386427D01*
X160428207Y-89455582D01*
X160417829Y-89460532D01*
X160246119Y-89562688D01*
X160236807Y-89569453D01*
X160086587Y-89701194D01*
X160078670Y-89709537D01*
X159954975Y-89866443D01*
X159948704Y-89876100D01*
X159855679Y-90052912D01*
X159851273Y-90063549D01*
X159814276Y-90182698D01*
X159814057Y-90196799D01*
X159820789Y-90200000D01*
X161094000Y-90200000D01*
X161162121Y-90220002D01*
X161208614Y-90273658D01*
X161220000Y-90326000D01*
X161220000Y-91594586D01*
X161223973Y-91608117D01*
X161230669Y-91609079D01*
X161384287Y-91556933D01*
X161394784Y-91552259D01*
X161569124Y-91454625D01*
X161578596Y-91448115D01*
X161732219Y-91320348D01*
X161740348Y-91312219D01*
X161868115Y-91158596D01*
X161874625Y-91149124D01*
X161972258Y-90974786D01*
X161976934Y-90964283D01*
X162028301Y-90812962D01*
X162352890Y-90812962D01*
X162369896Y-90879923D01*
X162373737Y-90890769D01*
X162457386Y-91072218D01*
X162463137Y-91082179D01*
X162578455Y-91245350D01*
X162585921Y-91254092D01*
X162729047Y-91393520D01*
X162737981Y-91400754D01*
X162904112Y-91511760D01*
X162914225Y-91517251D01*
X163097798Y-91596120D01*
X163108747Y-91599677D01*
X163142331Y-91607276D01*
X163156405Y-91606387D01*
X163160000Y-91596988D01*
X163160000Y-91594586D01*
X163760000Y-91594586D01*
X163763973Y-91608117D01*
X163770669Y-91609079D01*
X163924287Y-91556933D01*
X163934784Y-91552259D01*
X164109124Y-91454625D01*
X164118596Y-91448115D01*
X164272219Y-91320348D01*
X164280348Y-91312219D01*
X164408115Y-91158596D01*
X164414625Y-91149124D01*
X164512259Y-90974784D01*
X164516933Y-90964287D01*
X164566877Y-90817156D01*
X164567464Y-90803065D01*
X164561431Y-90800000D01*
X163778115Y-90800000D01*
X163762876Y-90804475D01*
X163761671Y-90805865D01*
X163760000Y-90813548D01*
X163760000Y-91594586D01*
X163160000Y-91594586D01*
X163160000Y-90818115D01*
X163155525Y-90802876D01*
X163154135Y-90801671D01*
X163146452Y-90800000D01*
X162367713Y-90800000D01*
X162354182Y-90803973D01*
X162352890Y-90812962D01*
X162028301Y-90812962D01*
X162041160Y-90775081D01*
X162043845Y-90763898D01*
X162072811Y-90564118D01*
X162073441Y-90556736D01*
X162074830Y-90503704D01*
X162074587Y-90496305D01*
X162056117Y-90295285D01*
X162054020Y-90283971D01*
X161999785Y-90091670D01*
X161995663Y-90080931D01*
X161907292Y-89901733D01*
X161901282Y-89891925D01*
X161781731Y-89731827D01*
X161774041Y-89723287D01*
X161627315Y-89587654D01*
X161618190Y-89580653D01*
X161449209Y-89474034D01*
X161438965Y-89468814D01*
X161253385Y-89394775D01*
X161242347Y-89391505D01*
X161042283Y-89351710D01*
X160979373Y-89318803D01*
X160944241Y-89257108D01*
X160948041Y-89186213D01*
X160989567Y-89128627D01*
X161048784Y-89103435D01*
X161183898Y-89083845D01*
X161195081Y-89081160D01*
X161384283Y-89016934D01*
X161394786Y-89012258D01*
X161569124Y-88914625D01*
X161578596Y-88908115D01*
X161732219Y-88780348D01*
X161740348Y-88772219D01*
X161868115Y-88618596D01*
X161874625Y-88609124D01*
X161972258Y-88434786D01*
X161976934Y-88424283D01*
X162028301Y-88272962D01*
X162352890Y-88272962D01*
X162369896Y-88339923D01*
X162373737Y-88350769D01*
X162457386Y-88532218D01*
X162463137Y-88542179D01*
X162578455Y-88705350D01*
X162585921Y-88714092D01*
X162729047Y-88853520D01*
X162737981Y-88860754D01*
X162904112Y-88971760D01*
X162914225Y-88977251D01*
X163097805Y-89056123D01*
X163108738Y-89059675D01*
X163303615Y-89103771D01*
X163320753Y-89106027D01*
X163320570Y-89107419D01*
X163381370Y-89127899D01*
X163425719Y-89183339D01*
X163433055Y-89253956D01*
X163401048Y-89317328D01*
X163339860Y-89353336D01*
X163330476Y-89355319D01*
X163166780Y-89383447D01*
X163155660Y-89386427D01*
X162968207Y-89455582D01*
X162957829Y-89460532D01*
X162786119Y-89562688D01*
X162776807Y-89569453D01*
X162626587Y-89701194D01*
X162618670Y-89709537D01*
X162494975Y-89866443D01*
X162488704Y-89876100D01*
X162395679Y-90052912D01*
X162391273Y-90063549D01*
X162354276Y-90182698D01*
X162354057Y-90196799D01*
X162360789Y-90200000D01*
X164552222Y-90200000D01*
X164565753Y-90196027D01*
X164566922Y-90187892D01*
X164539786Y-90091675D01*
X164535661Y-90080928D01*
X164447292Y-89901733D01*
X164441282Y-89891925D01*
X164321731Y-89731827D01*
X164314041Y-89723287D01*
X164167315Y-89587654D01*
X164158190Y-89580653D01*
X163989209Y-89474034D01*
X163978965Y-89468814D01*
X163793385Y-89394775D01*
X163782347Y-89391505D01*
X163582283Y-89351710D01*
X163519373Y-89318803D01*
X163484241Y-89257108D01*
X163488041Y-89186213D01*
X163529567Y-89128627D01*
X163588784Y-89103435D01*
X163723898Y-89083845D01*
X163735081Y-89081160D01*
X163924283Y-89016934D01*
X163934786Y-89012258D01*
X164109124Y-88914625D01*
X164118596Y-88908115D01*
X164272219Y-88780348D01*
X164280348Y-88772219D01*
X164408115Y-88618596D01*
X164414625Y-88609124D01*
X164512259Y-88434784D01*
X164516933Y-88424287D01*
X164566877Y-88277156D01*
X164567464Y-88263065D01*
X164561431Y-88260000D01*
X162367713Y-88260000D01*
X162354182Y-88263973D01*
X162352890Y-88272962D01*
X162028301Y-88272962D01*
X162041160Y-88235081D01*
X162043845Y-88223898D01*
X162072811Y-88024118D01*
X162073441Y-88016736D01*
X162074830Y-87963704D01*
X162074587Y-87956305D01*
X162056117Y-87755285D01*
X162054020Y-87743971D01*
X162029435Y-87656799D01*
X162354057Y-87656799D01*
X162360789Y-87660000D01*
X163141885Y-87660000D01*
X163157124Y-87655525D01*
X163158329Y-87654135D01*
X163160000Y-87646452D01*
X163160000Y-87641885D01*
X163760000Y-87641885D01*
X163764475Y-87657124D01*
X163765865Y-87658329D01*
X163773548Y-87660000D01*
X164552222Y-87660000D01*
X164565753Y-87656027D01*
X164566922Y-87647892D01*
X164539786Y-87551675D01*
X164535661Y-87540928D01*
X164447292Y-87361733D01*
X164441282Y-87351925D01*
X164321731Y-87191827D01*
X164314041Y-87183287D01*
X164167315Y-87047654D01*
X164158190Y-87040653D01*
X163989209Y-86934034D01*
X163978965Y-86928814D01*
X163793377Y-86854772D01*
X163782356Y-86851507D01*
X163777770Y-86850595D01*
X163764894Y-86851747D01*
X163760000Y-86866903D01*
X163760000Y-87641885D01*
X163160000Y-87641885D01*
X163160000Y-86862941D01*
X163156027Y-86849410D01*
X163149944Y-86848536D01*
X162968207Y-86915582D01*
X162957829Y-86920532D01*
X162786119Y-87022688D01*
X162776807Y-87029453D01*
X162626587Y-87161194D01*
X162618670Y-87169537D01*
X162494975Y-87326443D01*
X162488704Y-87336100D01*
X162395679Y-87512912D01*
X162391273Y-87523549D01*
X162354276Y-87642698D01*
X162354057Y-87656799D01*
X162029435Y-87656799D01*
X161999785Y-87551670D01*
X161995663Y-87540931D01*
X161907292Y-87361733D01*
X161901282Y-87351925D01*
X161781731Y-87191827D01*
X161774041Y-87183287D01*
X161627315Y-87047654D01*
X161618190Y-87040653D01*
X161449209Y-86934034D01*
X161438965Y-86928814D01*
X161253377Y-86854772D01*
X161242356Y-86851507D01*
X161237770Y-86850595D01*
X161224894Y-86851747D01*
X161220000Y-86866903D01*
X161220000Y-88134000D01*
X161199998Y-88202121D01*
X161146342Y-88248614D01*
X161094000Y-88260000D01*
X159827713Y-88260000D01*
X159814182Y-88263973D01*
X159812890Y-88272962D01*
X159436023Y-88272962D01*
X159454678Y-88218007D01*
X159455507Y-88212291D01*
X159455508Y-88212286D01*
X159483167Y-88021516D01*
X159483700Y-88017842D01*
X159485215Y-87960000D01*
X159466708Y-87758591D01*
X159438000Y-87656799D01*
X159814057Y-87656799D01*
X159820789Y-87660000D01*
X160601885Y-87660000D01*
X160617124Y-87655525D01*
X160618329Y-87654135D01*
X160620000Y-87646452D01*
X160620000Y-86862941D01*
X160616027Y-86849410D01*
X160609944Y-86848536D01*
X160428207Y-86915582D01*
X160417829Y-86920532D01*
X160246119Y-87022688D01*
X160236807Y-87029453D01*
X160086587Y-87161194D01*
X160078670Y-87169537D01*
X159954975Y-87326443D01*
X159948704Y-87336100D01*
X159855679Y-87512912D01*
X159851273Y-87523549D01*
X159814276Y-87642698D01*
X159814057Y-87656799D01*
X159438000Y-87656799D01*
X159411807Y-87563926D01*
X159322351Y-87382527D01*
X159306824Y-87361733D01*
X159204788Y-87225091D01*
X159204787Y-87225090D01*
X159201335Y-87220467D01*
X159178350Y-87199220D01*
X159057053Y-87087094D01*
X159057051Y-87087092D01*
X159052812Y-87083174D01*
X159025374Y-87065862D01*
X158886637Y-86978325D01*
X158881757Y-86975246D01*
X158693898Y-86900298D01*
X158519261Y-86865560D01*
X158501192Y-86861966D01*
X158501191Y-86861966D01*
X158495526Y-86860839D01*
X158489752Y-86860763D01*
X158489748Y-86860763D01*
X158387257Y-86859422D01*
X158293286Y-86858192D01*
X158287589Y-86859171D01*
X158287588Y-86859171D01*
X158099646Y-86891465D01*
X158099645Y-86891465D01*
X158093949Y-86892444D01*
X157904193Y-86962449D01*
X157899232Y-86965401D01*
X157899231Y-86965401D01*
X157772744Y-87040653D01*
X157730371Y-87065862D01*
X157578305Y-87199220D01*
X157453089Y-87358057D01*
X157358914Y-87537053D01*
X157298937Y-87730213D01*
X157275164Y-87931069D01*
X157288392Y-88132894D01*
X157289815Y-88138496D01*
X157323965Y-88272962D01*
X157338178Y-88328928D01*
X157340596Y-88334174D01*
X157340600Y-88334184D01*
X157346174Y-88346275D01*
X157356529Y-88416512D01*
X157327266Y-88481198D01*
X157320843Y-88488120D01*
X156872311Y-88936652D01*
X156854080Y-88951377D01*
X156852540Y-88952778D01*
X156843790Y-88958428D01*
X156832982Y-88972138D01*
X156823264Y-88984465D01*
X156819383Y-88988832D01*
X156819461Y-88988898D01*
X156816107Y-88992856D01*
X156812425Y-88996538D01*
X156801339Y-89012052D01*
X156797788Y-89016781D01*
X156766397Y-89056600D01*
X156763395Y-89065149D01*
X156758128Y-89072519D01*
X156749578Y-89101107D01*
X156743608Y-89121070D01*
X156741774Y-89126714D01*
X156727604Y-89167065D01*
X156727603Y-89167071D01*
X156724977Y-89174548D01*
X156724500Y-89180055D01*
X156724500Y-89182762D01*
X156724389Y-89185335D01*
X156724341Y-89185494D01*
X156724197Y-89185488D01*
X156724158Y-89186108D01*
X156722310Y-89192287D01*
X156724403Y-89245555D01*
X156724500Y-89250502D01*
X156724500Y-89530796D01*
X156704498Y-89598917D01*
X156650842Y-89645410D01*
X156580568Y-89655514D01*
X156523415Y-89628292D01*
X156521636Y-89630611D01*
X156517053Y-89627094D01*
X156512812Y-89623174D01*
X156485374Y-89605862D01*
X156346637Y-89518325D01*
X156341757Y-89515246D01*
X156153898Y-89440298D01*
X155955526Y-89400839D01*
X155949752Y-89400763D01*
X155949748Y-89400763D01*
X155847257Y-89399422D01*
X155753286Y-89398192D01*
X155747589Y-89399171D01*
X155747588Y-89399171D01*
X155559646Y-89431465D01*
X155559645Y-89431465D01*
X155553949Y-89432444D01*
X155364193Y-89502449D01*
X155359232Y-89505401D01*
X155359231Y-89505401D01*
X155196019Y-89602502D01*
X155190371Y-89605862D01*
X155186027Y-89609672D01*
X155184576Y-89610944D01*
X155183745Y-89611329D01*
X155181355Y-89613066D01*
X155181014Y-89612596D01*
X155120171Y-89640820D01*
X155049838Y-89631133D01*
X154995908Y-89584959D01*
X154975500Y-89516211D01*
X154975500Y-89407728D01*
X154995502Y-89339607D01*
X155012405Y-89318632D01*
X155313196Y-89017842D01*
X155375508Y-88983817D01*
X155452027Y-88991170D01*
X155493154Y-89008839D01*
X155493163Y-89008842D01*
X155498470Y-89011122D01*
X155629503Y-89040772D01*
X155686221Y-89053606D01*
X155695740Y-89055760D01*
X155701509Y-89055987D01*
X155701512Y-89055987D01*
X155777683Y-89058979D01*
X155897842Y-89063700D01*
X155993821Y-89049784D01*
X156092286Y-89035508D01*
X156092291Y-89035507D01*
X156098007Y-89034678D01*
X156103479Y-89032820D01*
X156103481Y-89032820D01*
X156284067Y-88971519D01*
X156284069Y-88971518D01*
X156289531Y-88969664D01*
X156466001Y-88870837D01*
X156528433Y-88818913D01*
X156592813Y-88765368D01*
X156621505Y-88741505D01*
X156750837Y-88586001D01*
X156849664Y-88409531D01*
X156914678Y-88218007D01*
X156915507Y-88212291D01*
X156915508Y-88212286D01*
X156943167Y-88021516D01*
X156943700Y-88017842D01*
X156945215Y-87960000D01*
X156926708Y-87758591D01*
X156871807Y-87563926D01*
X156782351Y-87382527D01*
X156766824Y-87361733D01*
X156664788Y-87225091D01*
X156664787Y-87225090D01*
X156661335Y-87220467D01*
X156638350Y-87199220D01*
X156517053Y-87087094D01*
X156517051Y-87087092D01*
X156512812Y-87083174D01*
X156485374Y-87065862D01*
X156346637Y-86978325D01*
X156341757Y-86975246D01*
X156153898Y-86900298D01*
X155979261Y-86865560D01*
X155961192Y-86861966D01*
X155961191Y-86861966D01*
X155955526Y-86860839D01*
X155949752Y-86860763D01*
X155949748Y-86860763D01*
X155847257Y-86859422D01*
X155753286Y-86858192D01*
X155747589Y-86859171D01*
X155747588Y-86859171D01*
X155559646Y-86891465D01*
X155559645Y-86891465D01*
X155553949Y-86892444D01*
X155364193Y-86962449D01*
X155359232Y-86965401D01*
X155359231Y-86965401D01*
X155232744Y-87040653D01*
X155190371Y-87065862D01*
X155038305Y-87199220D01*
X154913089Y-87358057D01*
X154818914Y-87537053D01*
X154758937Y-87730213D01*
X154735164Y-87931069D01*
X154748392Y-88132894D01*
X154749815Y-88138496D01*
X154783965Y-88272962D01*
X154798178Y-88328928D01*
X154800596Y-88334174D01*
X154800600Y-88334184D01*
X154806174Y-88346275D01*
X154816529Y-88416512D01*
X154787266Y-88481198D01*
X154780843Y-88488120D01*
X154372311Y-88896652D01*
X154354080Y-88911377D01*
X154352540Y-88912778D01*
X154343790Y-88918428D01*
X154336187Y-88928072D01*
X154323264Y-88944465D01*
X154319383Y-88948832D01*
X154319461Y-88948898D01*
X154316107Y-88952856D01*
X154312425Y-88956538D01*
X154301339Y-88972052D01*
X154297788Y-88976781D01*
X154266397Y-89016600D01*
X154263395Y-89025149D01*
X154258128Y-89032519D01*
X154251110Y-89055987D01*
X154243608Y-89081070D01*
X154241774Y-89086714D01*
X154227604Y-89127065D01*
X154227603Y-89127071D01*
X154224977Y-89134548D01*
X154224500Y-89140055D01*
X154224500Y-89142762D01*
X154224389Y-89145335D01*
X154224341Y-89145494D01*
X154224197Y-89145488D01*
X154224158Y-89146108D01*
X154222310Y-89152287D01*
X154224380Y-89204964D01*
X154224403Y-89205555D01*
X154224500Y-89210502D01*
X154224500Y-89567772D01*
X154204498Y-89635893D01*
X154150842Y-89682386D01*
X154080568Y-89692490D01*
X154012971Y-89660296D01*
X153977059Y-89627099D01*
X153977053Y-89627095D01*
X153972812Y-89623174D01*
X153945374Y-89605862D01*
X153806637Y-89518325D01*
X153801757Y-89515246D01*
X153613898Y-89440298D01*
X153415526Y-89400839D01*
X153409752Y-89400763D01*
X153409748Y-89400763D01*
X153307257Y-89399422D01*
X153213286Y-89398192D01*
X153207589Y-89399171D01*
X153207588Y-89399171D01*
X153019646Y-89431465D01*
X153019645Y-89431465D01*
X153013949Y-89432444D01*
X152824193Y-89502449D01*
X152819232Y-89505401D01*
X152819231Y-89505401D01*
X152656019Y-89602502D01*
X152650371Y-89605862D01*
X152584575Y-89663563D01*
X152520174Y-89693439D01*
X152449841Y-89683753D01*
X152395909Y-89637580D01*
X152375500Y-89568830D01*
X152375500Y-89467728D01*
X152395502Y-89399607D01*
X152412405Y-89378632D01*
X152773196Y-89017842D01*
X152835508Y-88983817D01*
X152912027Y-88991170D01*
X152953154Y-89008839D01*
X152953163Y-89008842D01*
X152958470Y-89011122D01*
X153089503Y-89040772D01*
X153146221Y-89053606D01*
X153155740Y-89055760D01*
X153161509Y-89055987D01*
X153161512Y-89055987D01*
X153237683Y-89058979D01*
X153357842Y-89063700D01*
X153453821Y-89049784D01*
X153552286Y-89035508D01*
X153552291Y-89035507D01*
X153558007Y-89034678D01*
X153563479Y-89032820D01*
X153563481Y-89032820D01*
X153744067Y-88971519D01*
X153744069Y-88971518D01*
X153749531Y-88969664D01*
X153926001Y-88870837D01*
X153988433Y-88818913D01*
X154052813Y-88765368D01*
X154081505Y-88741505D01*
X154210837Y-88586001D01*
X154309664Y-88409531D01*
X154374678Y-88218007D01*
X154375507Y-88212291D01*
X154375508Y-88212286D01*
X154403167Y-88021516D01*
X154403700Y-88017842D01*
X154405215Y-87960000D01*
X154386708Y-87758591D01*
X154331807Y-87563926D01*
X154242351Y-87382527D01*
X154226824Y-87361733D01*
X154124788Y-87225091D01*
X154124787Y-87225090D01*
X154121335Y-87220467D01*
X154098350Y-87199220D01*
X153977053Y-87087094D01*
X153977051Y-87087092D01*
X153972812Y-87083174D01*
X153945374Y-87065862D01*
X153806637Y-86978325D01*
X153801757Y-86975246D01*
X153613898Y-86900298D01*
X153439261Y-86865560D01*
X153421192Y-86861966D01*
X153421191Y-86861966D01*
X153415526Y-86860839D01*
X153409752Y-86860763D01*
X153409748Y-86860763D01*
X153307257Y-86859422D01*
X153213286Y-86858192D01*
X153207589Y-86859171D01*
X153207588Y-86859171D01*
X153019646Y-86891465D01*
X153019645Y-86891465D01*
X153013949Y-86892444D01*
X152824193Y-86962449D01*
X152819232Y-86965401D01*
X152819231Y-86965401D01*
X152692744Y-87040653D01*
X152650371Y-87065862D01*
X152498305Y-87199220D01*
X152373089Y-87358057D01*
X152278914Y-87537053D01*
X152218937Y-87730213D01*
X152195164Y-87931069D01*
X152208392Y-88132894D01*
X152209815Y-88138496D01*
X152243965Y-88272962D01*
X152258178Y-88328928D01*
X152260596Y-88334174D01*
X152260600Y-88334184D01*
X152266174Y-88346275D01*
X152276529Y-88416512D01*
X152247266Y-88481198D01*
X152240843Y-88488120D01*
X151772311Y-88956652D01*
X151754080Y-88971377D01*
X151752540Y-88972778D01*
X151743790Y-88978428D01*
X151732785Y-88992388D01*
X151723264Y-89004465D01*
X151719383Y-89008832D01*
X151719461Y-89008898D01*
X151716107Y-89012856D01*
X151712425Y-89016538D01*
X151701339Y-89032052D01*
X151697788Y-89036781D01*
X151666397Y-89076600D01*
X151663395Y-89085149D01*
X151658128Y-89092519D01*
X151649162Y-89122498D01*
X151643608Y-89141070D01*
X151641774Y-89146714D01*
X151627604Y-89187065D01*
X151627603Y-89187071D01*
X151624977Y-89194548D01*
X151624500Y-89200055D01*
X151624500Y-89202762D01*
X151624389Y-89205335D01*
X151624341Y-89205494D01*
X151624197Y-89205488D01*
X151624158Y-89206108D01*
X151622310Y-89212287D01*
X151622770Y-89224000D01*
X151624403Y-89265555D01*
X151624500Y-89270502D01*
X151624500Y-89457102D01*
X151604498Y-89525223D01*
X151550842Y-89571716D01*
X151480568Y-89581820D01*
X151431265Y-89563664D01*
X151289209Y-89474034D01*
X151278965Y-89468814D01*
X151093385Y-89394775D01*
X151082347Y-89391505D01*
X150882283Y-89351710D01*
X150819373Y-89318803D01*
X150784241Y-89257108D01*
X150788041Y-89186213D01*
X150829567Y-89128627D01*
X150888784Y-89103435D01*
X151023898Y-89083845D01*
X151035081Y-89081160D01*
X151224283Y-89016934D01*
X151234786Y-89012258D01*
X151409124Y-88914625D01*
X151418596Y-88908115D01*
X151572219Y-88780348D01*
X151580348Y-88772219D01*
X151708115Y-88618596D01*
X151714625Y-88609124D01*
X151812259Y-88434784D01*
X151816933Y-88424287D01*
X151866877Y-88277156D01*
X151867464Y-88263065D01*
X151861431Y-88260000D01*
X149667713Y-88260000D01*
X149654182Y-88263973D01*
X149652890Y-88272962D01*
X149669896Y-88339923D01*
X149673737Y-88350769D01*
X149757386Y-88532218D01*
X149763137Y-88542179D01*
X149878455Y-88705350D01*
X149885921Y-88714092D01*
X150029047Y-88853520D01*
X150037981Y-88860754D01*
X150204112Y-88971760D01*
X150214225Y-88977251D01*
X150397805Y-89056123D01*
X150408738Y-89059675D01*
X150603615Y-89103771D01*
X150620753Y-89106027D01*
X150620570Y-89107419D01*
X150681370Y-89127899D01*
X150725719Y-89183339D01*
X150733055Y-89253956D01*
X150701048Y-89317328D01*
X150639860Y-89353336D01*
X150630476Y-89355319D01*
X150466780Y-89383447D01*
X150455660Y-89386427D01*
X150268207Y-89455582D01*
X150257829Y-89460532D01*
X150086119Y-89562688D01*
X150076807Y-89569453D01*
X149926587Y-89701194D01*
X149918670Y-89709537D01*
X149794975Y-89866443D01*
X149788704Y-89876100D01*
X149695679Y-90052912D01*
X149691273Y-90063549D01*
X149654276Y-90182698D01*
X149654057Y-90196799D01*
X149660789Y-90200000D01*
X150934000Y-90200000D01*
X151002121Y-90220002D01*
X151048614Y-90273658D01*
X151060000Y-90326000D01*
X151060000Y-91594586D01*
X151063973Y-91608117D01*
X151070669Y-91609079D01*
X151224287Y-91556933D01*
X151234784Y-91552259D01*
X151409124Y-91454625D01*
X151423358Y-91444842D01*
X151424141Y-91445982D01*
X151483094Y-91420487D01*
X151553150Y-91432010D01*
X151605854Y-91479579D01*
X151624500Y-91545542D01*
X151624500Y-91946504D01*
X151622021Y-91969801D01*
X151621923Y-91971886D01*
X151619731Y-91982066D01*
X151622489Y-92005370D01*
X151623627Y-92014984D01*
X151623971Y-92020821D01*
X151624072Y-92020813D01*
X151624500Y-92025992D01*
X151624500Y-92031193D01*
X151625354Y-92036321D01*
X151625354Y-92036327D01*
X151627628Y-92049987D01*
X151628465Y-92055863D01*
X151634424Y-92106210D01*
X151638346Y-92114377D01*
X151639833Y-92123313D01*
X151644777Y-92132475D01*
X151644778Y-92132479D01*
X151663906Y-92167929D01*
X151666602Y-92173220D01*
X151684985Y-92211503D01*
X151688537Y-92218900D01*
X151692094Y-92223131D01*
X151694026Y-92225063D01*
X151695745Y-92226937D01*
X151695819Y-92227074D01*
X151695709Y-92227174D01*
X151696132Y-92227654D01*
X151699194Y-92233329D01*
X151706841Y-92240398D01*
X151706842Y-92240399D01*
X151738367Y-92269540D01*
X151741933Y-92272970D01*
X152337595Y-92868632D01*
X152371621Y-92930944D01*
X152374500Y-92957727D01*
X152374500Y-121904000D01*
X152354498Y-121972121D01*
X152300842Y-122018614D01*
X152248500Y-122030000D01*
X148251500Y-122030000D01*
X148183379Y-122009998D01*
X148136886Y-121956342D01*
X148125500Y-121904000D01*
X148125500Y-93303501D01*
X148127981Y-93280187D01*
X148128079Y-93278112D01*
X148130270Y-93267934D01*
X148126373Y-93235008D01*
X148126029Y-93229178D01*
X148125928Y-93229186D01*
X148125500Y-93224007D01*
X148125500Y-93218807D01*
X148124646Y-93213675D01*
X148124646Y-93213672D01*
X148122374Y-93200023D01*
X148121537Y-93194147D01*
X148119494Y-93176887D01*
X148115577Y-93143791D01*
X148111654Y-93135622D01*
X148110167Y-93126687D01*
X148098549Y-93105154D01*
X148086098Y-93082079D01*
X148083403Y-93076790D01*
X148064892Y-93038241D01*
X148064891Y-93038239D01*
X148061463Y-93031101D01*
X148057906Y-93026869D01*
X148055964Y-93024927D01*
X148054255Y-93023064D01*
X148054176Y-93022917D01*
X148054284Y-93022818D01*
X148053868Y-93022346D01*
X148050806Y-93016671D01*
X148039146Y-93005892D01*
X148011633Y-92980460D01*
X148008067Y-92977030D01*
X147312405Y-92281368D01*
X147278379Y-92219056D01*
X147275500Y-92192273D01*
X147275500Y-91415028D01*
X147295502Y-91346907D01*
X147349158Y-91300414D01*
X147419432Y-91290310D01*
X147484012Y-91319804D01*
X147489421Y-91324774D01*
X147524466Y-91358913D01*
X147529270Y-91362123D01*
X147531501Y-91363614D01*
X147692637Y-91471282D01*
X147697940Y-91473560D01*
X147697943Y-91473562D01*
X147848989Y-91538456D01*
X147878470Y-91551122D01*
X148075740Y-91595760D01*
X148081509Y-91595987D01*
X148081512Y-91595987D01*
X148157683Y-91598979D01*
X148277842Y-91603700D01*
X148364132Y-91591189D01*
X148472286Y-91575508D01*
X148472291Y-91575507D01*
X148478007Y-91574678D01*
X148483479Y-91572820D01*
X148483481Y-91572820D01*
X148664067Y-91511519D01*
X148664069Y-91511518D01*
X148669531Y-91509664D01*
X148808517Y-91431829D01*
X148840964Y-91413658D01*
X148840965Y-91413657D01*
X148846001Y-91410837D01*
X148865588Y-91394547D01*
X148971814Y-91306199D01*
X149001505Y-91281505D01*
X149104500Y-91157668D01*
X149127146Y-91130439D01*
X149130837Y-91126001D01*
X149229664Y-90949531D01*
X149245525Y-90902808D01*
X149276024Y-90812962D01*
X149652890Y-90812962D01*
X149669896Y-90879923D01*
X149673737Y-90890769D01*
X149757386Y-91072218D01*
X149763137Y-91082179D01*
X149878455Y-91245350D01*
X149885921Y-91254092D01*
X150029047Y-91393520D01*
X150037981Y-91400754D01*
X150204112Y-91511760D01*
X150214225Y-91517251D01*
X150397798Y-91596120D01*
X150408747Y-91599677D01*
X150442331Y-91607276D01*
X150456405Y-91606387D01*
X150460000Y-91596988D01*
X150460000Y-90818115D01*
X150455525Y-90802876D01*
X150454135Y-90801671D01*
X150446452Y-90800000D01*
X149667713Y-90800000D01*
X149654182Y-90803973D01*
X149652890Y-90812962D01*
X149276024Y-90812962D01*
X149292820Y-90763481D01*
X149292820Y-90763479D01*
X149294678Y-90758007D01*
X149295507Y-90752291D01*
X149295508Y-90752286D01*
X149314629Y-90620406D01*
X149323700Y-90557842D01*
X149325215Y-90500000D01*
X149306708Y-90298591D01*
X149251807Y-90103926D01*
X149162351Y-89922527D01*
X149146824Y-89901733D01*
X149044788Y-89765091D01*
X149044787Y-89765090D01*
X149041335Y-89760467D01*
X149018350Y-89739220D01*
X148897053Y-89627094D01*
X148897051Y-89627092D01*
X148892812Y-89623174D01*
X148865374Y-89605862D01*
X148726637Y-89518325D01*
X148721757Y-89515246D01*
X148533898Y-89440298D01*
X148335526Y-89400839D01*
X148329752Y-89400763D01*
X148329748Y-89400763D01*
X148227257Y-89399422D01*
X148133286Y-89398192D01*
X148127589Y-89399171D01*
X148127588Y-89399171D01*
X147939646Y-89431465D01*
X147939645Y-89431465D01*
X147933949Y-89432444D01*
X147744193Y-89502449D01*
X147739232Y-89505401D01*
X147739231Y-89505401D01*
X147576019Y-89602502D01*
X147570371Y-89605862D01*
X147525954Y-89644815D01*
X147484577Y-89681101D01*
X147420173Y-89710978D01*
X147349840Y-89701292D01*
X147295909Y-89655119D01*
X147275500Y-89586369D01*
X147275500Y-89487727D01*
X147295502Y-89419606D01*
X147312405Y-89398632D01*
X147693195Y-89017842D01*
X147755507Y-88983816D01*
X147832027Y-88991169D01*
X147873167Y-89008844D01*
X147873170Y-89008845D01*
X147878470Y-89011122D01*
X147884099Y-89012396D01*
X147884100Y-89012396D01*
X148066221Y-89053606D01*
X148075740Y-89055760D01*
X148081509Y-89055987D01*
X148081512Y-89055987D01*
X148157683Y-89058979D01*
X148277842Y-89063700D01*
X148373821Y-89049784D01*
X148472286Y-89035508D01*
X148472291Y-89035507D01*
X148478007Y-89034678D01*
X148483479Y-89032820D01*
X148483481Y-89032820D01*
X148664067Y-88971519D01*
X148664069Y-88971518D01*
X148669531Y-88969664D01*
X148846001Y-88870837D01*
X148908433Y-88818913D01*
X148972813Y-88765368D01*
X149001505Y-88741505D01*
X149130837Y-88586001D01*
X149229664Y-88409531D01*
X149294678Y-88218007D01*
X149295507Y-88212291D01*
X149295508Y-88212286D01*
X149323167Y-88021516D01*
X149323700Y-88017842D01*
X149325215Y-87960000D01*
X149306708Y-87758591D01*
X149278000Y-87656799D01*
X149654057Y-87656799D01*
X149660789Y-87660000D01*
X150441885Y-87660000D01*
X150457124Y-87655525D01*
X150458329Y-87654135D01*
X150460000Y-87646452D01*
X150460000Y-87641885D01*
X151060000Y-87641885D01*
X151064475Y-87657124D01*
X151065865Y-87658329D01*
X151073548Y-87660000D01*
X151852222Y-87660000D01*
X151865753Y-87656027D01*
X151866922Y-87647892D01*
X151839786Y-87551675D01*
X151835661Y-87540928D01*
X151747292Y-87361733D01*
X151741282Y-87351925D01*
X151621731Y-87191827D01*
X151614041Y-87183287D01*
X151467315Y-87047654D01*
X151458190Y-87040653D01*
X151289209Y-86934034D01*
X151278965Y-86928814D01*
X151093377Y-86854772D01*
X151082356Y-86851507D01*
X151077770Y-86850595D01*
X151064894Y-86851747D01*
X151060000Y-86866903D01*
X151060000Y-87641885D01*
X150460000Y-87641885D01*
X150460000Y-86862941D01*
X150456027Y-86849410D01*
X150449944Y-86848536D01*
X150268207Y-86915582D01*
X150257829Y-86920532D01*
X150086119Y-87022688D01*
X150076807Y-87029453D01*
X149926587Y-87161194D01*
X149918670Y-87169537D01*
X149794975Y-87326443D01*
X149788704Y-87336100D01*
X149695679Y-87512912D01*
X149691273Y-87523549D01*
X149654276Y-87642698D01*
X149654057Y-87656799D01*
X149278000Y-87656799D01*
X149251807Y-87563926D01*
X149162351Y-87382527D01*
X149146824Y-87361733D01*
X149044788Y-87225091D01*
X149044787Y-87225090D01*
X149041335Y-87220467D01*
X149018350Y-87199220D01*
X148897053Y-87087094D01*
X148897051Y-87087092D01*
X148892812Y-87083174D01*
X148865374Y-87065862D01*
X148726637Y-86978325D01*
X148721757Y-86975246D01*
X148533898Y-86900298D01*
X148359261Y-86865560D01*
X148341192Y-86861966D01*
X148341191Y-86861966D01*
X148335526Y-86860839D01*
X148329752Y-86860763D01*
X148329748Y-86860763D01*
X148227257Y-86859422D01*
X148133286Y-86858192D01*
X148127589Y-86859171D01*
X148127588Y-86859171D01*
X147939646Y-86891465D01*
X147939645Y-86891465D01*
X147933949Y-86892444D01*
X147744193Y-86962449D01*
X147739232Y-86965401D01*
X147739231Y-86965401D01*
X147612744Y-87040653D01*
X147570371Y-87065862D01*
X147418305Y-87199220D01*
X147293089Y-87358057D01*
X147198914Y-87537053D01*
X147138937Y-87730213D01*
X147115164Y-87931069D01*
X147128392Y-88132894D01*
X147129815Y-88138496D01*
X147163965Y-88272962D01*
X147178178Y-88328928D01*
X147180596Y-88334174D01*
X147180600Y-88334184D01*
X147186174Y-88346275D01*
X147196529Y-88416512D01*
X147167266Y-88481198D01*
X147160843Y-88488120D01*
X146672311Y-88976652D01*
X146654080Y-88991377D01*
X146652540Y-88992778D01*
X146643790Y-88998428D01*
X146632887Y-89012258D01*
X146623264Y-89024465D01*
X146619383Y-89028832D01*
X146619461Y-89028898D01*
X146616107Y-89032856D01*
X146612425Y-89036538D01*
X146609402Y-89040769D01*
X146609399Y-89040772D01*
X146606985Y-89044151D01*
X146601339Y-89052052D01*
X146597788Y-89056781D01*
X146566397Y-89096600D01*
X146563395Y-89105149D01*
X146558128Y-89112519D01*
X146548736Y-89143923D01*
X146543608Y-89161070D01*
X146541774Y-89166714D01*
X146527604Y-89207065D01*
X146527603Y-89207071D01*
X146524977Y-89214548D01*
X146524500Y-89220055D01*
X146524500Y-89222762D01*
X146524389Y-89225335D01*
X146524341Y-89225494D01*
X146524197Y-89225488D01*
X146524158Y-89226108D01*
X146522310Y-89232287D01*
X146523285Y-89257108D01*
X146524403Y-89285555D01*
X146524500Y-89290502D01*
X146524500Y-89503016D01*
X146504498Y-89571137D01*
X146450842Y-89617630D01*
X146380568Y-89627734D01*
X146331265Y-89609578D01*
X146186642Y-89518328D01*
X146186640Y-89518327D01*
X146181757Y-89515246D01*
X145993898Y-89440298D01*
X145795526Y-89400839D01*
X145789752Y-89400763D01*
X145789748Y-89400763D01*
X145687257Y-89399422D01*
X145593286Y-89398192D01*
X145587589Y-89399171D01*
X145587588Y-89399171D01*
X145399646Y-89431465D01*
X145399645Y-89431465D01*
X145393949Y-89432444D01*
X145204193Y-89502449D01*
X145199232Y-89505401D01*
X145199231Y-89505401D01*
X145036019Y-89602502D01*
X145030371Y-89605862D01*
X145004578Y-89628482D01*
X144984577Y-89646022D01*
X144920173Y-89675899D01*
X144849840Y-89666213D01*
X144795909Y-89620040D01*
X144775500Y-89551290D01*
X144775500Y-89447727D01*
X144795502Y-89379606D01*
X144812405Y-89358632D01*
X145153195Y-89017842D01*
X145215507Y-88983816D01*
X145292027Y-88991169D01*
X145333167Y-89008844D01*
X145333170Y-89008845D01*
X145338470Y-89011122D01*
X145344099Y-89012396D01*
X145344100Y-89012396D01*
X145526221Y-89053606D01*
X145535740Y-89055760D01*
X145541509Y-89055987D01*
X145541512Y-89055987D01*
X145617683Y-89058979D01*
X145737842Y-89063700D01*
X145833821Y-89049784D01*
X145932286Y-89035508D01*
X145932291Y-89035507D01*
X145938007Y-89034678D01*
X145943479Y-89032820D01*
X145943481Y-89032820D01*
X146124067Y-88971519D01*
X146124069Y-88971518D01*
X146129531Y-88969664D01*
X146306001Y-88870837D01*
X146368433Y-88818913D01*
X146432813Y-88765368D01*
X146461505Y-88741505D01*
X146590837Y-88586001D01*
X146689664Y-88409531D01*
X146754678Y-88218007D01*
X146755507Y-88212291D01*
X146755508Y-88212286D01*
X146783167Y-88021516D01*
X146783700Y-88017842D01*
X146785215Y-87960000D01*
X146766708Y-87758591D01*
X146711807Y-87563926D01*
X146622351Y-87382527D01*
X146606824Y-87361733D01*
X146504788Y-87225091D01*
X146504787Y-87225090D01*
X146501335Y-87220467D01*
X146478350Y-87199220D01*
X146357053Y-87087094D01*
X146357051Y-87087092D01*
X146352812Y-87083174D01*
X146325374Y-87065862D01*
X146186637Y-86978325D01*
X146181757Y-86975246D01*
X145993898Y-86900298D01*
X145819261Y-86865560D01*
X145801192Y-86861966D01*
X145801191Y-86861966D01*
X145795526Y-86860839D01*
X145789752Y-86860763D01*
X145789748Y-86860763D01*
X145687257Y-86859422D01*
X145593286Y-86858192D01*
X145587589Y-86859171D01*
X145587588Y-86859171D01*
X145399646Y-86891465D01*
X145399645Y-86891465D01*
X145393949Y-86892444D01*
X145204193Y-86962449D01*
X145199232Y-86965401D01*
X145199231Y-86965401D01*
X145072744Y-87040653D01*
X145030371Y-87065862D01*
X144878305Y-87199220D01*
X144753089Y-87358057D01*
X144658914Y-87537053D01*
X144598937Y-87730213D01*
X144575164Y-87931069D01*
X144588392Y-88132894D01*
X144589815Y-88138496D01*
X144623965Y-88272962D01*
X144638178Y-88328928D01*
X144640596Y-88334174D01*
X144640600Y-88334184D01*
X144646174Y-88346275D01*
X144656529Y-88416512D01*
X144627266Y-88481198D01*
X144620843Y-88488120D01*
X144172311Y-88936652D01*
X144154080Y-88951377D01*
X144152540Y-88952778D01*
X144143790Y-88958428D01*
X144132982Y-88972138D01*
X144123264Y-88984465D01*
X144119383Y-88988832D01*
X144119461Y-88988898D01*
X144116107Y-88992856D01*
X144112425Y-88996538D01*
X144101339Y-89012052D01*
X144097788Y-89016781D01*
X144066397Y-89056600D01*
X144063395Y-89065149D01*
X144058128Y-89072519D01*
X144049578Y-89101107D01*
X144043608Y-89121070D01*
X144041774Y-89126714D01*
X144027604Y-89167065D01*
X144027603Y-89167071D01*
X144024977Y-89174548D01*
X144024500Y-89180055D01*
X144024500Y-89182762D01*
X144024389Y-89185335D01*
X144024341Y-89185494D01*
X144024197Y-89185488D01*
X144024158Y-89186108D01*
X144022310Y-89192287D01*
X144024403Y-89245555D01*
X144024500Y-89250502D01*
X144024500Y-89530796D01*
X144004498Y-89598917D01*
X143950842Y-89645410D01*
X143880568Y-89655514D01*
X143823415Y-89628292D01*
X143821636Y-89630611D01*
X143817053Y-89627094D01*
X143812812Y-89623174D01*
X143785374Y-89605862D01*
X143646637Y-89518325D01*
X143641757Y-89515246D01*
X143453898Y-89440298D01*
X143255526Y-89400839D01*
X143249752Y-89400763D01*
X143249748Y-89400763D01*
X143147257Y-89399422D01*
X143053286Y-89398192D01*
X143047589Y-89399171D01*
X143047588Y-89399171D01*
X142859646Y-89431465D01*
X142859645Y-89431465D01*
X142853949Y-89432444D01*
X142664193Y-89502449D01*
X142659232Y-89505401D01*
X142659231Y-89505401D01*
X142496019Y-89602502D01*
X142490371Y-89605862D01*
X142338305Y-89739220D01*
X142213089Y-89898057D01*
X142118914Y-90077053D01*
X142058937Y-90270213D01*
X142035164Y-90471069D01*
X142035542Y-90476835D01*
X142035542Y-90476836D01*
X142043224Y-90594047D01*
X142037052Y-90642059D01*
X142036118Y-90644867D01*
X142033021Y-90651493D01*
X142031532Y-90658653D01*
X142031531Y-90658655D01*
X142018315Y-90722193D01*
X142017344Y-90726482D01*
X142000185Y-90796606D01*
X141999838Y-90802206D01*
X141999837Y-90802210D01*
X141999500Y-90807646D01*
X141999500Y-90807648D01*
X141999468Y-90807646D01*
X141999221Y-90811776D01*
X141998875Y-90815656D01*
X141997382Y-90822831D01*
X141997580Y-90830152D01*
X141997580Y-90830153D01*
X141999454Y-90899400D01*
X141999500Y-90902808D01*
X141999500Y-121904000D01*
X141979498Y-121972121D01*
X141925842Y-122018614D01*
X141873500Y-122030000D01*
X140751500Y-122030000D01*
X140683379Y-122009998D01*
X140636886Y-121956342D01*
X140625500Y-121904000D01*
X140625500Y-92803496D01*
X140627979Y-92780199D01*
X140628077Y-92778114D01*
X140630269Y-92767934D01*
X140626373Y-92735016D01*
X140626029Y-92729179D01*
X140625928Y-92729187D01*
X140625500Y-92724011D01*
X140625500Y-92718807D01*
X140622372Y-92700011D01*
X140621535Y-92694136D01*
X140616800Y-92654133D01*
X140615576Y-92643791D01*
X140611655Y-92635625D01*
X140610167Y-92626687D01*
X140586091Y-92582064D01*
X140583398Y-92576778D01*
X140564896Y-92538247D01*
X140564892Y-92538241D01*
X140561463Y-92531100D01*
X140557906Y-92526869D01*
X140555977Y-92524940D01*
X140554255Y-92523063D01*
X140554181Y-92522926D01*
X140554291Y-92522826D01*
X140553868Y-92522346D01*
X140550806Y-92516671D01*
X140539490Y-92506210D01*
X140511633Y-92480460D01*
X140508067Y-92477030D01*
X139712405Y-91681368D01*
X139678379Y-91619056D01*
X139675500Y-91592273D01*
X139675500Y-91434511D01*
X139695502Y-91366390D01*
X139749158Y-91319897D01*
X139819432Y-91309793D01*
X139884012Y-91339287D01*
X139889405Y-91344241D01*
X139904466Y-91358913D01*
X139909270Y-91362123D01*
X139911501Y-91363614D01*
X140072637Y-91471282D01*
X140077940Y-91473560D01*
X140077943Y-91473562D01*
X140228989Y-91538456D01*
X140258470Y-91551122D01*
X140455740Y-91595760D01*
X140461509Y-91595987D01*
X140461512Y-91595987D01*
X140537683Y-91598979D01*
X140657842Y-91603700D01*
X140744132Y-91591189D01*
X140852286Y-91575508D01*
X140852291Y-91575507D01*
X140858007Y-91574678D01*
X140863479Y-91572820D01*
X140863481Y-91572820D01*
X141044067Y-91511519D01*
X141044069Y-91511518D01*
X141049531Y-91509664D01*
X141188517Y-91431829D01*
X141220964Y-91413658D01*
X141220965Y-91413657D01*
X141226001Y-91410837D01*
X141245588Y-91394547D01*
X141351814Y-91306199D01*
X141381505Y-91281505D01*
X141484500Y-91157668D01*
X141507146Y-91130439D01*
X141510837Y-91126001D01*
X141609664Y-90949531D01*
X141625525Y-90902808D01*
X141672820Y-90763481D01*
X141672820Y-90763479D01*
X141674678Y-90758007D01*
X141675507Y-90752291D01*
X141675508Y-90752286D01*
X141694629Y-90620406D01*
X141703700Y-90557842D01*
X141705215Y-90500000D01*
X141686708Y-90298591D01*
X141631807Y-90103926D01*
X141542351Y-89922527D01*
X141526824Y-89901733D01*
X141424788Y-89765091D01*
X141424787Y-89765090D01*
X141421335Y-89760467D01*
X141398350Y-89739220D01*
X141277053Y-89627094D01*
X141277051Y-89627092D01*
X141272812Y-89623174D01*
X141245374Y-89605862D01*
X141106637Y-89518325D01*
X141101757Y-89515246D01*
X140913898Y-89440298D01*
X140715526Y-89400839D01*
X140709752Y-89400763D01*
X140709748Y-89400763D01*
X140607257Y-89399422D01*
X140513286Y-89398192D01*
X140507589Y-89399171D01*
X140507588Y-89399171D01*
X140319646Y-89431465D01*
X140319645Y-89431465D01*
X140313949Y-89432444D01*
X140124193Y-89502449D01*
X140119232Y-89505401D01*
X140119231Y-89505401D01*
X139956019Y-89602502D01*
X139950371Y-89605862D01*
X139884575Y-89663563D01*
X139820174Y-89693439D01*
X139749841Y-89683753D01*
X139695909Y-89637580D01*
X139675500Y-89568830D01*
X139675500Y-89467728D01*
X139695502Y-89399607D01*
X139712405Y-89378632D01*
X140073196Y-89017842D01*
X140135508Y-88983817D01*
X140212027Y-88991170D01*
X140253154Y-89008839D01*
X140253163Y-89008842D01*
X140258470Y-89011122D01*
X140389503Y-89040772D01*
X140446221Y-89053606D01*
X140455740Y-89055760D01*
X140461509Y-89055987D01*
X140461512Y-89055987D01*
X140537683Y-89058979D01*
X140657842Y-89063700D01*
X140753821Y-89049784D01*
X140852286Y-89035508D01*
X140852291Y-89035507D01*
X140858007Y-89034678D01*
X140863479Y-89032820D01*
X140863481Y-89032820D01*
X141044067Y-88971519D01*
X141044069Y-88971518D01*
X141049531Y-88969664D01*
X141226001Y-88870837D01*
X141288433Y-88818913D01*
X141352813Y-88765368D01*
X141381505Y-88741505D01*
X141510837Y-88586001D01*
X141609664Y-88409531D01*
X141674678Y-88218007D01*
X141675507Y-88212291D01*
X141675508Y-88212286D01*
X141703167Y-88021516D01*
X141703700Y-88017842D01*
X141705215Y-87960000D01*
X141702557Y-87931069D01*
X142035164Y-87931069D01*
X142048392Y-88132894D01*
X142049815Y-88138496D01*
X142083965Y-88272962D01*
X142098178Y-88328928D01*
X142182856Y-88512607D01*
X142299588Y-88677780D01*
X142303730Y-88681815D01*
X142351421Y-88728273D01*
X142444466Y-88818913D01*
X142612637Y-88931282D01*
X142617940Y-88933560D01*
X142617943Y-88933562D01*
X142792535Y-89008572D01*
X142798470Y-89011122D01*
X142929503Y-89040772D01*
X142986221Y-89053606D01*
X142995740Y-89055760D01*
X143001509Y-89055987D01*
X143001512Y-89055987D01*
X143077683Y-89058979D01*
X143197842Y-89063700D01*
X143293821Y-89049784D01*
X143392286Y-89035508D01*
X143392291Y-89035507D01*
X143398007Y-89034678D01*
X143403479Y-89032820D01*
X143403481Y-89032820D01*
X143584067Y-88971519D01*
X143584069Y-88971518D01*
X143589531Y-88969664D01*
X143766001Y-88870837D01*
X143828433Y-88818913D01*
X143892813Y-88765368D01*
X143921505Y-88741505D01*
X144050837Y-88586001D01*
X144149664Y-88409531D01*
X144214678Y-88218007D01*
X144215507Y-88212291D01*
X144215508Y-88212286D01*
X144243167Y-88021516D01*
X144243700Y-88017842D01*
X144245215Y-87960000D01*
X144226708Y-87758591D01*
X144171807Y-87563926D01*
X144082351Y-87382527D01*
X144066824Y-87361733D01*
X143964788Y-87225091D01*
X143964787Y-87225090D01*
X143961335Y-87220467D01*
X143938350Y-87199220D01*
X143817053Y-87087094D01*
X143817051Y-87087092D01*
X143812812Y-87083174D01*
X143785374Y-87065862D01*
X143646637Y-86978325D01*
X143641757Y-86975246D01*
X143453898Y-86900298D01*
X143279261Y-86865560D01*
X143261192Y-86861966D01*
X143261191Y-86861966D01*
X143255526Y-86860839D01*
X143249752Y-86860763D01*
X143249748Y-86860763D01*
X143147257Y-86859422D01*
X143053286Y-86858192D01*
X143047589Y-86859171D01*
X143047588Y-86859171D01*
X142859646Y-86891465D01*
X142859645Y-86891465D01*
X142853949Y-86892444D01*
X142664193Y-86962449D01*
X142659232Y-86965401D01*
X142659231Y-86965401D01*
X142532744Y-87040653D01*
X142490371Y-87065862D01*
X142338305Y-87199220D01*
X142213089Y-87358057D01*
X142118914Y-87537053D01*
X142058937Y-87730213D01*
X142035164Y-87931069D01*
X141702557Y-87931069D01*
X141686708Y-87758591D01*
X141631807Y-87563926D01*
X141542351Y-87382527D01*
X141526824Y-87361733D01*
X141424788Y-87225091D01*
X141424787Y-87225090D01*
X141421335Y-87220467D01*
X141398350Y-87199220D01*
X141277053Y-87087094D01*
X141277051Y-87087092D01*
X141272812Y-87083174D01*
X141245374Y-87065862D01*
X141106637Y-86978325D01*
X141101757Y-86975246D01*
X140913898Y-86900298D01*
X140739261Y-86865560D01*
X140721192Y-86861966D01*
X140721191Y-86861966D01*
X140715526Y-86860839D01*
X140709752Y-86860763D01*
X140709748Y-86860763D01*
X140607257Y-86859422D01*
X140513286Y-86858192D01*
X140507589Y-86859171D01*
X140507588Y-86859171D01*
X140319646Y-86891465D01*
X140319645Y-86891465D01*
X140313949Y-86892444D01*
X140124193Y-86962449D01*
X140119232Y-86965401D01*
X140119231Y-86965401D01*
X139992744Y-87040653D01*
X139950371Y-87065862D01*
X139798305Y-87199220D01*
X139673089Y-87358057D01*
X139578914Y-87537053D01*
X139518937Y-87730213D01*
X139495164Y-87931069D01*
X139508392Y-88132894D01*
X139509815Y-88138496D01*
X139543965Y-88272962D01*
X139558178Y-88328928D01*
X139560596Y-88334174D01*
X139560600Y-88334184D01*
X139566174Y-88346275D01*
X139576529Y-88416512D01*
X139547266Y-88481198D01*
X139540843Y-88488120D01*
X139072311Y-88956652D01*
X139054080Y-88971377D01*
X139052540Y-88972778D01*
X139043790Y-88978428D01*
X139032785Y-88992388D01*
X139023264Y-89004465D01*
X139019383Y-89008832D01*
X139019461Y-89008898D01*
X139016107Y-89012856D01*
X139012425Y-89016538D01*
X139001339Y-89032052D01*
X138997788Y-89036781D01*
X138966397Y-89076600D01*
X138963395Y-89085149D01*
X138958128Y-89092519D01*
X138949162Y-89122498D01*
X138943608Y-89141070D01*
X138941774Y-89146714D01*
X138927604Y-89187065D01*
X138927603Y-89187071D01*
X138924977Y-89194548D01*
X138924500Y-89200055D01*
X138924500Y-89202762D01*
X138924389Y-89205335D01*
X138924341Y-89205494D01*
X138924197Y-89205488D01*
X138924158Y-89206108D01*
X138922310Y-89212287D01*
X138922770Y-89224000D01*
X138924403Y-89265555D01*
X138924500Y-89270502D01*
X138924500Y-89515635D01*
X138904498Y-89583756D01*
X138850842Y-89630249D01*
X138780568Y-89640353D01*
X138731265Y-89622197D01*
X138566642Y-89518328D01*
X138566640Y-89518327D01*
X138561757Y-89515246D01*
X138373898Y-89440298D01*
X138175526Y-89400839D01*
X138169752Y-89400763D01*
X138169748Y-89400763D01*
X138067257Y-89399422D01*
X137973286Y-89398192D01*
X137967589Y-89399171D01*
X137967588Y-89399171D01*
X137779646Y-89431465D01*
X137779645Y-89431465D01*
X137773949Y-89432444D01*
X137584193Y-89502449D01*
X137579232Y-89505401D01*
X137579231Y-89505401D01*
X137416019Y-89602502D01*
X137410371Y-89605862D01*
X137384578Y-89628482D01*
X137320174Y-89658359D01*
X137249841Y-89648674D01*
X137195910Y-89602502D01*
X137175500Y-89533751D01*
X137175500Y-89427727D01*
X137195502Y-89359606D01*
X137212405Y-89338632D01*
X137533195Y-89017842D01*
X137595507Y-88983816D01*
X137672027Y-88991169D01*
X137713167Y-89008844D01*
X137713170Y-89008845D01*
X137718470Y-89011122D01*
X137724099Y-89012396D01*
X137724100Y-89012396D01*
X137906221Y-89053606D01*
X137915740Y-89055760D01*
X137921509Y-89055987D01*
X137921512Y-89055987D01*
X137997683Y-89058979D01*
X138117842Y-89063700D01*
X138213821Y-89049784D01*
X138312286Y-89035508D01*
X138312291Y-89035507D01*
X138318007Y-89034678D01*
X138323479Y-89032820D01*
X138323481Y-89032820D01*
X138504067Y-88971519D01*
X138504069Y-88971518D01*
X138509531Y-88969664D01*
X138686001Y-88870837D01*
X138748433Y-88818913D01*
X138812813Y-88765368D01*
X138841505Y-88741505D01*
X138970837Y-88586001D01*
X139069664Y-88409531D01*
X139134678Y-88218007D01*
X139135507Y-88212291D01*
X139135508Y-88212286D01*
X139163167Y-88021516D01*
X139163700Y-88017842D01*
X139165215Y-87960000D01*
X139146708Y-87758591D01*
X139091807Y-87563926D01*
X139002351Y-87382527D01*
X138986824Y-87361733D01*
X138884788Y-87225091D01*
X138884787Y-87225090D01*
X138881335Y-87220467D01*
X138858350Y-87199220D01*
X138737053Y-87087094D01*
X138737051Y-87087092D01*
X138732812Y-87083174D01*
X138705374Y-87065862D01*
X138566637Y-86978325D01*
X138561757Y-86975246D01*
X138373898Y-86900298D01*
X138199261Y-86865560D01*
X138181192Y-86861966D01*
X138181191Y-86861966D01*
X138175526Y-86860839D01*
X138169752Y-86860763D01*
X138169748Y-86860763D01*
X138067257Y-86859422D01*
X137973286Y-86858192D01*
X137967589Y-86859171D01*
X137967588Y-86859171D01*
X137779646Y-86891465D01*
X137779645Y-86891465D01*
X137773949Y-86892444D01*
X137584193Y-86962449D01*
X137579232Y-86965401D01*
X137579231Y-86965401D01*
X137452744Y-87040653D01*
X137410371Y-87065862D01*
X137258305Y-87199220D01*
X137133089Y-87358057D01*
X137038914Y-87537053D01*
X136978937Y-87730213D01*
X136955164Y-87931069D01*
X136968392Y-88132894D01*
X136969815Y-88138496D01*
X137003965Y-88272962D01*
X137018178Y-88328928D01*
X137020596Y-88334174D01*
X137020600Y-88334184D01*
X137026174Y-88346275D01*
X137036529Y-88416512D01*
X137007266Y-88481198D01*
X137000843Y-88488120D01*
X136572311Y-88916652D01*
X136554080Y-88931377D01*
X136552540Y-88932778D01*
X136543790Y-88938428D01*
X136537343Y-88946606D01*
X136523264Y-88964465D01*
X136519383Y-88968832D01*
X136519461Y-88968898D01*
X136516107Y-88972856D01*
X136512425Y-88976538D01*
X136501339Y-88992052D01*
X136497788Y-88996781D01*
X136466397Y-89036600D01*
X136463395Y-89045149D01*
X136458128Y-89052519D01*
X136449563Y-89081160D01*
X136443608Y-89101070D01*
X136441774Y-89106714D01*
X136427604Y-89147065D01*
X136427603Y-89147071D01*
X136424977Y-89154548D01*
X136424500Y-89160055D01*
X136424500Y-89162762D01*
X136424389Y-89165335D01*
X136424341Y-89165494D01*
X136424197Y-89165488D01*
X136424158Y-89166108D01*
X136422310Y-89172287D01*
X136424327Y-89223624D01*
X136424403Y-89225555D01*
X136424500Y-89230502D01*
X136424500Y-89549284D01*
X136404498Y-89617405D01*
X136350842Y-89663898D01*
X136280568Y-89674002D01*
X136212971Y-89641808D01*
X136197059Y-89627099D01*
X136197053Y-89627095D01*
X136192812Y-89623174D01*
X136165374Y-89605862D01*
X136026637Y-89518325D01*
X136021757Y-89515246D01*
X135833898Y-89440298D01*
X135635526Y-89400839D01*
X135629752Y-89400763D01*
X135629748Y-89400763D01*
X135527257Y-89399422D01*
X135433286Y-89398192D01*
X135427589Y-89399171D01*
X135427588Y-89399171D01*
X135239646Y-89431465D01*
X135239645Y-89431465D01*
X135233949Y-89432444D01*
X135044193Y-89502449D01*
X135039232Y-89505401D01*
X135039231Y-89505401D01*
X134876019Y-89602502D01*
X134870371Y-89605862D01*
X134825954Y-89644815D01*
X134784577Y-89681101D01*
X134720173Y-89710978D01*
X134649840Y-89701292D01*
X134595909Y-89655119D01*
X134575500Y-89586369D01*
X134575500Y-89487727D01*
X134595502Y-89419606D01*
X134612405Y-89398632D01*
X134993195Y-89017842D01*
X135055507Y-88983816D01*
X135132027Y-88991169D01*
X135173167Y-89008844D01*
X135173170Y-89008845D01*
X135178470Y-89011122D01*
X135184099Y-89012396D01*
X135184100Y-89012396D01*
X135366221Y-89053606D01*
X135375740Y-89055760D01*
X135381509Y-89055987D01*
X135381512Y-89055987D01*
X135457683Y-89058979D01*
X135577842Y-89063700D01*
X135673821Y-89049784D01*
X135772286Y-89035508D01*
X135772291Y-89035507D01*
X135778007Y-89034678D01*
X135783479Y-89032820D01*
X135783481Y-89032820D01*
X135964067Y-88971519D01*
X135964069Y-88971518D01*
X135969531Y-88969664D01*
X136146001Y-88870837D01*
X136208433Y-88818913D01*
X136272813Y-88765368D01*
X136301505Y-88741505D01*
X136430837Y-88586001D01*
X136529664Y-88409531D01*
X136594678Y-88218007D01*
X136595507Y-88212291D01*
X136595508Y-88212286D01*
X136623167Y-88021516D01*
X136623700Y-88017842D01*
X136625215Y-87960000D01*
X136606708Y-87758591D01*
X136551807Y-87563926D01*
X136462351Y-87382527D01*
X136446824Y-87361733D01*
X136344788Y-87225091D01*
X136344787Y-87225090D01*
X136341335Y-87220467D01*
X136318350Y-87199220D01*
X136197053Y-87087094D01*
X136197051Y-87087092D01*
X136192812Y-87083174D01*
X136165374Y-87065862D01*
X136026637Y-86978325D01*
X136021757Y-86975246D01*
X135833898Y-86900298D01*
X135659261Y-86865560D01*
X135641192Y-86861966D01*
X135641191Y-86861966D01*
X135635526Y-86860839D01*
X135629752Y-86860763D01*
X135629748Y-86860763D01*
X135527257Y-86859422D01*
X135433286Y-86858192D01*
X135427589Y-86859171D01*
X135427588Y-86859171D01*
X135239646Y-86891465D01*
X135239645Y-86891465D01*
X135233949Y-86892444D01*
X135044193Y-86962449D01*
X135039232Y-86965401D01*
X135039231Y-86965401D01*
X134912744Y-87040653D01*
X134870371Y-87065862D01*
X134718305Y-87199220D01*
X134593089Y-87358057D01*
X134498914Y-87537053D01*
X134438937Y-87730213D01*
X134415164Y-87931069D01*
X134428392Y-88132894D01*
X134429815Y-88138496D01*
X134463965Y-88272962D01*
X134478178Y-88328928D01*
X134480596Y-88334174D01*
X134480600Y-88334184D01*
X134486174Y-88346275D01*
X134496529Y-88416512D01*
X134467266Y-88481198D01*
X134460843Y-88488120D01*
X133972311Y-88976652D01*
X133954080Y-88991377D01*
X133952540Y-88992778D01*
X133943790Y-88998428D01*
X133932887Y-89012258D01*
X133923264Y-89024465D01*
X133919383Y-89028832D01*
X133919461Y-89028898D01*
X133916107Y-89032856D01*
X133912425Y-89036538D01*
X133909402Y-89040769D01*
X133909399Y-89040772D01*
X133906985Y-89044151D01*
X133901339Y-89052052D01*
X133897788Y-89056781D01*
X133866397Y-89096600D01*
X133863395Y-89105149D01*
X133858128Y-89112519D01*
X133848736Y-89143923D01*
X133843608Y-89161070D01*
X133841774Y-89166714D01*
X133827604Y-89207065D01*
X133827603Y-89207071D01*
X133824977Y-89214548D01*
X133824500Y-89220055D01*
X133824500Y-89222762D01*
X133824389Y-89225335D01*
X133824341Y-89225494D01*
X133824197Y-89225488D01*
X133824158Y-89226108D01*
X133822310Y-89232287D01*
X133823285Y-89257108D01*
X133824403Y-89285555D01*
X133824500Y-89290502D01*
X133824500Y-89503016D01*
X133804498Y-89571137D01*
X133750842Y-89617630D01*
X133680568Y-89627734D01*
X133631265Y-89609578D01*
X133486642Y-89518328D01*
X133486640Y-89518327D01*
X133481757Y-89515246D01*
X133293898Y-89440298D01*
X133095526Y-89400839D01*
X133089752Y-89400763D01*
X133089748Y-89400763D01*
X132987257Y-89399422D01*
X132893286Y-89398192D01*
X132887589Y-89399171D01*
X132887588Y-89399171D01*
X132699646Y-89431465D01*
X132699645Y-89431465D01*
X132693949Y-89432444D01*
X132504193Y-89502449D01*
X132499232Y-89505401D01*
X132499231Y-89505401D01*
X132336019Y-89602502D01*
X132330371Y-89605862D01*
X132178305Y-89739220D01*
X132053089Y-89898057D01*
X131958914Y-90077053D01*
X131898937Y-90270213D01*
X131875164Y-90471069D01*
X131888392Y-90672894D01*
X131889815Y-90678496D01*
X131923965Y-90812962D01*
X131938178Y-90868928D01*
X132022856Y-91052607D01*
X132026189Y-91057323D01*
X132131095Y-91205762D01*
X132139588Y-91217780D01*
X132143730Y-91221815D01*
X132200454Y-91277073D01*
X132284466Y-91358913D01*
X132289270Y-91362123D01*
X132291501Y-91363614D01*
X132452637Y-91471282D01*
X132457940Y-91473560D01*
X132457943Y-91473562D01*
X132608989Y-91538456D01*
X132638470Y-91551122D01*
X132835740Y-91595760D01*
X132841509Y-91595987D01*
X132841512Y-91595987D01*
X132917683Y-91598979D01*
X133037842Y-91603700D01*
X133124132Y-91591189D01*
X133232286Y-91575508D01*
X133232291Y-91575507D01*
X133238007Y-91574678D01*
X133243479Y-91572820D01*
X133243481Y-91572820D01*
X133424067Y-91511519D01*
X133424069Y-91511518D01*
X133429531Y-91509664D01*
X133568517Y-91431829D01*
X133600964Y-91413658D01*
X133600965Y-91413657D01*
X133606001Y-91410837D01*
X133610439Y-91407146D01*
X133610445Y-91407142D01*
X133617932Y-91400915D01*
X133683096Y-91372735D01*
X133753151Y-91384259D01*
X133805855Y-91431829D01*
X133824500Y-91497790D01*
X133824500Y-92146504D01*
X133822021Y-92169801D01*
X133821923Y-92171886D01*
X133819731Y-92182066D01*
X133821852Y-92199989D01*
X133823627Y-92214984D01*
X133823971Y-92220821D01*
X133824072Y-92220813D01*
X133824500Y-92225992D01*
X133824500Y-92231193D01*
X133825354Y-92236321D01*
X133825354Y-92236327D01*
X133827628Y-92249987D01*
X133828465Y-92255863D01*
X133834424Y-92306210D01*
X133838346Y-92314377D01*
X133839833Y-92323313D01*
X133844777Y-92332475D01*
X133844778Y-92332479D01*
X133863906Y-92367929D01*
X133866602Y-92373220D01*
X133884985Y-92411503D01*
X133888537Y-92418900D01*
X133892094Y-92423131D01*
X133894026Y-92425063D01*
X133895745Y-92426937D01*
X133895819Y-92427074D01*
X133895709Y-92427174D01*
X133896132Y-92427654D01*
X133899194Y-92433329D01*
X133906841Y-92440398D01*
X133906842Y-92440399D01*
X133938367Y-92469540D01*
X133941933Y-92472970D01*
X134837595Y-93368632D01*
X134871621Y-93430944D01*
X134874500Y-93457727D01*
X134874500Y-121904000D01*
X134854498Y-121972121D01*
X134800842Y-122018614D01*
X134748500Y-122030000D01*
X128251500Y-122030000D01*
X128183379Y-122009998D01*
X128136886Y-121956342D01*
X128125500Y-121904000D01*
X128125500Y-93353499D01*
X128127979Y-93330210D01*
X128128078Y-93328119D01*
X128130270Y-93317936D01*
X128126373Y-93285010D01*
X128126029Y-93279180D01*
X128125928Y-93279188D01*
X128125500Y-93274009D01*
X128125500Y-93268809D01*
X128124647Y-93263683D01*
X128124646Y-93263674D01*
X128122374Y-93250025D01*
X128121537Y-93244149D01*
X128117930Y-93213673D01*
X128115577Y-93193793D01*
X128111654Y-93185624D01*
X128110167Y-93176689D01*
X128086098Y-93132081D01*
X128083403Y-93126792D01*
X128064892Y-93088243D01*
X128064891Y-93088241D01*
X128061463Y-93081103D01*
X128057906Y-93076871D01*
X128055964Y-93074929D01*
X128054255Y-93073066D01*
X128054176Y-93072919D01*
X128054284Y-93072820D01*
X128053868Y-93072348D01*
X128050806Y-93066673D01*
X128011632Y-93030461D01*
X128008067Y-93027032D01*
X127012405Y-92031370D01*
X126978379Y-91969058D01*
X126975500Y-91942275D01*
X126975500Y-91434511D01*
X126995502Y-91366390D01*
X127049158Y-91319897D01*
X127119432Y-91309793D01*
X127184012Y-91339287D01*
X127189405Y-91344241D01*
X127204466Y-91358913D01*
X127209270Y-91362123D01*
X127211501Y-91363614D01*
X127372637Y-91471282D01*
X127377940Y-91473560D01*
X127377943Y-91473562D01*
X127528989Y-91538456D01*
X127558470Y-91551122D01*
X127755740Y-91595760D01*
X127761509Y-91595987D01*
X127761512Y-91595987D01*
X127837683Y-91598979D01*
X127957842Y-91603700D01*
X128044132Y-91591189D01*
X128152286Y-91575508D01*
X128152291Y-91575507D01*
X128158007Y-91574678D01*
X128163479Y-91572820D01*
X128163481Y-91572820D01*
X128344067Y-91511519D01*
X128344069Y-91511518D01*
X128349531Y-91509664D01*
X128488517Y-91431829D01*
X128520964Y-91413658D01*
X128520965Y-91413657D01*
X128526001Y-91410837D01*
X128545588Y-91394547D01*
X128651814Y-91306199D01*
X128681505Y-91281505D01*
X128784500Y-91157668D01*
X128807146Y-91130439D01*
X128810837Y-91126001D01*
X128909664Y-90949531D01*
X128925525Y-90902808D01*
X128972820Y-90763481D01*
X128972820Y-90763479D01*
X128974678Y-90758007D01*
X128975507Y-90752291D01*
X128975508Y-90752286D01*
X128994629Y-90620406D01*
X129003700Y-90557842D01*
X129005215Y-90500000D01*
X129002557Y-90471069D01*
X129335164Y-90471069D01*
X129348392Y-90672894D01*
X129349815Y-90678496D01*
X129383965Y-90812962D01*
X129398178Y-90868928D01*
X129482856Y-91052607D01*
X129486189Y-91057323D01*
X129591095Y-91205762D01*
X129599588Y-91217780D01*
X129603730Y-91221815D01*
X129660454Y-91277073D01*
X129744466Y-91358913D01*
X129749270Y-91362123D01*
X129751501Y-91363614D01*
X129912637Y-91471282D01*
X129917940Y-91473560D01*
X129917943Y-91473562D01*
X130068989Y-91538456D01*
X130098470Y-91551122D01*
X130295740Y-91595760D01*
X130301509Y-91595987D01*
X130301512Y-91595987D01*
X130377683Y-91598979D01*
X130497842Y-91603700D01*
X130584132Y-91591189D01*
X130692286Y-91575508D01*
X130692291Y-91575507D01*
X130698007Y-91574678D01*
X130703479Y-91572820D01*
X130703481Y-91572820D01*
X130884067Y-91511519D01*
X130884069Y-91511518D01*
X130889531Y-91509664D01*
X131028517Y-91431829D01*
X131060964Y-91413658D01*
X131060965Y-91413657D01*
X131066001Y-91410837D01*
X131085588Y-91394547D01*
X131191814Y-91306199D01*
X131221505Y-91281505D01*
X131324500Y-91157668D01*
X131347146Y-91130439D01*
X131350837Y-91126001D01*
X131449664Y-90949531D01*
X131465525Y-90902808D01*
X131512820Y-90763481D01*
X131512820Y-90763479D01*
X131514678Y-90758007D01*
X131515507Y-90752291D01*
X131515508Y-90752286D01*
X131534629Y-90620406D01*
X131543700Y-90557842D01*
X131545215Y-90500000D01*
X131526708Y-90298591D01*
X131471807Y-90103926D01*
X131382351Y-89922527D01*
X131366824Y-89901733D01*
X131264788Y-89765091D01*
X131264787Y-89765090D01*
X131261335Y-89760467D01*
X131238350Y-89739220D01*
X131117053Y-89627094D01*
X131117051Y-89627092D01*
X131112812Y-89623174D01*
X131085374Y-89605862D01*
X130946637Y-89518325D01*
X130941757Y-89515246D01*
X130753898Y-89440298D01*
X130555526Y-89400839D01*
X130549752Y-89400763D01*
X130549748Y-89400763D01*
X130447257Y-89399422D01*
X130353286Y-89398192D01*
X130347589Y-89399171D01*
X130347588Y-89399171D01*
X130159646Y-89431465D01*
X130159645Y-89431465D01*
X130153949Y-89432444D01*
X129964193Y-89502449D01*
X129959232Y-89505401D01*
X129959231Y-89505401D01*
X129796019Y-89602502D01*
X129790371Y-89605862D01*
X129638305Y-89739220D01*
X129513089Y-89898057D01*
X129418914Y-90077053D01*
X129358937Y-90270213D01*
X129335164Y-90471069D01*
X129002557Y-90471069D01*
X128986708Y-90298591D01*
X128931807Y-90103926D01*
X128842351Y-89922527D01*
X128826824Y-89901733D01*
X128724788Y-89765091D01*
X128724787Y-89765090D01*
X128721335Y-89760467D01*
X128698350Y-89739220D01*
X128577053Y-89627094D01*
X128577051Y-89627092D01*
X128572812Y-89623174D01*
X128545374Y-89605862D01*
X128406637Y-89518325D01*
X128401757Y-89515246D01*
X128213898Y-89440298D01*
X128015526Y-89400839D01*
X128009752Y-89400763D01*
X128009748Y-89400763D01*
X127907257Y-89399422D01*
X127813286Y-89398192D01*
X127807589Y-89399171D01*
X127807588Y-89399171D01*
X127619646Y-89431465D01*
X127619645Y-89431465D01*
X127613949Y-89432444D01*
X127424193Y-89502449D01*
X127419232Y-89505401D01*
X127419231Y-89505401D01*
X127256019Y-89602502D01*
X127250371Y-89605862D01*
X127184575Y-89663563D01*
X127120174Y-89693439D01*
X127049841Y-89683753D01*
X126995909Y-89637580D01*
X126975500Y-89568830D01*
X126975500Y-89467728D01*
X126995502Y-89399607D01*
X127012405Y-89378632D01*
X127373196Y-89017842D01*
X127435508Y-88983817D01*
X127512027Y-88991170D01*
X127553154Y-89008839D01*
X127553163Y-89008842D01*
X127558470Y-89011122D01*
X127689503Y-89040772D01*
X127746221Y-89053606D01*
X127755740Y-89055760D01*
X127761509Y-89055987D01*
X127761512Y-89055987D01*
X127837683Y-89058979D01*
X127957842Y-89063700D01*
X128053821Y-89049784D01*
X128152286Y-89035508D01*
X128152291Y-89035507D01*
X128158007Y-89034678D01*
X128163479Y-89032820D01*
X128163481Y-89032820D01*
X128344067Y-88971519D01*
X128344069Y-88971518D01*
X128349531Y-88969664D01*
X128526001Y-88870837D01*
X128588433Y-88818913D01*
X128652813Y-88765368D01*
X128681505Y-88741505D01*
X128810837Y-88586001D01*
X128909664Y-88409531D01*
X128974678Y-88218007D01*
X128975507Y-88212291D01*
X128975508Y-88212286D01*
X129003167Y-88021516D01*
X129003700Y-88017842D01*
X129005215Y-87960000D01*
X129002557Y-87931069D01*
X129335164Y-87931069D01*
X129348392Y-88132894D01*
X129349815Y-88138496D01*
X129383965Y-88272962D01*
X129398178Y-88328928D01*
X129482856Y-88512607D01*
X129599588Y-88677780D01*
X129603730Y-88681815D01*
X129651421Y-88728273D01*
X129744466Y-88818913D01*
X129912637Y-88931282D01*
X129917940Y-88933560D01*
X129917943Y-88933562D01*
X130092535Y-89008572D01*
X130098470Y-89011122D01*
X130229503Y-89040772D01*
X130286221Y-89053606D01*
X130295740Y-89055760D01*
X130301509Y-89055987D01*
X130301512Y-89055987D01*
X130377683Y-89058979D01*
X130497842Y-89063700D01*
X130593821Y-89049784D01*
X130692286Y-89035508D01*
X130692291Y-89035507D01*
X130698007Y-89034678D01*
X130703479Y-89032820D01*
X130703481Y-89032820D01*
X130884067Y-88971519D01*
X130884069Y-88971518D01*
X130889531Y-88969664D01*
X131066001Y-88870837D01*
X131128433Y-88818913D01*
X131192813Y-88765368D01*
X131221505Y-88741505D01*
X131350837Y-88586001D01*
X131449664Y-88409531D01*
X131514678Y-88218007D01*
X131515507Y-88212291D01*
X131515508Y-88212286D01*
X131543167Y-88021516D01*
X131543700Y-88017842D01*
X131545215Y-87960000D01*
X131542557Y-87931069D01*
X131875164Y-87931069D01*
X131888392Y-88132894D01*
X131889815Y-88138496D01*
X131923965Y-88272962D01*
X131938178Y-88328928D01*
X132022856Y-88512607D01*
X132139588Y-88677780D01*
X132143730Y-88681815D01*
X132191421Y-88728273D01*
X132284466Y-88818913D01*
X132452637Y-88931282D01*
X132457940Y-88933560D01*
X132457943Y-88933562D01*
X132632535Y-89008572D01*
X132638470Y-89011122D01*
X132769503Y-89040772D01*
X132826221Y-89053606D01*
X132835740Y-89055760D01*
X132841509Y-89055987D01*
X132841512Y-89055987D01*
X132917683Y-89058979D01*
X133037842Y-89063700D01*
X133133821Y-89049784D01*
X133232286Y-89035508D01*
X133232291Y-89035507D01*
X133238007Y-89034678D01*
X133243479Y-89032820D01*
X133243481Y-89032820D01*
X133424067Y-88971519D01*
X133424069Y-88971518D01*
X133429531Y-88969664D01*
X133606001Y-88870837D01*
X133668433Y-88818913D01*
X133732813Y-88765368D01*
X133761505Y-88741505D01*
X133890837Y-88586001D01*
X133989664Y-88409531D01*
X134054678Y-88218007D01*
X134055507Y-88212291D01*
X134055508Y-88212286D01*
X134083167Y-88021516D01*
X134083700Y-88017842D01*
X134085215Y-87960000D01*
X134066708Y-87758591D01*
X134011807Y-87563926D01*
X133922351Y-87382527D01*
X133906824Y-87361733D01*
X133804788Y-87225091D01*
X133804787Y-87225090D01*
X133801335Y-87220467D01*
X133778350Y-87199220D01*
X133657053Y-87087094D01*
X133657051Y-87087092D01*
X133652812Y-87083174D01*
X133625374Y-87065862D01*
X133486637Y-86978325D01*
X133481757Y-86975246D01*
X133293898Y-86900298D01*
X133119261Y-86865560D01*
X133101192Y-86861966D01*
X133101191Y-86861966D01*
X133095526Y-86860839D01*
X133089752Y-86860763D01*
X133089748Y-86860763D01*
X132987257Y-86859422D01*
X132893286Y-86858192D01*
X132887589Y-86859171D01*
X132887588Y-86859171D01*
X132699646Y-86891465D01*
X132699645Y-86891465D01*
X132693949Y-86892444D01*
X132504193Y-86962449D01*
X132499232Y-86965401D01*
X132499231Y-86965401D01*
X132372744Y-87040653D01*
X132330371Y-87065862D01*
X132178305Y-87199220D01*
X132053089Y-87358057D01*
X131958914Y-87537053D01*
X131898937Y-87730213D01*
X131875164Y-87931069D01*
X131542557Y-87931069D01*
X131526708Y-87758591D01*
X131471807Y-87563926D01*
X131382351Y-87382527D01*
X131366824Y-87361733D01*
X131264788Y-87225091D01*
X131264787Y-87225090D01*
X131261335Y-87220467D01*
X131238350Y-87199220D01*
X131117053Y-87087094D01*
X131117051Y-87087092D01*
X131112812Y-87083174D01*
X131085374Y-87065862D01*
X130946637Y-86978325D01*
X130941757Y-86975246D01*
X130753898Y-86900298D01*
X130579261Y-86865560D01*
X130561192Y-86861966D01*
X130561191Y-86861966D01*
X130555526Y-86860839D01*
X130549752Y-86860763D01*
X130549748Y-86860763D01*
X130447257Y-86859422D01*
X130353286Y-86858192D01*
X130347589Y-86859171D01*
X130347588Y-86859171D01*
X130159646Y-86891465D01*
X130159645Y-86891465D01*
X130153949Y-86892444D01*
X129964193Y-86962449D01*
X129959232Y-86965401D01*
X129959231Y-86965401D01*
X129832744Y-87040653D01*
X129790371Y-87065862D01*
X129638305Y-87199220D01*
X129513089Y-87358057D01*
X129418914Y-87537053D01*
X129358937Y-87730213D01*
X129335164Y-87931069D01*
X129002557Y-87931069D01*
X128986708Y-87758591D01*
X128931807Y-87563926D01*
X128842351Y-87382527D01*
X128826824Y-87361733D01*
X128724788Y-87225091D01*
X128724787Y-87225090D01*
X128721335Y-87220467D01*
X128698350Y-87199220D01*
X128577053Y-87087094D01*
X128577051Y-87087092D01*
X128572812Y-87083174D01*
X128545374Y-87065862D01*
X128406637Y-86978325D01*
X128401757Y-86975246D01*
X128213898Y-86900298D01*
X128039261Y-86865560D01*
X128021192Y-86861966D01*
X128021191Y-86861966D01*
X128015526Y-86860839D01*
X128009752Y-86860763D01*
X128009748Y-86860763D01*
X127907257Y-86859422D01*
X127813286Y-86858192D01*
X127807589Y-86859171D01*
X127807588Y-86859171D01*
X127619646Y-86891465D01*
X127619645Y-86891465D01*
X127613949Y-86892444D01*
X127424193Y-86962449D01*
X127419232Y-86965401D01*
X127419231Y-86965401D01*
X127292744Y-87040653D01*
X127250371Y-87065862D01*
X127098305Y-87199220D01*
X126973089Y-87358057D01*
X126878914Y-87537053D01*
X126818937Y-87730213D01*
X126795164Y-87931069D01*
X126808392Y-88132894D01*
X126809815Y-88138496D01*
X126843965Y-88272962D01*
X126858178Y-88328928D01*
X126860596Y-88334174D01*
X126860600Y-88334184D01*
X126866174Y-88346275D01*
X126876529Y-88416512D01*
X126847266Y-88481198D01*
X126840843Y-88488120D01*
X126372311Y-88956652D01*
X126354080Y-88971377D01*
X126352540Y-88972778D01*
X126343790Y-88978428D01*
X126332785Y-88992388D01*
X126323264Y-89004465D01*
X126319383Y-89008832D01*
X126319461Y-89008898D01*
X126316107Y-89012856D01*
X126312425Y-89016538D01*
X126301339Y-89032052D01*
X126297788Y-89036781D01*
X126266397Y-89076600D01*
X126263395Y-89085149D01*
X126258128Y-89092519D01*
X126249162Y-89122498D01*
X126243608Y-89141070D01*
X126241774Y-89146714D01*
X126227604Y-89187065D01*
X126227603Y-89187071D01*
X126224977Y-89194548D01*
X126224500Y-89200055D01*
X126224500Y-89202762D01*
X126224389Y-89205335D01*
X126224341Y-89205494D01*
X126224197Y-89205488D01*
X126224158Y-89206108D01*
X126222310Y-89212287D01*
X126222770Y-89224000D01*
X126224403Y-89265555D01*
X126224500Y-89270502D01*
X126224500Y-89515635D01*
X126204498Y-89583756D01*
X126150842Y-89630249D01*
X126080568Y-89640353D01*
X126031265Y-89622197D01*
X125866642Y-89518328D01*
X125866640Y-89518327D01*
X125861757Y-89515246D01*
X125673898Y-89440298D01*
X125475526Y-89400839D01*
X125469752Y-89400763D01*
X125469748Y-89400763D01*
X125367257Y-89399422D01*
X125273286Y-89398192D01*
X125267589Y-89399171D01*
X125267588Y-89399171D01*
X125079646Y-89431465D01*
X125079645Y-89431465D01*
X125073949Y-89432444D01*
X124884193Y-89502449D01*
X124879232Y-89505401D01*
X124879231Y-89505401D01*
X124716019Y-89602502D01*
X124710371Y-89605862D01*
X124684578Y-89628482D01*
X124620174Y-89658359D01*
X124549841Y-89648674D01*
X124495910Y-89602502D01*
X124475500Y-89533751D01*
X124475500Y-89427727D01*
X124495502Y-89359606D01*
X124512405Y-89338632D01*
X124833195Y-89017842D01*
X124895507Y-88983816D01*
X124972027Y-88991169D01*
X125013167Y-89008844D01*
X125013170Y-89008845D01*
X125018470Y-89011122D01*
X125024099Y-89012396D01*
X125024100Y-89012396D01*
X125206221Y-89053606D01*
X125215740Y-89055760D01*
X125221509Y-89055987D01*
X125221512Y-89055987D01*
X125297683Y-89058979D01*
X125417842Y-89063700D01*
X125513821Y-89049784D01*
X125612286Y-89035508D01*
X125612291Y-89035507D01*
X125618007Y-89034678D01*
X125623479Y-89032820D01*
X125623481Y-89032820D01*
X125804067Y-88971519D01*
X125804069Y-88971518D01*
X125809531Y-88969664D01*
X125986001Y-88870837D01*
X126048433Y-88818913D01*
X126112813Y-88765368D01*
X126141505Y-88741505D01*
X126270837Y-88586001D01*
X126369664Y-88409531D01*
X126434678Y-88218007D01*
X126435507Y-88212291D01*
X126435508Y-88212286D01*
X126463167Y-88021516D01*
X126463700Y-88017842D01*
X126465215Y-87960000D01*
X126446708Y-87758591D01*
X126391807Y-87563926D01*
X126302351Y-87382527D01*
X126286824Y-87361733D01*
X126184788Y-87225091D01*
X126184787Y-87225090D01*
X126181335Y-87220467D01*
X126158350Y-87199220D01*
X126037053Y-87087094D01*
X126037051Y-87087092D01*
X126032812Y-87083174D01*
X126005374Y-87065862D01*
X125866637Y-86978325D01*
X125861757Y-86975246D01*
X125673898Y-86900298D01*
X125499261Y-86865560D01*
X125481192Y-86861966D01*
X125481191Y-86861966D01*
X125475526Y-86860839D01*
X125469752Y-86860763D01*
X125469748Y-86860763D01*
X125367257Y-86859422D01*
X125273286Y-86858192D01*
X125267589Y-86859171D01*
X125267588Y-86859171D01*
X125079646Y-86891465D01*
X125079645Y-86891465D01*
X125073949Y-86892444D01*
X124884193Y-86962449D01*
X124879232Y-86965401D01*
X124879231Y-86965401D01*
X124752744Y-87040653D01*
X124710371Y-87065862D01*
X124558305Y-87199220D01*
X124433089Y-87358057D01*
X124338914Y-87537053D01*
X124278937Y-87730213D01*
X124255164Y-87931069D01*
X124268392Y-88132894D01*
X124269815Y-88138496D01*
X124303965Y-88272962D01*
X124318178Y-88328928D01*
X124320596Y-88334174D01*
X124320600Y-88334184D01*
X124326174Y-88346275D01*
X124336529Y-88416512D01*
X124307266Y-88481198D01*
X124300843Y-88488120D01*
X123872311Y-88916652D01*
X123854080Y-88931377D01*
X123852540Y-88932778D01*
X123843790Y-88938428D01*
X123837343Y-88946606D01*
X123823264Y-88964465D01*
X123819383Y-88968832D01*
X123819461Y-88968898D01*
X123816107Y-88972856D01*
X123812425Y-88976538D01*
X123801339Y-88992052D01*
X123797775Y-88996798D01*
X123795441Y-88999758D01*
X123737556Y-89040865D01*
X123666635Y-89044151D01*
X123605197Y-89008572D01*
X123572746Y-88945426D01*
X123570500Y-88921741D01*
X123570500Y-88823954D01*
X123590502Y-88755833D01*
X123601831Y-88741776D01*
X123601505Y-88741505D01*
X123727146Y-88590439D01*
X123730837Y-88586001D01*
X123829664Y-88409531D01*
X123894678Y-88218007D01*
X123895507Y-88212291D01*
X123895508Y-88212286D01*
X123923167Y-88021516D01*
X123923700Y-88017842D01*
X123925215Y-87960000D01*
X123906708Y-87758591D01*
X123851807Y-87563926D01*
X123762351Y-87382527D01*
X123746824Y-87361733D01*
X123644788Y-87225091D01*
X123644787Y-87225090D01*
X123641335Y-87220467D01*
X123618350Y-87199220D01*
X123497053Y-87087094D01*
X123497051Y-87087092D01*
X123492812Y-87083174D01*
X123465374Y-87065862D01*
X123326637Y-86978325D01*
X123321757Y-86975246D01*
X123133898Y-86900298D01*
X122959261Y-86865560D01*
X122941192Y-86861966D01*
X122941191Y-86861966D01*
X122935526Y-86860839D01*
X122929752Y-86860763D01*
X122929748Y-86860763D01*
X122827257Y-86859422D01*
X122733286Y-86858192D01*
X122727589Y-86859171D01*
X122727588Y-86859171D01*
X122539646Y-86891465D01*
X122539645Y-86891465D01*
X122533949Y-86892444D01*
X122344193Y-86962449D01*
X122339232Y-86965401D01*
X122339231Y-86965401D01*
X122212744Y-87040653D01*
X122170371Y-87065862D01*
X122018305Y-87199220D01*
X121893089Y-87358057D01*
X121798914Y-87537053D01*
X121738937Y-87730213D01*
X121715164Y-87931069D01*
X121728392Y-88132894D01*
X121729815Y-88138496D01*
X121763965Y-88272962D01*
X121778178Y-88328928D01*
X121862856Y-88512607D01*
X121979588Y-88677780D01*
X122016864Y-88714092D01*
X122031421Y-88728273D01*
X122066259Y-88790134D01*
X122069500Y-88818527D01*
X122069500Y-89637233D01*
X122049498Y-89705354D01*
X122026576Y-89731966D01*
X122022652Y-89735407D01*
X122022648Y-89735412D01*
X122018305Y-89739220D01*
X121893089Y-89898057D01*
X121798914Y-90077053D01*
X121738937Y-90270213D01*
X121715164Y-90471069D01*
X121728392Y-90672894D01*
X121729815Y-90678496D01*
X121763965Y-90812962D01*
X121778178Y-90868928D01*
X121862856Y-91052607D01*
X121866189Y-91057323D01*
X121976397Y-91213265D01*
X121999500Y-91285985D01*
X121999500Y-121904000D01*
X121979498Y-121972121D01*
X121925842Y-122018614D01*
X121873500Y-122030000D01*
X120751500Y-122030000D01*
X120683379Y-122009998D01*
X120636886Y-121956342D01*
X120625500Y-121904000D01*
X120625500Y-93303496D01*
X120627979Y-93280199D01*
X120628077Y-93278114D01*
X120630269Y-93267934D01*
X120626373Y-93235015D01*
X120626029Y-93229179D01*
X120625928Y-93229187D01*
X120625500Y-93224008D01*
X120625500Y-93218807D01*
X120624646Y-93213672D01*
X120622372Y-93200013D01*
X120621535Y-93194137D01*
X120617580Y-93160724D01*
X120615576Y-93143790D01*
X120611654Y-93135623D01*
X120610167Y-93126687D01*
X120605223Y-93117524D01*
X120605222Y-93117521D01*
X120586094Y-93082071D01*
X120583398Y-93076780D01*
X120564897Y-93038251D01*
X120564896Y-93038250D01*
X120561463Y-93031100D01*
X120557906Y-93026869D01*
X120555974Y-93024937D01*
X120554255Y-93023063D01*
X120554181Y-93022926D01*
X120554291Y-93022826D01*
X120553868Y-93022346D01*
X120550806Y-93016671D01*
X120539146Y-93005892D01*
X120511633Y-92980460D01*
X120508067Y-92977030D01*
X119412405Y-91881368D01*
X119378379Y-91819056D01*
X119375500Y-91792273D01*
X119375500Y-91453180D01*
X119395502Y-91385059D01*
X119449158Y-91338566D01*
X119519432Y-91328462D01*
X119580651Y-91355196D01*
X119584466Y-91358913D01*
X119752637Y-91471282D01*
X119757940Y-91473560D01*
X119757943Y-91473562D01*
X119908989Y-91538456D01*
X119938470Y-91551122D01*
X120135740Y-91595760D01*
X120141509Y-91595987D01*
X120141512Y-91595987D01*
X120217683Y-91598979D01*
X120337842Y-91603700D01*
X120424132Y-91591189D01*
X120532286Y-91575508D01*
X120532291Y-91575507D01*
X120538007Y-91574678D01*
X120543479Y-91572820D01*
X120543481Y-91572820D01*
X120724067Y-91511519D01*
X120724069Y-91511518D01*
X120729531Y-91509664D01*
X120868517Y-91431829D01*
X120900964Y-91413658D01*
X120900965Y-91413657D01*
X120906001Y-91410837D01*
X120925588Y-91394547D01*
X121031814Y-91306199D01*
X121061505Y-91281505D01*
X121164500Y-91157668D01*
X121187146Y-91130439D01*
X121190837Y-91126001D01*
X121289664Y-90949531D01*
X121305525Y-90902808D01*
X121352820Y-90763481D01*
X121352820Y-90763479D01*
X121354678Y-90758007D01*
X121355507Y-90752291D01*
X121355508Y-90752286D01*
X121374629Y-90620406D01*
X121383700Y-90557842D01*
X121385215Y-90500000D01*
X121366708Y-90298591D01*
X121311807Y-90103926D01*
X121222351Y-89922527D01*
X121206824Y-89901733D01*
X121104788Y-89765091D01*
X121104787Y-89765090D01*
X121101335Y-89760467D01*
X121078350Y-89739220D01*
X120957053Y-89627094D01*
X120957051Y-89627092D01*
X120952812Y-89623174D01*
X120925374Y-89605862D01*
X120786637Y-89518325D01*
X120781757Y-89515246D01*
X120593898Y-89440298D01*
X120395526Y-89400839D01*
X120389752Y-89400763D01*
X120389748Y-89400763D01*
X120287257Y-89399422D01*
X120193286Y-89398192D01*
X120187589Y-89399171D01*
X120187588Y-89399171D01*
X119999646Y-89431465D01*
X119999645Y-89431465D01*
X119993949Y-89432444D01*
X119804193Y-89502449D01*
X119799232Y-89505401D01*
X119799231Y-89505401D01*
X119636019Y-89602502D01*
X119630371Y-89605862D01*
X119604578Y-89628482D01*
X119584577Y-89646022D01*
X119520173Y-89675899D01*
X119449840Y-89666213D01*
X119395909Y-89620040D01*
X119375500Y-89551290D01*
X119375500Y-89447727D01*
X119395502Y-89379606D01*
X119412405Y-89358632D01*
X119753195Y-89017842D01*
X119815507Y-88983816D01*
X119892027Y-88991169D01*
X119933167Y-89008844D01*
X119933170Y-89008845D01*
X119938470Y-89011122D01*
X119944099Y-89012396D01*
X119944100Y-89012396D01*
X120126221Y-89053606D01*
X120135740Y-89055760D01*
X120141509Y-89055987D01*
X120141512Y-89055987D01*
X120217683Y-89058979D01*
X120337842Y-89063700D01*
X120433821Y-89049784D01*
X120532286Y-89035508D01*
X120532291Y-89035507D01*
X120538007Y-89034678D01*
X120543479Y-89032820D01*
X120543481Y-89032820D01*
X120724067Y-88971519D01*
X120724069Y-88971518D01*
X120729531Y-88969664D01*
X120906001Y-88870837D01*
X120968433Y-88818913D01*
X121032813Y-88765368D01*
X121061505Y-88741505D01*
X121190837Y-88586001D01*
X121289664Y-88409531D01*
X121354678Y-88218007D01*
X121355507Y-88212291D01*
X121355508Y-88212286D01*
X121383167Y-88021516D01*
X121383700Y-88017842D01*
X121385215Y-87960000D01*
X121366708Y-87758591D01*
X121311807Y-87563926D01*
X121222351Y-87382527D01*
X121206824Y-87361733D01*
X121104788Y-87225091D01*
X121104787Y-87225090D01*
X121101335Y-87220467D01*
X121078350Y-87199220D01*
X120957053Y-87087094D01*
X120957051Y-87087092D01*
X120952812Y-87083174D01*
X120925374Y-87065862D01*
X120786637Y-86978325D01*
X120781757Y-86975246D01*
X120593898Y-86900298D01*
X120419261Y-86865560D01*
X120401192Y-86861966D01*
X120401191Y-86861966D01*
X120395526Y-86860839D01*
X120389752Y-86860763D01*
X120389748Y-86860763D01*
X120287257Y-86859422D01*
X120193286Y-86858192D01*
X120187589Y-86859171D01*
X120187588Y-86859171D01*
X119999646Y-86891465D01*
X119999645Y-86891465D01*
X119993949Y-86892444D01*
X119804193Y-86962449D01*
X119799232Y-86965401D01*
X119799231Y-86965401D01*
X119672744Y-87040653D01*
X119630371Y-87065862D01*
X119478305Y-87199220D01*
X119353089Y-87358057D01*
X119258914Y-87537053D01*
X119198937Y-87730213D01*
X119175164Y-87931069D01*
X119188392Y-88132894D01*
X119189815Y-88138496D01*
X119223965Y-88272962D01*
X119238178Y-88328928D01*
X119240596Y-88334174D01*
X119240600Y-88334184D01*
X119246174Y-88346275D01*
X119256529Y-88416512D01*
X119227266Y-88481198D01*
X119220843Y-88488120D01*
X118772311Y-88936652D01*
X118754080Y-88951377D01*
X118752540Y-88952778D01*
X118743790Y-88958428D01*
X118732982Y-88972138D01*
X118723264Y-88984465D01*
X118719383Y-88988832D01*
X118719461Y-88988898D01*
X118716107Y-88992856D01*
X118712425Y-88996538D01*
X118701339Y-89012052D01*
X118697788Y-89016781D01*
X118666397Y-89056600D01*
X118663395Y-89065149D01*
X118658128Y-89072519D01*
X118649578Y-89101107D01*
X118643608Y-89121070D01*
X118641774Y-89126714D01*
X118627604Y-89167065D01*
X118627603Y-89167071D01*
X118624977Y-89174548D01*
X118624500Y-89180055D01*
X118624500Y-89182762D01*
X118624389Y-89185335D01*
X118624341Y-89185494D01*
X118624197Y-89185488D01*
X118624158Y-89186108D01*
X118622310Y-89192287D01*
X118624403Y-89245555D01*
X118624500Y-89250502D01*
X118624500Y-89530796D01*
X118604498Y-89598917D01*
X118550842Y-89645410D01*
X118480568Y-89655514D01*
X118423415Y-89628292D01*
X118421636Y-89630611D01*
X118417053Y-89627094D01*
X118412812Y-89623174D01*
X118385374Y-89605862D01*
X118246637Y-89518325D01*
X118241757Y-89515246D01*
X118053898Y-89440298D01*
X117855526Y-89400839D01*
X117849752Y-89400763D01*
X117849748Y-89400763D01*
X117747257Y-89399422D01*
X117653286Y-89398192D01*
X117647589Y-89399171D01*
X117647588Y-89399171D01*
X117459646Y-89431465D01*
X117459645Y-89431465D01*
X117453949Y-89432444D01*
X117264193Y-89502449D01*
X117259232Y-89505401D01*
X117259231Y-89505401D01*
X117096019Y-89602502D01*
X117090371Y-89605862D01*
X117070630Y-89623174D01*
X117068977Y-89624624D01*
X117004573Y-89654501D01*
X116934240Y-89644815D01*
X116880309Y-89598642D01*
X116859900Y-89529892D01*
X116859900Y-89423327D01*
X116879902Y-89355206D01*
X116896805Y-89334232D01*
X117213195Y-89017842D01*
X117275507Y-88983816D01*
X117352027Y-88991169D01*
X117393167Y-89008844D01*
X117393170Y-89008845D01*
X117398470Y-89011122D01*
X117404099Y-89012396D01*
X117404100Y-89012396D01*
X117586221Y-89053606D01*
X117595740Y-89055760D01*
X117601509Y-89055987D01*
X117601512Y-89055987D01*
X117677683Y-89058979D01*
X117797842Y-89063700D01*
X117893821Y-89049784D01*
X117992286Y-89035508D01*
X117992291Y-89035507D01*
X117998007Y-89034678D01*
X118003479Y-89032820D01*
X118003481Y-89032820D01*
X118184067Y-88971519D01*
X118184069Y-88971518D01*
X118189531Y-88969664D01*
X118366001Y-88870837D01*
X118428433Y-88818913D01*
X118492813Y-88765368D01*
X118521505Y-88741505D01*
X118650837Y-88586001D01*
X118749664Y-88409531D01*
X118814678Y-88218007D01*
X118815507Y-88212291D01*
X118815508Y-88212286D01*
X118843167Y-88021516D01*
X118843700Y-88017842D01*
X118845215Y-87960000D01*
X118826708Y-87758591D01*
X118771807Y-87563926D01*
X118682351Y-87382527D01*
X118666824Y-87361733D01*
X118564788Y-87225091D01*
X118564787Y-87225090D01*
X118561335Y-87220467D01*
X118538350Y-87199220D01*
X118417053Y-87087094D01*
X118417051Y-87087092D01*
X118412812Y-87083174D01*
X118385374Y-87065862D01*
X118246637Y-86978325D01*
X118241757Y-86975246D01*
X118053898Y-86900298D01*
X117879261Y-86865560D01*
X117861192Y-86861966D01*
X117861191Y-86861966D01*
X117855526Y-86860839D01*
X117849752Y-86860763D01*
X117849748Y-86860763D01*
X117747257Y-86859422D01*
X117653286Y-86858192D01*
X117647589Y-86859171D01*
X117647588Y-86859171D01*
X117459646Y-86891465D01*
X117459645Y-86891465D01*
X117453949Y-86892444D01*
X117264193Y-86962449D01*
X117259232Y-86965401D01*
X117259231Y-86965401D01*
X117132744Y-87040653D01*
X117090371Y-87065862D01*
X116938305Y-87199220D01*
X116813089Y-87358057D01*
X116718914Y-87537053D01*
X116658937Y-87730213D01*
X116635164Y-87931069D01*
X116648392Y-88132894D01*
X116649815Y-88138496D01*
X116683965Y-88272962D01*
X116698178Y-88328928D01*
X116700596Y-88334174D01*
X116700600Y-88334184D01*
X116706174Y-88346275D01*
X116716529Y-88416512D01*
X116687266Y-88481198D01*
X116680843Y-88488120D01*
X116256711Y-88912252D01*
X116238480Y-88926977D01*
X116236940Y-88928378D01*
X116228190Y-88934028D01*
X116221743Y-88942206D01*
X116207664Y-88960065D01*
X116203783Y-88964432D01*
X116203861Y-88964498D01*
X116200507Y-88968456D01*
X116196825Y-88972138D01*
X116193802Y-88976369D01*
X116193799Y-88976372D01*
X116193599Y-88976652D01*
X116185739Y-88987652D01*
X116182188Y-88992381D01*
X116150797Y-89032200D01*
X116147795Y-89040749D01*
X116142528Y-89048119D01*
X116136457Y-89068419D01*
X116128008Y-89096670D01*
X116126174Y-89102314D01*
X116112004Y-89142665D01*
X116112003Y-89142671D01*
X116109377Y-89150148D01*
X116108900Y-89155655D01*
X116108900Y-89158362D01*
X116108789Y-89160935D01*
X116108741Y-89161094D01*
X116108597Y-89161088D01*
X116108558Y-89161708D01*
X116106710Y-89167887D01*
X116108078Y-89202692D01*
X116108803Y-89221155D01*
X116108900Y-89226102D01*
X116108900Y-89553351D01*
X116088898Y-89621472D01*
X116035242Y-89667965D01*
X115964968Y-89678069D01*
X115897371Y-89645876D01*
X115877053Y-89627094D01*
X115877051Y-89627092D01*
X115872812Y-89623174D01*
X115845374Y-89605862D01*
X115706637Y-89518325D01*
X115701757Y-89515246D01*
X115513898Y-89440298D01*
X115315526Y-89400839D01*
X115309752Y-89400763D01*
X115309748Y-89400763D01*
X115207257Y-89399422D01*
X115113286Y-89398192D01*
X115107589Y-89399171D01*
X115107588Y-89399171D01*
X114919646Y-89431465D01*
X114919645Y-89431465D01*
X114913949Y-89432444D01*
X114724193Y-89502449D01*
X114719232Y-89505401D01*
X114719231Y-89505401D01*
X114556019Y-89602502D01*
X114550371Y-89605862D01*
X114484575Y-89663563D01*
X114420174Y-89693439D01*
X114349841Y-89683753D01*
X114295909Y-89637580D01*
X114275500Y-89568830D01*
X114275500Y-89467728D01*
X114295502Y-89399607D01*
X114312405Y-89378632D01*
X114673196Y-89017842D01*
X114735508Y-88983817D01*
X114812027Y-88991170D01*
X114853154Y-89008839D01*
X114853163Y-89008842D01*
X114858470Y-89011122D01*
X114989503Y-89040772D01*
X115046221Y-89053606D01*
X115055740Y-89055760D01*
X115061509Y-89055987D01*
X115061512Y-89055987D01*
X115137683Y-89058979D01*
X115257842Y-89063700D01*
X115353821Y-89049784D01*
X115452286Y-89035508D01*
X115452291Y-89035507D01*
X115458007Y-89034678D01*
X115463479Y-89032820D01*
X115463481Y-89032820D01*
X115644067Y-88971519D01*
X115644069Y-88971518D01*
X115649531Y-88969664D01*
X115826001Y-88870837D01*
X115888433Y-88818913D01*
X115952813Y-88765368D01*
X115981505Y-88741505D01*
X116110837Y-88586001D01*
X116209664Y-88409531D01*
X116274678Y-88218007D01*
X116275507Y-88212291D01*
X116275508Y-88212286D01*
X116303167Y-88021516D01*
X116303700Y-88017842D01*
X116305215Y-87960000D01*
X116286708Y-87758591D01*
X116231807Y-87563926D01*
X116142351Y-87382527D01*
X116126824Y-87361733D01*
X116024788Y-87225091D01*
X116024787Y-87225090D01*
X116021335Y-87220467D01*
X115998350Y-87199220D01*
X115877053Y-87087094D01*
X115877051Y-87087092D01*
X115872812Y-87083174D01*
X115845374Y-87065862D01*
X115706637Y-86978325D01*
X115701757Y-86975246D01*
X115513898Y-86900298D01*
X115339261Y-86865560D01*
X115321192Y-86861966D01*
X115321191Y-86861966D01*
X115315526Y-86860839D01*
X115309752Y-86860763D01*
X115309748Y-86860763D01*
X115207257Y-86859422D01*
X115113286Y-86858192D01*
X115107589Y-86859171D01*
X115107588Y-86859171D01*
X114919646Y-86891465D01*
X114919645Y-86891465D01*
X114913949Y-86892444D01*
X114724193Y-86962449D01*
X114719232Y-86965401D01*
X114719231Y-86965401D01*
X114592744Y-87040653D01*
X114550371Y-87065862D01*
X114398305Y-87199220D01*
X114273089Y-87358057D01*
X114178914Y-87537053D01*
X114118937Y-87730213D01*
X114095164Y-87931069D01*
X114108392Y-88132894D01*
X114109815Y-88138496D01*
X114143965Y-88272962D01*
X114158178Y-88328928D01*
X114160596Y-88334174D01*
X114160600Y-88334184D01*
X114166174Y-88346275D01*
X114176529Y-88416512D01*
X114147266Y-88481198D01*
X114140843Y-88488120D01*
X113672311Y-88956652D01*
X113654080Y-88971377D01*
X113652540Y-88972778D01*
X113643790Y-88978428D01*
X113632785Y-88992388D01*
X113623264Y-89004465D01*
X113619383Y-89008832D01*
X113619461Y-89008898D01*
X113616107Y-89012856D01*
X113612425Y-89016538D01*
X113601339Y-89032052D01*
X113597788Y-89036781D01*
X113566397Y-89076600D01*
X113563395Y-89085149D01*
X113558128Y-89092519D01*
X113549162Y-89122498D01*
X113543608Y-89141070D01*
X113541774Y-89146714D01*
X113527604Y-89187065D01*
X113527603Y-89187071D01*
X113524977Y-89194548D01*
X113524500Y-89200055D01*
X113524500Y-89202762D01*
X113524389Y-89205335D01*
X113524341Y-89205494D01*
X113524197Y-89205488D01*
X113524158Y-89206108D01*
X113522310Y-89212287D01*
X113522770Y-89224000D01*
X113524403Y-89265555D01*
X113524500Y-89270502D01*
X113524500Y-89515635D01*
X113504498Y-89583756D01*
X113450842Y-89630249D01*
X113380568Y-89640353D01*
X113331265Y-89622197D01*
X113166642Y-89518328D01*
X113166640Y-89518327D01*
X113161757Y-89515246D01*
X112973898Y-89440298D01*
X112775526Y-89400839D01*
X112769752Y-89400763D01*
X112769748Y-89400763D01*
X112667257Y-89399422D01*
X112573286Y-89398192D01*
X112567589Y-89399171D01*
X112567588Y-89399171D01*
X112379646Y-89431465D01*
X112379645Y-89431465D01*
X112373949Y-89432444D01*
X112184193Y-89502449D01*
X112179232Y-89505401D01*
X112179231Y-89505401D01*
X112016019Y-89602502D01*
X112010371Y-89605862D01*
X111858305Y-89739220D01*
X111733089Y-89898057D01*
X111638914Y-90077053D01*
X111578937Y-90270213D01*
X111555164Y-90471069D01*
X111568392Y-90672894D01*
X111569815Y-90678496D01*
X111603965Y-90812962D01*
X111618178Y-90868928D01*
X111702856Y-91052607D01*
X111706189Y-91057323D01*
X111811095Y-91205762D01*
X111819588Y-91217780D01*
X111823730Y-91221815D01*
X111880454Y-91277073D01*
X111964466Y-91358913D01*
X111969270Y-91362123D01*
X111971501Y-91363614D01*
X112132637Y-91471282D01*
X112137940Y-91473560D01*
X112137943Y-91473562D01*
X112288989Y-91538456D01*
X112318470Y-91551122D01*
X112515740Y-91595760D01*
X112521509Y-91595987D01*
X112521512Y-91595987D01*
X112597683Y-91598979D01*
X112717842Y-91603700D01*
X112804132Y-91591189D01*
X112912286Y-91575508D01*
X112912291Y-91575507D01*
X112918007Y-91574678D01*
X112923479Y-91572820D01*
X112923481Y-91572820D01*
X113104067Y-91511519D01*
X113104069Y-91511518D01*
X113109531Y-91509664D01*
X113248517Y-91431829D01*
X113280964Y-91413658D01*
X113280965Y-91413657D01*
X113286001Y-91410837D01*
X113297931Y-91400915D01*
X113317931Y-91384282D01*
X113383095Y-91356101D01*
X113453150Y-91367625D01*
X113505854Y-91415194D01*
X113524500Y-91481156D01*
X113524500Y-91846504D01*
X113522021Y-91869801D01*
X113521923Y-91871886D01*
X113519731Y-91882066D01*
X113522489Y-91905370D01*
X113523627Y-91914984D01*
X113523971Y-91920821D01*
X113524072Y-91920813D01*
X113524500Y-91925992D01*
X113524500Y-91931193D01*
X113525354Y-91936321D01*
X113525354Y-91936327D01*
X113527628Y-91949987D01*
X113528465Y-91955863D01*
X113534424Y-92006210D01*
X113538346Y-92014377D01*
X113539833Y-92023313D01*
X113544777Y-92032475D01*
X113544778Y-92032479D01*
X113563906Y-92067929D01*
X113566602Y-92073220D01*
X113584223Y-92109916D01*
X113588537Y-92118900D01*
X113592094Y-92123131D01*
X113594026Y-92125063D01*
X113595745Y-92126937D01*
X113595819Y-92127074D01*
X113595709Y-92127174D01*
X113596132Y-92127654D01*
X113599194Y-92133329D01*
X113606841Y-92140398D01*
X113606842Y-92140399D01*
X113638367Y-92169540D01*
X113641933Y-92172970D01*
X114837595Y-93368632D01*
X114871621Y-93430944D01*
X114874500Y-93457727D01*
X114874500Y-121904000D01*
X114854498Y-121972121D01*
X114800842Y-122018614D01*
X114748500Y-122030000D01*
X105751500Y-122030000D01*
X105683379Y-122009998D01*
X105636886Y-121956342D01*
X105625500Y-121904000D01*
X105625500Y-93803497D01*
X105627979Y-93780208D01*
X105628078Y-93778117D01*
X105630270Y-93767934D01*
X105626373Y-93735008D01*
X105626029Y-93729178D01*
X105625928Y-93729186D01*
X105625500Y-93724007D01*
X105625500Y-93718807D01*
X105624647Y-93713681D01*
X105624646Y-93713672D01*
X105622374Y-93700023D01*
X105621537Y-93694147D01*
X105616801Y-93654137D01*
X105615577Y-93643791D01*
X105611654Y-93635622D01*
X105610167Y-93626687D01*
X105586089Y-93582064D01*
X105583408Y-93576801D01*
X105564897Y-93538251D01*
X105564896Y-93538250D01*
X105561463Y-93531100D01*
X105557906Y-93526869D01*
X105555974Y-93524937D01*
X105554255Y-93523063D01*
X105554181Y-93522926D01*
X105554291Y-93522826D01*
X105553868Y-93522346D01*
X105550806Y-93516671D01*
X105511632Y-93480459D01*
X105508067Y-93477030D01*
X104212405Y-92181368D01*
X104178379Y-92119056D01*
X104175500Y-92092273D01*
X104175500Y-91481743D01*
X104195502Y-91413622D01*
X104249158Y-91367129D01*
X104319432Y-91357025D01*
X104371502Y-91376978D01*
X104512637Y-91471282D01*
X104517940Y-91473560D01*
X104517943Y-91473562D01*
X104668989Y-91538456D01*
X104698470Y-91551122D01*
X104895740Y-91595760D01*
X104901509Y-91595987D01*
X104901512Y-91595987D01*
X104977683Y-91598979D01*
X105097842Y-91603700D01*
X105184132Y-91591189D01*
X105292286Y-91575508D01*
X105292291Y-91575507D01*
X105298007Y-91574678D01*
X105303479Y-91572820D01*
X105303481Y-91572820D01*
X105484067Y-91511519D01*
X105484069Y-91511518D01*
X105489531Y-91509664D01*
X105628517Y-91431829D01*
X105660964Y-91413658D01*
X105660965Y-91413657D01*
X105666001Y-91410837D01*
X105685588Y-91394547D01*
X105791814Y-91306199D01*
X105821505Y-91281505D01*
X105924500Y-91157668D01*
X105947146Y-91130439D01*
X105950837Y-91126001D01*
X106049664Y-90949531D01*
X106065525Y-90902808D01*
X106096024Y-90812962D01*
X106472890Y-90812962D01*
X106489896Y-90879923D01*
X106493737Y-90890769D01*
X106577386Y-91072218D01*
X106583137Y-91082179D01*
X106698455Y-91245350D01*
X106705921Y-91254092D01*
X106849047Y-91393520D01*
X106857981Y-91400754D01*
X107024112Y-91511760D01*
X107034225Y-91517251D01*
X107217798Y-91596120D01*
X107228747Y-91599677D01*
X107262331Y-91607276D01*
X107276405Y-91606387D01*
X107280000Y-91596988D01*
X107280000Y-90818115D01*
X107275525Y-90802876D01*
X107274135Y-90801671D01*
X107266452Y-90800000D01*
X106487713Y-90800000D01*
X106474182Y-90803973D01*
X106472890Y-90812962D01*
X106096024Y-90812962D01*
X106112820Y-90763481D01*
X106112820Y-90763479D01*
X106114678Y-90758007D01*
X106115507Y-90752291D01*
X106115508Y-90752286D01*
X106134629Y-90620406D01*
X106143700Y-90557842D01*
X106145215Y-90500000D01*
X106126708Y-90298591D01*
X106071807Y-90103926D01*
X105982351Y-89922527D01*
X105966824Y-89901733D01*
X105864788Y-89765091D01*
X105864787Y-89765090D01*
X105861335Y-89760467D01*
X105838350Y-89739220D01*
X105717053Y-89627094D01*
X105717051Y-89627092D01*
X105712812Y-89623174D01*
X105685374Y-89605862D01*
X105546637Y-89518325D01*
X105541757Y-89515246D01*
X105353898Y-89440298D01*
X105155526Y-89400839D01*
X105149752Y-89400763D01*
X105149748Y-89400763D01*
X105047257Y-89399422D01*
X104953286Y-89398192D01*
X104947589Y-89399171D01*
X104947588Y-89399171D01*
X104759646Y-89431465D01*
X104759645Y-89431465D01*
X104753949Y-89432444D01*
X104564193Y-89502449D01*
X104559232Y-89505401D01*
X104559231Y-89505401D01*
X104396019Y-89602502D01*
X104390371Y-89605862D01*
X104386027Y-89609672D01*
X104384576Y-89610944D01*
X104383745Y-89611329D01*
X104381355Y-89613066D01*
X104381014Y-89612596D01*
X104320171Y-89640820D01*
X104249838Y-89631133D01*
X104195908Y-89584959D01*
X104175500Y-89516211D01*
X104175500Y-89407728D01*
X104195502Y-89339607D01*
X104212405Y-89318632D01*
X104513196Y-89017842D01*
X104575508Y-88983817D01*
X104652027Y-88991170D01*
X104693154Y-89008839D01*
X104693163Y-89008842D01*
X104698470Y-89011122D01*
X104829503Y-89040772D01*
X104886221Y-89053606D01*
X104895740Y-89055760D01*
X104901509Y-89055987D01*
X104901512Y-89055987D01*
X104977683Y-89058979D01*
X105097842Y-89063700D01*
X105193821Y-89049784D01*
X105292286Y-89035508D01*
X105292291Y-89035507D01*
X105298007Y-89034678D01*
X105303479Y-89032820D01*
X105303481Y-89032820D01*
X105484067Y-88971519D01*
X105484069Y-88971518D01*
X105489531Y-88969664D01*
X105666001Y-88870837D01*
X105728433Y-88818913D01*
X105792813Y-88765368D01*
X105821505Y-88741505D01*
X105950837Y-88586001D01*
X106049664Y-88409531D01*
X106096023Y-88272962D01*
X106472890Y-88272962D01*
X106489896Y-88339923D01*
X106493737Y-88350769D01*
X106577386Y-88532218D01*
X106583137Y-88542179D01*
X106698455Y-88705350D01*
X106705921Y-88714092D01*
X106849047Y-88853520D01*
X106857981Y-88860754D01*
X107024112Y-88971760D01*
X107034225Y-88977251D01*
X107217805Y-89056123D01*
X107228738Y-89059675D01*
X107423615Y-89103771D01*
X107440753Y-89106027D01*
X107440570Y-89107419D01*
X107501370Y-89127899D01*
X107545719Y-89183339D01*
X107553055Y-89253956D01*
X107521048Y-89317328D01*
X107459860Y-89353336D01*
X107450476Y-89355319D01*
X107286780Y-89383447D01*
X107275660Y-89386427D01*
X107088207Y-89455582D01*
X107077829Y-89460532D01*
X106906119Y-89562688D01*
X106896807Y-89569453D01*
X106746587Y-89701194D01*
X106738670Y-89709537D01*
X106614975Y-89866443D01*
X106608704Y-89876100D01*
X106515679Y-90052912D01*
X106511273Y-90063549D01*
X106474276Y-90182698D01*
X106474057Y-90196799D01*
X106480789Y-90200000D01*
X107754000Y-90200000D01*
X107822121Y-90220002D01*
X107868614Y-90273658D01*
X107880000Y-90326000D01*
X107880000Y-91594586D01*
X107883973Y-91608117D01*
X107890669Y-91609079D01*
X108044287Y-91556933D01*
X108054784Y-91552259D01*
X108229124Y-91454625D01*
X108238596Y-91448115D01*
X108392219Y-91320348D01*
X108400348Y-91312219D01*
X108528115Y-91158596D01*
X108534625Y-91149124D01*
X108632258Y-90974786D01*
X108636934Y-90964283D01*
X108688301Y-90812962D01*
X109012890Y-90812962D01*
X109029896Y-90879923D01*
X109033737Y-90890769D01*
X109117386Y-91072218D01*
X109123137Y-91082179D01*
X109238455Y-91245350D01*
X109245921Y-91254092D01*
X109389047Y-91393520D01*
X109397981Y-91400754D01*
X109564112Y-91511760D01*
X109574225Y-91517251D01*
X109757798Y-91596120D01*
X109768747Y-91599677D01*
X109802331Y-91607276D01*
X109816405Y-91606387D01*
X109820000Y-91596988D01*
X109820000Y-91594586D01*
X110420000Y-91594586D01*
X110423973Y-91608117D01*
X110430669Y-91609079D01*
X110584287Y-91556933D01*
X110594784Y-91552259D01*
X110769124Y-91454625D01*
X110778596Y-91448115D01*
X110932219Y-91320348D01*
X110940348Y-91312219D01*
X111068115Y-91158596D01*
X111074625Y-91149124D01*
X111172259Y-90974784D01*
X111176933Y-90964287D01*
X111226877Y-90817156D01*
X111227464Y-90803065D01*
X111221431Y-90800000D01*
X110438115Y-90800000D01*
X110422876Y-90804475D01*
X110421671Y-90805865D01*
X110420000Y-90813548D01*
X110420000Y-91594586D01*
X109820000Y-91594586D01*
X109820000Y-90818115D01*
X109815525Y-90802876D01*
X109814135Y-90801671D01*
X109806452Y-90800000D01*
X109027713Y-90800000D01*
X109014182Y-90803973D01*
X109012890Y-90812962D01*
X108688301Y-90812962D01*
X108701160Y-90775081D01*
X108703845Y-90763898D01*
X108732811Y-90564118D01*
X108733441Y-90556736D01*
X108734830Y-90503704D01*
X108734587Y-90496305D01*
X108716117Y-90295285D01*
X108714020Y-90283971D01*
X108659785Y-90091670D01*
X108655663Y-90080931D01*
X108567292Y-89901733D01*
X108561282Y-89891925D01*
X108441731Y-89731827D01*
X108434041Y-89723287D01*
X108287315Y-89587654D01*
X108278190Y-89580653D01*
X108109209Y-89474034D01*
X108098965Y-89468814D01*
X107913385Y-89394775D01*
X107902347Y-89391505D01*
X107702283Y-89351710D01*
X107639373Y-89318803D01*
X107604241Y-89257108D01*
X107608041Y-89186213D01*
X107649567Y-89128627D01*
X107708784Y-89103435D01*
X107843898Y-89083845D01*
X107855081Y-89081160D01*
X108044283Y-89016934D01*
X108054786Y-89012258D01*
X108229124Y-88914625D01*
X108238596Y-88908115D01*
X108392219Y-88780348D01*
X108400348Y-88772219D01*
X108528115Y-88618596D01*
X108534625Y-88609124D01*
X108632258Y-88434786D01*
X108636934Y-88424283D01*
X108688301Y-88272962D01*
X109012890Y-88272962D01*
X109029896Y-88339923D01*
X109033737Y-88350769D01*
X109117386Y-88532218D01*
X109123137Y-88542179D01*
X109238455Y-88705350D01*
X109245921Y-88714092D01*
X109389047Y-88853520D01*
X109397981Y-88860754D01*
X109564112Y-88971760D01*
X109574225Y-88977251D01*
X109757805Y-89056123D01*
X109768738Y-89059675D01*
X109963615Y-89103771D01*
X109980753Y-89106027D01*
X109980570Y-89107419D01*
X110041370Y-89127899D01*
X110085719Y-89183339D01*
X110093055Y-89253956D01*
X110061048Y-89317328D01*
X109999860Y-89353336D01*
X109990476Y-89355319D01*
X109826780Y-89383447D01*
X109815660Y-89386427D01*
X109628207Y-89455582D01*
X109617829Y-89460532D01*
X109446119Y-89562688D01*
X109436807Y-89569453D01*
X109286587Y-89701194D01*
X109278670Y-89709537D01*
X109154975Y-89866443D01*
X109148704Y-89876100D01*
X109055679Y-90052912D01*
X109051273Y-90063549D01*
X109014276Y-90182698D01*
X109014057Y-90196799D01*
X109020789Y-90200000D01*
X111212222Y-90200000D01*
X111225753Y-90196027D01*
X111226922Y-90187892D01*
X111199786Y-90091675D01*
X111195661Y-90080928D01*
X111107292Y-89901733D01*
X111101282Y-89891925D01*
X110981731Y-89731827D01*
X110974041Y-89723287D01*
X110827315Y-89587654D01*
X110818190Y-89580653D01*
X110649209Y-89474034D01*
X110638965Y-89468814D01*
X110453385Y-89394775D01*
X110442347Y-89391505D01*
X110242283Y-89351710D01*
X110179373Y-89318803D01*
X110144241Y-89257108D01*
X110148041Y-89186213D01*
X110189567Y-89128627D01*
X110248784Y-89103435D01*
X110383898Y-89083845D01*
X110395081Y-89081160D01*
X110584283Y-89016934D01*
X110594786Y-89012258D01*
X110769124Y-88914625D01*
X110778596Y-88908115D01*
X110932219Y-88780348D01*
X110940348Y-88772219D01*
X111068115Y-88618596D01*
X111074625Y-88609124D01*
X111172259Y-88434784D01*
X111176933Y-88424287D01*
X111226877Y-88277156D01*
X111227464Y-88263065D01*
X111221431Y-88260000D01*
X109027713Y-88260000D01*
X109014182Y-88263973D01*
X109012890Y-88272962D01*
X108688301Y-88272962D01*
X108701160Y-88235081D01*
X108703845Y-88223898D01*
X108732811Y-88024118D01*
X108733441Y-88016736D01*
X108734830Y-87963704D01*
X108734587Y-87956305D01*
X108732268Y-87931069D01*
X111555164Y-87931069D01*
X111568392Y-88132894D01*
X111569815Y-88138496D01*
X111603965Y-88272962D01*
X111618178Y-88328928D01*
X111702856Y-88512607D01*
X111819588Y-88677780D01*
X111823730Y-88681815D01*
X111871421Y-88728273D01*
X111964466Y-88818913D01*
X112132637Y-88931282D01*
X112137940Y-88933560D01*
X112137943Y-88933562D01*
X112312535Y-89008572D01*
X112318470Y-89011122D01*
X112449503Y-89040772D01*
X112506221Y-89053606D01*
X112515740Y-89055760D01*
X112521509Y-89055987D01*
X112521512Y-89055987D01*
X112597683Y-89058979D01*
X112717842Y-89063700D01*
X112813821Y-89049784D01*
X112912286Y-89035508D01*
X112912291Y-89035507D01*
X112918007Y-89034678D01*
X112923479Y-89032820D01*
X112923481Y-89032820D01*
X113104067Y-88971519D01*
X113104069Y-88971518D01*
X113109531Y-88969664D01*
X113286001Y-88870837D01*
X113348433Y-88818913D01*
X113412813Y-88765368D01*
X113441505Y-88741505D01*
X113570837Y-88586001D01*
X113669664Y-88409531D01*
X113734678Y-88218007D01*
X113735507Y-88212291D01*
X113735508Y-88212286D01*
X113763167Y-88021516D01*
X113763700Y-88017842D01*
X113765215Y-87960000D01*
X113746708Y-87758591D01*
X113691807Y-87563926D01*
X113602351Y-87382527D01*
X113586824Y-87361733D01*
X113484788Y-87225091D01*
X113484787Y-87225090D01*
X113481335Y-87220467D01*
X113458350Y-87199220D01*
X113337053Y-87087094D01*
X113337051Y-87087092D01*
X113332812Y-87083174D01*
X113305374Y-87065862D01*
X113166637Y-86978325D01*
X113161757Y-86975246D01*
X112973898Y-86900298D01*
X112799261Y-86865560D01*
X112781192Y-86861966D01*
X112781191Y-86861966D01*
X112775526Y-86860839D01*
X112769752Y-86860763D01*
X112769748Y-86860763D01*
X112667257Y-86859422D01*
X112573286Y-86858192D01*
X112567589Y-86859171D01*
X112567588Y-86859171D01*
X112379646Y-86891465D01*
X112379645Y-86891465D01*
X112373949Y-86892444D01*
X112184193Y-86962449D01*
X112179232Y-86965401D01*
X112179231Y-86965401D01*
X112052744Y-87040653D01*
X112010371Y-87065862D01*
X111858305Y-87199220D01*
X111733089Y-87358057D01*
X111638914Y-87537053D01*
X111578937Y-87730213D01*
X111555164Y-87931069D01*
X108732268Y-87931069D01*
X108716117Y-87755285D01*
X108714020Y-87743971D01*
X108689435Y-87656799D01*
X109014057Y-87656799D01*
X109020789Y-87660000D01*
X109801885Y-87660000D01*
X109817124Y-87655525D01*
X109818329Y-87654135D01*
X109820000Y-87646452D01*
X109820000Y-87641885D01*
X110420000Y-87641885D01*
X110424475Y-87657124D01*
X110425865Y-87658329D01*
X110433548Y-87660000D01*
X111212222Y-87660000D01*
X111225753Y-87656027D01*
X111226922Y-87647892D01*
X111199786Y-87551675D01*
X111195661Y-87540928D01*
X111107292Y-87361733D01*
X111101282Y-87351925D01*
X110981731Y-87191827D01*
X110974041Y-87183287D01*
X110827315Y-87047654D01*
X110818190Y-87040653D01*
X110649209Y-86934034D01*
X110638965Y-86928814D01*
X110453377Y-86854772D01*
X110442356Y-86851507D01*
X110437770Y-86850595D01*
X110424894Y-86851747D01*
X110420000Y-86866903D01*
X110420000Y-87641885D01*
X109820000Y-87641885D01*
X109820000Y-86862941D01*
X109816027Y-86849410D01*
X109809944Y-86848536D01*
X109628207Y-86915582D01*
X109617829Y-86920532D01*
X109446119Y-87022688D01*
X109436807Y-87029453D01*
X109286587Y-87161194D01*
X109278670Y-87169537D01*
X109154975Y-87326443D01*
X109148704Y-87336100D01*
X109055679Y-87512912D01*
X109051273Y-87523549D01*
X109014276Y-87642698D01*
X109014057Y-87656799D01*
X108689435Y-87656799D01*
X108659785Y-87551670D01*
X108655663Y-87540931D01*
X108567292Y-87361733D01*
X108561282Y-87351925D01*
X108441731Y-87191827D01*
X108434041Y-87183287D01*
X108287315Y-87047654D01*
X108278190Y-87040653D01*
X108109209Y-86934034D01*
X108098965Y-86928814D01*
X107913377Y-86854772D01*
X107902356Y-86851507D01*
X107897770Y-86850595D01*
X107884894Y-86851747D01*
X107880000Y-86866903D01*
X107880000Y-88134000D01*
X107859998Y-88202121D01*
X107806342Y-88248614D01*
X107754000Y-88260000D01*
X106487713Y-88260000D01*
X106474182Y-88263973D01*
X106472890Y-88272962D01*
X106096023Y-88272962D01*
X106114678Y-88218007D01*
X106115507Y-88212291D01*
X106115508Y-88212286D01*
X106143167Y-88021516D01*
X106143700Y-88017842D01*
X106145215Y-87960000D01*
X106126708Y-87758591D01*
X106098000Y-87656799D01*
X106474057Y-87656799D01*
X106480789Y-87660000D01*
X107261885Y-87660000D01*
X107277124Y-87655525D01*
X107278329Y-87654135D01*
X107280000Y-87646452D01*
X107280000Y-86862941D01*
X107276027Y-86849410D01*
X107269944Y-86848536D01*
X107088207Y-86915582D01*
X107077829Y-86920532D01*
X106906119Y-87022688D01*
X106896807Y-87029453D01*
X106746587Y-87161194D01*
X106738670Y-87169537D01*
X106614975Y-87326443D01*
X106608704Y-87336100D01*
X106515679Y-87512912D01*
X106511273Y-87523549D01*
X106474276Y-87642698D01*
X106474057Y-87656799D01*
X106098000Y-87656799D01*
X106071807Y-87563926D01*
X105982351Y-87382527D01*
X105966824Y-87361733D01*
X105864788Y-87225091D01*
X105864787Y-87225090D01*
X105861335Y-87220467D01*
X105838350Y-87199220D01*
X105717053Y-87087094D01*
X105717051Y-87087092D01*
X105712812Y-87083174D01*
X105685374Y-87065862D01*
X105546637Y-86978325D01*
X105541757Y-86975246D01*
X105353898Y-86900298D01*
X105179261Y-86865560D01*
X105161192Y-86861966D01*
X105161191Y-86861966D01*
X105155526Y-86860839D01*
X105149752Y-86860763D01*
X105149748Y-86860763D01*
X105047257Y-86859422D01*
X104953286Y-86858192D01*
X104947589Y-86859171D01*
X104947588Y-86859171D01*
X104759646Y-86891465D01*
X104759645Y-86891465D01*
X104753949Y-86892444D01*
X104564193Y-86962449D01*
X104559232Y-86965401D01*
X104559231Y-86965401D01*
X104432744Y-87040653D01*
X104390371Y-87065862D01*
X104238305Y-87199220D01*
X104113089Y-87358057D01*
X104018914Y-87537053D01*
X103958937Y-87730213D01*
X103935164Y-87931069D01*
X103948392Y-88132894D01*
X103949815Y-88138496D01*
X103983965Y-88272962D01*
X103998178Y-88328928D01*
X104000596Y-88334174D01*
X104000600Y-88334184D01*
X104006174Y-88346275D01*
X104016529Y-88416512D01*
X103987266Y-88481198D01*
X103980843Y-88488120D01*
X103572311Y-88896652D01*
X103554080Y-88911377D01*
X103552540Y-88912778D01*
X103543790Y-88918428D01*
X103536187Y-88928072D01*
X103523264Y-88944465D01*
X103519383Y-88948832D01*
X103519461Y-88948898D01*
X103516107Y-88952856D01*
X103512425Y-88956538D01*
X103501339Y-88972052D01*
X103497788Y-88976781D01*
X103466397Y-89016600D01*
X103463395Y-89025149D01*
X103458128Y-89032519D01*
X103451110Y-89055987D01*
X103443608Y-89081070D01*
X103441774Y-89086714D01*
X103427604Y-89127065D01*
X103427603Y-89127071D01*
X103424977Y-89134548D01*
X103424500Y-89140055D01*
X103424500Y-89142762D01*
X103424389Y-89145335D01*
X103424341Y-89145494D01*
X103424197Y-89145488D01*
X103424158Y-89146108D01*
X103422310Y-89152287D01*
X103424380Y-89204964D01*
X103424403Y-89205555D01*
X103424500Y-89210502D01*
X103424500Y-89224000D01*
X103404498Y-89292121D01*
X103350842Y-89338614D01*
X103298500Y-89350000D01*
X102675356Y-89350000D01*
X102607235Y-89329998D01*
X102560742Y-89276342D01*
X102550638Y-89206068D01*
X102580132Y-89141488D01*
X102639858Y-89103104D01*
X102657276Y-89099304D01*
X102763898Y-89083845D01*
X102775081Y-89081160D01*
X102964283Y-89016934D01*
X102974786Y-89012258D01*
X103149124Y-88914625D01*
X103158596Y-88908115D01*
X103312219Y-88780348D01*
X103320348Y-88772219D01*
X103448115Y-88618596D01*
X103454625Y-88609124D01*
X103552259Y-88434784D01*
X103556933Y-88424287D01*
X103606877Y-88277156D01*
X103607464Y-88263065D01*
X103601431Y-88260000D01*
X101407713Y-88260000D01*
X101394182Y-88263973D01*
X101392890Y-88272962D01*
X101409896Y-88339923D01*
X101413737Y-88350769D01*
X101497386Y-88532218D01*
X101503137Y-88542179D01*
X101618455Y-88705350D01*
X101625921Y-88714092D01*
X101769047Y-88853520D01*
X101777981Y-88860754D01*
X101944112Y-88971760D01*
X101954225Y-88977251D01*
X102137805Y-89056123D01*
X102148738Y-89059675D01*
X102331844Y-89101107D01*
X102393870Y-89135650D01*
X102427375Y-89198243D01*
X102421721Y-89269014D01*
X102378702Y-89325493D01*
X102311978Y-89349749D01*
X102304036Y-89350000D01*
X101609160Y-89350000D01*
X101601714Y-89350442D01*
X101588664Y-89351994D01*
X101570626Y-89356952D01*
X101487769Y-89393755D01*
X101468915Y-89406713D01*
X101406396Y-89469342D01*
X101393475Y-89488212D01*
X101356820Y-89571125D01*
X101351892Y-89589202D01*
X101350424Y-89601787D01*
X101350000Y-89609088D01*
X101350000Y-90181885D01*
X101354475Y-90197124D01*
X101355865Y-90198329D01*
X101363548Y-90200000D01*
X102674000Y-90200000D01*
X102742121Y-90220002D01*
X102788614Y-90273658D01*
X102800000Y-90326000D01*
X102800000Y-91631885D01*
X102804475Y-91647124D01*
X102805865Y-91648329D01*
X102813548Y-91650000D01*
X103298500Y-91650000D01*
X103366621Y-91670002D01*
X103413114Y-91723658D01*
X103424500Y-91776000D01*
X103424500Y-92246504D01*
X103422021Y-92269801D01*
X103421923Y-92271886D01*
X103419731Y-92282066D01*
X103422489Y-92305370D01*
X103423627Y-92314984D01*
X103423971Y-92320821D01*
X103424072Y-92320813D01*
X103424500Y-92325992D01*
X103424500Y-92331193D01*
X103425354Y-92336321D01*
X103425354Y-92336327D01*
X103427628Y-92349987D01*
X103428465Y-92355863D01*
X103434424Y-92406210D01*
X103438346Y-92414377D01*
X103439833Y-92423313D01*
X103444777Y-92432475D01*
X103444778Y-92432479D01*
X103463906Y-92467929D01*
X103466602Y-92473220D01*
X103484072Y-92509601D01*
X103488537Y-92518900D01*
X103492094Y-92523131D01*
X103494026Y-92525063D01*
X103495745Y-92526937D01*
X103495819Y-92527074D01*
X103495709Y-92527174D01*
X103496132Y-92527654D01*
X103499194Y-92533329D01*
X103506841Y-92540398D01*
X103506842Y-92540399D01*
X103538367Y-92569540D01*
X103541933Y-92572970D01*
X104837595Y-93868633D01*
X104871621Y-93930945D01*
X104874500Y-93957728D01*
X104874500Y-121904000D01*
X104854498Y-121972121D01*
X104800842Y-122018614D01*
X104748500Y-122030000D01*
X100826500Y-122030000D01*
X100758379Y-122009998D01*
X100711886Y-121956342D01*
X100700500Y-121904000D01*
X100700500Y-119505892D01*
X100700533Y-119468626D01*
X100700533Y-119468624D01*
X100700545Y-119454437D01*
X100694403Y-119441646D01*
X100693287Y-119436733D01*
X100690650Y-119429183D01*
X100688468Y-119424649D01*
X100685312Y-119410815D01*
X100676471Y-119399720D01*
X100674125Y-119394846D01*
X100670454Y-119388994D01*
X100667088Y-119384762D01*
X100660948Y-119371976D01*
X100649869Y-119363116D01*
X100646735Y-119359176D01*
X100641084Y-119353515D01*
X100637148Y-119350373D01*
X100628305Y-119339276D01*
X100615523Y-119333111D01*
X100611296Y-119329737D01*
X100605453Y-119326058D01*
X100600590Y-119323707D01*
X100589508Y-119314844D01*
X100575680Y-119311664D01*
X100571149Y-119309474D01*
X100563603Y-119306824D01*
X100558693Y-119305700D01*
X100545913Y-119299535D01*
X100522845Y-119299515D01*
X100522847Y-119297490D01*
X100522781Y-119297474D01*
X100522781Y-119299500D01*
X100505892Y-119299500D01*
X100454437Y-119299455D01*
X100454441Y-119294650D01*
X100454343Y-119294644D01*
X100454343Y-119299500D01*
X89005892Y-119299500D01*
X88968626Y-119299467D01*
X88968624Y-119299467D01*
X88954437Y-119299455D01*
X88941646Y-119305597D01*
X88936733Y-119306713D01*
X88929183Y-119309350D01*
X88924649Y-119311532D01*
X88910815Y-119314688D01*
X88899720Y-119323529D01*
X88894846Y-119325875D01*
X88888994Y-119329546D01*
X88884762Y-119332912D01*
X88871976Y-119339052D01*
X88863116Y-119350131D01*
X88859176Y-119353265D01*
X88853515Y-119358916D01*
X88850373Y-119362852D01*
X88839276Y-119371695D01*
X88833111Y-119384477D01*
X88829737Y-119388704D01*
X88826059Y-119394544D01*
X88823706Y-119399411D01*
X88814844Y-119410492D01*
X88811665Y-119424319D01*
X88809478Y-119428842D01*
X88761820Y-119481466D01*
X88696039Y-119500000D01*
X88500000Y-119500000D01*
X88500000Y-125673500D01*
X88479998Y-125741621D01*
X88426342Y-125788114D01*
X88374000Y-125799500D01*
X82826500Y-125799500D01*
X82758379Y-125779498D01*
X82711886Y-125725842D01*
X82700500Y-125673500D01*
X82700500Y-97826500D01*
X82720502Y-97758379D01*
X82774158Y-97711886D01*
X82826500Y-97700500D01*
X83494108Y-97700500D01*
X83531374Y-97700533D01*
X83531376Y-97700533D01*
X83545563Y-97700545D01*
X83558354Y-97694403D01*
X83563267Y-97693287D01*
X83570817Y-97690650D01*
X83575351Y-97688468D01*
X83589185Y-97685312D01*
X83600280Y-97676471D01*
X83605154Y-97674125D01*
X83611006Y-97670454D01*
X83615238Y-97667088D01*
X83628024Y-97660948D01*
X83636884Y-97649869D01*
X83640824Y-97646735D01*
X83646485Y-97641084D01*
X83649627Y-97637148D01*
X83660724Y-97628305D01*
X83666889Y-97615523D01*
X83670263Y-97611296D01*
X83673942Y-97605453D01*
X83676293Y-97600590D01*
X83685156Y-97589508D01*
X83688336Y-97575680D01*
X83690526Y-97571149D01*
X83693176Y-97563603D01*
X83694300Y-97558693D01*
X83700465Y-97545913D01*
X83700485Y-97522845D01*
X83702510Y-97522847D01*
X83702526Y-97522781D01*
X83700500Y-97522781D01*
X83700500Y-97505892D01*
X83700545Y-97454437D01*
X83705350Y-97454441D01*
X83705356Y-97454343D01*
X83700500Y-97454343D01*
X83700500Y-94826500D01*
X83720502Y-94758379D01*
X83774158Y-94711886D01*
X83826500Y-94700500D01*
X85994108Y-94700500D01*
X86031374Y-94700533D01*
X86031376Y-94700533D01*
X86045563Y-94700545D01*
X86058354Y-94694403D01*
X86063267Y-94693287D01*
X86070817Y-94690650D01*
X86075351Y-94688468D01*
X86089185Y-94685312D01*
X86100280Y-94676471D01*
X86105154Y-94674125D01*
X86111006Y-94670454D01*
X86115238Y-94667088D01*
X86128024Y-94660948D01*
X86136884Y-94649869D01*
X86140824Y-94646735D01*
X86146485Y-94641084D01*
X86149627Y-94637148D01*
X86160724Y-94628305D01*
X86166889Y-94615523D01*
X86170263Y-94611296D01*
X86173942Y-94605453D01*
X86176293Y-94600590D01*
X86185156Y-94589508D01*
X86188336Y-94575680D01*
X86190526Y-94571149D01*
X86193176Y-94563603D01*
X86194300Y-94558693D01*
X86200465Y-94545913D01*
X86200485Y-94522845D01*
X86202510Y-94522847D01*
X86202526Y-94522781D01*
X86200500Y-94522781D01*
X86200500Y-94505892D01*
X86200545Y-94454437D01*
X86205350Y-94454441D01*
X86205356Y-94454343D01*
X86200500Y-94454343D01*
X86200500Y-93005892D01*
X86200512Y-92992592D01*
X86200533Y-92968626D01*
X86200533Y-92968624D01*
X86200545Y-92954437D01*
X86194403Y-92941646D01*
X86193287Y-92936733D01*
X86190650Y-92929183D01*
X86188468Y-92924649D01*
X86185312Y-92910815D01*
X86176471Y-92899720D01*
X86174125Y-92894846D01*
X86170454Y-92888994D01*
X86167088Y-92884762D01*
X86160948Y-92871976D01*
X86149869Y-92863116D01*
X86146735Y-92859176D01*
X86141084Y-92853515D01*
X86137148Y-92850373D01*
X86128305Y-92839276D01*
X86115523Y-92833111D01*
X86111296Y-92829737D01*
X86105453Y-92826058D01*
X86100590Y-92823707D01*
X86089508Y-92814844D01*
X86075680Y-92811664D01*
X86071149Y-92809474D01*
X86063603Y-92806824D01*
X86058693Y-92805700D01*
X86045913Y-92799535D01*
X86022845Y-92799515D01*
X86022847Y-92797490D01*
X86022781Y-92797474D01*
X86022781Y-92799500D01*
X86005892Y-92799500D01*
X85954437Y-92799455D01*
X85954441Y-92794650D01*
X85954343Y-92794644D01*
X85954343Y-92799500D01*
X82826500Y-92799500D01*
X82758379Y-92779498D01*
X82711886Y-92725842D01*
X82700500Y-92673500D01*
X82700500Y-91390840D01*
X101350000Y-91390840D01*
X101350442Y-91398286D01*
X101351994Y-91411336D01*
X101356952Y-91429374D01*
X101393755Y-91512231D01*
X101406713Y-91531085D01*
X101469342Y-91593604D01*
X101488212Y-91606525D01*
X101571125Y-91643180D01*
X101589202Y-91648108D01*
X101601787Y-91649576D01*
X101609088Y-91650000D01*
X102181885Y-91650000D01*
X102197124Y-91645525D01*
X102198329Y-91644135D01*
X102200000Y-91636452D01*
X102200000Y-90818115D01*
X102195525Y-90802876D01*
X102194135Y-90801671D01*
X102186452Y-90800000D01*
X101368115Y-90800000D01*
X101352876Y-90804475D01*
X101351671Y-90805865D01*
X101350000Y-90813548D01*
X101350000Y-91390840D01*
X82700500Y-91390840D01*
X82700500Y-87656799D01*
X101394057Y-87656799D01*
X101400789Y-87660000D01*
X102181885Y-87660000D01*
X102197124Y-87655525D01*
X102198329Y-87654135D01*
X102200000Y-87646452D01*
X102200000Y-87641885D01*
X102800000Y-87641885D01*
X102804475Y-87657124D01*
X102805865Y-87658329D01*
X102813548Y-87660000D01*
X103592222Y-87660000D01*
X103605753Y-87656027D01*
X103606922Y-87647892D01*
X103579786Y-87551675D01*
X103575661Y-87540928D01*
X103487292Y-87361733D01*
X103481282Y-87351925D01*
X103361731Y-87191827D01*
X103354041Y-87183287D01*
X103207315Y-87047654D01*
X103198190Y-87040653D01*
X103029209Y-86934034D01*
X103018965Y-86928814D01*
X102833377Y-86854772D01*
X102822356Y-86851507D01*
X102817770Y-86850595D01*
X102804894Y-86851747D01*
X102800000Y-86866903D01*
X102800000Y-87641885D01*
X102200000Y-87641885D01*
X102200000Y-86862941D01*
X102196027Y-86849410D01*
X102189944Y-86848536D01*
X102008207Y-86915582D01*
X101997829Y-86920532D01*
X101826119Y-87022688D01*
X101816807Y-87029453D01*
X101666587Y-87161194D01*
X101658670Y-87169537D01*
X101534975Y-87326443D01*
X101528704Y-87336100D01*
X101435679Y-87512912D01*
X101431273Y-87523549D01*
X101394276Y-87642698D01*
X101394057Y-87656799D01*
X82700500Y-87656799D01*
X82700500Y-72826500D01*
X82720502Y-72758379D01*
X82774158Y-72711886D01*
X82826500Y-72700500D01*
X83294108Y-72700500D01*
X83331374Y-72700533D01*
X83331376Y-72700533D01*
X83345563Y-72700545D01*
X83358354Y-72694403D01*
X83363267Y-72693287D01*
X83370817Y-72690650D01*
X83375351Y-72688468D01*
X83389185Y-72685312D01*
X83400280Y-72676471D01*
X83405154Y-72674125D01*
X83411006Y-72670454D01*
X83415238Y-72667088D01*
X83428024Y-72660948D01*
X83436884Y-72649869D01*
X83440824Y-72646735D01*
X83446485Y-72641084D01*
X83449627Y-72637148D01*
X83460724Y-72628305D01*
X83466889Y-72615523D01*
X83470263Y-72611296D01*
X83473942Y-72605453D01*
X83476293Y-72600590D01*
X83485156Y-72589508D01*
X83488336Y-72575680D01*
X83490526Y-72571149D01*
X83493176Y-72563603D01*
X83494300Y-72558693D01*
X83500465Y-72545913D01*
X83500485Y-72522845D01*
X83502510Y-72522847D01*
X83502526Y-72522781D01*
X83500500Y-72522781D01*
X83500500Y-72505892D01*
X83500545Y-72454437D01*
X83505350Y-72454441D01*
X83505356Y-72454343D01*
X83500500Y-72454343D01*
X83500500Y-70326500D01*
X83520502Y-70258379D01*
X83574158Y-70211886D01*
X83626500Y-70200500D01*
X181673500Y-70200500D01*
X181741621Y-70220502D01*
G37*
G04 #@! TD.AperFunction*
G04 #@! TA.AperFunction,Conductor*
G36*
X123709012Y-92180780D02*
G01*
X123738266Y-92224159D01*
X123739833Y-92223314D01*
X123763906Y-92267929D01*
X123766602Y-92273220D01*
X123784985Y-92311503D01*
X123788537Y-92318900D01*
X123792094Y-92323131D01*
X123794026Y-92325063D01*
X123795745Y-92326937D01*
X123795819Y-92327074D01*
X123795709Y-92327174D01*
X123796132Y-92327654D01*
X123799194Y-92333329D01*
X123806841Y-92340398D01*
X123806842Y-92340399D01*
X123838367Y-92369540D01*
X123841933Y-92372970D01*
X124837595Y-93368633D01*
X124871621Y-93430945D01*
X124874500Y-93457728D01*
X124874500Y-121904000D01*
X124854498Y-121972121D01*
X124800842Y-122018614D01*
X124748500Y-122030000D01*
X123626500Y-122030000D01*
X123558379Y-122009998D01*
X123511886Y-121956342D01*
X123500500Y-121904000D01*
X123500500Y-92276004D01*
X123520502Y-92207883D01*
X123574158Y-92161390D01*
X123644432Y-92151286D01*
X123709012Y-92180780D01*
G37*
G04 #@! TD.AperFunction*
G04 #@! TA.AperFunction,Conductor*
G36*
X156653150Y-91350991D02*
G01*
X156705854Y-91398559D01*
X156724500Y-91464522D01*
X156724500Y-92046504D01*
X156722021Y-92069801D01*
X156721923Y-92071886D01*
X156719731Y-92082066D01*
X156721440Y-92096506D01*
X156723627Y-92114984D01*
X156723971Y-92120821D01*
X156724072Y-92120813D01*
X156724500Y-92125992D01*
X156724500Y-92131193D01*
X156725354Y-92136321D01*
X156725354Y-92136327D01*
X156727628Y-92149987D01*
X156728465Y-92155863D01*
X156734424Y-92206210D01*
X156738346Y-92214377D01*
X156739833Y-92223313D01*
X156744777Y-92232475D01*
X156744778Y-92232479D01*
X156763906Y-92267929D01*
X156766602Y-92273220D01*
X156784985Y-92311503D01*
X156788537Y-92318900D01*
X156792094Y-92323131D01*
X156794026Y-92325063D01*
X156795745Y-92326937D01*
X156795819Y-92327074D01*
X156795709Y-92327174D01*
X156796132Y-92327654D01*
X156799194Y-92333329D01*
X156806841Y-92340398D01*
X156806842Y-92340399D01*
X156838353Y-92369527D01*
X156841920Y-92372957D01*
X157337596Y-92868634D01*
X157371621Y-92930946D01*
X157374500Y-92957729D01*
X157374500Y-121904000D01*
X157354498Y-121972121D01*
X157300842Y-122018614D01*
X157248500Y-122030000D01*
X155751500Y-122030000D01*
X155683379Y-122009998D01*
X155636886Y-121956342D01*
X155625500Y-121904000D01*
X155625500Y-92803496D01*
X155627979Y-92780199D01*
X155628077Y-92778114D01*
X155630269Y-92767934D01*
X155626373Y-92735016D01*
X155626029Y-92729179D01*
X155625928Y-92729187D01*
X155625500Y-92724011D01*
X155625500Y-92718807D01*
X155622372Y-92700011D01*
X155621535Y-92694136D01*
X155616800Y-92654133D01*
X155615576Y-92643791D01*
X155611655Y-92635625D01*
X155610167Y-92626687D01*
X155586091Y-92582064D01*
X155583398Y-92576778D01*
X155564896Y-92538247D01*
X155564892Y-92538241D01*
X155561463Y-92531100D01*
X155557906Y-92526869D01*
X155555977Y-92524940D01*
X155554255Y-92523063D01*
X155554181Y-92522926D01*
X155554291Y-92522826D01*
X155553868Y-92522346D01*
X155550806Y-92516671D01*
X155539490Y-92506210D01*
X155511633Y-92480460D01*
X155508067Y-92477030D01*
X155012405Y-91981368D01*
X154978379Y-91919056D01*
X154975500Y-91892273D01*
X154975500Y-91481743D01*
X154995502Y-91413622D01*
X155049158Y-91367129D01*
X155119432Y-91357025D01*
X155171502Y-91376978D01*
X155312637Y-91471282D01*
X155317940Y-91473560D01*
X155317943Y-91473562D01*
X155468989Y-91538456D01*
X155498470Y-91551122D01*
X155695740Y-91595760D01*
X155701509Y-91595987D01*
X155701512Y-91595987D01*
X155777683Y-91598979D01*
X155897842Y-91603700D01*
X155984132Y-91591189D01*
X156092286Y-91575508D01*
X156092291Y-91575507D01*
X156098007Y-91574678D01*
X156103479Y-91572820D01*
X156103481Y-91572820D01*
X156284067Y-91511519D01*
X156284069Y-91511518D01*
X156289531Y-91509664D01*
X156428517Y-91431829D01*
X156460964Y-91413658D01*
X156460965Y-91413657D01*
X156466001Y-91410837D01*
X156470439Y-91407146D01*
X156470445Y-91407142D01*
X156517931Y-91367648D01*
X156583095Y-91339467D01*
X156653150Y-91350991D01*
G37*
G04 #@! TD.AperFunction*
G04 #@! TA.AperFunction,Conductor*
G36*
X134784012Y-91319804D02*
G01*
X134789421Y-91324774D01*
X134824466Y-91358913D01*
X134829270Y-91362123D01*
X134831501Y-91363614D01*
X134992637Y-91471282D01*
X134997940Y-91473560D01*
X134997943Y-91473562D01*
X135148989Y-91538456D01*
X135178470Y-91551122D01*
X135375740Y-91595760D01*
X135381509Y-91595987D01*
X135381512Y-91595987D01*
X135457683Y-91598979D01*
X135577842Y-91603700D01*
X135664132Y-91591189D01*
X135772286Y-91575508D01*
X135772291Y-91575507D01*
X135778007Y-91574678D01*
X135783479Y-91572820D01*
X135783481Y-91572820D01*
X135964067Y-91511519D01*
X135964069Y-91511518D01*
X135969531Y-91509664D01*
X136108517Y-91431829D01*
X136140964Y-91413658D01*
X136140965Y-91413657D01*
X136146001Y-91410837D01*
X136165588Y-91394547D01*
X136217930Y-91351014D01*
X136283095Y-91322833D01*
X136353150Y-91334357D01*
X136405854Y-91381925D01*
X136424500Y-91447888D01*
X136424500Y-92246504D01*
X136422021Y-92269801D01*
X136421923Y-92271886D01*
X136419731Y-92282066D01*
X136422489Y-92305370D01*
X136423627Y-92314984D01*
X136423971Y-92320821D01*
X136424072Y-92320813D01*
X136424500Y-92325992D01*
X136424500Y-92331193D01*
X136425354Y-92336321D01*
X136425354Y-92336327D01*
X136427628Y-92349987D01*
X136428465Y-92355863D01*
X136434424Y-92406210D01*
X136438346Y-92414377D01*
X136439833Y-92423313D01*
X136444777Y-92432475D01*
X136444778Y-92432479D01*
X136463906Y-92467929D01*
X136466602Y-92473220D01*
X136484072Y-92509601D01*
X136488537Y-92518900D01*
X136492094Y-92523131D01*
X136494026Y-92525063D01*
X136495745Y-92526937D01*
X136495819Y-92527074D01*
X136495709Y-92527174D01*
X136496132Y-92527654D01*
X136499194Y-92533329D01*
X136506841Y-92540398D01*
X136506842Y-92540399D01*
X136538367Y-92569540D01*
X136541933Y-92572970D01*
X137337595Y-93368632D01*
X137371621Y-93430944D01*
X137374500Y-93457727D01*
X137374500Y-121904000D01*
X137354498Y-121972121D01*
X137300842Y-122018614D01*
X137248500Y-122030000D01*
X135751500Y-122030000D01*
X135683379Y-122009998D01*
X135636886Y-121956342D01*
X135625500Y-121904000D01*
X135625500Y-93303496D01*
X135627979Y-93280208D01*
X135628078Y-93278110D01*
X135630269Y-93267933D01*
X135626373Y-93235015D01*
X135626029Y-93229179D01*
X135625928Y-93229187D01*
X135625500Y-93224008D01*
X135625500Y-93218807D01*
X135624646Y-93213673D01*
X135622447Y-93200465D01*
X135622371Y-93200007D01*
X135621534Y-93194130D01*
X135621368Y-93192728D01*
X135615576Y-93143790D01*
X135611654Y-93135623D01*
X135610167Y-93126687D01*
X135605223Y-93117524D01*
X135605222Y-93117521D01*
X135586094Y-93082071D01*
X135583398Y-93076780D01*
X135564897Y-93038251D01*
X135564896Y-93038250D01*
X135561463Y-93031100D01*
X135557906Y-93026869D01*
X135555974Y-93024937D01*
X135554255Y-93023063D01*
X135554181Y-93022926D01*
X135554291Y-93022826D01*
X135553868Y-93022346D01*
X135550806Y-93016671D01*
X135539146Y-93005892D01*
X135511633Y-92980460D01*
X135508067Y-92977030D01*
X134612405Y-92081368D01*
X134578379Y-92019056D01*
X134575500Y-91992273D01*
X134575500Y-91415028D01*
X134595502Y-91346907D01*
X134649158Y-91300414D01*
X134719432Y-91290310D01*
X134784012Y-91319804D01*
G37*
G04 #@! TD.AperFunction*
G04 #@! TA.AperFunction,Conductor*
G36*
X137371501Y-91363614D02*
G01*
X137532637Y-91471282D01*
X137537940Y-91473560D01*
X137537943Y-91473562D01*
X137688989Y-91538456D01*
X137718470Y-91551122D01*
X137915740Y-91595760D01*
X137921509Y-91595987D01*
X137921512Y-91595987D01*
X137997683Y-91598979D01*
X138117842Y-91603700D01*
X138204132Y-91591189D01*
X138312286Y-91575508D01*
X138312291Y-91575507D01*
X138318007Y-91574678D01*
X138323479Y-91572820D01*
X138323481Y-91572820D01*
X138504067Y-91511519D01*
X138504069Y-91511518D01*
X138509531Y-91509664D01*
X138648517Y-91431829D01*
X138680964Y-91413658D01*
X138680965Y-91413657D01*
X138686001Y-91410837D01*
X138697931Y-91400915D01*
X138717931Y-91384282D01*
X138783095Y-91356101D01*
X138853150Y-91367625D01*
X138905854Y-91415194D01*
X138924500Y-91481156D01*
X138924500Y-91746504D01*
X138922021Y-91769801D01*
X138921923Y-91771886D01*
X138919731Y-91782066D01*
X138920955Y-91792405D01*
X138923627Y-91814984D01*
X138923971Y-91820821D01*
X138924072Y-91820813D01*
X138924500Y-91825992D01*
X138924500Y-91831193D01*
X138925354Y-91836321D01*
X138925354Y-91836327D01*
X138927628Y-91849987D01*
X138928465Y-91855863D01*
X138934424Y-91906210D01*
X138938346Y-91914377D01*
X138939833Y-91923313D01*
X138944777Y-91932475D01*
X138944778Y-91932479D01*
X138963906Y-91967929D01*
X138966602Y-91973220D01*
X138984985Y-92011503D01*
X138988537Y-92018900D01*
X138992094Y-92023131D01*
X138994026Y-92025063D01*
X138995745Y-92026937D01*
X138995819Y-92027074D01*
X138995709Y-92027174D01*
X138996132Y-92027654D01*
X138999194Y-92033329D01*
X139006841Y-92040398D01*
X139006842Y-92040399D01*
X139038367Y-92069540D01*
X139041933Y-92072970D01*
X139837595Y-92868632D01*
X139871621Y-92930944D01*
X139874500Y-92957727D01*
X139874500Y-121904000D01*
X139854498Y-121972121D01*
X139800842Y-122018614D01*
X139748500Y-122030000D01*
X138251500Y-122030000D01*
X138183379Y-122009998D01*
X138136886Y-121956342D01*
X138125500Y-121904000D01*
X138125500Y-93303496D01*
X138127979Y-93280199D01*
X138128077Y-93278114D01*
X138130269Y-93267934D01*
X138126373Y-93235015D01*
X138126029Y-93229179D01*
X138125928Y-93229187D01*
X138125500Y-93224011D01*
X138125500Y-93218807D01*
X138122451Y-93200485D01*
X138122372Y-93200011D01*
X138121535Y-93194136D01*
X138117580Y-93160724D01*
X138115576Y-93143791D01*
X138111655Y-93135625D01*
X138110167Y-93126687D01*
X138086091Y-93082064D01*
X138083398Y-93076778D01*
X138064896Y-93038247D01*
X138064892Y-93038241D01*
X138061463Y-93031100D01*
X138057906Y-93026869D01*
X138055977Y-93024940D01*
X138054255Y-93023063D01*
X138054181Y-93022926D01*
X138054291Y-93022826D01*
X138053868Y-93022346D01*
X138050806Y-93016671D01*
X138039146Y-93005892D01*
X138011633Y-92980460D01*
X138008067Y-92977030D01*
X137212405Y-92181368D01*
X137178379Y-92119056D01*
X137175500Y-92092273D01*
X137175500Y-91468379D01*
X137195502Y-91400258D01*
X137249158Y-91353765D01*
X137319432Y-91343661D01*
X137371501Y-91363614D01*
G37*
G04 #@! TD.AperFunction*
G04 #@! TA.AperFunction,Conductor*
G36*
X154153150Y-91317722D02*
G01*
X154205854Y-91365291D01*
X154224500Y-91431254D01*
X154224500Y-92046504D01*
X154222021Y-92069801D01*
X154221923Y-92071886D01*
X154219731Y-92082066D01*
X154221440Y-92096506D01*
X154223627Y-92114984D01*
X154223971Y-92120821D01*
X154224072Y-92120813D01*
X154224500Y-92125992D01*
X154224500Y-92131193D01*
X154225354Y-92136321D01*
X154225354Y-92136327D01*
X154227628Y-92149987D01*
X154228465Y-92155863D01*
X154234424Y-92206210D01*
X154238346Y-92214377D01*
X154239833Y-92223313D01*
X154244777Y-92232475D01*
X154244778Y-92232479D01*
X154263906Y-92267929D01*
X154266602Y-92273220D01*
X154284985Y-92311503D01*
X154288537Y-92318900D01*
X154292094Y-92323131D01*
X154294026Y-92325063D01*
X154295745Y-92326937D01*
X154295819Y-92327074D01*
X154295709Y-92327174D01*
X154296132Y-92327654D01*
X154299194Y-92333329D01*
X154306841Y-92340398D01*
X154306842Y-92340399D01*
X154338353Y-92369527D01*
X154341920Y-92372957D01*
X154837596Y-92868634D01*
X154871621Y-92930946D01*
X154874500Y-92957729D01*
X154874500Y-121904000D01*
X154854498Y-121972121D01*
X154800842Y-122018614D01*
X154748500Y-122030000D01*
X153251500Y-122030000D01*
X153183379Y-122009998D01*
X153136886Y-121956342D01*
X153125500Y-121904000D01*
X153125500Y-92803497D01*
X153127979Y-92780209D01*
X153128078Y-92778111D01*
X153130269Y-92767934D01*
X153126373Y-92735016D01*
X153126029Y-92729179D01*
X153125928Y-92729187D01*
X153125500Y-92724008D01*
X153125500Y-92718807D01*
X153124646Y-92713671D01*
X153122372Y-92700013D01*
X153121535Y-92694137D01*
X153119030Y-92672970D01*
X153115576Y-92643790D01*
X153111654Y-92635623D01*
X153110167Y-92626687D01*
X153105223Y-92617524D01*
X153105222Y-92617521D01*
X153086094Y-92582071D01*
X153083398Y-92576780D01*
X153064897Y-92538251D01*
X153064896Y-92538250D01*
X153061463Y-92531100D01*
X153057906Y-92526869D01*
X153055974Y-92524937D01*
X153054255Y-92523063D01*
X153054181Y-92522926D01*
X153054291Y-92522826D01*
X153053868Y-92522346D01*
X153050806Y-92516671D01*
X153039490Y-92506210D01*
X153011633Y-92480460D01*
X153008067Y-92477030D01*
X152412405Y-91881368D01*
X152378379Y-91819056D01*
X152375500Y-91792273D01*
X152375500Y-91434511D01*
X152395502Y-91366390D01*
X152449158Y-91319897D01*
X152519432Y-91309793D01*
X152584012Y-91339287D01*
X152589405Y-91344241D01*
X152604466Y-91358913D01*
X152609270Y-91362123D01*
X152611501Y-91363614D01*
X152772637Y-91471282D01*
X152777940Y-91473560D01*
X152777943Y-91473562D01*
X152928989Y-91538456D01*
X152958470Y-91551122D01*
X153155740Y-91595760D01*
X153161509Y-91595987D01*
X153161512Y-91595987D01*
X153237683Y-91598979D01*
X153357842Y-91603700D01*
X153444132Y-91591189D01*
X153552286Y-91575508D01*
X153552291Y-91575507D01*
X153558007Y-91574678D01*
X153563479Y-91572820D01*
X153563481Y-91572820D01*
X153744067Y-91511519D01*
X153744069Y-91511518D01*
X153749531Y-91509664D01*
X153888517Y-91431829D01*
X153920964Y-91413658D01*
X153920965Y-91413657D01*
X153926001Y-91410837D01*
X153945588Y-91394547D01*
X154003236Y-91346601D01*
X154017930Y-91334380D01*
X154083094Y-91306199D01*
X154153150Y-91317722D01*
G37*
G04 #@! TD.AperFunction*
G04 #@! TA.AperFunction,Conductor*
G36*
X144980651Y-91355196D02*
G01*
X144984466Y-91358913D01*
X145152637Y-91471282D01*
X145157940Y-91473560D01*
X145157943Y-91473562D01*
X145308989Y-91538456D01*
X145338470Y-91551122D01*
X145535740Y-91595760D01*
X145541509Y-91595987D01*
X145541512Y-91595987D01*
X145617683Y-91598979D01*
X145737842Y-91603700D01*
X145824132Y-91591189D01*
X145932286Y-91575508D01*
X145932291Y-91575507D01*
X145938007Y-91574678D01*
X145943479Y-91572820D01*
X145943481Y-91572820D01*
X146124067Y-91511519D01*
X146124069Y-91511518D01*
X146129531Y-91509664D01*
X146268517Y-91431829D01*
X146300964Y-91413658D01*
X146300965Y-91413657D01*
X146306001Y-91410837D01*
X146310439Y-91407146D01*
X146310445Y-91407142D01*
X146317932Y-91400915D01*
X146383096Y-91372735D01*
X146453151Y-91384259D01*
X146505855Y-91431829D01*
X146524500Y-91497790D01*
X146524500Y-92346504D01*
X146522021Y-92369801D01*
X146521923Y-92371886D01*
X146519731Y-92382066D01*
X146522489Y-92405370D01*
X146523627Y-92414984D01*
X146523971Y-92420821D01*
X146524072Y-92420813D01*
X146524500Y-92425992D01*
X146524500Y-92431193D01*
X146525354Y-92436321D01*
X146525354Y-92436327D01*
X146527628Y-92449987D01*
X146528465Y-92455863D01*
X146534424Y-92506210D01*
X146538346Y-92514377D01*
X146539833Y-92523313D01*
X146544777Y-92532475D01*
X146544778Y-92532479D01*
X146563906Y-92567929D01*
X146566602Y-92573220D01*
X146569599Y-92579461D01*
X146588537Y-92618900D01*
X146592094Y-92623131D01*
X146594026Y-92625063D01*
X146595745Y-92626937D01*
X146595819Y-92627074D01*
X146595709Y-92627174D01*
X146596132Y-92627654D01*
X146599194Y-92633329D01*
X146606841Y-92640398D01*
X146606842Y-92640399D01*
X146638367Y-92669540D01*
X146641933Y-92672970D01*
X147337595Y-93368632D01*
X147371621Y-93430944D01*
X147374500Y-93457727D01*
X147374500Y-121904000D01*
X147354498Y-121972121D01*
X147300842Y-122018614D01*
X147248500Y-122030000D01*
X145751500Y-122030000D01*
X145683379Y-122009998D01*
X145636886Y-121956342D01*
X145625500Y-121904000D01*
X145625500Y-93303501D01*
X145627981Y-93280187D01*
X145628079Y-93278112D01*
X145630270Y-93267934D01*
X145626373Y-93235008D01*
X145626029Y-93229178D01*
X145625928Y-93229186D01*
X145625500Y-93224007D01*
X145625500Y-93218807D01*
X145624646Y-93213675D01*
X145624646Y-93213672D01*
X145622374Y-93200023D01*
X145621537Y-93194147D01*
X145619494Y-93176887D01*
X145615577Y-93143791D01*
X145611654Y-93135622D01*
X145610167Y-93126687D01*
X145598549Y-93105154D01*
X145586098Y-93082079D01*
X145583403Y-93076790D01*
X145564892Y-93038241D01*
X145564891Y-93038239D01*
X145561463Y-93031101D01*
X145557906Y-93026869D01*
X145555964Y-93024927D01*
X145554255Y-93023064D01*
X145554176Y-93022917D01*
X145554284Y-93022818D01*
X145553868Y-93022346D01*
X145550806Y-93016671D01*
X145539146Y-93005892D01*
X145511633Y-92980460D01*
X145508067Y-92977030D01*
X144812405Y-92281368D01*
X144778379Y-92219056D01*
X144775500Y-92192273D01*
X144775500Y-91453180D01*
X144795502Y-91385059D01*
X144849158Y-91338566D01*
X144919432Y-91328462D01*
X144980651Y-91355196D01*
G37*
G04 #@! TD.AperFunction*
G04 #@! TA.AperFunction,Conductor*
G36*
X143953150Y-91350991D02*
G01*
X144005854Y-91398559D01*
X144024500Y-91464522D01*
X144024500Y-92346504D01*
X144022021Y-92369801D01*
X144021923Y-92371886D01*
X144019731Y-92382066D01*
X144022489Y-92405370D01*
X144023627Y-92414984D01*
X144023971Y-92420821D01*
X144024072Y-92420813D01*
X144024500Y-92425992D01*
X144024500Y-92431193D01*
X144025354Y-92436321D01*
X144025354Y-92436327D01*
X144027628Y-92449987D01*
X144028465Y-92455863D01*
X144034424Y-92506210D01*
X144038346Y-92514377D01*
X144039833Y-92523313D01*
X144044777Y-92532475D01*
X144044778Y-92532479D01*
X144063906Y-92567929D01*
X144066602Y-92573220D01*
X144069599Y-92579461D01*
X144088537Y-92618900D01*
X144092094Y-92623131D01*
X144094026Y-92625063D01*
X144095745Y-92626937D01*
X144095819Y-92627074D01*
X144095709Y-92627174D01*
X144096132Y-92627654D01*
X144099194Y-92633329D01*
X144106841Y-92640398D01*
X144106842Y-92640399D01*
X144138367Y-92669540D01*
X144141933Y-92672970D01*
X144837595Y-93368632D01*
X144871621Y-93430944D01*
X144874500Y-93457727D01*
X144874500Y-121904000D01*
X144854498Y-121972121D01*
X144800842Y-122018614D01*
X144748500Y-122030000D01*
X143626500Y-122030000D01*
X143558379Y-122009998D01*
X143511886Y-121956342D01*
X143500500Y-121904000D01*
X143500500Y-91630176D01*
X143520502Y-91562055D01*
X143574158Y-91515562D01*
X143581775Y-91512539D01*
X143584066Y-91511519D01*
X143589531Y-91509664D01*
X143699841Y-91447888D01*
X143760964Y-91413658D01*
X143760965Y-91413657D01*
X143766001Y-91410837D01*
X143770439Y-91407146D01*
X143770445Y-91407142D01*
X143817931Y-91367648D01*
X143883095Y-91339467D01*
X143953150Y-91350991D01*
G37*
G04 #@! TD.AperFunction*
G04 #@! TA.AperFunction,Conductor*
G36*
X118553150Y-91350991D02*
G01*
X118605854Y-91398559D01*
X118624500Y-91464522D01*
X118624500Y-91946504D01*
X118622021Y-91969801D01*
X118621923Y-91971886D01*
X118619731Y-91982066D01*
X118622489Y-92005370D01*
X118623627Y-92014984D01*
X118623971Y-92020821D01*
X118624072Y-92020813D01*
X118624500Y-92025992D01*
X118624500Y-92031193D01*
X118625354Y-92036321D01*
X118625354Y-92036327D01*
X118627628Y-92049987D01*
X118628465Y-92055863D01*
X118634424Y-92106210D01*
X118638346Y-92114377D01*
X118639833Y-92123313D01*
X118644777Y-92132475D01*
X118644778Y-92132479D01*
X118663906Y-92167929D01*
X118666602Y-92173220D01*
X118684985Y-92211503D01*
X118688537Y-92218900D01*
X118692094Y-92223131D01*
X118694026Y-92225063D01*
X118695745Y-92226937D01*
X118695819Y-92227074D01*
X118695709Y-92227174D01*
X118696132Y-92227654D01*
X118699194Y-92233329D01*
X118706841Y-92240398D01*
X118706842Y-92240399D01*
X118738367Y-92269540D01*
X118741933Y-92272970D01*
X119837595Y-93368632D01*
X119871621Y-93430944D01*
X119874500Y-93457727D01*
X119874500Y-121904000D01*
X119854498Y-121972121D01*
X119800842Y-122018614D01*
X119748500Y-122030000D01*
X118251500Y-122030000D01*
X118183379Y-122009998D01*
X118136886Y-121956342D01*
X118125500Y-121904000D01*
X118125500Y-93038497D01*
X118127979Y-93015208D01*
X118128078Y-93013117D01*
X118130270Y-93002934D01*
X118126373Y-92970008D01*
X118126029Y-92964178D01*
X118125928Y-92964186D01*
X118125500Y-92959007D01*
X118125500Y-92953807D01*
X118124647Y-92948681D01*
X118124646Y-92948672D01*
X118122374Y-92935023D01*
X118121537Y-92929147D01*
X118119367Y-92910815D01*
X118115577Y-92878791D01*
X118111654Y-92870622D01*
X118110167Y-92861687D01*
X118086089Y-92817064D01*
X118083408Y-92811801D01*
X118064897Y-92773251D01*
X118064896Y-92773250D01*
X118061463Y-92766100D01*
X118057906Y-92761869D01*
X118055974Y-92759937D01*
X118054255Y-92758063D01*
X118054181Y-92757926D01*
X118054291Y-92757826D01*
X118053868Y-92757346D01*
X118050806Y-92751671D01*
X118011632Y-92715459D01*
X118008067Y-92712030D01*
X116896805Y-91600768D01*
X116862779Y-91538456D01*
X116859900Y-91511673D01*
X116859900Y-91471319D01*
X116879902Y-91403198D01*
X116933558Y-91356705D01*
X117003832Y-91346601D01*
X117055901Y-91366554D01*
X117212637Y-91471282D01*
X117217940Y-91473560D01*
X117217943Y-91473562D01*
X117368989Y-91538456D01*
X117398470Y-91551122D01*
X117595740Y-91595760D01*
X117601509Y-91595987D01*
X117601512Y-91595987D01*
X117677683Y-91598979D01*
X117797842Y-91603700D01*
X117884132Y-91591189D01*
X117992286Y-91575508D01*
X117992291Y-91575507D01*
X117998007Y-91574678D01*
X118003479Y-91572820D01*
X118003481Y-91572820D01*
X118184067Y-91511519D01*
X118184069Y-91511518D01*
X118189531Y-91509664D01*
X118328517Y-91431829D01*
X118360964Y-91413658D01*
X118360965Y-91413657D01*
X118366001Y-91410837D01*
X118370439Y-91407146D01*
X118370445Y-91407142D01*
X118417931Y-91367648D01*
X118483095Y-91339467D01*
X118553150Y-91350991D01*
G37*
G04 #@! TD.AperFunction*
G04 #@! TA.AperFunction,Conductor*
G36*
X114484012Y-91339287D02*
G01*
X114489405Y-91344241D01*
X114504466Y-91358913D01*
X114509270Y-91362123D01*
X114511501Y-91363614D01*
X114672637Y-91471282D01*
X114677940Y-91473560D01*
X114677943Y-91473562D01*
X114828989Y-91538456D01*
X114858470Y-91551122D01*
X115055740Y-91595760D01*
X115061509Y-91595987D01*
X115061512Y-91595987D01*
X115137683Y-91598979D01*
X115257842Y-91603700D01*
X115344132Y-91591189D01*
X115452286Y-91575508D01*
X115452291Y-91575507D01*
X115458007Y-91574678D01*
X115463479Y-91572820D01*
X115463481Y-91572820D01*
X115644067Y-91511519D01*
X115644069Y-91511518D01*
X115649531Y-91509664D01*
X115788517Y-91431829D01*
X115820964Y-91413658D01*
X115820965Y-91413657D01*
X115826001Y-91410837D01*
X115837931Y-91400915D01*
X115902331Y-91347355D01*
X115967495Y-91319174D01*
X116037550Y-91330698D01*
X116090254Y-91378267D01*
X116108900Y-91444229D01*
X116108900Y-91665904D01*
X116106421Y-91689201D01*
X116106323Y-91691286D01*
X116104131Y-91701466D01*
X116105355Y-91711805D01*
X116108027Y-91734384D01*
X116108371Y-91740222D01*
X116108472Y-91740214D01*
X116108900Y-91745394D01*
X116108900Y-91750593D01*
X116109753Y-91755718D01*
X116109754Y-91755729D01*
X116112028Y-91769390D01*
X116112865Y-91775265D01*
X116113670Y-91782066D01*
X116118824Y-91825610D01*
X116122746Y-91833777D01*
X116124233Y-91842713D01*
X116129177Y-91851875D01*
X116129178Y-91851879D01*
X116148306Y-91887329D01*
X116151002Y-91892620D01*
X116169503Y-91931149D01*
X116172937Y-91938300D01*
X116176494Y-91942531D01*
X116178426Y-91944463D01*
X116180145Y-91946337D01*
X116180219Y-91946474D01*
X116180109Y-91946574D01*
X116180532Y-91947054D01*
X116183594Y-91952729D01*
X116191241Y-91959798D01*
X116191242Y-91959799D01*
X116222767Y-91988940D01*
X116226333Y-91992370D01*
X117337595Y-93103633D01*
X117371621Y-93165945D01*
X117374500Y-93192728D01*
X117374500Y-121904000D01*
X117354498Y-121972121D01*
X117300842Y-122018614D01*
X117248500Y-122030000D01*
X115751500Y-122030000D01*
X115683379Y-122009998D01*
X115636886Y-121956342D01*
X115625500Y-121904000D01*
X115625500Y-93303496D01*
X115627979Y-93280208D01*
X115628078Y-93278110D01*
X115630269Y-93267933D01*
X115626373Y-93235015D01*
X115626029Y-93229179D01*
X115625928Y-93229187D01*
X115625500Y-93224008D01*
X115625500Y-93218807D01*
X115624646Y-93213673D01*
X115622447Y-93200465D01*
X115622371Y-93200007D01*
X115621534Y-93194130D01*
X115621368Y-93192728D01*
X115615576Y-93143790D01*
X115611654Y-93135623D01*
X115610167Y-93126687D01*
X115605223Y-93117524D01*
X115605222Y-93117521D01*
X115586094Y-93082071D01*
X115583398Y-93076780D01*
X115564897Y-93038251D01*
X115564896Y-93038250D01*
X115561463Y-93031100D01*
X115557906Y-93026869D01*
X115555974Y-93024937D01*
X115554255Y-93023063D01*
X115554181Y-93022926D01*
X115554291Y-93022826D01*
X115553868Y-93022346D01*
X115550806Y-93016671D01*
X115539146Y-93005892D01*
X115511633Y-92980460D01*
X115508067Y-92977030D01*
X114312405Y-91781368D01*
X114278379Y-91719056D01*
X114275500Y-91692273D01*
X114275500Y-91434511D01*
X114295502Y-91366390D01*
X114349158Y-91319897D01*
X114419432Y-91309793D01*
X114484012Y-91339287D01*
G37*
G04 #@! TD.AperFunction*
G04 #@! TA.AperFunction,Conductor*
G36*
X124671501Y-91363614D02*
G01*
X124832637Y-91471282D01*
X124837940Y-91473560D01*
X124837943Y-91473562D01*
X124988989Y-91538456D01*
X125018470Y-91551122D01*
X125215740Y-91595760D01*
X125221509Y-91595987D01*
X125221512Y-91595987D01*
X125297683Y-91598979D01*
X125417842Y-91603700D01*
X125504132Y-91591189D01*
X125612286Y-91575508D01*
X125612291Y-91575507D01*
X125618007Y-91574678D01*
X125623479Y-91572820D01*
X125623481Y-91572820D01*
X125804067Y-91511519D01*
X125804069Y-91511518D01*
X125809531Y-91509664D01*
X125948517Y-91431829D01*
X125980964Y-91413658D01*
X125980965Y-91413657D01*
X125986001Y-91410837D01*
X125997931Y-91400915D01*
X126017931Y-91384282D01*
X126083095Y-91356101D01*
X126153150Y-91367625D01*
X126205854Y-91415194D01*
X126224500Y-91481156D01*
X126224500Y-92096506D01*
X126222021Y-92119803D01*
X126221923Y-92121888D01*
X126219731Y-92132068D01*
X126220955Y-92142407D01*
X126223627Y-92164986D01*
X126223971Y-92170823D01*
X126224072Y-92170815D01*
X126224500Y-92175994D01*
X126224500Y-92181195D01*
X126225354Y-92186323D01*
X126225354Y-92186329D01*
X126227628Y-92199989D01*
X126228465Y-92205865D01*
X126234424Y-92256212D01*
X126238346Y-92264379D01*
X126239833Y-92273315D01*
X126244777Y-92282477D01*
X126244778Y-92282481D01*
X126263906Y-92317931D01*
X126266602Y-92323222D01*
X126268225Y-92326601D01*
X126288537Y-92368902D01*
X126292094Y-92373133D01*
X126294026Y-92375065D01*
X126295745Y-92376939D01*
X126295819Y-92377076D01*
X126295709Y-92377176D01*
X126296132Y-92377656D01*
X126299194Y-92383331D01*
X126306841Y-92390400D01*
X126306842Y-92390401D01*
X126338367Y-92419542D01*
X126341933Y-92422972D01*
X127337595Y-93418635D01*
X127371621Y-93480947D01*
X127374500Y-93507730D01*
X127374500Y-121904000D01*
X127354498Y-121972121D01*
X127300842Y-122018614D01*
X127248500Y-122030000D01*
X125751500Y-122030000D01*
X125683379Y-122009998D01*
X125636886Y-121956342D01*
X125625500Y-121904000D01*
X125625500Y-93303497D01*
X125627979Y-93280208D01*
X125628078Y-93278117D01*
X125630270Y-93267934D01*
X125626373Y-93235008D01*
X125626029Y-93229178D01*
X125625928Y-93229186D01*
X125625500Y-93224007D01*
X125625500Y-93218807D01*
X125624646Y-93213675D01*
X125624646Y-93213672D01*
X125622374Y-93200023D01*
X125621537Y-93194147D01*
X125619494Y-93176887D01*
X125615577Y-93143791D01*
X125611654Y-93135622D01*
X125610167Y-93126687D01*
X125598549Y-93105154D01*
X125586098Y-93082079D01*
X125583403Y-93076790D01*
X125564892Y-93038241D01*
X125564891Y-93038239D01*
X125561463Y-93031101D01*
X125557906Y-93026869D01*
X125555964Y-93024927D01*
X125554255Y-93023064D01*
X125554176Y-93022917D01*
X125554284Y-93022818D01*
X125553868Y-93022346D01*
X125550806Y-93016671D01*
X125539146Y-93005892D01*
X125511633Y-92980460D01*
X125508067Y-92977030D01*
X124512405Y-91981368D01*
X124478379Y-91919056D01*
X124475500Y-91892273D01*
X124475500Y-91468379D01*
X124495502Y-91400258D01*
X124549158Y-91353765D01*
X124619432Y-91343661D01*
X124671501Y-91363614D01*
G37*
G04 #@! TD.AperFunction*
M02*
