G04 #@! TF.GenerationSoftware,KiCad,Pcbnew,(6.0.6)*
G04 #@! TF.CreationDate,2022-06-25T19:15:55+02:00*
G04 #@! TF.ProjectId,brutzelkarte,62727574-7a65-46c6-9b61-7274652e6b69,rev?*
G04 #@! TF.SameCoordinates,Original*
G04 #@! TF.FileFunction,Legend,Bot*
G04 #@! TF.FilePolarity,Positive*
%FSLAX46Y46*%
G04 Gerber Fmt 4.6, Leading zero omitted, Abs format (unit mm)*
G04 Created by KiCad (PCBNEW (6.0.6)) date 2022-06-25 19:15:55*
%MOMM*%
%LPD*%
G01*
G04 APERTURE LIST*
%ADD10C,0.300000*%
G04 APERTURE END LIST*
D10*
X152642857Y-119678571D02*
X153357142Y-119678571D01*
X153428571Y-120392857D01*
X153357142Y-120321428D01*
X153214285Y-120250000D01*
X152857142Y-120250000D01*
X152714285Y-120321428D01*
X152642857Y-120392857D01*
X152571428Y-120535714D01*
X152571428Y-120892857D01*
X152642857Y-121035714D01*
X152714285Y-121107142D01*
X152857142Y-121178571D01*
X153214285Y-121178571D01*
X153357142Y-121107142D01*
X153428571Y-121035714D01*
X140785714Y-121178571D02*
X141642857Y-121178571D01*
X141214285Y-121178571D02*
X141214285Y-119678571D01*
X141357142Y-119892857D01*
X141500000Y-120035714D01*
X141642857Y-120107142D01*
X139857142Y-119678571D02*
X139714285Y-119678571D01*
X139571428Y-119750000D01*
X139500000Y-119821428D01*
X139428571Y-119964285D01*
X139357142Y-120250000D01*
X139357142Y-120607142D01*
X139428571Y-120892857D01*
X139500000Y-121035714D01*
X139571428Y-121107142D01*
X139714285Y-121178571D01*
X139857142Y-121178571D01*
X140000000Y-121107142D01*
X140071428Y-121035714D01*
X140142857Y-120892857D01*
X140214285Y-120607142D01*
X140214285Y-120250000D01*
X140142857Y-119964285D01*
X140071428Y-119821428D01*
X140000000Y-119750000D01*
X139857142Y-119678571D01*
X128285714Y-121178571D02*
X129142857Y-121178571D01*
X128714285Y-121178571D02*
X128714285Y-119678571D01*
X128857142Y-119892857D01*
X129000000Y-120035714D01*
X129142857Y-120107142D01*
X126928571Y-119678571D02*
X127642857Y-119678571D01*
X127714285Y-120392857D01*
X127642857Y-120321428D01*
X127500000Y-120250000D01*
X127142857Y-120250000D01*
X127000000Y-120321428D01*
X126928571Y-120392857D01*
X126857142Y-120535714D01*
X126857142Y-120892857D01*
X126928571Y-121035714D01*
X127000000Y-121107142D01*
X127142857Y-121178571D01*
X127500000Y-121178571D01*
X127642857Y-121107142D01*
X127714285Y-121035714D01*
X116642857Y-119821428D02*
X116571428Y-119750000D01*
X116428571Y-119678571D01*
X116071428Y-119678571D01*
X115928571Y-119750000D01*
X115857142Y-119821428D01*
X115785714Y-119964285D01*
X115785714Y-120107142D01*
X115857142Y-120321428D01*
X116714285Y-121178571D01*
X115785714Y-121178571D01*
X114857142Y-119678571D02*
X114714285Y-119678571D01*
X114571428Y-119750000D01*
X114500000Y-119821428D01*
X114428571Y-119964285D01*
X114357142Y-120250000D01*
X114357142Y-120607142D01*
X114428571Y-120892857D01*
X114500000Y-121035714D01*
X114571428Y-121107142D01*
X114714285Y-121178571D01*
X114857142Y-121178571D01*
X115000000Y-121107142D01*
X115071428Y-121035714D01*
X115142857Y-120892857D01*
X115214285Y-120607142D01*
X115214285Y-120250000D01*
X115142857Y-119964285D01*
X115071428Y-119821428D01*
X115000000Y-119750000D01*
X114857142Y-119678571D01*
X104142857Y-119821428D02*
X104071428Y-119750000D01*
X103928571Y-119678571D01*
X103571428Y-119678571D01*
X103428571Y-119750000D01*
X103357142Y-119821428D01*
X103285714Y-119964285D01*
X103285714Y-120107142D01*
X103357142Y-120321428D01*
X104214285Y-121178571D01*
X103285714Y-121178571D01*
X101928571Y-119678571D02*
X102642857Y-119678571D01*
X102714285Y-120392857D01*
X102642857Y-120321428D01*
X102500000Y-120250000D01*
X102142857Y-120250000D01*
X102000000Y-120321428D01*
X101928571Y-120392857D01*
X101857142Y-120535714D01*
X101857142Y-120892857D01*
X101928571Y-121035714D01*
X102000000Y-121107142D01*
X102142857Y-121178571D01*
X102500000Y-121178571D01*
X102642857Y-121107142D01*
X102714285Y-121035714D01*
X162071428Y-121178571D02*
X162928571Y-121178571D01*
X162500000Y-121178571D02*
X162500000Y-119678571D01*
X162642857Y-119892857D01*
X162785714Y-120035714D01*
X162928571Y-120107142D01*
X171714285Y-115857142D02*
X172380952Y-115857142D01*
X172380952Y-116904761D02*
X172380952Y-114904761D01*
X171428571Y-114904761D01*
X170666666Y-116904761D02*
X170666666Y-115571428D01*
X170666666Y-115952380D02*
X170571428Y-115761904D01*
X170476190Y-115666666D01*
X170285714Y-115571428D01*
X170095238Y-115571428D01*
X169142857Y-116904761D02*
X169333333Y-116809523D01*
X169428571Y-116714285D01*
X169523809Y-116523809D01*
X169523809Y-115952380D01*
X169428571Y-115761904D01*
X169333333Y-115666666D01*
X169142857Y-115571428D01*
X168857142Y-115571428D01*
X168666666Y-115666666D01*
X168571428Y-115761904D01*
X168476190Y-115952380D01*
X168476190Y-116523809D01*
X168571428Y-116714285D01*
X168666666Y-116809523D01*
X168857142Y-116904761D01*
X169142857Y-116904761D01*
X167619047Y-115571428D02*
X167619047Y-116904761D01*
X167619047Y-115761904D02*
X167523809Y-115666666D01*
X167333333Y-115571428D01*
X167047619Y-115571428D01*
X166857142Y-115666666D01*
X166761904Y-115857142D01*
X166761904Y-116904761D01*
X166095238Y-115571428D02*
X165333333Y-115571428D01*
X165809523Y-114904761D02*
X165809523Y-116619047D01*
X165714285Y-116809523D01*
X165523809Y-116904761D01*
X165333333Y-116904761D01*
M02*
